<svg width="783" height="522" viewBox="0 0 783 522" fill="none" xmlns="http://www.w3.org/2000/svg">
<path d="M244.296 465.415C338.987 489.218 493.708 491.828 598.108 441.821C694.573 395.676 714.409 225.921 648.22 129.56C601.135 61.1782 511.038 33.8254 424.595 43.5346C322.596 55.0186 295.556 125.489 227.905 176.227C185.832 207.756 99.8064 200.03 83.52 292.007C65.0412 396.824 178.942 449.024 244.296 465.415Z" fill="#6BB1FC" fill-opacity="0.24"/>
<path d="M575.453 462.909C587.563 252.23 679.226 226.339 693.634 244.087C723.805 281.149 619.092 397.346 575.453 462.909Z" fill="#6BB1FC"/>
<path d="M683.716 252.334C632.455 312.155 595.811 384.4 578.063 461.134L683.716 252.334Z" fill="#6BB1FC"/>
<path d="M683.716 252.334C632.455 312.155 595.811 384.4 578.063 461.134" stroke="white" stroke-miterlimit="10" stroke-linecap="round"/>
<path d="M656.676 254.108C659.599 262.878 661.27 272.17 661.478 281.461C671.292 279.373 681.314 278.225 691.232 278.12" fill="#6BB1FC"/>
<path d="M656.676 254.108C659.599 262.878 661.27 272.17 661.478 281.461C671.292 279.373 681.314 278.225 691.232 278.12" stroke="white" stroke-miterlimit="10" stroke-linecap="round"/>
<path d="M621.389 290.648C627.131 300.671 631.411 311.528 633.917 322.804C645.609 320.298 657.511 319.15 669.413 319.15" fill="#6BB1FC"/>
<path d="M621.389 290.648C627.131 300.671 631.411 311.528 633.917 322.804C645.609 320.298 657.511 319.15 669.413 319.15" stroke="white" stroke-miterlimit="10" stroke-linecap="round"/>
<path d="M597.064 343.58C601.866 351.097 606.042 359.031 609.383 367.279C620.658 362.685 632.873 360.493 644.983 360.91" fill="#6BB1FC"/>
<path d="M597.064 343.58C601.866 351.097 606.042 359.031 609.383 367.279C620.658 362.685 632.873 360.493 644.983 360.91" stroke="white" stroke-miterlimit="10" stroke-linecap="round"/>
<path d="M620.032 394.422C612.619 393.9 605.207 394.422 597.899 396.092C596.02 390.142 593.305 384.4 589.964 379.18" fill="#6BB1FC"/>
<path d="M620.032 394.422C612.619 393.9 605.207 394.422 597.899 396.092C596.02 390.142 593.305 384.4 589.964 379.18" stroke="white" stroke-miterlimit="10" stroke-linecap="round"/>
<path d="M575.453 462.909C642.791 355.691 728.712 320.403 732.679 359.136C738.108 412.693 622.015 447.771 575.453 462.909Z" fill="#6BB1FC"/>
<path d="M722.03 362.79C668.995 388.055 619.927 421.672 577.228 461.97L722.03 362.79Z" fill="#6BB1FC"/>
<path d="M722.03 362.79C668.995 388.055 619.927 421.672 577.228 461.97" stroke="white" stroke-miterlimit="10" stroke-linecap="round"/>
<path d="M702.925 351.619C703.134 359.136 702.403 366.653 700.837 373.856C708.25 374.587 715.349 377.51 721.091 382.104" fill="#6BB1FC"/>
<path d="M702.925 351.619C703.134 359.136 702.403 366.653 700.837 373.856C708.25 374.587 715.349 377.51 721.091 382.104" stroke="white" stroke-miterlimit="10" stroke-linecap="round"/>
<path d="M667.116 368.219C668.473 376.049 669.1 384.088 668.786 392.126C678.704 393.066 688.414 396.511 696.766 402.044" fill="#6BB1FC"/>
<path d="M667.116 368.219C668.473 376.049 669.1 384.088 668.786 392.126C678.704 393.066 688.414 396.511 696.766 402.044" stroke="white" stroke-miterlimit="10" stroke-linecap="round"/>
<path d="M633.082 392.962C635.796 399.122 637.153 405.908 636.84 412.694C646.027 413.424 655.11 416.348 662.94 421.15" fill="#6BB1FC"/>
<path d="M633.082 392.962C635.796 399.122 637.153 405.908 636.84 412.694C646.027 413.424 655.11 416.348 662.94 421.15" stroke="white" stroke-miterlimit="10" stroke-linecap="round"/>
<path d="M606.668 294.616H457.376V310.276H606.668V294.616Z" fill="#F2CDBF"/>
<path d="M602.284 310.276V462.909H589.025V454.557H474.916V462.909H461.761V310.276H602.284Z" fill="#F2CDBF"/>
<path d="M602.284 310.276H461.761V313.408H602.284V310.276Z" fill="#D4A59B"/>
<path d="M587.772 323.952H475.855V357.882H587.772V323.952Z" fill="#D4A59B"/>
<path d="M588.92 320.82H474.707V354.75H588.92V320.82Z" fill="#FADED2"/>
<path d="M587.772 366.756H475.855V400.686H587.772V366.756Z" fill="#D4A59B"/>
<path d="M588.92 363.624H474.707V397.554H588.92V363.624Z" fill="#FADED2"/>
<path d="M587.772 409.561H475.855V443.491H587.772V409.561Z" fill="#D4A59B"/>
<path d="M588.92 406.429H474.707V440.359H588.92V406.429Z" fill="#FADED2"/>
<path d="M494.021 286.996V263.192H500.494V286.996C500.494 288.562 499.241 289.919 497.57 289.919H496.735C495.274 289.814 494.021 288.562 494.021 286.996Z" fill="white"/>
<path d="M492.872 262.461C492.872 262.044 493.186 261.73 493.603 261.73H501.016C501.433 261.73 501.746 262.044 501.746 262.461C501.746 262.879 501.433 263.192 501.016 263.192H493.603C493.186 263.192 492.872 262.879 492.872 262.461Z" fill="white"/>
<path d="M495.065 286.578V271.022H499.45V286.578C499.45 287.831 498.405 288.77 497.257 288.77C496.004 288.77 495.065 287.831 495.065 286.578Z" fill="#F0D3D8"/>
<path d="M507.071 286.996V263.192H513.544V286.996C513.544 288.562 512.291 289.919 510.62 289.919H509.785C508.324 289.814 507.071 288.562 507.071 286.996Z" fill="white"/>
<path d="M505.922 262.461C505.922 262.044 506.236 261.73 506.653 261.73H514.066C514.483 261.73 514.796 262.044 514.796 262.461C514.796 262.879 514.483 263.192 514.066 263.192H506.653C506.236 263.192 505.922 262.879 505.922 262.461Z" fill="white"/>
<path d="M508.115 286.578V271.022H512.5V286.578C512.5 287.831 511.456 288.77 510.307 288.77C509.054 288.77 508.115 287.831 508.115 286.578Z" fill="#F0D3D8"/>
<path d="M520.852 286.996V263.192H527.324V286.996C527.324 288.562 526.072 289.919 524.401 289.919H523.566C522.209 289.814 520.852 288.562 520.852 286.996Z" fill="white"/>
<path d="M519.703 262.461C519.703 262.044 520.016 261.73 520.434 261.73H527.846C528.264 261.73 528.577 262.044 528.577 262.461C528.577 262.879 528.264 263.192 527.846 263.192H520.434C520.016 263.192 519.703 262.879 519.703 262.461Z" fill="white"/>
<path d="M521.896 286.578V271.022H526.28V286.578C526.28 287.831 525.236 288.77 524.088 288.77C522.939 288.77 521.896 287.831 521.896 286.578Z" fill="#F0D3D8"/>
<path d="M534.946 286.996V263.192H541.418V286.996C541.418 288.562 540.166 289.919 538.495 289.919H537.66C536.303 289.814 534.946 288.562 534.946 286.996Z" fill="white"/>
<path d="M533.797 262.461C533.797 262.044 534.11 261.73 534.528 261.73H541.94C542.358 261.73 542.671 262.044 542.671 262.461C542.671 262.879 542.358 263.192 541.94 263.192H534.528C534.11 263.192 533.797 262.879 533.797 262.461Z" fill="white"/>
<path d="M535.99 286.578V271.022H540.374V286.578C540.374 287.831 539.33 288.77 538.182 288.77C537.033 288.77 535.99 287.831 535.99 286.578Z" fill="#F0D3D8"/>
<path d="M550.084 286.996V263.192H556.556V286.996C556.556 288.562 555.304 289.919 553.633 289.919H552.798C551.441 289.814 550.084 288.562 550.084 286.996Z" fill="white"/>
<path d="M548.935 262.461C548.935 262.044 549.248 261.73 549.666 261.73H557.078C557.496 261.73 557.809 262.044 557.809 262.461C557.809 262.879 557.496 263.192 557.078 263.192H549.666C549.248 263.192 548.935 262.879 548.935 262.461Z" fill="white"/>
<path d="M551.128 286.578V271.022H555.512V286.578C555.512 287.831 554.468 288.77 553.32 288.77C552.172 288.77 551.128 287.831 551.128 286.578Z" fill="#F0D3D8"/>
<path d="M567.936 264.549H487.548V266.637H567.936V264.549Z" fill="#A7C2D9"/>
<path d="M573.156 289.396H483.372V294.616H573.156V289.396Z" fill="#D49BA0"/>
<path d="M489.218 261.73H486.922V292.006H489.218V261.73Z" fill="#D49BA0"/>
<path d="M568.876 261.73H566.579V292.006H568.876V261.73Z" fill="#D49BA0"/>
<path d="M159.001 369.262C177.898 345.564 187.189 314.452 184.266 284.281C181.343 254.109 166.309 225.399 142.297 205.354C142.61 227.696 141.775 250.038 139.583 272.275C137.495 293.364 134.258 314.974 139.374 335.646C142.297 347.86 148.144 359.449 159.001 369.262Z" fill="#6BB1FC"/>
<path d="M157.226 396.302C157.226 321.656 177.062 297.54 148.039 218.718" stroke="white" stroke-miterlimit="10" stroke-linecap="round"/>
<path d="M161.82 231.663C159.836 235.943 157.748 240.328 155.765 244.609C152.111 242.834 148.248 241.79 144.176 241.477" stroke="white" stroke-miterlimit="10" stroke-linecap="round"/>
<path d="M141.671 276.66C149.292 276.973 156.809 279.061 163.49 282.61C167.98 277.077 173.304 272.275 179.15 268.308" stroke="white" stroke-miterlimit="10" stroke-linecap="round"/>
<path d="M140.731 312.887C148.352 312.26 156.182 314.244 162.655 318.524C168.919 311.947 176.018 306.205 183.848 301.611" stroke="white" stroke-miterlimit="10" stroke-linecap="round"/>
<path d="M144.176 342.64C149.918 343.267 155.347 345.981 159.314 350.157C163.49 344.519 168.502 339.508 174.244 335.437" stroke="white" stroke-miterlimit="10" stroke-linecap="round"/>
<path d="M172.678 366.966C172.678 366.966 156.6 331.783 177.167 293.26C188.546 271.962 213.185 246.071 243.774 224.46C243.774 224.46 229.158 303.908 210.992 337.108C197.107 362.79 172.678 366.966 172.678 366.966Z" fill="#6BB1FC"/>
<path d="M232.708 239.911C201.074 290.754 178.524 346.295 160.567 403.402L232.708 239.911Z" fill="#6BB1FC"/>
<path d="M232.708 239.911C201.074 290.754 178.524 346.295 160.567 403.402" stroke="white" stroke-miterlimit="10" stroke-linecap="round"/>
<path d="M212.558 252.544C214.438 256.929 216.004 261.522 217.152 266.22C222.476 265.176 228.01 264.55 233.438 264.132" fill="#6BB1FC"/>
<path d="M212.558 252.544C214.438 256.929 216.004 261.522 217.152 266.22C222.476 265.176 228.01 264.55 233.438 264.132" stroke="white" stroke-miterlimit="10" stroke-linecap="round"/>
<path d="M187.398 284.386C191.887 290.65 195.437 297.54 198.047 304.848C206.399 300.777 215.482 298.062 224.669 296.809" fill="#6BB1FC"/>
<path d="M187.398 284.386C191.887 290.65 195.437 297.54 198.047 304.848C206.399 300.777 215.482 298.062 224.669 296.809" stroke="white" stroke-miterlimit="10" stroke-linecap="round"/>
<path d="M172.573 311.425C178.002 318.42 182.178 326.354 184.684 334.81C194.08 330.843 203.998 327.816 214.02 325.936" fill="#6BB1FC"/>
<path d="M172.573 311.425C178.002 318.42 182.178 326.354 184.684 334.81C194.08 330.843 203.998 327.816 214.02 325.936" stroke="white" stroke-miterlimit="10" stroke-linecap="round"/>
<path d="M168.606 343.894C171.738 347.443 174.661 351.097 177.376 354.856C184.266 352.037 191.574 349.949 199.091 348.8" fill="#6BB1FC"/>
<path d="M168.606 343.894C171.738 347.443 174.661 351.097 177.376 354.856C184.266 352.037 191.574 349.949 199.091 348.8" stroke="white" stroke-miterlimit="10" stroke-linecap="round"/>
<path d="M142.297 374.065C142.297 374.065 156.287 354.333 145.951 319.986C131.857 273.006 73.08 239.702 73.08 239.702C73.08 239.702 88.8443 303.908 101.164 335.959C113.587 368.427 142.297 374.065 142.297 374.065Z" fill="#6BB1FC"/>
<path d="M145.951 391.291C145.951 391.291 137.912 326.668 80.8055 248.785L145.951 391.291Z" fill="#6BB1FC"/>
<path d="M145.951 391.291C145.951 391.291 137.912 326.668 80.8055 248.785" stroke="white" stroke-miterlimit="10" stroke-linecap="round"/>
<path d="M101.581 262.462C99.9107 266.325 98.7623 270.501 98.2403 274.677C94.2731 273.528 90.0971 273.006 85.9211 273.006" fill="#6BB1FC"/>
<path d="M101.581 262.462C99.9107 266.325 98.7623 270.501 98.2403 274.677C94.2731 273.528 90.0971 273.006 85.9211 273.006" stroke="white" stroke-miterlimit="10" stroke-linecap="round"/>
<path d="M94.0643 305.892C101.894 304.744 109.933 305.266 117.45 307.562C118.912 300.568 122.148 293.99 126.846 288.562" fill="#6BB1FC"/>
<path d="M94.0643 305.892C101.894 304.744 109.933 305.266 117.45 307.562C118.912 300.568 122.148 293.99 126.846 288.562" stroke="white" stroke-miterlimit="10" stroke-linecap="round"/>
<path d="M143.863 319.359C138.539 325.206 134.363 332.096 131.648 339.404C124.236 336.168 115.78 335.646 108.054 337.943" fill="#6BB1FC"/>
<path d="M143.863 319.359C138.539 325.206 134.363 332.096 131.648 339.404C124.236 336.168 115.78 335.646 108.054 337.943" stroke="white" stroke-miterlimit="10" stroke-linecap="round"/>
<path d="M124.654 363.729C129.769 362.79 134.989 362.685 140.105 363.521C141.88 359.449 144.385 355.691 147.622 352.559" fill="#6BB1FC"/>
<path d="M124.654 363.729C129.769 362.79 134.989 362.685 140.105 363.521C141.88 359.449 144.385 355.691 147.622 352.559" stroke="white" stroke-miterlimit="10" stroke-linecap="round"/>
<path d="M195.959 379.494L193.766 391.918L191.365 405.594L190.008 412.798L187.607 426.474L181.238 462.91H134.258L127.681 426.474L125.176 412.798L123.923 405.594L121.522 391.918L119.225 379.494H195.959Z" fill="#6BB1FC"/>
<path d="M193.766 391.918L191.365 405.594H123.923L121.521 391.918H193.766Z" fill="white"/>
<path d="M190.008 412.798L187.607 426.474H127.681L125.176 412.798H190.008Z" fill="white"/>
<path d="M281.462 443.805H204.52V450.904H281.462V443.805Z" fill="#326894"/>
<path d="M217.674 377.615C217.674 377.824 217.674 378.033 217.674 378.137L216.526 387.951L205.877 475.751C205.564 478.152 203.476 479.823 201.179 479.509C199.091 479.196 197.525 477.421 197.525 475.229C197.525 475.02 197.525 474.811 197.525 474.707L208.069 387.951L209.426 376.989C209.74 374.692 211.828 372.917 214.124 373.23C216.108 373.648 217.674 375.423 217.674 377.615Z" fill="#4D8AB3"/>
<path d="M217.674 377.615C217.674 377.824 217.674 378.033 217.674 378.137L216.526 387.951H208.069L209.426 376.989C209.74 374.692 211.828 372.917 214.124 373.23C216.108 373.648 217.674 375.423 217.674 377.615Z" fill="#326894"/>
<path d="M248.159 376.884V475.333C248.159 477.734 246.28 479.614 243.983 479.614C242.834 479.614 241.79 479.092 241.06 478.361C240.329 477.63 239.807 476.481 239.807 475.333V376.884C239.807 374.483 241.686 372.604 243.983 372.604C245.131 372.604 246.175 373.126 246.906 373.856C247.637 374.587 248.159 375.631 248.159 376.884Z" fill="#4D8AB3"/>
<path d="M246.906 373.856C247.637 374.587 248.159 375.736 248.159 376.884V388.055H239.807V376.884C239.807 374.483 241.686 372.604 243.983 372.604C245.131 372.604 246.175 373.021 246.906 373.856Z" fill="#326894"/>
<path d="M290.232 475.229C290.232 477.421 288.666 479.196 286.578 479.509C284.281 479.823 282.193 478.152 281.88 475.751L271.231 387.951L270.083 378.137C270.083 377.928 270.083 377.719 270.083 377.615C270.083 375.527 271.649 373.648 273.737 373.335C276.034 373.021 278.122 374.692 278.435 377.093L279.792 387.951L290.336 474.707C290.232 474.916 290.232 475.125 290.232 475.229Z" fill="#4D8AB3"/>
<path d="M279.688 387.951H271.231L270.083 378.137C270.083 377.928 270.083 377.719 270.083 377.615C270.083 375.527 271.649 373.648 273.737 373.335C276.034 373.021 278.122 374.692 278.435 377.093L279.688 387.951Z" fill="#326894"/>
<path d="M297.853 365.713V368.532C297.853 373.439 293.886 377.301 288.979 377.301H210.053C205.146 377.301 201.179 373.334 201.179 368.532V365.713C201.179 360.806 205.146 356.943 210.053 356.943H288.979C293.886 356.943 297.853 360.911 297.853 365.713Z" fill="#994403"/>
<path d="M297.853 365.713V368.532C297.853 373.439 293.886 377.301 288.979 377.301H217.256C212.35 377.301 208.382 373.334 208.382 368.532V365.713C208.382 360.806 212.35 356.943 217.256 356.943H288.979C293.886 356.943 297.853 360.911 297.853 365.713Z" fill="#852E03"/>
<path d="M215.377 189.903C214.333 191.887 213.394 193.975 212.454 195.958C211.828 199.403 212.245 203.057 212.454 206.607C212.663 210.157 212.872 213.706 211.827 217.151C210.888 220.597 208.487 223.729 205.146 225.086C202.954 225.921 200.344 226.025 198.569 227.591C196.585 229.471 196.794 232.498 197.525 235.004C198.151 237.092 199.091 239.284 200.761 240.746C202.431 242.207 205.146 243.147 207.025 242.103C208.8 241.059 211.306 241.79 212.558 243.46C213.916 245.026 214.542 247.114 215.795 248.785C217.674 251.081 220.701 252.334 223.729 252.334C226.757 252.439 229.993 252.021 231.977 250.768C236.257 248.054 241.686 246.279 246.071 248.785C248.368 250.142 250.247 252.23 252.752 253.169C254.945 254.005 257.346 253.796 259.434 252.752C261.418 251.708 262.253 249.411 263.506 247.636C265.802 244.4 271.44 247.01 275.303 245.966C279.479 244.817 282.298 240.224 281.254 236.152C280.314 232.081 275.72 230.619 271.753 229.993C268.934 229.575 267.89 226.025 267.16 223.415C266.533 220.805 266.638 217.987 266.742 215.272C266.951 209.739 269.456 196.898 267.89 195.123C267.055 194.183 263.923 191.887 262.775 191.365C257.555 188.963 252.335 186.562 247.01 184.161C242.208 181.969 237.197 179.776 231.977 179.881C226.757 180.194 219.135 182.282 215.377 189.903Z" fill="#732D02"/>
<path d="M233.543 239.702C233.543 239.702 210.262 243.356 207.86 251.604C205.355 259.851 219.553 317.48 219.553 317.48L271.858 314.244C271.858 314.244 275.616 247.845 267.368 243.669C258.912 239.493 233.543 239.702 233.543 239.702Z" fill="#EBF5FF"/>
<path d="M253.796 241.894C253.796 241.894 250.455 253.483 244.296 255.988C238.136 258.494 224.669 243.147 224.669 243.147C227.383 241.477 228.427 237.301 228.74 233.542C229.053 229.68 228.74 226.234 228.74 226.234L247.428 229.784C246.906 235.526 248.681 238.554 250.455 240.224C252.021 241.79 253.796 241.894 253.796 241.894Z" fill="#FBBD9A"/>
<path d="M250.351 240.224C241.477 241.372 233.438 236.988 228.74 233.542C229.053 229.68 228.74 226.234 228.74 226.234L247.428 229.784C246.906 235.526 248.576 238.658 250.351 240.224Z" fill="#F0997F"/>
<path d="M304.43 458.628C302.447 461.969 267.473 440.462 267.473 436.704C267.473 434.303 272.066 430.753 275.198 428.665C276.869 427.517 278.226 426.786 278.226 426.786L286.369 423.027L290.023 425.011C295.347 434.198 300.463 443.803 303.073 450.589C304.535 454.452 305.161 457.375 304.43 458.628Z" fill="#D43226"/>
<path d="M303.073 450.485C293.051 450.902 279.792 434.72 275.198 428.665C276.869 427.517 278.226 426.786 278.226 426.786L286.369 423.027L290.023 425.011C295.347 434.198 300.463 443.803 303.073 450.485Z" fill="#F0997F"/>
<path d="M268.412 319.149C268.412 319.149 332.096 327.188 334.184 343.475C336.377 359.761 294.303 431.693 294.303 431.693L279.165 427.725L298.897 363.415L248.159 341.909L258.285 319.045H268.412V319.149Z" fill="#002A42"/>
<path d="M288.979 460.508C286.995 463.848 252.021 442.342 252.021 438.584C252.021 436.182 256.615 432.633 259.747 430.545C261.417 429.396 262.775 428.666 262.775 428.666L270.918 424.907L274.572 426.891C279.896 436.078 285.012 445.787 287.622 452.469C289.083 456.332 289.71 459.255 288.979 460.508Z" fill="#EB4A2A"/>
<path d="M287.622 452.364C277.599 452.782 264.341 436.6 259.747 430.545C261.417 429.396 262.775 428.666 262.775 428.666L270.918 424.907L274.572 426.891C279.896 436.078 285.012 445.683 287.622 452.364Z" fill="#FBBD9A"/>
<path d="M214.751 313.721C214.751 313.721 192.722 357.36 231.455 362.058C259.643 365.503 278.33 364.773 278.957 366.339C279.896 368.844 260.582 429.814 260.582 429.814L279.583 435.869C279.583 435.869 318.942 351.305 316.749 343.997C314.975 337.942 260.687 328.755 260.687 328.755C265.28 326.562 268.621 318.628 268.099 308.501L214.751 313.721Z" fill="#06384F"/>
<path d="M220.91 309.963C220.91 309.963 208.278 337.838 218.405 349.113C230.306 362.476 282.506 358.091 286.16 362.894C289.083 366.652 266.011 428.248 266.011 428.248" stroke="#27788F" stroke-miterlimit="10" stroke-linecap="round"/>
<path d="M262.148 427.204L280.523 432.842" stroke="#27788F" stroke-miterlimit="10" stroke-linecap="round"/>
<path d="M262.775 206.189C267.264 205.667 271.231 207.964 271.544 211.201C271.962 214.437 268.621 217.569 264.132 218.091C259.643 218.613 255.676 216.316 255.362 213.08C254.945 209.739 258.286 206.607 262.775 206.189Z" fill="#F0997F"/>
<path d="M218.3 205.877C218.3 190.425 228.114 177.897 241.373 177.897C254.632 177.897 265.28 190.425 265.28 205.877C265.28 221.328 258.494 234.691 246.071 235.213C233.543 235.631 218.3 221.328 218.3 205.877Z" fill="#FBBD9A"/>
<path d="M219.658 209.427C226.339 206.399 231.768 200.866 234.274 194.08C237.719 197.943 242.73 200.135 247.846 201.075C252.961 202.014 258.181 201.806 262.984 201.701C264.55 203.058 265.698 204.938 266.011 207.026C266.533 202.432 266.116 197.734 264.55 193.349C251.395 189.382 238.345 185.102 225.295 180.612C223.416 189.904 221.432 199.091 219.658 209.427Z" fill="#F0997F"/>
<path d="M231.977 187.084C234.796 192.409 240.329 195.958 246.071 197.837C251.813 199.717 257.972 199.925 264.028 200.134C264.967 203.475 265.176 207.442 265.176 210.887C267.264 205.981 268.412 201.805 268.517 197.733C268.517 196.585 268.517 195.332 268.517 194.079C268.204 185.518 264.654 180.716 259.956 177.062C255.258 173.408 249.412 171.842 243.461 171.842C237.614 171.842 233.856 173.199 231.559 175.496C230.724 176.331 230.202 177.271 229.68 178.315C228.845 180.716 229.889 183.117 231.977 187.084Z" fill="#8C4206"/>
<path d="M212.35 211.305C212.141 203.788 211.723 190.738 214.751 184.579C216.734 180.507 220.493 177.166 224.982 176.54C229.471 175.914 234.378 178.732 235.422 183.117C233.438 193.244 228.323 202.64 221.119 209.948C218.614 211.201 214.855 212.036 212.35 211.305Z" fill="#8C4206"/>
<path d="M231.664 175.6C240.329 173.303 250.038 175.287 257.137 180.716C262.67 184.892 266.638 191.051 268.621 197.733C268.621 196.585 268.621 195.332 268.621 194.079C268.308 185.518 264.758 180.716 260.06 177.062C255.362 173.408 249.516 171.842 243.565 171.842C237.614 171.946 233.856 173.303 231.664 175.6Z" fill="#A66317"/>
<path d="M225.375 215.622C226.19 212.438 223.319 208.952 218.962 207.837C214.605 206.722 210.412 208.399 209.597 211.583C208.782 214.767 211.653 218.252 216.01 219.367C220.367 220.483 224.56 218.806 225.375 215.622Z" fill="#FBBD9A"/>
<path d="M242.312 215.585C243.004 215.585 243.565 214.697 243.565 213.602C243.565 212.506 243.004 211.618 242.312 211.618C241.62 211.618 241.06 212.506 241.06 213.602C241.06 214.697 241.62 215.585 242.312 215.585Z" fill="#2F344D"/>
<path d="M259.538 215.585C260.23 215.585 260.791 214.697 260.791 213.602C260.791 212.506 260.23 211.618 259.538 211.618C258.846 211.618 258.286 212.506 258.286 213.602C258.286 214.697 258.846 215.585 259.538 215.585Z" fill="#2F344D"/>
<path d="M255.884 204.414C257.972 203.683 261 203.892 263.088 205.249" stroke="#8C4206" stroke-width="2" stroke-miterlimit="10" stroke-linecap="round"/>
<path d="M243.356 204.101C241.06 203.057 236.779 203.266 234.796 205.563" stroke="#8C4206" stroke-width="2" stroke-miterlimit="10" stroke-linecap="round"/>
<path d="M251.082 212.349C251.604 214.437 251.186 217.047 250.56 218.717" stroke="#D45E4E" stroke-width="2" stroke-miterlimit="10" stroke-linecap="round"/>
<path d="M249.62 224.877C246.906 225.399 241.895 223.833 240.537 221.536" stroke="#D45E4E" stroke-width="2" stroke-miterlimit="10" stroke-linecap="round"/>
<path d="M259.538 248.993L268.83 243.355C268.83 243.355 276.66 243.982 281.984 253.795C287.309 263.505 297.227 294.929 300.359 296.391C303.491 297.748 341.806 298.27 341.806 298.27L342.328 309.545C342.328 309.545 295.452 316.957 289.814 313.93C284.177 310.798 266.116 274.571 266.116 274.571L259.538 248.993Z" fill="#FBBD9A"/>
<path d="M259.016 247.741L260.791 241.477C260.791 241.477 271.127 241.894 276.347 246.07C281.567 250.246 285.952 261.417 285.952 261.417L272.484 282.923L259.016 247.741Z" fill="#DE3B26"/>
<path d="M274.885 291.067C274.885 291.067 289.292 278.643 291.485 275.511C292.529 273.945 300.359 292.006 299.002 294.303C296.914 297.853 283.759 306.309 283.028 305.787C282.298 305.265 274.885 291.067 274.885 291.067Z" fill="#163649"/>
<path d="M271.127 279.791C275.407 272.901 279.792 266.011 284.072 259.12C284.281 258.703 284.594 258.389 284.908 258.076C285.952 257.345 287.518 258.285 288.04 259.433C288.457 260.686 288.144 262.043 287.831 263.296C289.188 263.087 290.441 264.445 290.65 265.802C290.858 267.159 290.232 268.621 289.606 269.769C285.638 277.39 278.852 283.445 270.918 286.682C270.5 284.385 269.77 281.775 271.127 279.791Z" fill="#B82621"/>
<path d="M335.959 300.045C341.284 296.286 351.724 288.769 352.454 288.456C353.394 288.039 359.658 288.039 363.103 289.083C366.548 290.127 369.785 292.528 370.933 295.869C371.246 296.808 371.351 298.061 370.516 298.583C369.994 299.001 369.263 298.792 368.636 298.479C368.01 298.165 367.697 297.643 367.175 297.121C364.878 294.616 362.79 293.676 359.032 293.467C363.521 294.198 366.34 296.913 367.697 301.297C367.906 302.133 368.114 303.281 367.384 303.803C366.862 304.221 366.026 304.116 365.4 303.699C364.774 303.281 364.356 302.759 363.938 302.133C362.268 300.045 360.076 298.374 357.674 297.435C361.12 298.896 363.625 302.237 364.147 305.891C364.252 306.413 364.252 307.039 364.043 307.561C363.834 308.083 363.312 308.501 362.79 308.397C362.372 308.292 362.059 307.979 361.746 307.666C359.867 305.578 358.405 303.385 355.9 301.819C358.196 304.847 360.076 309.754 359.554 311.007C359.449 311.424 358.405 312.051 357.361 311.007C356.108 309.754 355.273 307.666 353.394 305.369C350.158 309.023 344.938 310.693 340.135 309.649C338.882 306.309 337.421 303.072 335.959 300.045Z" fill="#FBBD9A"/>
<path d="M345.773 295.242C349.531 293.885 353.498 292.736 357.361 291.797C357.883 291.692 358.405 291.588 358.927 291.588C359.449 291.588 359.971 291.901 360.18 292.423C360.389 292.945 360.284 293.572 359.971 293.989C359.658 294.407 359.136 294.72 358.718 295.033C357.048 296.077 355.273 296.912 353.394 297.852C353.081 300.671 350.993 303.176 348.278 304.012" fill="#FBBD9A"/>
<path d="M345.773 295.242C349.531 293.885 353.498 292.736 357.361 291.797C357.883 291.692 358.405 291.588 358.927 291.588C359.449 291.588 359.971 291.901 360.18 292.423C360.389 292.945 360.284 293.572 359.971 293.989C359.658 294.407 359.136 294.72 358.718 295.033C357.048 296.077 355.273 296.912 353.394 297.852C353.081 300.671 350.993 303.176 348.278 304.012" stroke="#D45E4E" stroke-miterlimit="10" stroke-linecap="round"/>
<path d="M250.664 240.433C252.857 242.416 254.318 253.274 255.467 260.269C257.137 270.709 265.907 316.018 266.429 319.15C267.368 324.788 285.325 324.37 285.952 321.447C286.056 320.925 280.732 318.419 279.896 314.765C279.166 311.529 273.215 248.471 270.292 245.131C266.638 240.85 249.934 239.806 250.664 240.433Z" fill="#EB4A2A"/>
<path d="M226.13 240.432C228.01 241.059 233.856 253.587 236.675 264.966C242.521 288.769 239.076 324.161 236.675 328.859C234.274 333.557 211.41 335.645 207.547 334.392C205.25 333.661 202.849 262.356 204.415 253.378C205.459 247.323 225.504 240.223 226.13 240.432Z" fill="#EB4A2A"/>
<path d="M260.373 320.09C265.176 318.315 279.165 314.661 281.045 314.87C283.028 315.079 285.012 315.81 286.265 317.376C287.1 318.42 287.413 319.777 287.831 321.03C288.457 323.118 288.979 325.206 289.605 327.294C289.814 328.024 290.023 328.755 289.919 329.59C289.814 330.426 289.292 331.052 288.561 331.156C287.517 331.261 286.891 330.008 286.578 329.068C285.638 326.458 284.699 323.848 283.759 321.343C284.385 324.579 285.012 327.711 285.638 330.948C285.743 331.678 285.951 332.514 285.743 333.244C285.534 333.975 285.012 334.706 284.281 334.706C283.237 334.706 282.715 333.349 282.506 332.2C281.984 329.695 281.462 327.189 280.627 324.684C281.775 328.233 281.88 332.096 281.045 335.75C280.94 336.272 280.731 336.898 280.418 337.316C280.001 337.734 279.374 337.838 278.957 337.525C278.643 337.211 278.539 336.794 278.539 336.376C278.226 333.14 277.913 329.903 277.599 326.667C277.913 330.112 278.226 333.558 277.286 336.898C277.077 337.525 276.869 338.047 276.451 338.464C276.033 338.882 275.303 338.986 274.885 338.569C274.467 338.151 274.363 337.525 274.363 337.003C274.259 334.915 274.259 332.931 274.259 330.53C272.484 332.618 269.978 334.079 267.368 334.393C264.758 334.81 262.044 334.184 259.434 333.349C259.434 329.381 259.643 325.519 260.373 320.09Z" fill="#FBBD9A"/>
<path d="M224.669 261.73C223.207 254.944 217.152 243.982 212.245 246.279C209.426 247.531 201.283 250.35 201.283 268.203C201.283 292.319 204.415 324.057 212.245 329.381C216.212 332.095 259.643 334.705 259.643 334.705L262.775 319.15C262.775 319.15 230.828 313.199 229.367 308.814C227.174 302.655 228.532 279.687 224.669 261.73Z" fill="#EB4A2A"/>
<path d="M220.91 257.972C226.235 276.137 227.383 306.935 228.218 308.814C228.949 310.485 233.021 311.216 236.257 312.364" stroke="#B82621" stroke-miterlimit="10" stroke-linecap="round"/>
<path d="M226.965 332.096C221.015 331.469 213.602 330.321 211.932 329.068C209.948 327.607 207.651 320.507 205.981 315.705" stroke="#B82621" stroke-miterlimit="10" stroke-linecap="round"/>
<path d="M226.13 288.039C228.218 285.324 229.158 280.94 229.367 275.511" stroke="#B82621" stroke-miterlimit="10" stroke-linecap="round"/>
<path d="M461.552 441.925H384.609V448.92H461.552V441.925Z" fill="#326894"/>
<path d="M397.764 377.406C397.764 377.615 397.764 377.719 397.764 377.928L396.616 387.533L385.967 473.037C385.654 475.333 383.566 477.004 381.269 476.691C379.181 476.377 377.615 474.603 377.615 472.515C377.615 472.306 377.615 472.201 377.615 471.993L388.159 387.533L389.516 376.884C389.83 374.587 391.918 372.917 394.214 373.23C396.198 373.648 397.764 375.423 397.764 377.406Z" fill="#4D8AB3"/>
<path d="M397.764 377.406C397.764 377.615 397.764 377.719 397.764 377.928L396.616 387.533H388.159L389.516 376.884C389.83 374.587 391.918 372.917 394.214 373.23C396.198 373.648 397.764 375.423 397.764 377.406Z" fill="#326894"/>
<path d="M428.249 376.78V472.619C428.249 474.916 426.37 476.795 424.073 476.795C422.924 476.795 421.88 476.377 421.15 475.542C420.419 474.811 419.897 473.767 419.897 472.619V376.78C419.897 374.483 421.776 372.604 424.073 372.604C425.221 372.604 426.265 373.021 426.996 373.856C427.831 374.587 428.249 375.631 428.249 376.78Z" fill="#4D8AB3"/>
<path d="M426.996 373.752C427.727 374.483 428.249 375.527 428.249 376.675V387.533H419.897V376.675C419.897 374.378 421.776 372.499 424.073 372.499C425.221 372.603 426.265 373.021 426.996 373.752Z" fill="#326894"/>
<path d="M470.322 472.619C470.322 474.707 468.756 476.482 466.668 476.795C464.371 477.108 462.283 475.438 461.97 473.141L451.321 387.637L450.173 378.033C450.173 377.824 450.173 377.719 450.173 377.511C450.173 375.423 451.739 373.648 453.827 373.335C456.124 373.021 458.212 374.692 458.525 376.989L459.882 387.637L470.426 472.097C470.322 472.306 470.322 472.41 470.322 472.619Z" fill="#4D8AB3"/>
<path d="M459.778 387.533H451.321L450.173 377.928C450.173 377.719 450.173 377.615 450.173 377.406C450.173 375.318 451.739 373.543 453.827 373.23C456.124 372.917 458.212 374.587 458.525 376.884L459.778 387.533Z" fill="#326894"/>
<path d="M477.943 365.713V368.532C477.943 373.439 473.976 377.301 469.069 377.301H390.143C385.236 377.301 381.373 373.334 381.373 368.532V365.713C381.373 360.806 385.34 356.943 390.143 356.943H469.069C473.976 356.943 477.943 360.911 477.943 365.713Z" fill="#994403"/>
<path d="M477.943 365.713V368.532C477.943 373.439 473.976 377.301 469.069 377.301H397.451C392.544 377.301 388.577 373.334 388.577 368.532V365.713C388.577 360.806 392.544 356.943 397.451 356.943H469.069C473.976 356.943 477.943 360.911 477.943 365.713Z" fill="#852E03"/>
<path d="M374.483 239.702C376.049 237.092 374.483 233.751 375.005 230.723C375.109 229.888 375.527 229.053 376.153 228.531C376.779 228.009 377.823 227.905 378.45 228.531C379.181 229.262 378.972 230.515 378.972 231.454C378.972 233.333 379.807 235.004 380.225 236.883C381.164 241.268 378.867 244.922 376.571 248.68C373.752 250.664 369.993 252.021 367.592 252.23C366.131 252.334 358.509 248.158 355.586 239.18C354.125 234.691 354.229 232.811 354.751 232.185C355.273 231.559 356.213 231.245 356.839 231.767C357.257 232.081 357.361 232.498 357.57 233.02C358.509 235.735 359.449 238.449 360.389 241.268C356.735 237.823 354.647 232.811 354.96 227.8C355.064 226.861 355.273 225.712 356.213 225.399C356.839 225.19 357.465 225.503 357.883 225.921C358.301 226.339 358.614 226.965 358.823 227.487C360.18 230.306 361.433 233.125 363.312 236.57C359.971 233.438 358.509 228.322 359.762 223.833C359.971 223.102 360.389 222.163 361.224 222.163C362.059 222.163 362.477 222.998 362.79 223.833C364.147 227.383 365.504 231.037 366.757 234.586C364.878 231.663 364.043 227.905 364.46 224.459C364.669 223.207 365.295 221.641 366.548 221.641C367.279 221.641 368.01 222.058 368.323 222.789C368.741 223.415 368.845 224.146 369.054 224.877C370.202 228.635 372.081 232.603 374.483 239.702Z" fill="#FDBD9B"/>
<path d="M355.586 231.767C356.735 231.454 357.57 231.871 358.092 233.542C358.718 235.943 360.493 241.581 362.268 242.833" stroke="#B0514A" stroke-width="0.5" stroke-miterlimit="10" stroke-linecap="round"/>
<path d="M376.988 246.384L381.373 256.615L369.785 263.61L364.669 250.038L376.988 246.384Z" fill="#FDBD9B"/>
<path d="M376.466 234.378C375.631 229.68 372.081 226.339 368.114 225.817L368.01 225.504C368.01 225.504 365.922 225.922 365.191 226.026C360.597 227.07 357.779 232.186 358.718 237.51C359.658 242.834 364.043 246.593 368.741 246.071C369.471 245.966 371.559 245.653 371.559 245.653L371.455 245.34C375.213 243.461 377.301 239.076 376.466 234.378Z" fill="#316382"/>
<path d="M367.905 225.608C372.812 224.773 377.51 228.531 378.554 234.065C379.598 239.598 376.362 244.818 371.455 245.653C366.548 246.488 361.85 242.73 360.806 237.197C359.867 231.663 362.999 226.443 367.905 225.608Z" fill="#407C91"/>
<path d="M376.466 234.378C375.735 230.097 372.081 227.174 368.323 227.905C368.219 227.905 368.219 227.905 368.114 227.905C364.46 228.636 362.163 232.603 362.894 236.779C363.625 240.955 367.175 243.878 370.829 243.252C370.933 243.252 370.933 243.252 371.037 243.252C374.796 242.625 377.197 238.658 376.466 234.378Z" fill="#EBF5FF"/>
<path d="M412.484 243.669L405.385 238.24C405.385 238.24 400.687 240.85 398.286 246.383C395.78 251.917 392.544 270.291 392.544 270.291L379.285 248.158L362.268 260.164C362.268 260.164 381.06 307.771 392.335 308.293C403.61 308.919 411.649 298.375 411.649 298.375L412.484 243.669Z" fill="white"/>
<path d="M356.317 449.233L358.509 462.805L367.383 466.459L377.615 461.553L375.84 448.189L356.317 449.233Z" fill="#FBBD9A"/>
<path d="M383.461 479.614L337.212 478.988C337.212 478.988 336.899 478.048 336.794 476.691C336.585 474.498 336.899 471.262 339.613 469.174C343.476 466.146 349.635 465.729 353.707 464.163C356.108 463.223 357.57 460.822 357.57 460.822L364.147 461.24C364.147 461.24 364.669 464.894 367.175 464.685C369.576 464.476 377.719 460.509 377.719 460.509C381.895 467.608 383.148 473.454 383.461 476.691C383.565 478.466 383.461 479.614 383.461 479.614Z" fill="#502202"/>
<path d="M383.461 479.614L337.212 478.987C337.212 478.987 336.899 478.048 336.794 476.69H383.357C383.566 478.465 383.461 479.614 383.461 479.614Z" fill="#855321"/>
<path d="M411.649 449.233L413.737 462.805L422.715 466.459L432.947 461.553L431.067 448.189L411.649 449.233Z" fill="#FBBD9A"/>
<path d="M438.689 479.614L392.439 478.988C392.439 478.988 392.126 478.048 392.022 476.691C391.813 474.498 392.126 471.262 394.841 469.174C398.703 466.146 404.863 465.729 408.935 464.163C411.336 463.223 412.797 460.822 412.797 460.822L419.375 461.24C419.375 461.24 419.897 464.894 422.402 464.685C424.803 464.476 432.947 460.509 432.947 460.509C437.123 467.608 438.375 473.454 438.689 476.691C438.793 478.466 438.689 479.614 438.689 479.614Z" fill="#502202"/>
<path d="M438.689 479.614L392.439 478.987C392.439 478.987 392.126 478.048 392.022 476.69H438.584C438.793 478.465 438.689 479.614 438.689 479.614Z" fill="#855321"/>
<path d="M408.935 314.558L401.418 326.877C401.418 326.877 358.092 333.454 351.097 344.103C344.624 353.916 353.394 453.201 353.394 453.201H383.148C383.148 453.201 380.851 379.912 383.148 373.126C385.445 366.34 453.618 366.758 457.585 357.466C461.552 348.174 462.805 315.915 462.805 315.915" fill="#112C45"/>
<path d="M463.849 328.756C463.849 328.756 465.519 355.273 456.75 361.642C449.129 367.175 429.919 368.636 429.919 368.636L433.677 451.321L405.176 453.2C405.176 453.2 391.082 356.735 391.709 347.548C392.335 338.256 419.792 331.574 417.913 330.322C417.913 330.322 396.824 323.118 404.654 315.288C404.863 315.079 405.072 314.87 405.176 314.766C406.951 313.2 429.188 314.87 429.188 314.87L449.651 312.991L457.794 322.178L463.849 328.756Z" fill="#163A4A"/>
<path d="M462.805 337.107C462.596 338.36 462.388 339.822 462.179 341.179C458.629 336.69 452.992 330.217 447.98 327.503C437.645 321.761 404.446 317.898 404.446 317.898L404.55 315.079C404.759 314.87 404.968 314.661 405.072 314.557C406.847 312.991 429.084 314.557 429.084 314.557L449.546 312.678L457.69 321.865L462.805 337.107Z" fill="#112C45"/>
<path d="M449.129 230.306C449.129 230.306 436.914 246.07 429.293 245.235C421.672 244.4 415.721 236.048 415.721 236.048C415.721 236.048 418.748 234.899 420.106 229.992C420.836 227.069 421.045 222.998 419.792 217.047L442.343 213.706C442.343 213.706 442.238 217.464 443.178 221.536C444.013 224.981 445.788 228.635 449.129 230.306Z" fill="#FDBD9B"/>
<path d="M420.105 229.992C420.836 227.069 421.045 222.998 419.792 217.047L442.343 213.706C442.343 213.706 442.238 217.464 443.178 221.536C437.123 226.652 428.771 229.679 420.105 229.992Z" fill="#F0997F"/>
<path d="M399.017 203.684C399.33 200.656 402.984 198.568 407.264 198.986C411.44 199.508 414.572 202.327 414.259 205.354C413.946 208.382 410.292 210.47 406.012 210.052C401.731 209.53 398.704 206.711 399.017 203.684Z" fill="#F0997F"/>
<path d="M407.578 204.414C407.578 203.37 406.742 202.535 405.803 202.535H404.759C403.715 202.535 402.984 203.37 402.984 204.31V204.414C402.984 205.458 403.819 206.189 404.759 206.189H405.803C406.742 206.294 407.578 205.458 407.578 204.414Z" fill="#4B8394"/>
<path d="M404.55 204.414H402.984V208.59H404.55V204.414Z" fill="#4B8394"/>
<path d="M449.964 195.749C449.964 181.342 439.942 169.649 427.622 169.649C415.303 169.649 405.281 177.375 405.281 195.749C405.281 210.157 410.918 222.685 424.177 223.52C436.601 224.355 449.964 210.157 449.964 195.749Z" fill="#FDBD9B"/>
<path d="M447.354 202.535C443.282 198.568 440.255 193.557 438.793 188.023C436.705 188.65 434.304 188.232 432.842 187.084C428.353 188.963 422.924 188.545 418.853 186.249C415.616 187.71 411.754 187.71 408.413 185.935C406.847 188.023 405.698 190.529 404.968 193.035C405.281 188.023 405.594 183.117 405.907 178.105C417.704 176.435 429.501 175.287 441.403 174.66C442.029 174.66 442.76 174.556 443.387 174.869C444.326 175.287 444.64 176.331 444.953 177.375C447.458 185.622 448.711 194.287 447.354 202.535Z" fill="#F0997F"/>
<path d="M453.096 176.54C452.574 183.953 452.156 193.557 451.634 200.865C450.903 203.371 448.815 203.267 445.892 204.206C443.178 198.151 441.507 191.574 440.463 184.37C437.645 185.101 434.513 184.892 431.589 183.744C427.205 185.414 422.298 185.519 417.809 183.744C414.468 184.892 410.709 185.101 407.577 183.953C406.325 187.607 405.803 193.14 405.489 197.003C405.072 193.453 403.715 182.387 403.297 174.87C403.193 171.633 403.193 169.023 403.506 167.875C404.863 163.803 409.457 165.056 410.605 166.518C411.44 164.639 413.215 163.177 415.199 162.655C417.182 162.133 419.479 162.759 421.254 164.117C422.507 161.715 425.117 160.149 427.831 160.045C430.545 160.045 433.155 161.507 434.095 164.012C435.348 163.281 436.601 162.655 438.062 162.446C439.419 162.237 440.985 162.342 442.134 163.073C442.76 163.386 443.178 163.908 443.595 164.639C444.013 165.265 444.326 166.1 444.431 166.935C445.579 165.369 447.98 165.056 449.651 165.996C451.321 166.935 452.469 168.71 452.887 170.589C453.305 172.677 453.2 174.661 453.096 176.54Z" fill="#502202"/>
<path d="M443.7 164.847C442.238 164.221 440.568 164.012 439.002 164.43C437.018 164.848 435.244 166.1 434.2 168.084C433.26 165.578 430.65 163.804 427.936 164.012C425.326 164.117 422.82 166.1 421.567 169.232C420.105 167.562 417.809 166.622 415.616 166.936C413.424 167.249 411.336 168.606 410.396 170.798C409.665 169.859 408.308 169.754 407.16 170.172C406.011 170.59 405.176 171.529 404.55 172.469C404.028 173.304 403.61 174.139 403.193 175.079C403.088 171.842 403.088 169.232 403.401 168.084C404.759 164.012 409.352 165.265 410.501 166.727C411.336 164.848 413.111 163.386 415.094 162.864C417.078 162.446 419.375 162.968 421.15 164.326C422.402 161.924 425.012 160.358 427.727 160.254C430.441 160.254 433.051 161.716 433.991 164.221C435.243 163.49 436.496 162.864 437.958 162.655C439.315 162.446 440.881 162.551 442.03 163.281C442.865 163.699 443.282 164.221 443.7 164.847Z" fill="#6B4019"/>
<path d="M414.468 194.601C412.589 194.184 410.396 194.497 408.83 195.645" stroke="#502202" stroke-width="2" stroke-miterlimit="10" stroke-linecap="round"/>
<path d="M429.188 195.019C431.276 194.079 433.782 194.393 435.661 195.645" stroke="#502202" stroke-width="2" stroke-miterlimit="10" stroke-linecap="round"/>
<path d="M420.21 202.953C420.314 205.041 420.419 207.129 420.836 209.113" stroke="#B0514A" stroke-width="2" stroke-miterlimit="10" stroke-linecap="round"/>
<path d="M423.133 214.855C425.639 214.96 428.144 214.02 430.024 212.35" stroke="#B0514A" stroke-width="2" stroke-miterlimit="10" stroke-linecap="round"/>
<path d="M430.024 202.536C430.65 202.431 431.276 202.953 431.381 203.788C431.485 204.624 431.172 205.355 430.546 205.459C429.919 205.563 429.293 205.041 429.188 204.206C428.98 203.371 429.397 202.64 430.024 202.536Z" fill="#2D3A5E"/>
<path d="M412.484 202.745C413.111 202.64 413.737 203.162 413.842 203.997C413.946 204.833 413.633 205.563 413.006 205.668C412.38 205.772 411.754 205.25 411.649 204.415C411.545 203.684 411.858 202.849 412.484 202.745Z" fill="#2D3A5E"/>
<path d="M448.085 198.986C452.261 198.36 456.019 200.448 456.437 203.475C456.854 206.503 453.827 209.426 449.651 210.053C445.475 210.679 441.716 208.591 441.299 205.563C440.881 202.536 443.909 199.508 448.085 198.986Z" fill="#FDBD9B"/>
<path d="M447.876 204.415C447.876 203.371 448.711 202.536 449.651 202.536H450.695C451.739 202.536 452.47 203.371 452.47 204.311V204.415C452.47 205.459 451.634 206.19 450.695 206.19H449.651C448.711 206.295 447.876 205.459 447.876 204.415Z" fill="#4B8394"/>
<path d="M452.574 204.415H451.008V208.591H452.574V204.415Z" fill="#4B8394"/>
<path d="M446.31 226.861C446.31 226.861 433.886 234.378 431.798 236.988C429.606 239.703 428.98 243.357 428.98 243.357C428.98 243.357 426.056 237.093 425.326 236.571C424.595 236.049 419.479 231.142 419.479 231.142L413.424 235.735L405.281 240.016L405.594 318.316L460.717 322.074L462.179 237.093L446.31 226.861Z" fill="#69C5C9"/>
<path d="M428.98 243.879C426.37 265.803 430.859 304.222 423.551 319.151" stroke="#3E7C8A" stroke-width="0.5" stroke-miterlimit="10" stroke-linecap="round"/>
<path d="M430.024 240.225C430.024 240.225 430.963 236.779 433.051 235.005C435.139 233.23 446.206 226.757 446.519 226.757C446.832 226.653 452.261 230.515 452.261 230.515L444.118 242.104C444.118 242.104 435.766 236.257 433.782 236.675C431.798 237.093 430.024 240.225 430.024 240.225Z" fill="#9BEBE7"/>
<path d="M427.414 240.225C427.414 240.225 426.787 237.823 425.639 236.362C424.386 234.796 420.106 230.202 419.584 230.202C419.166 230.202 414.781 232.812 414.05 234.378C413.32 235.944 413.737 243.461 413.737 243.461C413.737 243.461 421.045 236.466 423.968 237.301C425.848 237.823 427.414 240.225 427.414 240.225Z" fill="#9BEBE7"/>
<path d="M451.112 229.054C451.112 229.054 441.507 238.032 440.15 247.219C438.793 256.407 439.211 304.431 448.085 320.404C455.81 334.289 456.541 378.45 456.541 399.017L483.476 389.725C483.476 389.725 483.372 352.977 474.707 318.838C467.921 292.425 474.393 244.192 470.531 239.389C467.712 236.153 451.112 229.054 451.112 229.054Z" fill="white"/>
<path d="M439.733 280.314C439.733 280.314 437.54 254.944 439.628 246.697C441.716 238.449 447.98 228.114 449.651 227.8C452.469 227.174 458.629 231.976 458.629 231.976C458.629 231.976 453.618 240.642 452.156 253.9C452.052 255.049 442.134 258.703 442.134 258.703C442.134 258.703 449.859 264.34 449.755 264.862C449.651 265.593 439.733 280.314 439.733 280.314Z" fill="#DAE8F7"/>
<path d="M422.089 330.112C427.855 330.112 432.529 327.214 432.529 323.639C432.529 320.064 427.855 317.166 422.089 317.166C416.323 317.166 411.649 320.064 411.649 323.639C411.649 327.214 416.323 330.112 422.089 330.112Z" fill="#407C91"/>
<path d="M436.392 315.078C432.842 314.556 429.293 314.139 425.743 313.617C424.803 313.512 423.759 313.408 422.924 313.826C421.671 314.348 421.149 315.809 421.045 317.166C422.82 317.271 424.595 317.48 426.37 317.793C424.177 320.82 421.567 323.43 418.54 325.518C417.913 326.04 417.182 326.458 416.66 327.084C416.138 327.711 415.825 328.65 416.138 329.381C416.451 330.112 417.182 330.634 418.018 330.843C418.853 330.947 419.688 330.843 420.628 330.947C420.314 332.096 420.941 333.453 421.985 334.079C423.029 334.601 424.49 334.392 425.534 333.662C426.056 334.706 427.1 335.436 428.249 335.645C429.397 335.854 430.65 335.436 431.59 335.123C432.425 336.063 433.677 336.689 434.93 336.689C436.183 336.689 437.436 336.063 438.48 335.123C441.612 332.409 444.013 328.964 445.579 325.101C442.343 321.969 439.211 318.732 436.392 315.078Z" fill="#FBBD9A"/>
<path d="M453.618 249.098C453.409 244.086 455.915 234.586 459.569 233.542C465.206 231.976 474.811 240.537 477.317 247.218C479.822 254.004 487.443 295.451 485.355 301.089C482.432 308.814 443.7 329.486 443.7 329.486L431.694 311.946C431.694 311.946 458.525 297.33 460.195 292.737C461.135 289.918 454.244 260.895 453.618 249.098Z" fill="white"/>
<path d="M466.563 240.433C466.563 240.433 462.179 246.07 462.179 256.301C462.179 266.533 464.684 290.649 464.058 291.589C463.536 292.528 444.535 304.743 444.535 304.743" stroke="#B8C8E3" stroke-miterlimit="10" stroke-linecap="round"/>
<path d="M462.596 271.648C459.777 268.307 457.794 264.34 456.854 260.164" stroke="#B8C8E3" stroke-miterlimit="10" stroke-linecap="round"/>
<path d="M452.261 325.414C458.42 322.074 467.294 316.854 472.619 312.573" stroke="#B8C8E3" stroke-miterlimit="10" stroke-linecap="round"/>
<path d="M418.017 230.828C418.017 230.828 416.347 237.092 416.347 247.95C416.347 266.22 413.946 317.062 404.341 324.475C396.824 330.321 387.324 330.008 383.043 330.008C383.043 330.008 392.022 325.206 395.363 319.673C399.121 313.513 399.747 293.99 400.165 283.863C400.687 273.11 401.627 243.356 402.879 240.851C405.594 235.317 418.017 230.828 418.017 230.828Z" fill="white"/>
<path d="M414.886 281.88C414.886 281.88 417.078 264.654 417.078 252.753C417.078 239.389 419.27 230.202 419.27 230.202C419.27 230.202 411.649 232.603 410.814 233.856C409.979 235.109 406.012 242.104 404.028 255.571C403.715 257.764 412.693 259.643 412.693 259.643C412.693 259.643 405.803 264.967 405.803 266.325C405.803 268.83 414.886 281.88 414.886 281.88Z" fill="#DAE8F7"/>
<path d="M402.462 246.279C402.462 275.407 399.852 298.688 398.495 306.831" stroke="#B8C8E3" stroke-miterlimit="10" stroke-linecap="round"/>
<path d="M398.286 256.72C399.017 260.896 400.896 264.967 401.94 266.325" stroke="#B8C8E3" stroke-miterlimit="10" stroke-linecap="round"/>
<path d="M403.715 208.486C403.715 208.486 405.176 242.103 425.326 243.356C442.343 244.4 451.739 223.52 451.739 208.382" stroke="#163649" stroke-miterlimit="10"/>
<path d="M426.578 243.878C426.578 243.878 414.155 289.188 379.807 297.331C337.734 307.353 296.496 296.078 296.496 296.078" stroke="#163649" stroke-miterlimit="10" stroke-linecap="round"/>
<path d="M370.933 245.131C370.933 245.131 375.735 272.588 354.438 286.786C335.541 299.419 296.496 295.452 296.496 295.452" stroke="#163649" stroke-miterlimit="10" stroke-linecap="round"/>
<path d="M412.38 323.431C412.38 323.431 335.228 323.535 295.974 296.078" stroke="#163649" stroke-miterlimit="10" stroke-linecap="round"/>
<path d="M573.782 130.186C573.26 121.939 579.316 113.796 587.25 111.812C595.184 109.828 604.372 114.109 607.817 121.626C610.844 127.994 609.8 135.511 608.339 142.401C606.877 149.292 605.102 156.495 606.773 163.281C608.13 169.023 611.888 174.139 612.619 180.09C613.663 188.233 607.921 196.585 599.987 198.673C595.498 199.821 589.756 198.36 588.294 193.975C586.937 189.903 589.964 185.518 589.338 181.342C588.816 177.793 585.893 175.183 583.596 172.468C574.931 162.55 574.826 148.352 573.782 130.186Z" fill="#381B07"/>
<path d="M497.153 234.169C493.186 229.575 490.262 221.432 490.262 218.613C490.262 215.377 489.74 212.036 490.889 208.904C491.515 207.338 492.35 205.876 493.29 204.519C494.334 202.849 495.378 201.283 496.422 199.717C496.839 199.09 497.361 198.36 498.092 198.151C499.345 197.838 500.598 199.299 500.494 200.552C500.389 201.909 499.554 203.058 497.988 204.206C498.51 201.805 499.763 199.508 501.538 197.733C501.955 197.211 502.581 196.794 503.208 196.898C504.252 197.107 504.252 198.673 503.939 199.717C503.208 202.327 502.581 204.937 501.955 207.234C504.147 211.514 503.939 216.525 504.043 221.328C504.043 226.13 504.565 231.35 507.697 234.9C504.669 236.152 501.016 230.828 497.153 234.169Z" fill="#DB8E62"/>
<path d="M496.631 233.542C496.631 233.542 507.28 269.769 515.214 270.5C524.923 271.439 532.753 262.461 532.753 262.461L539.122 229.992L524.819 221.432L516.884 247.427L505.609 234.69L496.631 233.542Z" fill="#DB8E62"/>
<path d="M544.342 235.422C536.407 232.394 528.577 229.471 520.643 226.443C522.835 216.108 525.758 203.788 528.368 199.821C533.275 192.409 541.105 192.096 541.105 192.096L544.759 202.745L544.342 235.213C544.342 235.213 544.342 235.317 544.342 235.422Z" fill="#1D9FB3"/>
<path d="M537.138 256.406L514.066 196.794L485.773 204.102L511.873 270.5L537.138 256.406Z" fill="#B23F37"/>
<path d="M533.275 253.17L512.5 200.03L489.427 206.294L512.082 264.341L533.275 253.17Z" fill="#EBF5FF"/>
<path d="M505.087 198.568L506.549 202.431L497.466 204.937L495.796 201.074L505.087 198.568Z" fill="#678CA8"/>
<path d="M523.462 471.992C523.566 475.959 564.595 474.602 566.474 471.366C567.623 469.278 565.43 463.953 563.76 460.508C562.82 458.629 562.09 457.376 562.09 457.376L556.87 450.068L552.694 449.964C543.506 455.288 534.215 461.135 528.682 465.624C525.445 468.338 523.462 470.531 523.462 471.992Z" fill="#136D94"/>
<path d="M528.682 465.624C537.138 470.948 556.765 463.536 563.76 460.508C562.82 458.629 562.09 457.376 562.09 457.376L556.87 450.068L552.694 449.964C543.506 455.288 534.215 461.135 528.682 465.624Z" fill="#DB8E62"/>
<path d="M541.314 433.886L542.776 449.86L543.298 455.602L543.611 459.569L560.315 457.794L560.419 454.975L560.524 452.052L561.463 433.156L561.568 431.276L551.441 432.529L541.314 433.886Z" fill="#DB8E62"/>
<path d="M541.314 433.887L542.776 449.86L551.023 450.904H551.128L558.122 451.739L560.524 452.052L561.463 433.156L551.441 432.529L541.314 433.887Z" fill="#CF6E4A"/>
<path d="M529.621 273.736C529.621 273.736 522.522 293.468 523.879 321.552C525.236 349.635 537.138 447.562 537.138 447.562L566.683 446.205L561.672 319.777L554.573 280.627" fill="#1D9FB3"/>
<path d="M597.272 471.574C599.882 474.498 630.263 446.832 629.636 443.178C629.219 440.776 624.103 438.166 620.554 436.705C618.674 435.87 617.213 435.348 617.213 435.348L608.548 433.155L605.311 435.765C601.761 445.788 598.525 456.228 597.168 463.222C596.333 467.503 596.333 470.53 597.272 471.574Z" fill="#136D94"/>
<path d="M597.168 463.327C607.086 461.865 617.108 443.491 620.553 436.705C618.674 435.87 617.213 435.348 617.213 435.348L608.547 433.155L605.311 435.765C601.657 445.892 598.421 456.332 597.168 463.327Z" fill="#DB8E62"/>
<path d="M586.102 430.963L592.992 437.749L601.762 446.206L604.58 449.024L616.064 436.914L614.394 434.722L609.383 428.249L599.882 415.93L586.102 430.963Z" fill="#DB8E62"/>
<path d="M586.102 430.963L592.992 437.749L609.383 428.249L599.882 415.93L586.102 430.963Z" fill="#CF6E4A"/>
<path d="M525.654 292.32C528.577 300.254 550.188 314.348 550.188 314.348C550.188 314.348 549.979 369.993 550.814 384.087C551.65 398.077 580.673 443.909 580.673 443.909L607.921 419.688C607.921 419.688 586.832 384.401 585.371 376.049C583.909 367.697 593.096 324.057 593.096 306.309C593.096 303.073 592.783 299.628 592.261 296.287C591.217 288.875 589.129 281.671 587.354 276.242C585.58 270.918 584.118 267.368 584.118 267.368C584.118 267.368 569.293 269.561 554.573 273.632C541.001 277.391 527.533 282.924 525.55 289.814C525.236 290.545 525.341 291.38 525.654 292.32Z" fill="#25B2C2"/>
<path d="M525.654 292.319C532.858 296.6 540.374 300.358 548.1 303.49C548.622 302.237 549.04 300.88 549.77 299.627C550.501 301.089 551.128 302.551 551.963 304.534C565.326 301.193 578.689 298.375 592.261 296.287C591.217 288.874 589.129 281.671 587.459 276.242C576.497 275.198 565.639 274.363 554.677 273.632C541.105 277.39 527.638 282.923 525.654 289.814C525.236 290.545 525.341 291.38 525.654 292.319Z" fill="#1D9FB3"/>
<path d="M601.344 200.761C600.3 194.497 576.601 186.458 568.562 187.189C551.232 188.755 538.704 191.887 534.737 194.393C530.77 196.898 527.22 219.971 527.22 226.443C527.22 234.065 529.83 248.994 529.099 255.049C527.742 266.742 520.643 291.485 520.643 291.485L546.743 300.672L549.979 294.93L552.902 302.133L596.02 292.215C596.02 292.215 592.679 257.868 592.679 251.813C592.783 246.175 602.701 208.904 601.344 200.761Z" fill="#27B8C1"/>
<path d="M561.046 204.832C552.38 249.933 551.858 262.878 549.875 294.616" stroke="#51DBDB" stroke-miterlimit="10" stroke-linecap="round"/>
<path d="M562.194 215.272C563.001 215.272 563.656 214.617 563.656 213.81C563.656 213.003 563.001 212.349 562.194 212.349C561.387 212.349 560.732 213.003 560.732 213.81C560.732 214.617 561.387 215.272 562.194 215.272Z" fill="#136D94"/>
<path d="M558.54 235.003C559.347 235.003 560.002 234.349 560.002 233.542C560.002 232.734 559.347 232.08 558.54 232.08C557.733 232.08 557.078 232.734 557.078 233.542C557.078 234.349 557.733 235.003 558.54 235.003Z" fill="#136D94"/>
<path d="M555.721 255.779C556.528 255.779 557.183 255.124 557.183 254.317C557.183 253.51 556.528 252.855 555.721 252.855C554.914 252.855 554.26 253.51 554.26 254.317C554.26 255.124 554.914 255.779 555.721 255.779Z" fill="#136D94"/>
<path d="M554.364 279.687C555.171 279.687 555.826 279.032 555.826 278.225C555.826 277.418 555.171 276.764 554.364 276.764C553.557 276.764 552.902 277.418 552.902 278.225C552.902 279.032 553.557 279.687 554.364 279.687Z" fill="#136D94"/>
<path d="M510.725 232.812L515.005 233.125H515.318L544.342 225.504C546.325 224.46 546.638 222.789 546.221 221.536C545.594 219.866 543.715 219.135 542.045 219.657L514.379 229.471L514.066 229.68L510.725 232.812Z" fill="#136D94"/>
<path d="M510.725 232.812L511.873 232.916L515.005 233.125C514.901 233.021 514.796 233.021 514.692 232.916C514.274 232.499 514.065 231.977 514.274 231.559C514.379 231.35 514.483 231.141 514.379 230.933C514.379 230.828 514.274 230.828 514.17 230.724C513.961 230.515 513.961 230.097 513.961 229.784L511.456 232.081L510.725 232.812Z" fill="#D68A5A"/>
<path d="M510.725 232.812L511.873 232.916C511.769 232.812 511.664 232.603 511.664 232.394C511.664 232.29 511.56 232.081 511.664 231.977L510.725 232.812Z" fill="#24151A"/>
<path d="M544.968 239.284C542.149 233.96 539.226 228.74 536.198 223.415C533.902 221.641 531.396 220.283 528.786 219.344C525.654 220.388 522.835 222.163 520.434 224.668C519.808 225.295 519.286 226.13 519.494 226.965C519.703 227.591 520.33 227.905 520.852 227.8C521.374 227.8 522 227.487 522.522 227.174C524.088 226.234 525.654 225.295 527.533 224.459C528.055 224.877 528.577 225.295 528.89 225.817C527.846 225.817 526.802 225.817 525.445 226.234C523.357 227.174 521.374 228.322 519.494 229.471C518.972 229.784 518.346 230.306 518.346 230.932C518.346 231.454 518.659 231.976 519.077 232.289C519.494 232.498 520.016 232.498 520.538 232.498C522.313 232.394 524.192 231.663 525.654 230.619C526.28 230.828 526.907 230.932 527.324 231.245C526.489 231.35 525.758 231.559 525.028 231.872C524.297 232.289 523.67 232.811 523.357 233.647C523.044 234.482 523.148 235.526 523.566 236.361C523.148 236.57 522.94 237.092 522.94 237.509C522.94 238.031 523.148 238.449 523.357 238.867C523.775 239.806 524.297 240.641 524.819 241.372C525.341 242.103 525.863 242.834 526.698 243.251C527.533 243.565 528.577 243.356 529.099 242.312C531.292 246.07 535.259 248.158 539.226 247.741C541.627 245.444 543.506 242.416 544.968 239.284Z" fill="#DB8E62"/>
<path d="M532.544 226.338C531.5 225.921 530.456 225.712 529.308 225.607" stroke="#A8473E" stroke-width="0.5" stroke-miterlimit="10" stroke-linecap="round"/>
<path d="M530.456 230.932C529.412 230.827 528.368 230.827 527.638 231.036" stroke="#A8473E" stroke-width="0.5" stroke-miterlimit="10" stroke-linecap="round"/>
<path d="M523.775 236.047C525.236 235.212 527.638 234.795 529.308 235.003" stroke="#A8473E" stroke-width="0.5" stroke-miterlimit="10" stroke-linecap="round"/>
<path d="M528.786 242.103C528.264 241.268 527.846 239.91 527.638 238.971" stroke="#A8473E" stroke-width="0.5" stroke-miterlimit="10" stroke-linecap="round"/>
<path d="M527.951 240.745C527.324 240.85 526.594 240.954 526.072 240.85" stroke="#A8473E" stroke-width="0.5" stroke-miterlimit="10" stroke-linecap="round"/>
<path d="M537.556 246.592C537.556 246.592 573.678 277.181 583.387 273.736C587.25 272.379 591.113 261.103 593.932 250.663C596.542 241.059 598.212 232.08 598.212 232.08L577.75 223.415C577.75 223.415 576.392 232.707 575.035 240.223C574.096 245.339 573.156 249.619 572.738 249.724C570.65 250.35 544.133 238.553 544.133 238.553L537.556 246.592Z" fill="#DB8E62"/>
<path d="M574.931 240.223C579.838 243.46 587.459 248.158 593.827 250.559C596.437 240.954 598.108 231.976 598.108 231.976L577.645 223.311C577.645 223.415 576.288 232.707 574.931 240.223Z" fill="#CF6E4A"/>
<path d="M598.108 242.938C589.129 241.268 582.03 239.806 573.469 236.674C574.722 226.652 577.541 208.486 579.838 202.848C581.508 198.881 587.876 191.886 595.08 194.914C602.284 197.942 605.102 202.744 604.267 215.272C603.954 219.866 599.778 233.855 598.108 242.938Z" fill="#32C9CF"/>
<path d="M554.468 191.783C554.468 191.783 556.556 201.283 560.628 204.102C564.7 206.921 580.046 189.799 580.046 189.799C577.436 187.293 576.81 182.491 576.81 178.211C576.81 173.826 577.541 170.067 577.541 170.067L558.853 175.496C559.062 180.09 558.644 183.431 558.122 185.832C556.765 190.947 554.468 191.783 554.468 191.783Z" fill="#DB8E62"/>
<path d="M558.018 185.832C566.579 187.711 573.26 182.178 576.706 178.211C576.706 173.826 577.436 170.067 577.436 170.067L558.749 175.496C559.062 180.09 558.644 183.431 558.018 185.832Z" fill="#CF6E4A"/>
<path d="M561.254 204.415C561.045 204.415 562.194 197.942 562.82 197.42C563.447 196.898 578.167 183.952 579.002 184.474C580.255 185.205 582.448 189.277 582.448 189.277C582.448 189.277 579.42 193.348 573.678 198.046C569.815 201.074 563.551 204.728 561.254 204.415Z" fill="#136D94"/>
<path d="M561.254 204.415C561.568 204.102 560.941 197.733 560.524 197.107C559.271 195.228 557.183 190.112 557.183 186.771C557.183 186.771 553.424 188.233 553.007 188.964C552.589 189.799 554.573 195.854 556.139 198.673C558.853 203.475 561.046 204.624 561.254 204.415Z" fill="#136D94"/>
<path d="M551.225 161.742C551.576 158.648 548.423 155.751 544.184 155.27C539.945 154.79 536.224 156.908 535.873 160.002C535.522 163.096 538.675 165.993 542.914 166.473C547.154 166.954 550.875 164.835 551.225 161.742Z" fill="#CF6E4A"/>
<path d="M587.772 151.901C587.772 137.181 577.541 125.279 565.013 125.279C552.485 125.279 542.254 137.181 542.254 151.901C542.254 166.622 548.517 181.238 561.254 180.716C573.887 180.194 587.772 166.622 587.772 151.901Z" fill="#DB8E62"/>
<path d="M582.761 158.165C580.151 155.242 578.48 149.918 578.063 147.621C575.557 146.89 572.53 144.489 570.964 141.253C567.101 145.115 552.485 147.308 547.578 145.951C544.133 150.231 544.028 152.423 542.776 157.852C541.94 151.171 542.358 144.385 543.82 137.807C553.007 134.884 561.881 131.335 570.65 127.159C572.112 126.428 573.887 125.697 575.348 126.532C576.288 127.054 576.706 128.098 577.228 129.038C579.211 133.005 582.03 136.659 585.475 139.478C586.415 140.209 587.354 141.044 587.459 142.192C587.459 142.923 587.041 143.654 586.728 144.28C584.849 147.308 585.162 154.511 582.761 158.165Z" fill="#CF6E4A"/>
<path d="M538.495 142.923C538.391 148.456 542.984 160.045 542.984 160.045C542.984 160.045 542.984 150.544 547.369 144.28C556.347 144.28 566.37 143.863 571.799 138.747C573.365 142.819 576.183 145.115 579.42 146.264C579.315 151.275 581.612 156.077 583.074 160.253C585.893 158.583 588.085 159.314 590.382 156.495C591.739 151.588 593.096 143.863 592.679 139.06C592.365 135.197 591.321 131.335 589.233 128.098C588.711 127.367 588.189 126.637 587.563 125.906C584.327 122.356 579.315 120.268 574.617 121.417C572.007 118.285 568.04 116.51 564.177 116.301C560.21 116.092 556.243 117.345 552.798 119.329C546.012 123.191 540.792 129.038 539.121 137.285C538.704 139.165 538.495 141.044 538.495 142.923Z" fill="#412408"/>
<path d="M538.495 142.923C538.704 142.192 538.913 141.462 539.226 140.835C540.479 137.494 542.567 134.362 544.968 131.648C548.622 127.472 553.111 123.922 558.436 122.461C563.76 120.999 569.92 121.939 573.887 125.802C578.898 123.714 585.058 124.862 589.338 128.412C588.816 127.681 588.294 126.95 587.668 126.219C584.431 122.67 579.42 120.582 574.722 121.73C572.112 118.598 568.145 116.823 564.282 116.614C560.315 116.406 556.348 117.658 552.902 119.642C546.116 123.505 540.896 129.351 539.226 137.599C538.704 139.165 538.495 141.044 538.495 142.923Z" fill="#664216"/>
<path d="M586.415 155.451C590.591 154.407 594.558 155.973 595.393 159.001C596.124 162.028 593.41 165.369 589.234 166.413C585.058 167.457 581.09 165.891 580.255 162.863C579.524 159.836 582.239 156.495 586.415 155.451Z" fill="#DB8E62"/>
<path d="M566.579 163.281C567.098 163.281 567.518 162.58 567.518 161.715C567.518 160.851 567.098 160.149 566.579 160.149C566.06 160.149 565.639 160.851 565.639 161.715C565.639 162.58 566.06 163.281 566.579 163.281Z" fill="#411F00"/>
<path d="M548.413 163.281C548.932 163.281 549.353 162.58 549.353 161.715C549.353 160.851 548.932 160.149 548.413 160.149C547.894 160.149 547.474 160.851 547.474 161.715C547.474 162.58 547.894 163.281 548.413 163.281Z" fill="#411F00"/>
<path d="M551.336 152.111C549.457 151.484 547.265 151.589 545.49 152.528" stroke="#412408" stroke-width="2" stroke-miterlimit="10" stroke-linecap="round"/>
<path d="M565.013 152.946C567.101 152.006 569.711 152.319 571.694 153.572" stroke="#412408" stroke-width="2" stroke-miterlimit="10" stroke-linecap="round"/>
<path d="M555.199 162.968C554.99 164.012 555.095 166.413 555.199 167.457" stroke="#A8473E" stroke-width="2" stroke-miterlimit="10" stroke-linecap="round"/>
<path d="M556.348 171.842C559.166 172.991 561.985 172.364 563.551 170.067" stroke="#A8473E" stroke-width="2" stroke-miterlimit="10" stroke-linecap="round"/>
<path d="M235.318 138.852C256.478 138.852 273.632 121.698 273.632 100.537C273.632 79.3768 256.478 62.2227 235.318 62.2227C214.157 62.2227 197.003 79.3768 197.003 100.537C197.003 121.698 214.157 138.852 235.318 138.852Z" fill="#6BB1FC"/>
<path d="M210.366 87.6966C218.718 72.0366 235.318 93.021 235.318 93.021C235.318 93.021 251.917 75.0642 260.269 86.757C268.934 98.8674 235.318 126.951 235.318 126.951C235.318 126.951 203.162 100.955 210.366 87.6966Z" fill="#A2CFFF"/>
<path d="M207.547 105.236L219.24 105.34L222.79 91.1415L230.202 118.077L236.153 85.5039L242.521 114.84L246.384 93.5427L250.456 104.714L263.192 105.027" stroke="white" stroke-miterlimit="10" stroke-linecap="round"/>
<path d="M341.388 199.404C363.01 199.404 380.538 181.875 380.538 160.254C380.538 138.632 363.01 121.104 341.388 121.104C319.766 121.104 302.238 138.632 302.238 160.254C302.238 181.875 319.766 199.404 341.388 199.404Z" fill="#6BB1FC"/>
<path d="M362.268 161.924L332.305 179.045C326.563 182.282 319.36 180.298 316.123 174.661C314.453 171.842 314.14 168.605 314.975 165.682C315.81 162.759 317.689 160.149 320.508 158.479L350.471 141.357C356.213 138.121 363.416 140.104 366.653 145.742C368.323 148.561 368.636 151.797 367.801 154.72C367.07 157.748 365.087 160.358 362.268 161.924Z" fill="white"/>
<path d="M362.268 161.924L347.234 170.484L335.437 149.813L350.471 141.252C356.213 138.016 363.416 140 366.653 145.637C368.323 148.456 368.636 151.692 367.801 154.616C367.07 157.748 365.087 160.358 362.268 161.924Z" fill="#A2CFFF"/>
<path d="M440.986 126.324C462.146 126.324 479.3 109.17 479.3 88.0091C479.3 66.8485 462.146 49.6943 440.986 49.6943C419.825 49.6943 402.671 66.8485 402.671 88.0091C402.671 109.17 419.825 126.324 440.986 126.324Z" fill="#6BB1FC"/>
<path d="M460.508 68.7998V95.0042C460.508 101.373 457.272 107.428 451.843 110.873L440.986 117.241L431.068 110.769C425.117 107.323 421.463 101.059 421.463 94.2734V68.7998L440.881 63.2666H440.986L460.508 68.7998Z" fill="white"/>
<path d="M460.508 68.7998V95.0042C460.508 101.373 457.272 107.428 451.843 110.873L440.986 117.241V63.2666L460.508 68.7998Z" fill="#6BB1FC" fill-opacity="0.17"/>
<path d="M445.37 75.377H436.392V105.027H445.37V75.377Z" fill="#6BB1FC"/>
<path d="M455.81 85.7129H426.161V94.6913H455.81V85.7129Z" fill="#6BB1FC"/>
</svg>
