<svg width="216" height="50" viewBox="0 0 216 50" fill="none" xmlns="http://www.w3.org/2000/svg">
<g clip-path="url(#clip0_503_584)">
<path d="M61.3926 36.2499H75.5835V32.2091H65.7198V13.3408H61.3926V36.2499Z" fill="#23216E"/>
<path d="M84.1122 36.7272C85.8304 36.7272 87.3418 36.3453 88.6463 35.5817C89.9614 34.8074 90.9849 33.7416 91.7168 32.3841C92.4592 31.0158 92.8304 29.4408 92.8304 27.6591C92.8304 25.8878 92.4644 24.3234 91.7327 22.9658C91.0008 21.5977 89.9773 20.5264 88.6622 19.7522C87.3577 18.9779 85.841 18.5908 84.1122 18.5908C82.4152 18.5908 80.9144 18.9727 79.6099 19.7363C78.3054 20.4999 77.2819 21.5658 76.5394 22.9341C75.797 24.2916 75.4258 25.8666 75.4258 27.6591C75.4258 29.4302 75.7864 30.9999 76.5077 32.3681C77.2394 33.7257 78.2577 34.7916 79.5622 35.5658C80.8668 36.3401 82.3834 36.7272 84.1122 36.7272ZM84.1122 32.6863C82.7652 32.6863 81.7418 32.2356 81.0418 31.3341C80.3523 30.4219 80.0077 29.1969 80.0077 27.6591C80.0077 26.1636 80.3364 24.9544 80.994 24.0317C81.6622 23.0984 82.7015 22.6317 84.1122 22.6317C85.4804 22.6317 86.5092 23.0878 87.1985 23.9999C87.8985 24.9121 88.2485 26.1317 88.2485 27.6591C88.2485 29.1333 87.9039 30.3423 87.2144 31.2863C86.5357 32.2196 85.5015 32.6863 84.1122 32.6863Z" fill="#23216E"/>
<path d="M101.387 36.7272C102.194 36.7272 102.936 36.6317 103.615 36.4408C104.304 36.2499 104.93 35.9794 105.492 35.6294V37.3636C105.513 37.9999 105.349 38.5302 104.999 38.9544C104.659 39.3893 104.203 39.7128 103.631 39.9249C103.058 40.1477 102.448 40.2591 101.801 40.2591C101.197 40.2591 100.634 40.1264 100.115 39.8613C99.6057 39.5962 99.2132 39.2091 98.9375 38.6999L94.9285 40.6408C95.586 41.7544 96.5246 42.6507 97.7443 43.3294C98.9641 44.0188 100.306 44.3636 101.769 44.3636C103.031 44.3636 104.203 44.1938 105.285 43.8544C106.367 43.5257 107.279 43.0219 108.022 42.3431C108.775 41.6643 109.289 40.7999 109.565 39.7499C109.66 39.3787 109.724 39.0022 109.756 38.6203C109.798 38.2492 109.819 37.8514 109.819 37.4272V19.0681H106.033V20.0227C105.45 19.5666 104.787 19.2166 104.044 18.9727C103.312 18.7181 102.501 18.5908 101.61 18.5908C99.9663 18.5908 98.5345 18.9833 97.3148 19.7681C96.0951 20.5529 95.1458 21.6294 94.4671 22.9977C93.7988 24.3552 93.4648 25.9091 93.4648 27.6591C93.4648 29.3772 93.7936 30.9203 94.4512 32.2886C95.1193 33.6567 96.0473 34.7386 97.2352 35.5341C98.4231 36.3294 99.8072 36.7272 101.387 36.7272ZM102.087 32.8772C101.154 32.8772 100.391 32.6438 99.7966 32.1772C99.2027 31.7106 98.7625 31.0848 98.4762 30.2999C98.1898 29.5044 98.0466 28.6242 98.0466 27.6591C98.0466 26.7044 98.1951 25.8348 98.4921 25.0499C98.7891 24.2544 99.2451 23.6234 99.8602 23.1567C100.486 22.6794 101.281 22.4408 102.247 22.4408C103.604 22.4408 104.575 22.9234 105.158 23.8886C105.741 24.8431 106.033 26.0999 106.033 27.6591C106.033 29.2181 105.736 30.4802 105.142 31.4453C104.559 32.3999 103.541 32.8772 102.087 32.8772Z" fill="#23216E"/>
<path d="M120.097 36.7272C121.815 36.7272 123.326 36.3453 124.631 35.5817C125.946 34.8074 126.969 33.7416 127.701 32.3841C128.443 31.0158 128.814 29.4408 128.814 27.6591C128.814 25.8878 128.449 24.3234 127.717 22.9658C126.986 21.5977 125.962 20.5264 124.647 19.7522C123.342 18.9779 121.825 18.5908 120.097 18.5908C118.4 18.5908 116.899 18.9727 115.594 19.7363C114.29 20.4999 113.266 21.5658 112.524 22.9341C111.781 24.2916 111.41 25.8666 111.41 27.6591C111.41 29.4302 111.771 30.9999 112.492 32.3681C113.224 33.7257 114.242 34.7916 115.547 35.5658C116.851 36.3401 118.368 36.7272 120.097 36.7272ZM120.097 32.6863C118.75 32.6863 117.726 32.2356 117.026 31.3341C116.337 30.4219 115.992 29.1969 115.992 27.6591C115.992 26.1636 116.321 24.9544 116.978 24.0317C117.647 23.0984 118.686 22.6317 120.097 22.6317C121.465 22.6317 122.494 23.0878 123.183 23.9999C123.883 24.9121 124.233 26.1317 124.233 27.6591C124.233 29.1333 123.888 30.3423 123.199 31.2863C122.52 32.2196 121.486 32.6863 120.097 32.6863Z" fill="#23216E"/>
<path d="M130.723 16.6819H135.05V12.8638H130.723V16.6819ZM130.723 36.2501H135.05V19.0683H130.723V36.2501Z" fill="#23216E"/>
<path d="M137.879 43.8863H142.238V35.6294C142.8 35.9794 143.42 36.2499 144.099 36.4408C144.789 36.6317 145.536 36.7272 146.343 36.7272C147.923 36.7272 149.308 36.3294 150.495 35.5341C151.683 34.7386 152.605 33.6567 153.263 32.2886C153.931 30.9203 154.265 29.3772 154.265 27.6591C154.265 25.9091 153.926 24.3552 153.248 22.9977C152.579 21.6294 151.635 20.5529 150.415 19.7681C149.195 18.9833 147.764 18.5908 146.12 18.5908C145.229 18.5908 144.413 18.7181 143.67 18.9727C142.938 19.2166 142.28 19.5666 141.698 20.0227V19.0681H137.879V43.8863ZM145.643 32.8772C144.2 32.8772 143.183 32.3999 142.588 31.4453C141.994 30.4802 141.698 29.2181 141.698 27.6591C141.698 26.0999 141.989 24.8431 142.573 23.8886C143.166 22.9234 144.136 22.4408 145.484 22.4408C146.449 22.4408 147.239 22.6794 147.854 23.1567C148.48 23.6234 148.941 24.2544 149.238 25.0499C149.535 25.8348 149.684 26.7044 149.684 27.6591C149.684 28.6242 149.54 29.5044 149.254 30.2999C148.968 31.0848 148.528 31.7106 147.934 32.1772C147.34 32.6438 146.576 32.8772 145.643 32.8772Z" fill="#23216E"/>
<path d="M162.104 36.7272C164.352 36.7272 166.113 36.2234 167.386 35.2158C168.658 34.2082 169.294 32.8242 169.294 31.0636C169.294 29.7272 168.881 28.6719 168.054 27.8977C167.237 27.1234 165.848 26.4817 163.886 25.9727C162.549 25.6332 161.552 25.3574 160.894 25.1453C160.248 24.9333 159.818 24.7264 159.606 24.5249C159.404 24.3234 159.304 24.0742 159.304 23.7772C159.304 23.2787 159.542 22.8969 160.019 22.6317C160.508 22.3666 161.149 22.2606 161.944 22.3136C163.631 22.4408 164.554 23.1621 164.713 24.4772L169.136 23.6817C168.913 22.1227 168.149 20.8871 166.844 19.9749C165.541 19.0522 163.876 18.5908 161.849 18.5908C159.771 18.5908 158.111 19.0787 156.869 20.0544C155.629 21.0302 155.008 22.3453 155.008 23.9999C155.008 25.3151 155.438 26.3544 156.297 27.1181C157.156 27.8712 158.636 28.5181 160.736 29.0591C161.977 29.3878 162.888 29.6529 163.472 29.8544C164.066 30.0559 164.448 30.2628 164.617 30.4749C164.787 30.6764 164.872 30.9469 164.872 31.2863C164.872 31.8272 164.659 32.2514 164.236 32.5591C163.812 32.8559 163.207 33.0044 162.422 33.0044C161.467 33.0044 160.677 32.7764 160.052 32.3203C159.437 31.8643 159.038 31.2333 158.858 30.4272L154.436 31.0953C154.722 32.8878 155.528 34.2772 156.854 35.2636C158.191 36.2393 159.941 36.7272 162.104 36.7272Z" fill="#23216E"/>
<path d="M177.278 36.7594C178.519 36.7594 179.601 36.5525 180.524 36.1389C181.447 35.7252 182.221 35.1737 182.847 34.4844V36.2502H186.664V19.0684H182.306V27.7866C182.306 28.8472 182.183 29.7062 181.939 30.3639C181.707 31.0109 181.404 31.504 181.033 31.8434C180.662 32.1722 180.264 32.3949 179.839 32.5116C179.416 32.6282 179.018 32.6866 178.647 32.6866C177.724 32.6866 177.008 32.4797 176.499 32.0661C176.001 31.6525 175.639 31.1381 175.417 30.523C175.194 29.9077 175.062 29.298 175.019 28.6934C174.977 28.0782 174.956 27.5745 174.956 27.182V19.0684H170.564V28.7094C170.564 28.9956 170.586 29.4517 170.628 30.0775C170.671 30.7032 170.793 31.398 170.994 32.1616C171.196 32.9146 171.529 33.6411 171.997 34.3411C172.474 35.0411 173.137 35.6191 173.986 36.0752C174.833 36.5312 175.932 36.7594 177.278 36.7594Z" fill="#23216E"/>
<path d="M189.17 36.2498H193.529V25.8452C193.529 24.8589 193.799 24.0582 194.34 23.4429C194.891 22.8172 195.617 22.5043 196.52 22.5043C197.464 22.5043 198.201 22.8225 198.731 23.4589C199.271 24.0847 199.542 24.9649 199.542 26.0998V36.2498H203.87V25.8452C203.87 24.8589 204.14 24.0582 204.681 23.4429C205.232 22.8172 205.959 22.5043 206.86 22.5043C207.805 22.5043 208.541 22.8225 209.071 23.4589C209.612 24.0847 209.884 24.9649 209.884 26.0998V36.2498H214.21V24.9543C214.21 23.077 213.706 21.5604 212.699 20.4043C211.702 19.2377 210.222 18.6543 208.26 18.6543C207.157 18.6543 206.145 18.8929 205.221 19.3702C204.299 19.8475 203.562 20.4998 203.01 21.327C202.565 20.521 201.929 19.874 201.101 19.3862C200.274 18.8983 199.245 18.6543 198.015 18.6543C196.975 18.6543 196.021 18.8612 195.151 19.2748C194.281 19.6778 193.56 20.2347 192.987 20.9452V19.0679H189.17V36.2498Z" fill="#23216E"/>
<path d="M25.0977 0C11.2905 0 0.0976562 11.1929 0.0976562 25C13.9048 25 25.0977 13.8071 25.0977 0Z" fill="#45D2B0"/>
<path d="M25.0977 50C38.9048 50 50.0977 38.8071 50.0977 25C36.2905 25 25.0977 36.1929 25.0977 50Z" fill="#45D2B0"/>
<path d="M25.0977 0C38.9048 0 50.0977 11.1929 50.0977 25C36.2905 25 25.0977 13.8071 25.0977 0Z" fill="#23216E"/>
<path d="M25.0977 50C11.2905 50 0.097655 38.8071 0.0976563 25C13.9048 25 25.0977 36.1929 25.0977 50Z" fill="#23216E"/>
</g>
<defs>
<clipPath id="clip0_503_584">
<rect width="215" height="50" fill="white" transform="translate(0.0976562)"/>
</clipPath>
</defs>
</svg>
