<svg width="198" height="50" viewBox="0 0 198 50" fill="none" xmlns="http://www.w3.org/2000/svg">
<path d="M22.7606 9.7793V3.5293H3.05469V46.4705H22.7606V40.2205C18.7238 40.2205 14.8523 38.6168 11.998 35.7624C9.14357 32.908 7.53998 29.0367 7.53998 24.9999C7.53998 20.9631 9.14357 17.0917 11.998 14.2373C14.8523 11.3829 18.7238 9.7793 22.7606 9.7793Z" fill="#394149"/>
<path d="M22.7598 9.7793V40.2205C26.7965 40.2205 30.668 38.6168 33.5224 35.7624C36.3768 32.908 37.9804 29.0367 37.9804 24.9999C37.9804 20.9631 36.3768 17.0917 33.5224 14.2373C30.668 11.3829 26.7965 9.7793 22.7598 9.7793Z" fill="#394149"/>
<path d="M49.0391 13.603H53.4508V34.853H49.0391V13.603Z" fill="#394149"/>
<path d="M55.9206 27.5735C55.9206 26.0446 56.3746 24.5502 57.2249 23.2796C58.0752 22.009 59.2836 21.0195 60.6969 20.4364C62.1103 19.8535 63.6649 19.7032 65.1637 20.0046C66.6625 20.3061 68.0381 21.0458 69.1161 22.1299C70.194 23.2142 70.9259 24.5939 71.2189 26.0945C71.5116 27.5951 71.3525 29.1487 70.7614 30.5587C70.1702 31.9686 69.1739 33.1714 67.8984 34.0143C66.623 34.8574 65.1259 35.3027 63.5971 35.294C62.5831 35.302 61.5777 35.1074 60.6399 34.7215C59.7021 34.3358 58.8506 33.7667 58.1356 33.0477C57.4206 32.3286 56.8565 31.4739 56.4761 30.5339C56.0958 29.5939 55.9069 28.5874 55.9206 27.5735ZM66.9794 27.5735C66.9621 26.9143 66.7508 26.2749 66.3719 25.7354C65.9931 25.1957 65.4637 24.7796 64.8496 24.5393C64.2356 24.299 63.5644 24.2451 62.92 24.3843C62.2755 24.5235 61.6863 24.8495 61.2262 25.3218C60.7661 25.794 60.4553 26.3914 60.333 27.0393C60.2106 27.6873 60.2819 28.3568 60.5381 28.9643C60.7943 29.5718 61.2239 30.0905 61.7733 30.4551C62.3225 30.8198 62.9671 31.0143 63.6265 31.0146C64.0755 31.0235 64.5213 30.9395 64.9363 30.768C65.3513 30.5967 65.7265 30.3415 66.0384 30.0186C66.3503 29.6957 66.5922 29.3117 66.7491 28.8911C66.9061 28.4704 66.9744 28.0218 66.95 27.5735H66.9794Z" fill="#394149"/>
<path d="M88.7299 20.2942V34.1324C88.7299 39.0147 84.9064 41.0883 81.0387 41.0883C79.6745 41.2002 78.3061 40.9292 77.0877 40.3056C75.8692 39.6821 74.8489 38.7308 74.1417 37.5589L77.8622 35.4118C78.1637 36.0197 78.6433 36.5212 79.2371 36.8496C79.8309 37.178 80.5106 37.3177 81.1858 37.25C81.6159 37.303 82.0524 37.2603 82.464 37.125C82.8758 36.9896 83.2524 36.765 83.5671 36.4671C83.882 36.1692 84.127 35.8055 84.2847 35.4018C84.4425 34.9983 84.5092 34.5647 84.4799 34.1324V32.7942C83.9665 33.4167 83.315 33.9108 82.5774 34.2375C81.8396 34.5643 81.0359 34.7146 80.2299 34.6765C78.2797 34.6765 76.4096 33.9018 75.0306 32.5228C73.6517 31.144 72.877 29.2737 72.877 27.3236C72.877 25.3734 73.6517 23.5033 75.0306 22.1243C76.4096 20.7453 78.2797 19.9706 80.2299 19.9706C81.0359 19.9325 81.8396 20.0828 82.5774 20.4096C83.315 20.7364 83.9665 21.2305 84.4799 21.853V20.3824L88.7299 20.2942ZM84.4799 27.2795C84.5092 26.5759 84.3274 25.8796 83.9578 25.2802C83.5883 24.6808 83.048 24.2056 82.4061 23.9158C81.7643 23.6259 81.0506 23.5347 80.3565 23.6539C79.6625 23.773 79.0199 24.097 78.5115 24.5842C78.0031 25.0714 77.6521 25.6996 77.5036 26.388C77.355 27.0764 77.4158 27.7933 77.678 28.4468C77.9403 29.1003 78.3921 29.6605 78.9752 30.0552C79.5584 30.4499 80.2464 30.6612 80.9505 30.6618C81.41 30.6949 81.8714 30.6312 82.3046 30.475C82.738 30.3187 83.1339 30.0733 83.4664 29.7545C83.799 29.4358 84.0611 29.0508 84.2356 28.6245C84.4102 28.1981 84.4934 27.7399 84.4799 27.2795Z" fill="#394149"/>
<path d="M91.2154 27.5736C91.2154 26.046 91.6686 24.5528 92.5176 23.2828C93.3665 22.0128 94.5732 21.0232 95.9848 20.4394C97.3964 19.8554 98.9495 19.7033 100.448 20.0025C101.946 20.3016 103.321 21.0383 104.4 22.1195C105.48 23.2008 106.214 24.5779 106.51 26.0764C106.806 27.5751 106.651 29.1279 106.065 30.5384C105.478 31.9489 104.486 33.1536 103.215 34.0003C101.943 34.8469 100.449 35.2972 98.9212 35.2942C97.9054 35.3041 96.8976 35.111 95.9573 34.7263C95.017 34.3416 94.1629 33.7731 93.4452 33.0539C92.7274 32.3348 92.1605 31.4797 91.7776 30.5386C91.3948 29.5976 91.2036 28.5895 91.2154 27.5736ZM102.274 27.5736C102.257 26.9139 102.045 26.2739 101.666 25.7339C101.286 25.1941 100.756 24.7781 100.141 24.5382C99.5261 24.2983 98.8542 24.2453 98.2093 24.3857C97.5645 24.526 96.9754 24.8536 96.5158 25.3273C96.0562 25.801 95.7467 26.3998 95.6261 27.0486C95.5054 27.6975 95.5787 28.3675 95.8371 28.9747C96.0955 29.582 96.5274 30.0995 97.0787 30.4625C97.6299 30.8253 98.2759 31.0175 98.9359 31.0148C99.3849 31.0236 99.8308 30.9397 100.246 30.7682C100.661 30.5969 101.036 30.3417 101.348 30.0188C101.66 29.6959 101.902 29.3119 102.059 28.8913C102.215 28.4706 102.284 28.022 102.259 27.5736H102.274Z" fill="#394149"/>
<path d="M108.672 16.3969C108.672 15.8793 108.825 15.3731 109.113 14.9427C109.401 14.5122 109.81 14.1767 110.288 13.9786C110.766 13.7804 111.292 13.7286 111.8 13.8296C112.308 13.9306 112.774 14.1799 113.141 14.546C113.507 14.9121 113.756 15.3786 113.857 15.8862C113.958 16.394 113.906 16.9203 113.708 17.3987C113.51 17.8769 113.174 18.2858 112.744 18.5734C112.313 18.8611 111.807 19.0146 111.29 19.0146C110.598 19.0069 109.936 18.7287 109.447 18.2394C108.958 17.7502 108.68 17.0889 108.672 16.3969ZM109.098 20.294H113.51V34.8528H109.098V20.294Z" fill="#394149"/>
<path d="M132.393 27.5737C132.442 28.5419 132.3 29.5104 131.974 30.4234C131.647 31.3363 131.144 32.1757 130.492 32.8932C129.84 33.6109 129.052 34.1923 128.175 34.6044C127.297 35.0165 126.347 35.2509 125.378 35.2942C124.556 35.349 123.733 35.2173 122.969 34.9092C122.205 34.601 121.52 34.1244 120.966 33.5148V40.706H116.555V20.2943H120.966V21.6619C121.521 21.0541 122.206 20.5797 122.97 20.2741C123.734 19.9684 124.557 19.8395 125.378 19.8972C126.343 19.9406 127.29 20.1737 128.164 20.5829C129.039 20.9922 129.824 21.5698 130.475 22.2826C131.127 22.9954 131.631 23.8295 131.96 24.7375C132.289 25.6453 132.436 26.609 132.393 27.5737ZM127.981 27.5737C127.964 26.8906 127.745 26.2279 127.353 25.6687C126.96 25.1094 126.412 24.6782 125.775 24.4295C125.139 24.1807 124.443 24.1254 123.776 24.2703C123.108 24.4151 122.498 24.754 122.022 25.2441C121.546 25.7342 121.225 26.354 121.1 27.0257C120.975 27.6973 121.05 28.391 121.318 29.0198C121.585 29.6485 122.032 30.1844 122.603 30.5603C123.173 30.9362 123.842 31.1351 124.525 31.1325C124.993 31.1523 125.46 31.0731 125.895 30.8998C126.331 30.7266 126.724 30.4634 127.051 30.1273C127.377 29.7913 127.628 29.39 127.789 28.95C127.949 28.5098 128.015 28.0409 127.981 27.5737Z" fill="#394149"/>
<path d="M145.818 30.4853C145.818 33.8382 142.876 35.2647 139.759 35.2647C138.487 35.3791 137.211 35.1095 136.094 34.4908C134.977 33.8722 134.071 32.9328 133.494 31.7941L137.288 29.647C137.439 30.1717 137.764 30.6289 138.211 30.9422C138.659 31.2554 139.2 31.4056 139.744 31.3676C140.788 31.3676 141.318 31.0441 141.318 30.4558C141.318 28.8529 134.156 29.7059 134.156 24.6617C134.156 21.4853 136.832 19.897 139.862 19.897C141.013 19.8454 142.157 20.1067 143.172 20.6531C144.187 21.1994 145.035 22.0104 145.626 23L141.832 25C141.665 24.6206 141.391 24.2979 141.044 24.0709C140.697 23.8438 140.291 23.7222 139.876 23.7206C139.112 23.7206 138.656 24.0147 138.656 24.5294C138.656 26.2059 145.818 25.1029 145.818 30.4853Z" fill="#394149"/>
<path d="M161.804 20.2939V34.8528H157.392V33.4851C156.891 34.0906 156.254 34.5695 155.535 34.8838C154.814 35.1981 154.03 35.3385 153.245 35.2939C150.304 35.2939 147.789 33.191 147.789 29.2645V20.2939H152.201V28.6028C152.166 28.9501 152.207 29.3009 152.321 29.6309C152.436 29.9607 152.62 30.2619 152.861 30.5136C153.104 30.7653 153.398 30.9614 153.723 31.0887C154.048 31.2157 154.396 31.2707 154.745 31.2498C156.333 31.2498 157.451 30.3087 157.451 28.3087V20.2939H161.804Z" fill="#394149"/>
<path d="M186.805 25.912V34.8532H182.393V26.2943C182.393 24.8238 181.702 23.912 180.305 23.912C178.908 23.912 178.025 24.9267 178.025 26.6473V34.8532H173.613V26.2943C173.613 24.8238 172.922 23.912 171.525 23.912C170.128 23.912 169.246 24.9267 169.246 26.6473V34.8532H164.834V20.2944H169.246V21.6326C169.703 21.0414 170.299 20.5732 170.983 20.2702C171.665 19.9673 172.413 19.8391 173.158 19.8973C173.903 19.8583 174.647 20.0142 175.315 20.3494C175.983 20.6845 176.552 21.1876 176.966 21.8091C177.452 21.1596 178.093 20.6438 178.831 20.3095C179.568 19.9751 180.38 19.8333 181.187 19.8973C184.628 19.8973 186.805 22.2796 186.805 25.912Z" fill="#394149"/>
<path d="M190.509 20.2059C192.296 20.2059 193.744 18.7574 193.744 16.9706C193.744 15.1839 192.296 13.7354 190.509 13.7354C188.722 13.7354 187.273 15.1839 187.273 16.9706C187.273 18.7574 188.722 20.2059 190.509 20.2059Z" fill="#394149"/>
</svg>
