<svg width="99" height="50" viewBox="0 0 99 50" fill="none" xmlns="http://www.w3.org/2000/svg">
<g id="Logo">
<path id="Vector" d="M2.53516 28.938H5.31253V42.5563H2.53516V28.938Z" fill="#394149"/>
<path id="Vector_2" d="M6.9221 37.89C6.92026 36.9119 7.20865 35.9551 7.75075 35.1409C8.29286 34.3267 9.06432 33.6916 9.96752 33.316C10.8707 32.9404 11.865 32.8412 12.8246 33.0309C13.7842 33.2206 14.666 33.6907 15.3582 34.3818C16.0506 35.0727 16.5223 35.9536 16.7138 36.9128C16.9054 37.8721 16.808 38.8666 16.4341 39.7705C16.0602 40.6743 15.4265 41.447 14.6133 41.9906C13.8002 42.5343 12.844 42.8244 11.8659 42.8244C11.2153 42.8319 10.5699 42.7094 9.96732 42.4641C9.36479 42.2189 8.81725 41.8559 8.35682 41.3963C7.89639 40.9368 7.53232 40.3899 7.28596 39.7877C7.0396 39.1857 6.91589 38.5405 6.9221 37.89ZM14.0136 37.89C14.0027 37.4677 13.8675 37.058 13.625 36.7123C13.3824 36.3664 13.0433 36.0998 12.65 35.9457C12.2566 35.7916 11.8266 35.757 11.4138 35.846C11.0009 35.935 10.6234 36.1438 10.3285 36.4463C10.0337 36.7487 9.83458 37.1315 9.75609 37.5466C9.67761 37.9616 9.72327 38.3906 9.88732 38.7798C10.0514 39.169 10.3266 39.5013 10.6785 39.7349C11.0305 39.9685 11.4434 40.0932 11.8659 40.0933C12.1548 40.1015 12.4423 40.0496 12.7103 39.941C12.9782 39.8324 13.2208 39.6694 13.4226 39.4624C13.6244 39.2553 13.7811 39.0087 13.8828 38.7381C13.9846 38.4675 14.0291 38.1787 14.0136 37.89Z" fill="#394149"/>
<path id="Vector_3" d="M27.9742 33.2241V42.0931C27.9742 45.2316 25.5209 46.5555 23.0398 46.5555C22.1673 46.6204 21.2938 46.4439 20.5149 46.0455C19.736 45.6471 19.0817 45.042 18.6238 44.2966L21.0123 42.9172C21.2018 43.2991 21.5017 43.6155 21.8731 43.8251C22.2445 44.0347 22.6703 44.128 23.0954 44.0928C23.375 44.1395 23.6616 44.1213 23.9332 44.0395C24.2048 43.9578 24.4539 43.8149 24.6614 43.6217C24.8689 43.4284 25.0293 43.1901 25.1302 42.9251C25.2311 42.6601 25.2697 42.3755 25.2431 42.0931V41.2322C24.9166 41.6339 24.5 41.953 24.0271 42.1637C23.5543 42.3744 23.0384 42.4708 22.5213 42.445C21.2642 42.445 20.0586 41.9456 19.1696 41.0567C18.2807 40.1677 17.7812 38.9621 17.7812 37.7049C17.7812 36.4477 18.2807 35.2421 19.1696 34.3532C20.0586 33.4643 21.2642 32.9649 22.5213 32.9649C23.0381 32.9413 23.5532 33.0386 24.0258 33.2491C24.4983 33.4597 24.9152 33.7776 25.2431 34.1776V33.2519L27.9742 33.2241ZM25.2431 37.7049C25.2616 37.2547 25.145 36.8092 24.9083 36.4257C24.6715 36.0422 24.3256 35.7383 23.9148 35.5531C23.504 35.3678 23.0471 35.3097 22.603 35.3862C22.1589 35.4625 21.7478 35.6701 21.4226 35.982C21.0973 36.2939 20.8728 36.696 20.7779 37.1365C20.6829 37.577 20.7219 38.0359 20.8899 38.454C21.0578 38.8722 21.3469 39.2306 21.7202 39.4831C22.0934 39.7358 22.5336 39.8709 22.9842 39.8713C23.2784 39.8921 23.5736 39.8511 23.8509 39.7508C24.1282 39.6505 24.3814 39.4933 24.5943 39.2892C24.807 39.0851 24.9748 38.8386 25.0865 38.5658C25.1983 38.2929 25.2516 37.9997 25.2431 37.7049Z" fill="#394149"/>
<path id="Vector_4" d="M29.5764 37.89C29.5745 36.9119 29.863 35.9551 30.405 35.1409C30.9472 34.3267 31.7187 33.6916 32.6218 33.316C33.5249 32.9404 34.5192 32.8412 35.4789 33.0309C36.4385 33.2206 37.3202 33.6907 38.0126 34.3818C38.7048 35.0727 39.1766 35.9536 39.3682 36.9128C39.5596 37.8721 39.4623 38.8666 39.0884 39.7705C38.7144 40.6743 38.0808 41.447 37.2677 41.9906C36.4544 42.5343 35.4983 42.8244 34.5201 42.8244C33.8696 42.8319 33.2241 42.7094 32.6216 42.4641C32.019 42.2189 31.4715 41.8559 31.0111 41.3963C30.5507 40.9368 30.1866 40.3899 29.9402 39.7877C29.6938 39.1857 29.5701 38.5405 29.5764 37.89ZM36.668 37.89C36.657 37.4677 36.5218 37.058 36.2792 36.7123C36.0367 36.3664 35.6976 36.0998 35.3042 35.9457C34.911 35.7916 34.481 35.757 34.0681 35.846C33.6551 35.935 33.2777 36.1438 32.9828 36.4463C32.688 36.7487 32.4888 37.1315 32.4103 37.5466C32.3319 37.9616 32.3776 38.3906 32.5416 38.7798C32.7057 39.169 32.9809 39.5013 33.3328 39.7349C33.6847 39.9685 34.0977 40.0932 34.5201 40.0933C34.8076 40.0988 35.0931 40.0451 35.3588 39.9353C35.6245 39.8255 35.8648 39.6622 36.0646 39.4554C36.2644 39.2487 36.4194 39.0029 36.5201 38.7336C36.6207 38.4643 36.6647 38.1771 36.6494 37.89H36.668Z" fill="#394149"/>
<path id="Vector_5" d="M40.752 30.7245C40.752 30.3912 40.8508 30.0655 41.0359 29.7884C41.2211 29.5113 41.4842 29.2954 41.792 29.1678C42.1 29.0403 42.4387 29.0069 42.7656 29.0719C43.0924 29.1369 43.3926 29.2974 43.6283 29.533C43.864 29.7687 44.0244 30.0689 44.0894 30.3957C44.1545 30.7226 44.1211 31.0614 43.9936 31.3693C43.8661 31.6771 43.6501 31.9404 43.373 32.1255C43.0959 32.3106 42.7702 32.4094 42.4369 32.4094C41.9908 32.407 41.5636 32.2287 41.2481 31.9132C40.9326 31.5978 40.7544 31.1707 40.752 30.7245ZM41.0389 33.2241H43.8163V42.556H41.0389V33.2241Z" fill="#394149"/>
<path id="Vector_6" d="M55.9238 37.8902C55.9574 38.5071 55.8688 39.1245 55.6629 39.707C55.4569 40.2894 55.1379 40.8254 54.724 41.284C54.31 41.7426 53.8095 42.1149 53.2512 42.3793C52.6929 42.6437 52.0878 42.7951 51.4707 42.8247C50.9527 42.8495 50.4354 42.7605 49.9556 42.5637C49.4757 42.367 49.0448 42.0674 48.6934 41.686V46.3149H45.916V33.2242H48.6934V34.1037C49.0448 33.7224 49.4757 33.4227 49.9556 33.226C50.4354 33.0292 50.9527 32.9402 51.4707 32.965C52.087 32.9946 52.6913 33.1457 53.249 33.4095C53.8067 33.6734 54.3068 34.0448 54.7205 34.5025C55.1343 34.9601 55.4536 35.4949 55.66 36.0763C55.8666 36.6576 55.9562 37.2741 55.9238 37.8902ZM53.1464 37.8902C53.1354 37.4557 52.9972 37.0339 52.7489 36.6772C52.5005 36.3205 52.1531 36.0443 51.7494 35.8831C51.3458 35.7219 50.9037 35.6826 50.478 35.7701C50.0522 35.8576 49.6614 36.068 49.3541 36.3754C49.0467 36.6827 48.8363 37.0734 48.7488 37.4992C48.6613 37.925 48.7006 38.3671 48.8618 38.7707C49.0231 39.1743 49.2992 39.5219 49.6559 39.7701C50.0127 40.0184 50.4344 40.1567 50.869 40.1676C51.1722 40.187 51.476 40.1411 51.7601 40.0332C52.0442 39.9253 52.3018 39.7578 52.5158 39.5422C52.7297 39.3264 52.8951 39.0674 53.0007 38.7824C53.1062 38.4975 53.1496 38.1933 53.1279 37.8902H53.1464Z" fill="#394149"/>
<path id="Vector_7" d="M64.5708 39.7601C64.5708 41.908 62.7192 42.8244 60.6825 42.8244C59.8688 42.8965 59.0523 42.7234 58.3378 42.3274C57.6235 41.9314 57.0439 41.3307 56.6738 40.6026L59.0994 39.2232C59.1978 39.5599 59.4086 39.8529 59.6966 40.0533C59.9846 40.2537 60.3325 40.3495 60.6825 40.3248C61.3583 40.3248 61.6916 40.1119 61.6916 39.7416C61.6916 38.714 57.0627 39.2602 57.0627 36.0385C57.0627 34.0017 58.7846 32.9741 60.7658 32.9741C61.4969 32.9519 62.2206 33.1255 62.862 33.4772C63.5033 33.8288 64.0389 34.3455 64.4134 34.9738L61.9786 36.2514C61.8711 36.0069 61.6948 35.7989 61.4713 35.6526C61.2477 35.5063 60.9867 35.4281 60.7195 35.4274C60.2381 35.4274 59.9419 35.6126 59.9419 35.9551C59.9789 37.0197 64.5708 36.3069 64.5708 39.7601Z" fill="#394149"/>
<path id="Vector_8" d="M74.7913 33.2241V42.5561H72.0139V41.6859C71.6909 42.0726 71.2809 42.3773 70.8174 42.5752C70.3541 42.7731 69.8504 42.8585 69.3476 42.8246C67.496 42.8246 65.8574 41.4822 65.8574 38.9548V33.2241H68.6348V38.5475C68.6104 38.7743 68.6368 39.0037 68.7121 39.2191C68.7874 39.4345 68.9097 39.6304 69.0702 39.7927C69.2306 39.9549 69.4252 40.0793 69.6397 40.157C69.8542 40.2347 70.0834 40.2635 70.3105 40.2417C71.3289 40.2417 72.0417 39.6491 72.0417 38.3253V33.2241H74.7913Z" fill="#394149"/>
<path id="Vector_9" d="M90.8452 36.8344V42.5558H88.0678V37.0752C88.0678 36.1494 87.6142 35.5383 86.7254 35.5383C85.8367 35.5383 85.2627 36.1957 85.2627 37.2973V42.5558H82.4853V37.0752C82.4853 36.1494 82.0409 35.5383 81.1429 35.5383C80.245 35.5383 79.6895 36.1957 79.6895 37.2973V42.5558H76.9121V33.2239H79.6895V34.0849C79.9798 33.7046 80.3604 33.4029 80.797 33.2073C81.2336 33.0116 81.7121 32.9282 82.1891 32.9647C82.6681 32.9414 83.1451 33.0426 83.5733 33.2583C84.0016 33.4741 84.3667 33.7971 84.6332 34.196C84.943 33.779 85.3535 33.4473 85.8262 33.232C86.299 33.0167 86.8186 32.9247 87.3364 32.9647C89.4473 32.9647 90.8452 34.5015 90.8452 36.8344Z" fill="#394149"/>
<path id="Vector_10" d="M93.2164 33.1685C94.3617 33.1685 95.2901 32.24 95.2901 31.0947C95.2901 29.9494 94.3617 29.021 93.2164 29.021C92.0711 29.021 91.1426 29.9494 91.1426 31.0947C91.1426 32.24 92.0711 33.1685 93.2164 33.1685Z" fill="#394149"/>
<path id="Vector_11" d="M33.9655 21.8742C39.329 21.8742 43.6769 17.5262 43.6769 12.1627C43.6769 6.79917 39.329 2.45117 33.9655 2.45117C28.6019 2.45117 24.2539 6.79917 24.2539 12.1627C24.2539 17.5262 28.6019 21.8742 33.9655 21.8742Z" fill="#394149"/>
<path id="Vector_12" d="M55.6745 21.8742C61.038 21.8742 65.3859 17.5262 65.3859 12.1627C65.3859 6.79917 61.038 2.45117 55.6745 2.45117C50.3109 2.45117 45.9629 6.79917 45.9629 12.1627C45.9629 17.5262 50.3109 21.8742 55.6745 21.8742Z" fill="#394149"/>
<path id="Vector_13" d="M21.9665 2.45117H2.55273V21.8649H21.9665V2.45117Z" fill="#394149"/>
</g>
</svg>
