<svg width="71" height="50" viewBox="0 0 71 50" fill="none" xmlns="http://www.w3.org/2000/svg">
<g id="Logo">
<path id="Vector" d="M5.82239 45.3217V35.1353H4.15234V45.3217H5.82239Z" fill="#152C4F"/>
<path id="Vector_2" d="M6.84375 41.926C6.84375 44.0071 8.24004 45.4857 10.3618 45.4857C12.4836 45.4857 13.8798 44.0071 13.8798 41.926C13.8798 39.8449 12.4836 38.3662 10.3618 38.3662C8.24004 38.3662 6.84375 39.8449 6.84375 41.926ZM8.52747 41.926C8.52747 40.7074 9.25301 39.8586 10.3618 39.8586C11.4706 39.8586 12.1961 40.7074 12.1961 41.926C12.1961 43.1308 11.4706 43.9934 10.3618 43.9934C9.25301 43.9934 8.52747 43.1308 8.52747 41.926Z" fill="#152C4F"/>
<path id="Vector_3" d="M14.4414 41.7891C14.4414 43.7608 15.7144 45.1847 17.6172 45.1847C18.6028 45.1847 19.4515 44.7876 19.8759 44.1304V45.2805C19.8759 46.3895 19.1778 47.1289 18.0142 47.1289C16.9738 47.1289 16.262 46.6222 16.1662 45.7323H14.4825C14.7015 47.4985 16.0567 48.6486 17.9184 48.6486C20.1086 48.6486 21.5049 47.211 21.5049 44.9793V38.558H20.0265L19.9307 39.4753C19.52 38.7633 18.6713 38.3389 17.6719 38.3389C15.7418 38.3389 14.4414 39.8039 14.4414 41.7891ZM16.1388 41.7481C16.1388 40.6254 16.8507 39.8039 17.9047 39.8039C19.0546 39.8039 19.8211 40.6391 19.8211 41.7481C19.8211 42.8708 19.0546 43.7333 17.9047 43.7333C16.8643 43.7333 16.1388 42.8845 16.1388 41.7481Z" fill="#152C4F"/>
<path id="Vector_4" d="M22.332 41.926C22.332 44.0071 23.7283 45.4857 25.8501 45.4857C27.9718 45.4857 29.3681 44.0071 29.3681 41.926C29.3681 39.8449 27.9718 38.3662 25.8501 38.3662C23.7283 38.3662 22.332 39.8449 22.332 41.926ZM24.0157 41.926C24.0157 40.7074 24.7413 39.8586 25.8501 39.8586C26.9589 39.8586 27.6844 40.7074 27.6844 41.926C27.6844 43.1308 26.9589 43.9934 25.8501 43.9934C24.7413 43.9934 24.0157 43.1308 24.0157 41.926Z" fill="#152C4F"/>
<path id="Vector_5" d="M31.1751 37.1752C31.7226 37.1752 32.1744 36.737 32.1744 36.1757C32.1744 35.628 31.7226 35.1899 31.1751 35.1899C30.6138 35.1899 30.1895 35.628 30.1895 36.1757C30.1895 36.737 30.6138 37.1752 31.1751 37.1752ZM30.3401 45.3216H32.0101V38.558H30.3401V45.3216Z" fill="#152C4F"/>
<path id="Vector_6" d="M33.4727 48.4569H35.1016V44.3905C35.526 45.0888 36.4431 45.4995 37.4561 45.4995C39.4547 45.4995 40.6456 43.9661 40.6182 41.8575C40.5772 39.7354 39.3589 38.3525 37.4424 38.3525C36.4158 38.3525 35.4849 38.8044 35.0742 39.5848L34.9784 38.5579H33.4727V48.4569ZM35.17 41.9397C35.17 40.7212 35.9093 39.8723 37.0728 39.8723C38.2364 39.8723 38.9345 40.7348 38.9345 41.9397C38.9345 43.1446 38.2364 43.9934 37.0728 43.9934C35.9093 43.9934 35.17 43.1583 35.17 41.9397Z" fill="#152C4F"/>
<path id="Vector_7" d="M41.043 43.2952C41.0978 44.6369 42.1381 45.4995 43.7534 45.4995C45.3413 45.4995 46.4227 44.6506 46.4227 43.3363C46.4227 42.3642 45.8204 41.7069 44.7116 41.4331L43.5207 41.1456C43.0142 41.0087 42.672 40.8307 42.672 40.3926C42.672 39.9271 43.0415 39.5985 43.6438 39.5985C44.2736 39.5985 44.6843 39.9544 44.6843 40.5432H46.2037C46.1489 39.2014 45.1497 38.3525 43.6849 38.3525C42.2339 38.3525 41.1525 39.2014 41.1525 40.4884C41.1525 41.3647 41.659 42.0903 42.9595 42.4326L44.1367 42.7338C44.5747 42.8571 44.8485 43.0624 44.8485 43.4458C44.8485 43.9798 44.342 44.2262 43.726 44.2262C42.9868 44.2262 42.5624 43.8839 42.5624 43.2952H41.043Z" fill="#152C4F"/>
<path id="Vector_8" d="M49.8859 45.4997C50.8031 45.4997 51.6791 45.0752 52.0761 44.4454L52.1856 45.3217H53.7462V38.5581H52.0761V42.1042C52.0761 43.3227 51.6107 44.0073 50.5156 44.0073C49.6669 44.0073 49.0783 43.5966 49.0783 42.2V38.5581H47.4082V42.7888C47.4082 44.4043 48.2843 45.4997 49.8859 45.4997Z" fill="#152C4F"/>
<path id="Vector_9" d="M56.8907 45.3215V41.4331C56.8907 40.3378 57.5341 39.8175 58.3281 39.8175C59.122 39.8175 59.6422 40.3241 59.6422 41.2825V45.3215H61.2712V41.4468C61.2712 40.3378 61.9008 39.8175 62.6948 39.8175C63.5025 39.8175 64.0227 40.3241 64.0227 41.2825V45.3215H65.6379V40.8992C65.6379 39.3383 64.7755 38.3525 63.1329 38.3525C62.1062 38.3525 61.2985 38.8454 60.97 39.6396C60.6004 38.8454 59.8612 38.3525 58.7387 38.3525C57.9448 38.3525 57.2329 38.7222 56.836 39.3246L56.7538 38.5579H55.2207V45.3215H56.8907Z" fill="#152C4F"/>
<path id="Vector_10" d="M30.8323 25.9138C28.6322 29.8731 24.1525 31.7568 19.6229 31.7568H1.44922C20.3681 29.392 33.5438 19.9325 35.233 6.75684C36.9222 19.9325 50.0979 29.392 69.0168 31.7568H50.8431C46.3135 31.7568 41.8338 29.8731 39.6337 25.9138C37.2523 21.6285 35.7352 16.7794 35.233 11.4866C34.7308 16.7794 33.2137 21.6285 30.8323 25.9138Z" fill="#1A4688"/>
<path id="Vector_11" d="M20.4395 24.5146C19.3782 25.1121 18.2619 25.6733 17.093 26.1961C16.429 23.9024 16.1846 21.496 16.3795 19.0989C16.6373 15.9276 17.6557 12.8702 19.3446 10.1977C21.0336 7.52521 23.3409 5.31993 26.0621 3.77729C28.7833 2.23466 31.8345 1.40224 34.9454 1.35381C38.0563 1.30536 41.1308 2.04238 43.8967 3.49958C46.6626 4.95676 49.0344 7.08913 50.802 9.70785C52.5697 12.3266 53.6787 15.3508 54.0308 18.5125C54.3187 21.0987 54.093 23.7116 53.3738 26.1961C52.2049 25.6733 51.0885 25.112 50.0272 24.5145C50.4746 22.6982 50.6001 20.8086 50.3916 18.9364C50.1077 16.3868 49.2134 13.948 47.788 11.8364C46.3625 9.72467 44.4499 8.00508 42.2194 6.83001C39.989 5.65492 37.5097 5.0606 35.0011 5.09966C32.4925 5.13872 30.032 5.80997 27.8377 7.05393C25.6433 8.29791 23.7827 10.0762 22.4207 12.2314C21.0588 14.3865 20.2375 16.8519 20.0296 19.4093C19.8899 21.1282 20.0302 22.853 20.4395 24.5146Z" fill="#7FB5E6"/>
</g>
</svg>
