<svg width="149" height="50" viewBox="0 0 149 50" fill="none" xmlns="http://www.w3.org/2000/svg">
<path d="M68.3965 31.7649H79.7888V28.6628H72.1592V13.9683H68.3965V31.7649Z" fill="#3C2979"/>
<path d="M87.5069 32.0257C91.5563 32.0257 94.0763 29.2537 94.0763 25.1434C94.0763 21.007 91.5563 18.2437 87.5069 18.2437C83.4575 18.2437 80.9375 21.007 80.9375 25.1434C80.9375 29.2537 83.4575 32.0257 87.5069 32.0257ZM87.5243 29.158C85.656 29.158 84.7001 27.4461 84.7001 25.1172C84.7001 22.7884 85.656 21.0679 87.5243 21.0679C89.3579 21.0679 90.3136 22.7884 90.3136 25.1172C90.3136 27.4461 89.3579 29.158 87.5243 29.158Z" fill="#3C2979"/>
<path d="M101.763 37.0484C105.577 37.0484 108.289 35.3103 108.289 31.8953V18.4175H104.613V20.6594H104.474C103.978 19.5731 102.892 18.2437 100.659 18.2437C97.7305 18.2437 95.2539 20.5204 95.2539 25.0652C95.2539 29.5056 97.661 31.5738 100.668 31.5738C102.797 31.5738 103.987 30.5049 104.474 29.4013H104.63V31.8431C104.63 33.6767 103.457 34.3893 101.849 34.3893C100.216 34.3893 99.3902 33.6767 99.0861 32.8685L95.6624 33.3292C96.1054 35.432 98.1649 37.0484 101.763 37.0484ZM101.841 28.793C100.025 28.793 99.0339 27.3506 99.0339 25.0478C99.0339 22.7797 100.007 21.1896 101.841 21.1896C103.64 21.1896 104.648 22.7102 104.648 25.0478C104.648 27.4026 103.622 28.793 101.841 28.793Z" fill="#3C2979"/>
<path d="M116.532 32.0257C120.582 32.0257 123.102 29.2537 123.102 25.1434C123.102 21.007 120.582 18.2437 116.532 18.2437C112.483 18.2437 109.963 21.007 109.963 25.1434C109.963 29.2537 112.483 32.0257 116.532 32.0257ZM116.55 29.158C114.681 29.158 113.726 27.4461 113.726 25.1172C113.726 22.7884 114.681 21.0679 116.55 21.0679C118.383 21.0679 119.339 22.7884 119.339 25.1172C119.339 27.4461 118.383 29.158 116.55 29.158Z" fill="#3C2979"/>
<path d="M124.774 31.765H128.476V18.4176H124.774V31.765ZM126.633 16.6969C127.737 16.6969 128.641 15.8541 128.641 14.82C128.641 13.7946 127.737 12.9517 126.633 12.9517C125.539 12.9517 124.635 13.7946 124.635 14.82C124.635 15.8541 125.539 16.6969 126.633 16.6969Z" fill="#3C2979"/>
<path d="M130.707 36.7703H134.408V29.6272H134.521C135.034 30.7396 136.154 31.9822 138.31 31.9822C141.352 31.9822 143.724 29.5752 143.724 25.1085C143.724 20.5204 141.247 18.2437 138.319 18.2437C136.085 18.2437 135.017 19.5731 134.521 20.6594H134.356V18.4175H130.707V36.7703ZM134.33 25.0912C134.33 22.7102 135.338 21.1896 137.137 21.1896C138.971 21.1896 139.944 22.7797 139.944 25.0912C139.944 27.4201 138.953 29.0363 137.137 29.0363C135.356 29.0363 134.33 27.4722 134.33 25.0912Z" fill="#3C2979"/>
<path d="M156.563 22.2235C156.233 19.7644 154.252 18.2437 150.88 18.2437C147.465 18.2437 145.215 19.8252 145.222 22.3974C145.215 24.3961 146.474 25.6908 149.081 26.2122L151.393 26.6728C152.557 26.9074 153.088 27.3331 153.104 28.0022C153.088 28.793 152.227 29.3579 150.933 29.3579C149.611 29.3579 148.734 28.793 148.508 27.7069L144.867 27.898C145.215 30.4528 147.386 32.0257 150.924 32.0257C154.381 32.0257 156.858 30.2616 156.867 27.6287C156.858 25.6996 155.598 24.5438 153.009 24.0137L150.593 23.527C149.351 23.2576 148.89 22.8319 148.899 22.1888C148.89 21.3894 149.794 20.868 150.94 20.868C152.227 20.868 152.992 21.5719 153.174 22.4321L156.563 22.2235Z" fill="#3C2979"/>
<path d="M22.322 2.56396H33.8589L29.228 15.5054C21.0772 16.9377 14.8431 24.8236 14.8431 34.337C14.8431 38.6287 16.1119 42.5892 18.2527 45.7754H2.93359L16.9383 6.63843C17.8188 4.17759 19.951 2.56396 22.322 2.56396Z" fill="#341492"/>
<path d="M33.8583 2.56396L30.6037 11.6592L29.623 2.56396H33.8583Z" fill="black" fill-opacity="0.3"/>
<path d="M41.16 2.56396H29.623L34.2345 15.4508C42.5474 16.7245 48.9514 24.6947 48.9514 34.337C48.9514 38.6287 47.6827 42.5892 45.5418 45.7754H60.5483L46.5437 6.63844C45.6632 4.17759 43.531 2.56396 41.16 2.56396Z" fill="#4C28B5"/>
<path d="M20.2644 44.5298C18.2928 41.7221 17.1172 38.183 17.1172 34.3369C17.1172 25.212 23.7346 17.8149 31.8976 17.8149C40.0606 17.8149 46.6781 25.212 46.6781 34.3369C46.6781 38.183 45.5024 41.7221 43.5309 44.5298C40.2944 42.1203 36.2651 40.6915 31.8976 40.6915C27.5301 40.6915 23.5009 42.1203 20.2644 44.5298Z" fill="#4C28B5"/>
</svg>
