<svg width="73" height="58" viewBox="0 0 73 58" fill="none" xmlns="http://www.w3.org/2000/svg">
<g id="Layer_1" clip-path="url(#clip0_39_3565)">
<path id="Vector" d="M72.5301 36.1608C72.4001 35.9508 72.2101 35.7908 71.9901 35.6908C71.7801 35.5808 71.5301 35.5308 71.2901 35.5508L60.2701 36.3408C61.9901 31.9608 62.4601 27.2408 61.6101 22.5808C60.6801 17.5208 58.2601 12.9308 54.6101 9.30084C50.9701 5.67084 46.3601 3.27084 41.3001 2.36084C40.8301 2.27084 40.3701 2.20084 39.9001 2.15084C39.8101 2.11084 39.7101 2.09084 39.6101 2.08084C38.8901 2.03084 38.1801 1.93084 37.4101 1.77084L28.4201 0.470842C28.3301 0.460842 28.2401 0.440842 28.1401 0.430842C28.0701 0.410842 27.9901 0.400842 27.9001 0.400842C27.4001 0.330842 26.8801 0.250842 26.3801 0.170842C26.2901 0.160842 26.2001 0.150842 26.1101 0.160842C22.0501 -0.309158 17.9201 0.240842 14.1201 1.78084C10.6301 3.25084 7.52009 5.58084 5.14009 8.52084C2.76009 11.4708 1.12009 14.9908 0.410093 18.7108C-0.299907 22.4308 -0.0799071 26.3108 1.05009 29.9308C2.18009 33.5408 4.21009 36.8608 6.91009 39.5108C7.94009 40.5208 9.07009 41.4408 10.2701 42.2508C10.8701 42.6508 11.4901 43.0308 12.1201 43.3708C12.1701 43.3908 12.2201 43.4108 12.2601 43.4308C12.5701 43.5408 12.8601 43.6708 13.1401 43.8208C13.2101 43.8908 13.3001 43.9608 13.4101 44.0008L13.4301 44.0208C13.6001 44.1808 13.8101 44.2708 14.0301 44.2908L25.2201 49.4808C26.6101 50.2008 28.0701 50.8008 29.6001 51.2508C30.5701 51.5508 31.5601 51.7808 32.5701 51.9508L46.7001 57.5008C46.7001 57.5008 46.7701 57.5308 46.8101 57.5408C46.8501 57.5508 46.9001 57.5608 46.9501 57.5708C47.0001 57.5708 47.0401 57.5808 47.0901 57.5808C47.1301 57.5808 47.1801 57.5708 47.2201 57.5708C48.5601 57.4108 50.0201 57.2708 51.4901 57.1208C52.9701 56.9808 54.4501 56.8308 55.8101 56.6708L60.3101 56.1408C60.9901 56.1408 61.5301 56.0808 61.8701 55.6108C62.1001 55.2708 62.1001 54.9308 62.0601 54.0008C62.0501 53.8808 62.0501 53.7908 62.0501 53.7408V49.3908C65.0901 49.1408 67.7601 48.6008 70.8801 47.7008C71.3001 47.5708 71.5901 47.1908 71.6001 46.7608L71.7301 39.6808L72.6201 37.5208C72.7301 37.3008 72.7801 37.0508 72.7601 36.8108C72.7401 36.5708 72.6601 36.3408 72.5301 36.1608ZM8.31009 38.0808C5.84009 35.6608 3.99009 32.6308 2.96009 29.3308C1.93009 26.0308 1.73009 22.4908 2.38009 19.0908C3.02009 15.6908 4.52009 12.4708 6.70009 9.78084C8.87009 7.09084 11.7101 4.96084 14.8801 3.63084C16.8401 2.84084 18.9001 2.33084 20.9901 2.12084C19.2401 2.83084 17.5801 3.73084 16.0301 4.81084C12.5601 7.24084 9.74009 10.5408 7.87009 14.3508C6.01009 18.1508 5.13009 22.4008 5.33009 26.6308C5.53009 30.8708 6.81009 35.0108 9.04009 38.6308C9.11009 38.7408 9.18009 38.8508 9.25009 38.9508C8.93009 38.6708 8.61009 38.3808 8.31009 38.0808ZM14.5801 42.3508C13.1301 40.9008 11.8301 39.3008 10.7401 37.5708C8.69009 34.2508 7.51009 30.4308 7.33009 26.5408C7.14009 22.6408 7.95009 18.7308 9.67009 15.2308C11.3901 11.7208 13.9801 8.69084 17.1801 6.45084C20.3301 4.24084 24.0201 2.84084 27.8401 2.41084C27.9501 2.42084 28.0501 2.44084 28.1501 2.45084L30.4601 2.78084C29.0801 3.14084 27.7201 3.63084 26.4001 4.23084C21.7201 6.36084 17.8501 9.83084 15.2201 14.2508C12.5801 18.6708 11.3701 23.7208 11.7201 28.8508C12.0701 33.9808 13.9501 38.8208 17.1601 42.8408C17.4801 43.2408 17.8001 43.6208 18.1301 43.9908L14.5801 42.3508ZM31.9201 49.7908C31.3301 49.6608 30.7501 49.5108 30.1801 49.3408C29.2001 49.0508 28.2501 48.6908 27.3301 48.2808C27.2801 48.2408 27.2101 48.2008 27.1501 48.1708L26.1201 47.6908C23.2701 46.2108 20.7601 44.1508 18.7301 41.6008C15.7701 37.9008 14.0401 33.4408 13.7201 28.7108C13.4001 23.9908 14.5101 19.3408 16.9301 15.2708C19.3601 11.2008 22.9201 8.01084 27.2301 6.05084C31.5401 4.08084 36.2801 3.49084 40.9401 4.33084C45.6101 5.16084 49.8401 7.37084 53.2001 10.7108C56.5601 14.0608 58.7801 18.2908 59.6401 22.9408C60.4701 27.4608 59.9601 32.0508 58.1601 36.2608C57.2001 35.9608 53.5901 34.8008 50.4501 33.7908C51.4501 31.7808 51.9801 29.5508 51.9901 27.2908C51.9701 24.9308 51.3901 22.5808 50.2901 20.4908C49.2001 18.4008 47.6001 16.5808 45.6601 15.2208C43.7301 13.8708 41.4701 12.9908 39.1301 12.6708C36.7901 12.3608 34.3801 12.6108 32.1601 13.4108C29.9301 14.2108 27.9101 15.5408 26.3001 17.2708C24.6901 19.0008 23.5101 21.1108 22.8701 23.3908C22.2401 25.6608 22.1601 28.0808 22.6401 30.4008C23.1201 32.7108 24.1601 34.9008 25.6601 36.7308C26.6601 37.9608 27.8501 39.0008 29.2001 39.8508H29.2101C29.3101 40.0508 29.4801 40.2108 29.7001 40.3008L31.9201 41.2408V49.7908ZM49.8801 39.9108L49.9001 39.9508L37.5201 35.6108C40.0301 35.5408 42.6201 35.1508 45.1801 34.1908C46.4701 34.6208 50.2901 35.8408 53.3901 36.8308L51.7301 36.9508C51.3901 36.9908 51.0601 37.1008 50.7701 37.2808C50.4801 37.4608 50.2401 37.7108 50.0701 37.9908C49.8901 38.2808 49.7801 38.6108 49.7501 38.9508C49.7201 39.2808 49.7701 39.6308 49.8801 39.9108ZM28.7501 29.5908C28.6501 29.2408 28.5701 28.8708 28.5201 28.5008C28.3001 26.8908 28.5201 25.2608 29.1801 23.7808C29.8301 22.2908 30.8801 21.0208 32.2201 20.1108C32.2501 20.0908 32.2801 20.0708 32.3101 20.0508C32.6501 20.8408 32.8601 21.6908 32.9101 22.5408C32.9801 23.6208 32.8101 24.7308 32.4001 25.7608C32.0501 26.7308 31.4701 27.6208 30.7201 28.3208C30.1501 28.8608 29.4701 29.2908 28.7501 29.5908ZM32.0901 29.7808C33.0701 28.8608 33.8301 27.7008 34.2701 26.4708C34.7701 25.1908 34.9901 23.7908 34.9101 22.4208C34.8401 21.2908 34.5601 20.1708 34.0901 19.1408C34.9301 18.8208 35.8301 18.6408 36.7401 18.5908C38.3701 18.5208 39.9701 18.9008 41.3801 19.6908C42.8001 20.4808 43.9601 21.6508 44.7501 23.0708C45.5301 24.4908 45.9101 26.0908 45.8301 27.7108C45.7501 29.3308 45.2201 30.9008 44.2901 32.2308C44.2501 32.2908 44.2201 32.3608 44.1901 32.4208C39.5701 34.0608 34.7701 33.7208 30.6101 33.1208C30.5801 33.0308 30.5201 32.9408 30.4601 32.8608C30.0901 32.4208 29.7701 31.9508 29.5001 31.4508C30.4501 31.0508 31.3401 30.4908 32.0901 29.7808ZM46.2301 47.4108L46.1101 55.1208L34.1601 50.4208C34.0901 50.3408 34.0101 50.2708 33.9201 50.2108V42.0908L46.2401 47.3008C46.2401 47.3008 46.2301 47.3708 46.2301 47.4108ZM31.0801 38.7108V35.4608L50.4301 42.2608V46.9108L31.0801 38.7108ZM60.0601 54.1508L55.5701 54.6808C54.2301 54.8408 52.7601 54.9908 51.2901 55.1308C50.2101 55.2408 49.1301 55.3408 48.1001 55.4608L48.2201 48.1408L51.0001 49.3208C51.1301 49.3708 51.2601 49.4008 51.3901 49.4008C53.6701 49.5108 55.6501 49.5808 57.4401 49.5808C58.3601 49.5808 59.2201 49.5508 60.0501 49.5208V53.7408C60.0501 53.8008 60.0501 53.9308 60.0601 54.0908V54.1508Z" fill="#6BB1FC"/>
</g>
<defs>
<clipPath id="clip0_39_3565">
<rect width="72.76" height="57.58" fill="white"/>
</clipPath>
</defs>
</svg>
