<svg width="77" height="93" viewBox="0 0 77 93" fill="none" xmlns="http://www.w3.org/2000/svg">
<g clip-path="url(#clip0_128_30581)">
<path d="M8.68359 74.1125C9.18987 62.3507 18.9169 52.9375 30.7999 52.9375H46.1999C58.0829 52.9375 67.8119 62.3507 68.3162 74.1125H8.68359Z" fill="#6BB1FC"/>
<path d="M46.1992 53.8996C57.2275 53.8996 66.3116 62.3715 67.2876 73.1496H9.71084C10.6868 62.3715 19.7709 53.8996 30.7992 53.8996H46.1992ZM46.1992 51.9746H30.7992C18.0422 51.9746 7.69922 62.3176 7.69922 75.0746H69.2992C69.2992 62.3176 58.9562 51.9746 46.1992 51.9746Z" fill="#4089D9"/>
<path d="M38.5004 58.7125C32.3038 58.7125 30.2056 54.6661 29.8379 53.8288V43.3125H47.1629V53.8307C46.801 54.6584 44.7027 58.7125 38.5004 58.7125Z" fill="#A2CFFF"/>
<path d="M46.2 44.2752V53.6191C45.7361 54.5605 43.7706 57.7502 38.5 57.7502C33.2447 57.7502 31.2697 54.5605 30.8 53.6172V44.2752H46.2ZM48.125 42.3502H28.875V54.0195C28.875 54.0195 30.927 59.6752 38.5 59.6752C46.0729 59.6752 48.125 54.0195 48.125 54.0195V42.3502ZM52.2503 26.9502C49.2126 26.9502 46.7505 29.4123 46.7505 32.4499C46.7505 35.4876 49.2126 37.9496 52.2503 37.9496C55.2879 37.9496 57.75 33.653 57.75 30.6154C57.75 27.5797 55.2879 26.9502 52.2503 26.9502ZM24.7497 26.9502C21.7121 26.9502 19.25 27.5797 19.25 30.6173C19.25 33.655 21.7121 37.9516 24.7497 37.9516C27.7874 37.9516 30.2494 35.4895 30.2494 32.4518C30.2494 29.4142 27.7874 26.9502 24.7497 26.9502Z" fill="#4089D9"/>
<path d="M38.5 51.0131C37.3373 51.0131 36.2458 50.5934 35.3411 49.7984L35.1678 49.6463L34.9426 49.5905C28.5362 47.9639 24.0625 42.2177 24.0625 35.6131V17.7125C24.0625 14.1974 26.923 11.335 30.44 11.335H46.5619C50.0789 11.335 52.9394 14.1955 52.9394 17.7125V35.6131C52.9394 42.2177 48.4657 47.9639 42.0593 49.5905L41.8341 49.6463L41.6608 49.7984C40.7542 50.5934 39.6627 51.0131 38.5 51.0131Z" fill="white"/>
<path d="M46.5596 12.299C49.5453 12.299 51.9746 14.7284 51.9746 17.714V35.6127C51.9746 41.7746 47.7993 47.1377 41.8202 48.6565L41.3717 48.7701L41.0233 49.0761C40.517 49.5208 39.67 50.0502 38.4996 50.0502C37.3292 50.0502 36.4822 49.5208 35.9759 49.0761L35.6275 48.7701L35.179 48.6565C29.1999 47.1377 25.0246 41.7746 25.0246 35.6127V17.714C25.0246 14.7284 27.454 12.299 30.4396 12.299H46.5596ZM46.5596 10.374H30.4377C26.3856 10.374 23.0996 13.66 23.0996 17.714V35.6127C23.0996 42.8064 28.0392 48.8297 34.7054 50.5218C35.7218 51.415 37.0405 51.9752 38.4996 51.9752C39.9588 51.9752 41.2774 51.415 42.2938 50.5218C48.9601 48.8297 53.8996 42.8064 53.8996 35.6127V17.714C53.8996 13.66 50.6136 10.374 46.5596 10.374Z" fill="#4089D9"/>
<path d="M52.9367 33.6875V26.95C52.9367 19.9526 47.0963 16.2046 46.848 16.0487L46.0818 15.5675L45.5524 16.3067C45.3907 16.5338 41.4734 21.8622 33.013 21.8622C30.7992 21.8622 24.0617 21.8622 24.0617 28.8769V33.6894H23.6536C22.9683 32.4728 21.1377 29.0001 20.2656 25.1617C21.1877 23.458 22.541 22.074 23.6402 20.9498C24.9511 19.6061 25.9867 18.5454 25.9867 17.325C25.9867 7.46322 25.9867 4.8125 36.5742 4.8125C44.2261 4.8125 47.3696 8.3006 47.4004 8.33332L47.6873 8.6625H48.1242C48.5362 8.6625 48.925 8.65287 49.2908 8.64325C49.5988 8.63555 49.8914 8.62785 50.1647 8.62785C52.0089 8.62785 52.9367 8.62785 52.9367 15.4C52.9367 17.1614 54.3266 20.3145 56.7328 25.1443C55.83 28.8654 54.0128 32.4285 53.3333 33.6875H52.9367Z" fill="#6BB1FC"/>
<path d="M36.575 5.77461C43.6551 5.77461 46.5715 8.85461 46.6774 8.96818L47.253 9.62461H48.125C48.5466 9.62461 48.9431 9.61498 49.3166 9.60536C49.6169 9.59766 49.8998 9.58996 50.1655 9.58996C51.2011 9.58996 51.2704 9.70738 51.3474 9.84213C51.7632 10.5621 51.975 12.4332 51.975 15.3996C51.975 17.3188 53.2859 20.368 55.7133 25.2537C55.2379 27.0959 54.5429 28.8842 53.9 30.3376V26.9496C53.9 19.4248 47.6284 15.4015 47.3608 15.2321L45.8188 14.2639L44.7659 15.75C44.7293 15.8019 41.0294 20.8974 33.0137 20.8974C26.436 20.8993 23.1 23.5828 23.1 28.8746V30.4531C22.4532 29.019 21.7563 27.2172 21.2886 25.3037C22.1317 23.8658 23.2925 22.68 24.3281 21.6193C25.7353 20.1794 26.95 18.9358 26.95 17.3246C26.95 7.53791 26.95 5.77461 36.575 5.77461ZM36.575 3.84961C25.3734 3.84961 25.025 7.06436 25.025 17.3246C25.025 19.0225 21.175 21.1746 19.25 25.0246C20.3318 30.1451 23.1 34.6496 23.1 34.6496H25.025C25.025 34.6496 25.025 30.7438 25.025 28.8746C25.025 23.7387 28.9212 22.8243 33.0137 22.8243C42.119 22.8243 46.3386 16.8626 46.3386 16.8626C46.3386 16.8626 51.975 20.4027 51.975 26.9496C51.975 29.0074 51.975 34.6496 51.975 34.6496H53.9C53.9 34.6496 56.6277 29.9603 57.75 25.0246C55.825 21.1746 53.9 17.1668 53.9 15.3996C53.9 8.32523 52.7835 7.66496 50.1655 7.66496C49.5649 7.66496 48.8873 7.69961 48.125 7.69961C48.125 7.69961 44.7505 3.84961 36.575 3.84961Z" fill="#4089D9"/>
<path d="M56.7822 23.8663C53.9159 23.3639 46.1678 22.1377 38.5005 22.1377C30.8332 22.1377 23.0851 23.3639 20.2188 23.8663C20.3266 14.4704 21.7029 7.80222 22.0359 6.31997C22.9927 5.6289 27.4798 2.8877 38.5005 2.8877C49.5076 2.8877 53.9948 5.6212 54.965 6.31997C55.298 7.808 56.6744 14.4743 56.7822 23.8663Z" fill="white"/>
<path d="M38.5 3.8498C48.4099 3.8498 52.8393 6.09436 54.1041 6.89708C54.5083 8.78936 55.6132 14.6394 55.798 22.7206C52.3234 22.1431 45.4589 21.1748 38.5 21.1748C31.5411 21.1748 24.6766 22.1431 21.2019 22.7206C21.3867 14.6471 22.4898 8.79898 22.894 6.90286C24.1934 6.07896 28.6267 3.8498 38.5 3.8498ZM38.5 1.9248C25.2675 1.9248 21.175 5.77481 21.175 5.77481C21.175 5.77481 19.25 13.4748 19.25 25.0248C19.25 25.0248 28.875 23.0998 38.5 23.0998C48.125 23.0998 57.75 25.0248 57.75 25.0248C57.75 13.4748 55.825 5.77481 55.825 5.77481C55.825 5.77481 51.7344 1.9248 38.5 1.9248Z" fill="#4089D9"/>
<path d="M36.5742 7.7002H40.4242V19.2502H36.5742V7.7002Z" fill="#4089D9"/>
<path d="M32.7246 11.5498H44.2746V15.3998H32.7246V11.5498Z" fill="#4089D9"/>
<path d="M20.707 80.1985L23.486 77.4195L32.362 86.2965L54.514 64.1445L57.293 66.9235L32.362 91.8545L20.707 80.1985Z" fill="white"/>
<path d="M54.514 64.8525L56.586 66.9245L32.363 91.1485L21.414 80.1995L23.486 78.1275L31.655 86.2965L32.362 87.0035L33.069 86.2965L54.514 64.8525ZM54.514 63.4385L32.363 85.5905L23.487 76.7145L20 80.1995L32.363 92.5625L58 66.9245L54.514 63.4385Z" fill="#4089D9"/>
</g>
<defs>
<clipPath id="clip0_128_30581">
<rect width="77" height="93" fill="white"/>
</clipPath>
</defs>
</svg>
