<svg width="49" height="48" viewBox="0 0 49 48" fill="none" xmlns="http://www.w3.org/2000/svg">
<path d="M24.5 4C13.454 4 4.5 12.954 4.5 24C4.5 35.046 13.454 44 24.5 44C35.546 44 44.5 35.046 44.5 24C44.5 12.954 35.546 4 24.5 4Z" fill="url(#paint0_linear_83_12031)"/>
<path d="M27.2071 29.301H32.3831L33.1961 24.043H27.2071V21.169C27.2071 18.985 27.9211 17.048 29.9641 17.048H33.2471V12.46C32.6701 12.382 31.4501 12.212 29.1451 12.212C24.3311 12.212 21.5091 14.754 21.5091 20.546V24.044H16.5601V29.302H21.5081V43.754C22.4881 43.9 23.4811 44 24.5001 44C25.4211 44 26.3201 43.916 27.2071 43.796V29.301Z" fill="white"/>
<defs>
<linearGradient id="paint0_linear_83_12031" x1="10.493" y1="9.993" x2="41.115" y2="40.615" gradientUnits="userSpaceOnUse">
<stop stop-color="#2AA4F4"/>
<stop offset="1" stop-color="#007AD9"/>
</linearGradient>
</defs>
</svg>
