<svg width="49" height="48" viewBox="0 0 49 48" fill="none" xmlns="http://www.w3.org/2000/svg">
<path d="M44.111 20.083H42.5V20H24.5V28H35.803C34.154 32.657 29.723 36 24.5 36C17.873 36 12.5 30.627 12.5 24C12.5 17.373 17.873 12 24.5 12C27.559 12 30.342 13.154 32.461 15.039L38.118 9.382C34.546 6.053 29.768 4 24.5 4C13.455 4 4.5 12.955 4.5 24C4.5 35.045 13.455 44 24.5 44C35.545 44 44.5 35.045 44.5 24C44.5 22.659 44.362 21.35 44.111 20.083Z" fill="#FBC02D"/>
<path d="M6.80615 14.691L13.3772 19.51C15.1552 15.108 19.4612 12 24.5002 12C27.5592 12 30.3422 13.154 32.4612 15.039L38.1182 9.382C34.5462 6.053 29.7682 4 24.5002 4C16.8182 4 10.1562 8.337 6.80615 14.691Z" fill="#E53935"/>
<path d="M24.4998 44C29.6658 44 34.3598 42.023 37.9088 38.808L31.7188 33.57C29.7108 35.091 27.2148 36 24.4998 36C19.2978 36 14.8808 32.683 13.2168 28.054L6.69482 33.079C10.0048 39.556 16.7268 44 24.4998 44Z" fill="#4CAF50"/>
<path d="M44.111 20.083L44.095 20H42.5H24.5V28H35.803C35.011 30.237 33.572 32.166 31.716 33.571L31.719 33.569L37.909 38.807C37.471 39.205 44.5 34 44.5 24C44.5 22.659 44.362 21.35 44.111 20.083Z" fill="#1565C0"/>
</svg>
