<svg width="75" height="75" viewBox="0 0 75 75" fill="none" xmlns="http://www.w3.org/2000/svg">
<path d="M56.096 22.4082C55.0623 21.3805 53.8349 20.5653 52.484 20.0091C51.133 19.4529 49.6851 19.1666 48.2228 19.1666C46.7604 19.1666 45.3125 19.4529 43.9615 20.0091C42.6106 20.5653 41.3832 21.3805 40.3495 22.4082L38.204 24.54L36.0586 22.4082C33.9705 20.3334 31.1384 19.1677 28.1853 19.1677C25.2322 19.1677 22.4001 20.3334 20.312 22.4082C18.2239 24.4831 17.0508 27.2972 17.0508 30.2315C17.0508 33.1659 18.2239 35.98 20.312 38.0549L22.4574 40.1867L38.204 55.8333L53.9506 40.1867L56.096 38.0549C57.1303 37.0277 57.9507 35.808 58.5105 34.4657C59.0702 33.1233 59.3584 31.6846 59.3584 30.2315C59.3584 28.7785 59.0702 27.3397 58.5105 25.9974C57.9507 24.655 57.1303 23.4354 56.096 22.4082V22.4082Z" fill="url(#paint0_linear_450_5458)"/>
<g filter="url(#filter0_b_450_5458)">
<path d="M32.9166 45.9616C32.5147 45.9612 32.12 45.8551 31.7721 45.654C31.4242 45.4529 31.1353 45.1638 30.9343 44.8158L27.027 37.792L24.5291 41.5388C24.3142 41.8488 24.026 42.1009 23.6902 42.2728C23.3544 42.4447 22.9813 42.5311 22.6041 42.5242H12.2917C11.6839 42.5242 11.101 42.2828 10.6712 41.853C10.2414 41.4232 10 40.8404 10 40.2326C10 39.6248 10.2414 39.0419 10.6712 38.6122C11.101 38.1824 11.6839 37.941 12.2917 37.941H21.3781L25.2854 32.0859C25.5037 31.7597 25.8021 31.495 26.1521 31.3172C26.502 31.1394 26.8918 31.0545 27.284 31.0706C27.6762 31.0867 28.0577 31.2033 28.3919 31.4092C28.7261 31.615 29.0018 31.9033 29.1927 32.2463L32.9166 39.0868L38.9093 28.7745C39.1141 28.4197 39.4102 28.1262 39.7669 27.9247C40.1236 27.7232 40.5278 27.621 40.9374 27.6287C41.3373 27.6311 41.7297 27.7381 42.0754 27.9392C42.4212 28.1402 42.7083 28.4282 42.9082 28.7745L48.3968 37.941L50.6884 36.1306C51.0946 35.8153 51.5951 35.6458 52.1093 35.6494H62.7082C63.316 35.6494 63.8989 35.8908 64.3286 36.3206C64.7584 36.7503 64.9998 37.3332 64.9998 37.941C64.9998 38.5487 64.7584 39.1316 64.3286 39.5614C63.8989 39.9912 63.316 40.2326 62.7082 40.2326H52.9113L49.1874 43.1773C48.9308 43.3884 48.6314 43.5411 48.3099 43.625C47.9884 43.7088 47.6525 43.7218 47.3255 43.6629C46.9986 43.6041 46.6883 43.4748 46.4162 43.2841C46.1441 43.0934 45.9168 42.8459 45.7499 42.5586L40.9374 34.4348L34.8989 44.8158C34.698 45.1638 34.409 45.4529 34.0611 45.654C33.7132 45.8551 33.3185 45.9612 32.9166 45.9616Z" fill="white" fill-opacity="0.2"/>
</g>
<defs>
<filter id="filter0_b_450_5458" x="-15" y="2.6283" width="105" height="68.3334" filterUnits="userSpaceOnUse" color-interpolation-filters="sRGB">
<feFlood flood-opacity="0" result="BackgroundImageFix"/>
<feGaussianBlur in="BackgroundImageFix" stdDeviation="12.5"/>
<feComposite in2="SourceAlpha" operator="in" result="effect1_backgroundBlur_450_5458"/>
<feBlend mode="normal" in="SourceGraphic" in2="effect1_backgroundBlur_450_5458" result="shape"/>
</filter>
<linearGradient id="paint0_linear_450_5458" x1="17.0508" y1="36.2777" x2="58.3441" y2="36.4903" gradientUnits="userSpaceOnUse">
<stop stop-color="#FF7070"/>
<stop offset="1" stop-color="#FF7070" stop-opacity="0.65"/>
</linearGradient>
</defs>
</svg>
