<svg width="70" height="70" viewBox="0 0 70 70" fill="none" xmlns="http://www.w3.org/2000/svg">
<path d="M26.25 67.375C25.7687 67.375 25.375 66.9813 25.375 66.5V56C25.375 55.5187 25.7687 55.125 26.25 55.125H43.75C44.2313 55.125 44.625 55.5187 44.625 56V66.5C44.625 66.9813 44.2313 67.375 43.75 67.375H26.25Z" fill="#6BB1FC"/>
<path d="M43.75 56V66.5H26.25V56H43.75ZM43.75 54.25H26.25C25.2875 54.25 24.5 55.0375 24.5 56V66.5C24.5 67.4625 25.2875 68.25 26.25 68.25H43.75C44.7125 68.25 45.5 67.4625 45.5 66.5V56C45.5 55.0375 44.7125 54.25 43.75 54.25Z" fill="#4089D9"/>
<path d="M35 60.375C19.0785 60.375 6.125 47.4215 6.125 31.5C6.125 15.5785 19.0785 2.625 35 2.625C50.9215 2.625 63.875 15.5785 63.875 31.5C63.875 47.4215 50.9215 60.375 35 60.375ZM35 18.375C27.762 18.375 21.875 24.262 21.875 31.5C21.875 38.738 27.762 44.625 35 44.625C42.238 44.625 48.125 38.738 48.125 31.5C48.125 24.262 42.238 18.375 35 18.375Z" fill="white"/>
<path d="M35 3.5C50.4385 3.5 63 16.0615 63 31.5C63 46.9385 50.4385 59.5 35 59.5C19.5615 59.5 7 46.9385 7 31.5C7 16.0615 19.5615 3.5 35 3.5ZM35 45.5C42.7192 45.5 49 39.2192 49 31.5C49 23.7808 42.7192 17.5 35 17.5C27.2808 17.5 21 23.7808 21 31.5C21 39.2192 27.2808 45.5 35 45.5ZM35 1.75C18.5693 1.75 5.25 15.0693 5.25 31.5C5.25 47.9307 18.5693 61.25 35 61.25C51.4307 61.25 64.75 47.9307 64.75 31.5C64.75 15.0693 51.4307 1.75 35 1.75ZM35 43.75C28.2345 43.75 22.75 38.2655 22.75 31.5C22.75 24.7345 28.2345 19.25 35 19.25C41.7655 19.25 47.25 24.7345 47.25 31.5C47.25 38.2655 41.7655 43.75 35 43.75Z" fill="#4089D9"/>
<path d="M35 53.375C22.9372 53.375 13.125 43.5628 13.125 31.5C13.125 19.4372 22.9372 9.625 35 9.625C47.0628 9.625 56.875 19.4372 56.875 31.5C56.875 43.5628 47.0628 53.375 35 53.375ZM35 18.375C27.762 18.375 21.875 24.262 21.875 31.5C21.875 38.738 27.762 44.625 35 44.625C42.238 44.625 48.125 38.738 48.125 31.5C48.125 24.262 42.238 18.375 35 18.375Z" fill="white"/>
<path d="M35 10.5C46.5798 10.5 56 19.9202 56 31.5C56 43.0798 46.5798 52.5 35 52.5C23.4202 52.5 14 43.0798 14 31.5C14 19.9202 23.4202 10.5 35 10.5ZM35 45.5C42.7192 45.5 49 39.2192 49 31.5C49 23.7808 42.7192 17.5 35 17.5C27.2808 17.5 21 23.7808 21 31.5C21 39.2192 27.2808 45.5 35 45.5ZM35 8.75C22.435 8.75 12.25 18.935 12.25 31.5C12.25 44.065 22.435 54.25 35 54.25C47.565 54.25 57.75 44.065 57.75 31.5C57.75 18.935 47.565 8.75 35 8.75ZM35 43.75C28.2345 43.75 22.75 38.2655 22.75 31.5C22.75 24.7345 28.2345 19.25 35 19.25C41.7655 19.25 47.25 24.7345 47.25 31.5C47.25 38.2655 41.7655 43.75 35 43.75Z" fill="#6BB1FC"/>
<path d="M21 60.375C19.5527 60.375 18.375 59.1973 18.375 57.75V53.375H51.625V57.75C51.625 59.1973 50.4473 60.375 49 60.375H21Z" fill="#6BB1FC"/>
<path d="M50.75 54.25V57.75C50.75 58.7142 49.9642 59.5 49 59.5H21C20.0358 59.5 19.25 58.7142 19.25 57.75V54.25H50.75ZM52.5 52.5H17.5V57.75C17.5 59.675 19.075 61.25 21 61.25H49C50.925 61.25 52.5 59.675 52.5 57.75V52.5Z" fill="#4089D9"/>
<path d="M18.375 53.375V52.6733L24.5192 37.625H45.4825L51.625 52.6715V53.375H18.375Z" fill="#A2CFFF"/>
<path d="M44.8945 38.5L50.61 52.5H19.39L25.1073 38.5H44.8945ZM46.0705 36.75H23.9313L17.5 52.5V54.25H52.5V52.5L46.0705 36.75Z" fill="#4089D9"/>
<path d="M38.5 10.5H31.5C30.534 10.5 29.75 9.716 29.75 8.75C29.75 7.784 30.534 7 31.5 7H38.5C39.466 7 40.25 7.784 40.25 8.75C40.25 9.716 39.466 10.5 38.5 10.5Z" fill="#6BB1FC"/>
</svg>
