<svg width="70" height="70" viewBox="0 0 70 70" fill="none" xmlns="http://www.w3.org/2000/svg">
<path d="M7.89453 67.375C8.35478 56.6825 17.1975 48.125 28.0003 48.125H42.0003C52.803 48.125 61.6475 56.6825 62.106 67.375H7.89453Z" fill="#6BB1FC"/>
<path d="M42 49C52.0258 49 60.284 56.7018 61.1713 66.5H8.82875C9.716 56.7018 17.9742 49 28 49H42ZM42 47.25H28C16.4028 47.25 7 56.6528 7 68.25H63C63 56.6528 53.5972 47.25 42 47.25Z" fill="#4089D9"/>
<path d="M35 53.375C29.3667 53.375 27.4592 49.6965 27.125 48.9352V39.375H42.875V48.937C42.546 49.6895 40.6385 53.375 35 53.375Z" fill="#A2CFFF"/>
<path d="M42 40.25V48.7445C41.5783 49.6003 39.7915 52.5 35 52.5C30.2225 52.5 28.427 49.6003 28 48.7428V40.25H42ZM43.75 38.5H26.25V49.1085C26.25 49.1085 28.1155 54.25 35 54.25C41.8845 54.25 43.75 49.1085 43.75 49.1085V38.5ZM47.5002 24.5C44.7387 24.5 42.5005 26.7383 42.5005 29.4998C42.5005 32.2613 44.7387 34.4995 47.5002 34.4995C50.2617 34.4995 52.5 30.5935 52.5 27.832C52.5 25.0723 50.2617 24.5 47.5002 24.5ZM22.4998 24.5C19.7383 24.5 17.5 25.0722 17.5 27.8337C17.5 30.5952 19.7383 34.5013 22.4998 34.5013C25.2613 34.5013 27.4995 32.263 27.4995 29.5015C27.4995 26.74 25.2613 24.5 22.4998 24.5Z" fill="#4089D9"/>
<path d="M35 46.3751C33.943 46.3751 32.9507 45.9936 32.1282 45.2708L31.9707 45.1326L31.766 45.0818C25.942 43.6031 21.875 38.3793 21.875 32.3751V16.1018C21.875 12.9063 24.4755 10.3041 27.6727 10.3041H42.329C45.5262 10.3041 48.1267 12.9046 48.1267 16.1018V32.3751C48.1267 38.3793 44.0598 43.6031 38.2358 45.0818L38.031 45.1326L37.8735 45.2708C37.0492 45.9936 36.057 46.3751 35 46.3751Z" fill="white"/>
<path d="M42.3273 11.1808C45.0415 11.1808 47.25 13.3893 47.25 16.1035V32.375C47.25 37.9768 43.4543 42.8523 38.0188 44.233L37.611 44.3363L37.2943 44.6145C36.834 45.0188 36.064 45.5 35 45.5C33.936 45.5 33.166 45.0188 32.7057 44.6145L32.389 44.3363L31.9812 44.233C26.5457 42.8523 22.75 37.9768 22.75 32.375V16.1035C22.75 13.3893 24.9585 11.1808 27.6727 11.1808H42.3273ZM42.3273 9.43079H27.671C23.9873 9.43079 21 12.418 21 16.1035V32.375C21 38.9148 25.4905 44.3905 31.5507 45.9288C32.4747 46.7408 33.6735 47.25 35 47.25C36.3265 47.25 37.5253 46.7408 38.4493 45.9288C44.5095 44.3905 49 38.9148 49 32.375V16.1035C49 12.418 46.0128 9.43079 42.3273 9.43079Z" fill="#4089D9"/>
<path d="M48.1248 30.625V24.5C48.1248 18.1388 42.8153 14.7315 42.5896 14.5898L41.8931 14.1523L41.4118 14.8243C41.2648 15.0308 37.7036 19.8748 30.0123 19.8748C27.9998 19.8748 21.8748 19.8748 21.8748 26.2518V30.6268H21.5038C20.8808 29.5208 19.2166 26.3638 18.4238 22.8743C19.2621 21.3255 20.4923 20.0673 21.4916 19.0453C22.6833 17.8238 23.6248 16.8595 23.6248 15.75C23.6248 6.78475 23.6248 4.375 33.2498 4.375C40.2061 4.375 43.0638 7.546 43.0918 7.57575L43.3526 7.875H43.7498C44.1243 7.875 44.4778 7.86625 44.8103 7.8575C45.0903 7.8505 45.3563 7.8435 45.6048 7.8435C47.2813 7.8435 48.1248 7.8435 48.1248 14C48.1248 15.6013 49.3883 18.4678 51.5758 22.8585C50.7551 26.2413 49.1031 29.4805 48.4853 30.625H48.1248Z" fill="#6BB1FC"/>
<path d="M33.25 5.25C39.6865 5.25 42.3377 8.05 42.434 8.15325L42.9573 8.75H43.75C44.1332 8.75 44.4937 8.74125 44.8332 8.7325C45.1062 8.7255 45.3635 8.7185 45.605 8.7185C46.5465 8.7185 46.6095 8.82525 46.6795 8.94775C47.0575 9.60225 47.25 11.3032 47.25 14C47.25 15.7447 48.4417 18.5168 50.6485 22.9583C50.2162 24.633 49.5845 26.2588 49 27.58V24.5C49 17.6593 43.2985 14.0018 43.0553 13.8478L41.6535 12.9675L40.6962 14.3185C40.663 14.3658 37.2995 18.998 30.0125 18.998C24.0327 18.9997 21 21.4392 21 26.25V27.685C20.412 26.3812 19.7785 24.7433 19.3533 23.0038C20.1198 21.6965 21.175 20.6185 22.1165 19.6542C23.3957 18.3452 24.5 17.2148 24.5 15.75C24.5 6.853 24.5 5.25 33.25 5.25ZM33.25 3.5C23.0668 3.5 22.75 6.4225 22.75 15.75C22.75 17.2935 19.25 19.25 17.5 22.75C18.4835 27.405 21 31.5 21 31.5H22.75C22.75 31.5 22.75 27.9493 22.75 26.25C22.75 21.581 26.292 20.7498 30.0125 20.7498C38.29 20.7498 42.126 15.33 42.126 15.33C42.126 15.33 47.25 18.5482 47.25 24.5C47.25 26.3708 47.25 31.5 47.25 31.5H49C49 31.5 51.4797 27.237 52.5 22.75C50.75 19.25 49 15.6065 49 14C49 7.56875 47.985 6.9685 45.605 6.9685C45.059 6.9685 44.443 7 43.75 7C43.75 7 40.6823 3.5 33.25 3.5Z" fill="#4089D9"/>
<path d="M51.6204 21.6965C49.0146 21.2398 41.9709 20.125 35.0006 20.125C28.0304 20.125 20.9866 21.2398 18.3809 21.6965C18.4789 13.1548 19.7301 7.09275 20.0329 5.74525C20.9026 5.117 24.9819 2.625 35.0006 2.625C45.0071 2.625 49.0864 5.11 49.9684 5.74525C50.2711 7.098 51.5224 13.1582 51.6204 21.6965Z" fill="white"/>
<path d="M35 3.5C44.009 3.5 48.0358 5.5405 49.1855 6.27025C49.553 7.9905 50.5575 13.3088 50.7255 20.6553C47.5668 20.1303 41.3263 19.25 35 19.25C28.6737 19.25 22.4332 20.1303 19.2745 20.6553C19.4425 13.3158 20.4452 7.99925 20.8127 6.2755C21.994 5.5265 26.0242 3.5 35 3.5ZM35 1.75C22.9705 1.75 19.25 5.25 19.25 5.25C19.25 5.25 17.5 12.25 17.5 22.75C17.5 22.75 26.25 21 35 21C43.75 21 52.5 22.75 52.5 22.75C52.5 12.25 50.75 5.25 50.75 5.25C50.75 5.25 47.0312 1.75 35 1.75Z" fill="#4089D9"/>
<path d="M33.25 7H36.75V17.5H33.25V7Z" fill="#4089D9"/>
<path d="M29.75 10.5H40.25V14H29.75V10.5Z" fill="#4089D9"/>
</svg>
