<svg width="70" height="70" viewBox="0 0 70 70" fill="none" xmlns="http://www.w3.org/2000/svg">
<g clip-path="url(#clip0_114_12712)">
<path d="M7.01758 59.8889C7.42669 50.3845 15.2854 42.7778 24.8894 42.7778H37.3338C46.9378 42.7778 56.7779 49.7778 47.4446 59.1112L7.01758 59.8889Z" fill="#6BB1FC"/>
<path d="M37.3338 43.5556C46.2455 43.5556 58.3338 51.3333 45.0415 59.1111H7.84821C8.63688 50.4016 15.9775 43.5556 24.8893 43.5556H37.3338ZM37.3338 42H24.8893C14.5807 42 6.22266 50.358 6.22266 60.6667H46.6671C60.6671 50.5556 47.6424 42 37.3338 42Z" fill="#4089D9"/>
<path d="M31.1118 48.1803L23.8194 53.1705L21.332 43.1527C22.536 42.9038 23.7307 42.7778 24.8896 42.7778H37.334C38.4929 42.7778 39.6876 42.9038 40.8916 43.1527L38.4043 53.1705L31.1118 48.1803Z" fill="#6BB1FC"/>
<path d="M37.3325 43.5556C38.1834 43.5556 39.0545 43.6271 39.9365 43.7687L37.919 51.8964L31.9892 47.8396L31.1103 47.2376L30.2314 47.838L24.3017 51.8949L22.2841 43.7671C23.1661 43.6271 24.0372 43.5556 24.8881 43.5556H37.3325ZM37.3325 42H24.8881C23.3325 42 21.8299 42.2116 20.3848 42.5693L23.3325 54.4444L31.1103 49.1229L38.8881 54.4444L41.8359 42.5693C40.3908 42.2116 38.8881 42 37.3325 42Z" fill="#4089D9"/>
<path d="M24.1113 43.2491V35H38.1113V43.2491L31.1113 48.1896L24.1113 43.2491Z" fill="white"/>
<path d="M37.334 35.7777V42.8462L31.1118 47.2375L24.8895 42.8462V35.7777H37.334ZM38.8895 34.2222H23.334V43.6519L31.1118 49.1415L38.8895 43.6519V34.2222Z" fill="#4089D9"/>
<path d="M42.2211 29.8885C40.1989 29.8885 38.5563 28.2427 38.5563 26.2221C38.5563 24.2014 40.2005 22.5556 42.2211 22.5556C45.2747 22.5556 45.8876 23.3925 45.8876 24.7412C45.8876 26.9407 44.0754 29.8885 42.2211 29.8885ZM19.9985 29.8885C18.1443 29.8885 16.332 26.9407 16.332 24.7396C16.332 23.391 16.9465 22.5541 19.9985 22.5541C22.0207 22.5541 23.6634 24.1983 23.6634 26.2205C23.6634 28.2427 22.0207 29.8885 19.9985 29.8885Z" fill="#6BB1FC"/>
<path d="M42.2216 23.3334C45.1102 23.3334 45.1102 24.0816 45.1102 24.7412C45.1102 26.6607 43.4909 29.1123 42.2216 29.1123C40.6287 29.1123 39.3329 27.8165 39.3329 26.2236C39.3329 24.6292 40.6287 23.3334 42.2216 23.3334ZM19.9989 23.3334C21.5918 23.3334 22.8876 24.6292 22.8876 26.2221C22.8876 27.8149 21.5918 29.1107 19.9989 29.1107C18.7296 29.1107 17.1102 26.6607 17.1102 24.7396C17.1102 24.0816 17.1102 23.3334 19.9989 23.3334ZM42.2216 21.7778C39.7669 21.7778 37.7774 23.7674 37.7774 26.2221C37.7774 28.6767 39.7669 30.6663 42.2216 30.6663C44.6762 30.6663 46.6658 27.1943 46.6658 24.7396C46.6658 22.2865 44.6762 21.7778 42.2216 21.7778ZM19.9989 21.7778C17.5442 21.7778 15.5547 22.2865 15.5547 24.7412C15.5547 27.1958 17.5442 30.6678 19.9989 30.6678C22.4536 30.6678 24.4431 28.6783 24.4431 26.2236C24.4431 23.7689 22.4536 21.7778 19.9989 21.7778Z" fill="#4089D9"/>
<path d="M31.11 41.2223C30.1705 41.2223 29.2869 40.8832 28.5558 40.2423L28.4142 40.1179L28.2338 40.0712C23.0585 38.7583 19.4434 34.1134 19.4434 28.7779V14.3143C19.4434 11.4723 21.7549 9.16077 24.5954 9.16077H37.6231C40.4636 9.16077 42.7767 11.4723 42.7767 14.3143V28.7779C42.7767 34.1134 39.1616 38.7583 33.9862 40.0712L33.8058 40.1179L33.6642 40.2423C32.9331 40.8832 32.0496 41.2223 31.11 41.2223Z" fill="white"/>
<path d="M37.6236 9.93849C40.0362 9.93849 41.9993 11.9016 41.9993 14.3143V28.7778C41.9993 33.7572 38.6253 38.0909 33.7938 39.3183L33.4314 39.41L33.1498 39.6574C32.7407 40.0167 32.0562 40.4445 31.1105 40.4445C30.1647 40.4445 29.4802 40.0167 29.0711 39.6574L28.7896 39.41L28.4271 39.3183C23.5956 38.0909 20.2216 33.7572 20.2216 28.7778V14.3143C20.2216 11.9016 22.1847 9.93849 24.5973 9.93849H37.6236ZM37.6236 8.38293H24.5958C21.3213 8.38293 18.666 11.0383 18.666 14.3143V28.7778C18.666 34.5909 22.6576 39.4583 28.0445 40.8256C28.8658 41.5474 29.9313 42 31.1105 42C32.2896 42 33.3551 41.5474 34.1765 40.8256C39.5634 39.4583 43.5549 34.5909 43.5549 28.7778V14.3143C43.5549 11.0383 40.8996 8.38293 37.6236 8.38293Z" fill="#4089D9"/>
<path d="M42.7765 27.2223V21.7778C42.7765 16.1218 38.0585 13.0947 37.8563 12.9687L37.2371 12.5798L36.8094 13.1756C36.6771 13.3592 33.5131 17.6665 26.6765 17.6665C24.8876 17.6665 19.4431 17.6665 19.4431 23.3334V27.2223H19.1647C18.4865 25.6947 16.332 20.4836 16.332 16.0409C16.332 7.8416 21.9585 2.33337 30.332 2.33337C36.3038 2.33337 38.0974 6.35449 38.1705 6.5256L38.3743 6.99693L38.8876 7.00004C41.4869 7.00004 45.8876 8.8076 45.8876 15.5789C45.8876 19.6592 43.6989 25.5236 43.0285 27.2223H42.7765Z" fill="#6BB1FC"/>
<path d="M30.3325 3.1111C35.7505 3.1111 37.3916 6.68421 37.4522 6.8211L37.852 7.77776H38.888C41.758 7.77776 45.1102 9.82021 45.1102 15.5789C45.1102 17.9682 44.3216 21.0202 43.5547 23.4235V21.7778C43.5547 15.6971 38.4867 12.446 38.2705 12.3091L37.0338 11.5438L36.1798 12.7198C36.0569 12.8893 33.0796 16.8871 26.6769 16.8871C21.3616 16.8887 18.6658 19.0571 18.6658 23.3333V23.8218C17.902 21.6098 17.1102 18.6807 17.1102 16.0393C17.1102 8.30665 22.424 3.1111 30.3325 3.1111ZM30.3325 1.55554C21.2807 1.55554 15.5547 7.74821 15.5547 16.0393C15.5547 21.532 18.6658 28 18.6658 28H20.2214C20.2214 28 20.2214 24.8438 20.2214 23.3333C20.2214 19.1831 23.3698 18.4442 26.6769 18.4442C34.0347 18.4442 37.4445 13.6267 37.4445 13.6267C37.4445 13.6267 41.9991 16.4873 41.9991 21.7778C41.9991 23.4407 41.9991 28 41.9991 28H43.5547C43.5547 28 46.6658 20.5831 46.6658 15.5789C46.6658 8.55243 42.1905 6.22221 38.888 6.22221C38.888 6.22221 36.9389 1.55554 30.3325 1.55554Z" fill="#4089D9"/>
<path d="M37.7176 60.1827L40.3356 57.5647L45.4456 62.0151L42.5103 64.9489L34.1445 68.522L37.7176 60.1827Z" fill="#A2CFFF"/>
<path d="M40.3722 58.6272L44.3062 62.0541L42.0678 64.2925L35.6247 67.0443L38.3749 60.6245L40.3722 58.6272ZM40.2991 56.5007L37.062 59.7378L32.666 69.9998L42.9545 65.6054L46.5851 61.9747L40.2991 56.5007Z" fill="#4089D9"/>
<path d="M35.1619 64.1869L32.6699 70.0031L38.5017 67.5127L35.1619 64.1869Z" fill="#4089D9"/>
<path d="M57.4082 40.4757L58.7849 39.1005C59.4227 38.4612 60.2704 38.1112 61.1742 38.1112C62.0764 38.1112 62.9258 38.4628 63.5635 39.1005C64.8826 40.4181 64.8826 42.5632 63.5635 43.8808L62.1884 45.2559L57.4082 40.4757Z" fill="#6BB1FC"/>
<path d="M61.1748 38.8889C61.8701 38.8889 62.5234 39.1596 63.015 39.6512C64.0292 40.6654 64.0292 42.3174 63.015 43.3316L62.1905 44.156L58.5101 40.4756L59.3345 39.6512C59.8261 39.1596 60.4794 38.8889 61.1748 38.8889ZM61.1748 37.3334C60.1108 37.3334 59.0468 37.7394 58.2348 38.5514L56.3105 40.4756L62.1905 46.3556L64.1148 44.4314C65.7388 42.8074 65.7388 40.1754 64.1148 38.5514C63.3028 37.7394 62.2388 37.3334 61.1748 37.3334Z" fill="#4089D9"/>
<path d="M43.3885 64.0719C43.3356 63.9879 43.275 63.9039 43.205 63.8214C42.8612 63.4201 42.393 63.1619 41.805 63.0514C41.5296 61.8179 40.5559 61.1692 39.6521 60.9359C39.4919 60.1986 39.0719 59.6774 38.543 59.357L54.9012 42.9863L59.6814 47.7666L43.3885 64.0719Z" fill="white"/>
<path d="M56.5833 42.5835L60.0833 46.0834L43.4158 62.9442C43.1653 62.7404 42.8433 62.5491 42.4342 62.4122C42.0376 61.3171 41.1696 60.6513 40.2829 60.3184C40.1413 59.9326 39.936 59.5982 39.6856 59.3151L56.5833 42.5835ZM56.5833 40.3839L37.0645 59.7382C37.0645 59.7382 37.0722 59.7382 37.0878 59.7382C37.3009 59.7382 38.9451 59.7973 38.9451 61.6126C38.9451 61.6126 41.1042 61.6795 41.1042 63.7686C43.2509 63.7686 42.9569 65.6073 42.9569 65.6073L62.2844 46.0849L56.5833 40.3839Z" fill="#4089D9"/>
</g>
<defs>
<clipPath id="clip0_114_12712">
<rect width="70" height="70" fill="white"/>
</clipPath>
</defs>
</svg>
