<svg width="14" height="14" viewBox="0 0 14 14" fill="none" xmlns="http://www.w3.org/2000/svg">
<path d="M7.00195 3.48096C8.84766 3.48096 10.3711 5.00439 10.3711 6.8501C10.3711 8.7251 8.84766 10.2192 7.00195 10.2192C5.12695 10.2192 3.63281 8.7251 3.63281 6.8501C3.63281 5.00439 5.12695 3.48096 7.00195 3.48096ZM7.00195 9.04736C8.20312 9.04736 9.16992 8.08057 9.16992 6.8501C9.16992 5.64893 8.20312 4.68213 7.00195 4.68213C5.77148 4.68213 4.80469 5.64893 4.80469 6.8501C4.80469 8.08057 5.80078 9.04736 7.00195 9.04736ZM11.2793 3.36377C11.2793 3.80322 10.9277 4.15479 10.4883 4.15479C10.0488 4.15479 9.69727 3.80322 9.69727 3.36377C9.69727 2.92432 10.0488 2.57275 10.4883 2.57275C10.9277 2.57275 11.2793 2.92432 11.2793 3.36377ZM13.5059 4.15479C13.5645 5.23877 13.5645 8.49072 13.5059 9.57471C13.4473 10.6294 13.2129 11.5376 12.4512 12.3286C11.6895 13.0903 10.752 13.3247 9.69727 13.3833C8.61328 13.4419 5.36133 13.4419 4.27734 13.3833C3.22266 13.3247 2.31445 13.0903 1.52344 12.3286C0.761719 11.5376 0.527344 10.6294 0.46875 9.57471C0.410156 8.49072 0.410156 5.23877 0.46875 4.15479C0.527344 3.1001 0.761719 2.1626 1.52344 1.40088C2.31445 0.63916 3.22266 0.404785 4.27734 0.346191C5.36133 0.287598 8.61328 0.287598 9.69727 0.346191C10.752 0.404785 11.6895 0.63916 12.4512 1.40088C13.2129 2.1626 13.4473 3.1001 13.5059 4.15479ZM12.0996 10.7173C12.4512 9.86768 12.3633 7.81689 12.3633 6.8501C12.3633 5.9126 12.4512 3.86182 12.0996 2.98291C11.8652 2.42627 11.4258 1.95752 10.8691 1.75244C9.99023 1.40088 7.93945 1.48877 7.00195 1.48877C6.03516 1.48877 3.98438 1.40088 3.13477 1.75244C2.54883 1.98682 2.10938 2.42627 1.875 2.98291C1.52344 3.86182 1.61133 5.9126 1.61133 6.8501C1.61133 7.81689 1.52344 9.86768 1.875 10.7173C2.10938 11.3032 2.54883 11.7427 3.13477 11.9771C3.98438 12.3286 6.03516 12.2407 7.00195 12.2407C7.93945 12.2407 9.99023 12.3286 10.8691 11.9771C11.4258 11.7427 11.8945 11.3032 12.0996 10.7173Z" fill="#6BB1FC"/>
</svg>
