<svg width="14" height="14" viewBox="0 0 14 14" fill="none" xmlns="http://www.w3.org/2000/svg">
<path d="M12.627 0.287598C13.125 0.287598 13.5645 0.727051 13.5645 1.25439V12.4751C13.5645 13.0024 13.125 13.4126 12.627 13.4126H1.34766C0.849609 13.4126 0.439453 13.0024 0.439453 12.4751V1.25439C0.439453 0.727051 0.849609 0.287598 1.34766 0.287598H12.627ZM4.39453 11.5376V5.29736H2.46094V11.5376H4.39453ZM3.42773 4.41846C4.04297 4.41846 4.54102 3.92041 4.54102 3.30518C4.54102 2.68994 4.04297 2.1626 3.42773 2.1626C2.7832 2.1626 2.28516 2.68994 2.28516 3.30518C2.28516 3.92041 2.7832 4.41846 3.42773 4.41846ZM11.6895 11.5376V8.10986C11.6895 6.43994 11.3086 5.12158 9.3457 5.12158C8.4082 5.12158 7.76367 5.64893 7.5 6.14697H7.4707V5.29736H5.625V11.5376H7.55859V8.46143C7.55859 7.64111 7.70508 6.8501 8.73047 6.8501C9.72656 6.8501 9.72656 7.7876 9.72656 8.49072V11.5376H11.6895Z" fill="#6BB1FC"/>
</svg>
