<svg width="14" height="20" viewBox="0 0 14 20" fill="none" xmlns="http://www.w3.org/2000/svg">
<path d="M6.99961 0.399994C3.46367 0.399994 0.599609 3.26406 0.599609 6.79999C0.599609 9.72343 2.14336 12.8656 3.66211 15.3C5.18086 17.7344 6.69961 19.4625 6.69961 19.4625C6.77617 19.5484 6.88555 19.5984 6.99961 19.5984C7.11367 19.5984 7.22305 19.5484 7.29961 19.4625C7.29961 19.4625 8.81992 17.6984 10.3371 15.25C11.8543 12.8016 13.3996 9.66718 13.3996 6.79999C13.3996 3.26406 10.5355 0.399994 6.99961 0.399994ZM6.69961 4.72338C8.06086 4.97731 9.23718 4.09531 9.23718 7.19999C9.23718 9.77343 10.4824 6.10742 8.99961 8.4996C7.75742 10.5043 7.36875 9.05742 7 9.4996C6.62813 9.06054 6.73906 10.9855 5.5 8.9996C4.01875 6.6246 4.5 6.79999 4.5 6.79999C4.5 6.79999 5.5 4.4996 6.69961 4.72338ZM6.99961 4.39999C5.45742 4.39999 4.19961 5.65781 4.19961 7.19999C4.19961 8.74218 5.45742 9.99999 6.99961 9.99999C8.5418 9.99999 9.79961 8.74218 9.79961 7.19999C9.79961 5.65781 8.5418 4.39999 6.99961 4.39999ZM6.99961 5.19999C8.10898 5.19999 8.99961 6.09062 8.99961 7.19999C8.99961 8.30937 8.10898 9.2 6.99961 9.2C5.89023 9.2 4.99961 8.30937 4.99961 7.19999C4.99961 6.09062 5.89023 5.19999 6.99961 5.19999Z" fill="#6BB1FC"/>
</svg>
