<svg width="306" height="47" viewBox="0 0 306 47" fill="none" xmlns="http://www.w3.org/2000/svg">
<g clip-path="url(#clip0_493_13187)">
<path d="M87.4294 32.9269C91.5368 33.2396 95.591 32.6958 99.5821 31.2895C99.6689 31.2604 99.7655 31.3225 99.7694 31.4119C99.9568 34.0748 99.9567 36.7961 99.7596 39.5736C99.7497 39.7213 99.6452 39.8436 99.5052 39.8805C95.869 40.8595 92.2191 41.2518 88.5632 41.0673C84.9843 40.8828 81.9298 40.0689 79.3979 38.6161C74.4111 35.7589 71.7037 31.103 71.2699 24.6486C71.0155 20.8105 71.7885 17.3628 73.5987 14.3056C75.121 11.732 77.1973 9.71581 79.8199 8.25322C82.4484 6.79452 85.3747 6.037 88.6027 5.98456C92.3059 5.9224 95.9814 6.35749 99.6373 7.28593C99.7872 7.32284 99.8917 7.45686 99.8917 7.60836V15.6711C99.8917 15.8265 99.7339 15.9352 99.5841 15.8847C95.8414 14.527 92.085 13.987 88.3246 14.257C86.0235 14.4221 84.2803 14.8864 83.0933 15.6536C81.4448 16.7238 80.4312 18.369 80.0625 20.5988C79.7982 22.1741 79.7509 23.7454 79.9185 25.3071C80.1059 27.1057 80.587 28.5663 81.3541 29.6987C82.6752 31.643 84.7023 32.723 87.4314 32.9308L87.4294 32.9269Z" fill="#6BB1FC"/>
<path d="M107.666 11.6057C110.63 8.42998 114.4 6.62748 118.983 6.19239C121.679 5.936 124.242 6.11664 126.669 6.73236C129.255 7.39082 131.487 8.51544 133.376 10.1101C135.985 12.3147 137.714 15.1874 138.574 18.7264C139.396 22.0905 139.39 25.3459 138.57 28.4925C137.73 31.7149 136.138 34.3934 133.796 36.5319C130.866 39.2046 127.172 40.6808 122.71 40.9702C119.904 41.1508 117.264 40.8381 114.789 40.034C112.247 39.2065 110.052 37.8566 108.199 35.9881C105.994 33.7699 104.549 31.138 103.851 28.0905C103.198 25.2138 103.135 22.3605 103.66 19.5305C104.218 16.5121 105.553 13.8724 107.67 11.6057M130.542 22.2459C130.534 17.6387 126.734 13.9113 122.059 13.9191H120.436C115.761 13.9307 111.975 17.6717 111.983 22.2789L111.987 24.8526C111.995 29.4598 115.795 33.1872 120.47 33.1794H122.093C126.768 33.1678 130.554 29.4268 130.546 24.8195L130.542 22.2459Z" fill="#6BB1FC"/>
<path d="M182.204 10.3898C183.174 9.22633 184.365 8.35033 185.783 7.76374C188.699 6.55754 192.089 5.99426 195.961 6.0739C199.28 6.14576 202.682 6.50898 206.154 7.16744C206.381 7.21017 206.539 7.40829 206.539 7.64137L206.606 14.5833C206.61 14.9096 206.322 15.1602 206.006 15.1136C200.976 14.3425 196.028 14.0492 191.158 14.2376C190.489 14.2609 189.726 14.5445 188.863 15.0883C188.732 15.168 188.636 15.2923 188.589 15.4341C188.194 16.6966 188.579 17.6289 189.746 18.2311C190.779 18.7613 192.124 19.2663 193.771 19.75C193.79 19.7539 195.096 20.0569 197.695 20.659C200.14 21.2223 202.234 22.0497 203.977 23.1374C205.077 23.8231 205.941 24.802 206.57 26.0665C207.095 27.1173 207.416 28.3332 207.546 29.7142C207.95 34.0865 206.038 37.3186 201.816 39.4046C200.447 40.0806 198.497 40.5506 195.955 40.809C190.748 41.3528 185.599 41.0925 180.508 40.032C180.334 39.9951 180.214 39.8514 180.21 39.6863L180.109 32.3753C180.106 32.2102 180.259 32.0859 180.431 32.1111C185.067 32.7735 189.75 33.0532 194.48 32.9444C194.51 32.9444 195.013 32.958 195.999 32.9813C197.33 33.0143 198.363 32.6589 199.097 31.9169C199.783 31.2157 199.749 30.5533 198.996 29.9298C197.781 28.9218 196.427 28.2303 194.932 27.8535C192.958 27.3465 190.978 26.8687 188.995 26.42C187.944 26.1792 186.77 25.7052 185.479 24.9963C184.231 24.3106 183.245 23.5492 182.519 22.716C180.488 20.3793 179.8 17.5105 180.468 14.1191C180.752 12.6759 181.332 11.4309 182.202 10.3898H182.204Z" fill="#6BB1FC"/>
<path d="M280.354 10.6598C281.695 8.93692 283.462 7.75015 285.656 7.1014C288.437 6.27396 291.282 5.90491 294.196 5.99426C297.679 6.10303 301.08 6.51481 304.405 7.23348C304.612 7.27621 304.76 7.46074 304.76 7.66857V14.865C304.76 15.0068 304.636 15.1117 304.492 15.0922C300.919 14.595 297.383 14.2881 293.881 14.1599C292.012 14.0939 290.941 14.0706 290.657 14.0842C289.476 14.1463 288.423 14.4008 287.496 14.8553C286.473 15.3622 286.295 16.1469 286.958 17.2211C287.386 17.9222 288.162 18.4603 289.292 18.8351C291.219 19.4742 293.179 20.018 295.163 20.459C296.537 20.762 297.882 21.1543 299.193 21.6418C300.735 22.209 301.956 22.8616 302.849 23.6017C304.602 25.0546 305.625 26.8804 305.909 29.081C306.207 31.3575 305.789 33.4533 304.655 35.3781C303.498 37.3516 301.692 38.7792 299.237 39.6688C297.724 40.2185 296.21 40.5914 294.707 40.7954C293.64 40.943 292.094 41.0323 290.067 41.0751C286.411 41.1508 282.704 40.8148 278.932 40.067C278.672 40.0204 278.485 39.797 278.485 39.5464L278.488 32.3966C278.488 32.2451 278.628 32.1267 278.782 32.1461C283.063 32.7288 287.188 32.9968 291.162 32.956C292.895 32.9366 294.26 32.8842 295.259 32.7948C296.139 32.7152 296.801 32.4918 297.249 32.1228C297.898 31.5886 297.978 30.9496 297.489 30.1979C297.215 29.7861 296.774 29.4171 296.154 29.0908C294.747 28.3527 293.143 27.8088 291.341 27.4592C289.659 27.1329 287.648 26.5502 285.303 25.7227C281.35 24.3262 279.102 21.5641 278.563 17.4328C278.232 14.8786 278.828 12.6216 280.356 10.6617L280.354 10.6598Z" fill="#6BB1FC"/>
<path d="M153.119 21.2204L152.945 40.5875C152.945 40.7196 152.835 40.8245 152.695 40.8245L144.744 40.8537C144.63 40.8537 144.533 40.7585 144.533 40.64L144.563 6.70518C144.563 6.4216 144.797 6.19435 145.087 6.19823L152.858 6.31089C153.012 6.31477 153.152 6.39052 153.237 6.51872L166.332 25.8043C166.61 26.2161 166.75 26.1734 166.75 25.682L166.78 6.51483C166.78 6.35362 166.914 6.22154 167.078 6.22542L174.815 6.3206C175.084 6.32448 175.304 6.54203 175.304 6.80813V40.4263C175.304 40.6633 175.113 40.8517 174.882 40.8478L167.105 40.7721C166.955 40.7721 166.817 40.6924 166.731 40.5642L153.458 21.1213C153.237 20.795 153.121 20.828 153.117 21.2204H153.119Z" fill="#6BB1FC"/>
<path d="M221.332 32.7793L237.927 32.8084C238.162 32.8084 238.349 32.9929 238.349 33.2202V40.403C238.349 40.6341 238.158 40.8245 237.921 40.8245H212.679C212.549 40.8245 212.439 40.7157 212.445 40.5875C212.589 32.1597 212.589 23.7376 212.449 15.3117C212.425 13.8394 212.439 12.3302 212.492 10.7938C212.539 9.37006 212.583 7.94632 212.616 6.52063C212.62 6.38855 212.727 6.28367 212.861 6.28367C219.687 6.30698 226.518 6.31669 233.343 6.3128C233.372 6.3128 234.062 6.28949 235.423 6.24676C236.36 6.21374 237.277 6.26036 238.18 6.38855C238.33 6.41186 238.444 6.54006 238.44 6.69156L238.263 13.9171C238.259 14.0453 238.152 14.1482 238.022 14.1482L221.604 14.1191C221.306 14.1191 221.072 14.3503 221.076 14.6299L221.129 19.3576C221.133 19.4897 221.249 19.5946 221.389 19.5946L234.555 19.6742C234.796 19.6781 234.987 19.8626 234.987 20.0957V27.0552C234.987 27.2203 234.853 27.3621 234.686 27.3718C232.528 27.4903 230.347 27.4941 228.149 27.3815C226.064 27.2727 223.817 27.3193 221.405 27.5291C221.214 27.5427 221.07 27.7 221.07 27.8846L221.084 32.5404C221.084 32.6724 221.194 32.7812 221.334 32.7812L221.332 32.7793Z" fill="#6BB1FC"/>
<path d="M253.996 6.77511C254.139 6.41577 254.504 6.18269 254.912 6.1924L262.455 6.34002C262.605 6.3439 262.733 6.42937 262.792 6.56145L276.493 40.3312C276.57 40.5254 276.435 40.7391 276.228 40.7391L267.799 40.8439C267.497 40.8478 267.227 40.6497 267.126 40.3622L264.975 34.1079C264.928 33.97 264.797 33.8767 264.648 33.8767L252.197 33.9059C252.047 33.9059 251.919 33.9952 251.87 34.1292L249.756 40.1622C249.636 40.5079 249.314 40.7391 248.953 40.7449L240.591 40.8575C240.407 40.8575 240.279 40.6827 240.346 40.5176L253.996 6.77511ZM258.261 16.4752L254.995 25.6081C254.958 25.7169 255.039 25.8296 255.159 25.8296H261.644C261.769 25.8296 261.855 25.7169 261.818 25.6023L258.643 16.4752C258.519 16.1198 258.393 16.1198 258.265 16.4752H258.261Z" fill="#6BB1FC"/>
<path d="M57.0528 23.2011L65.0645 23.4516C65.2282 23.4555 65.3721 23.5235 65.4589 23.6362C65.7606 24.0344 65.7527 24.3704 65.4352 24.6442C65.2578 24.7958 64.9876 24.8812 64.6287 24.8948C60.5607 25.0832 57.9421 25.1162 56.7807 24.9939C55.7474 24.8851 54.9409 25.1162 54.3691 25.6951C48.9799 31.1123 43.5947 36.5295 38.2095 41.9525C36.6044 43.5666 34.9086 45.1458 33.1181 46.6938C32.9012 46.8822 32.5759 46.8745 32.3728 46.6705L10.8004 25.3027C10.6032 25.1046 10.3351 24.9958 10.055 24.9958C7.10118 24.9958 4.21829 25.0191 1.41823 25.0716C0.313974 25.0949 -0.0665988 24.5976 0.280452 23.5915C0.327777 23.4536 0.453977 23.3604 0.607783 23.3506C3.15939 23.1428 5.71297 23.137 8.27444 23.3409C8.72206 23.374 8.82657 23.203 8.60178 22.8243C7.76176 21.4374 7.17019 19.971 6.82511 18.4151C6.49384 16.9292 6.42679 15.3773 6.62398 13.7554C7.01244 10.5001 8.30994 7.79436 10.5145 5.64029C12.8729 3.33083 15.6966 1.97313 18.9877 1.57107C22.4562 1.13986 25.7808 2.03917 28.9555 4.26316C30.4975 5.33728 31.7457 6.72801 32.708 8.42756C32.7652 8.53245 32.915 8.53245 32.9762 8.43145C34.5714 5.91805 36.636 4.04562 39.1678 2.8064C42.2124 1.31662 45.3891 1.05052 48.694 2.00615C54.3375 3.63773 57.7587 7.20194 58.9438 12.6949C59.7266 16.2999 59.0582 19.7359 56.9404 23.001C56.8595 23.1292 56.897 23.1991 57.0547 23.205M53.1011 6.26184C50.7369 4.30784 48.134 3.30947 45.2945 3.26674C42.7922 3.23372 40.4811 3.91937 38.3673 5.33534C36.2672 6.73966 34.6739 8.67036 33.5736 11.1313C33.0886 12.2249 32.5739 12.1918 32.0415 11.042C30.3121 7.31265 27.6087 4.90414 23.9331 3.81642C21.8922 3.21041 19.8415 3.15408 17.7789 3.65132C15.598 4.17187 13.7247 5.16636 12.159 6.63672C9.9249 8.73834 8.6629 11.3061 8.35923 14.3498C8.05162 17.4304 8.96066 20.3361 11.0883 23.0651C11.1849 23.1875 11.3289 23.2632 11.4768 23.2632L18.9226 23.2069C19.0626 23.2069 19.1908 23.1117 19.2401 22.9699C20.0032 20.7848 20.7485 18.5938 21.4683 16.3931C21.5984 16.0008 21.7365 15.7017 21.8863 15.4938C22.3241 14.8839 22.7224 14.8742 23.0734 15.4744C23.1937 15.6784 23.3179 16.0241 23.4579 16.5155C24.4616 20.0603 25.3213 23.6362 26.0371 27.2509C26.1436 27.7753 26.2244 27.7753 26.2875 27.2412C26.4078 26.1768 26.676 25.056 27.094 23.8673C27.1078 23.8304 27.167 23.6109 27.2676 23.2186C27.4588 22.4844 28.0129 22.2105 28.92 22.395C29.4721 22.5038 31.164 22.4805 33.9917 22.3193C34.1356 22.3095 34.2598 22.2144 34.2993 22.0784C35.2754 18.7803 36.2455 15.4783 37.1999 12.1744C37.3005 11.8383 37.4503 11.5975 37.6515 11.4499C38.0597 11.1527 38.4008 11.209 38.665 11.6247C38.805 11.8422 38.8898 12.1782 38.9332 12.6269C39.4084 17.8169 39.9093 23.0088 40.422 28.1929C40.4358 28.358 40.4851 28.3736 40.5659 28.2259L43.0919 23.6556C43.1984 23.4614 43.3995 23.3429 43.6164 23.339L54.2606 23.1117C54.4105 23.1079 54.5544 23.036 54.6491 22.9175C57.1711 19.8039 57.9342 16.2688 56.9305 12.3084C56.3114 9.87656 55.0336 7.8604 53.0972 6.25602M20.8057 24.2713C20.6381 24.7686 20.2339 25.023 19.591 25.0288L13.3086 25.0949C13.141 25.0988 13.1174 25.1609 13.2357 25.2794L32.5897 44.4621C32.6804 44.5572 32.8342 44.5572 32.9269 44.4621L52.1606 25.3474C52.3952 25.1104 52.3479 24.9919 52.0166 24.988L44.5471 24.8929C44.2592 24.889 43.995 25.0677 43.8787 25.3416C42.9716 27.5092 41.8713 29.6477 40.5777 31.763C40.3865 32.0796 40.2169 32.3068 40.0729 32.4389C39.6884 32.7944 39.367 32.7846 39.1067 32.4098C38.9667 32.2155 38.876 31.9086 38.8326 31.4872C38.3337 26.7692 37.9492 22.0434 37.685 17.2963C37.6653 16.97 37.612 16.9642 37.5312 17.2827L35.9655 23.339C35.8551 23.7644 35.4844 24.0674 35.0663 24.0732L29.7975 24.1528C29.1882 24.1625 28.8175 24.4422 28.6775 24.99C28.2397 26.7362 27.731 28.4532 27.1394 30.1528C26.9895 30.5742 26.8377 30.8811 26.6681 31.0754C26.2698 31.5435 25.8715 31.5629 25.4633 31.1375C25.2464 30.9103 25.0847 30.5451 24.9684 30.0498C24.223 26.742 23.4559 23.4439 22.6731 20.1458C22.5429 19.5883 22.3793 19.5883 22.192 20.1458L20.8038 24.2713H20.8057Z" fill="#6DB1ED"/>
</g>
<defs>
<clipPath id="clip0_493_13187">
<rect width="305.844" height="46.2979" fill="white" transform="translate(0.15625 0.531921)"/>
</clipPath>
</defs>
</svg>
