<svg width="314" height="64" viewBox="0 0 314 64" fill="none" xmlns="http://www.w3.org/2000/svg">
<g clip-path="url(#clip0_973_16843)">
<path d="M95.4294 41.9269C99.5368 42.2396 103.591 41.6958 107.582 40.2895C107.669 40.2604 107.765 40.3225 107.769 40.4119C107.957 43.0748 107.957 45.7961 107.76 48.5736C107.75 48.7213 107.645 48.8436 107.505 48.8805C103.869 49.8595 100.219 50.2518 96.5632 50.0673C92.9843 49.8828 89.9298 49.0689 87.3979 47.6161C82.4111 44.7589 79.7037 40.103 79.2699 33.6486C79.0155 29.8105 79.7885 26.3628 81.5987 23.3056C83.121 20.732 85.1973 18.7158 87.8199 17.2532C90.4484 15.7945 93.3747 15.037 96.6027 14.9846C100.306 14.9224 103.981 15.3575 107.637 16.2859C107.787 16.3228 107.892 16.4569 107.892 16.6084V24.6711C107.892 24.8264 107.734 24.9352 107.584 24.8847C103.841 23.527 100.085 22.987 96.3246 23.257C94.0235 23.4221 92.2803 23.8864 91.0933 24.6536C89.4448 25.7238 88.4312 27.369 88.0625 29.5988C87.7982 31.1741 87.7509 32.7454 87.9185 34.3071C88.1059 36.1057 88.587 37.5663 89.3541 38.6987C90.6752 40.643 92.7023 41.723 95.4314 41.9308L95.4294 41.9269Z" fill="white"/>
<path d="M115.666 20.6057C118.63 17.43 122.4 15.6275 126.983 15.1924C129.679 14.936 132.242 15.1166 134.669 15.7324C137.255 16.3908 139.487 17.5154 141.376 19.1101C143.985 21.3147 145.714 24.1874 146.574 27.7264C147.396 31.0905 147.39 34.3459 146.57 37.4925C145.73 40.7149 144.138 43.3934 141.796 45.5319C138.866 48.2046 135.172 49.6808 130.71 49.9702C127.904 50.1508 125.264 49.8381 122.789 49.034C120.247 48.2065 118.052 46.8566 116.199 44.9881C113.994 42.7699 112.549 40.138 111.851 37.0905C111.198 34.2138 111.135 31.3605 111.66 28.5305C112.218 25.5121 113.553 22.8724 115.67 20.6057M138.542 31.2459C138.534 26.6387 134.734 22.9113 130.059 22.9191H128.436C123.761 22.9307 119.975 26.6717 119.983 31.2789L119.987 33.8526C119.995 38.4598 123.795 42.1872 128.47 42.1794H130.093C134.768 42.1678 138.554 38.4268 138.546 33.8195L138.542 31.2459Z" fill="white"/>
<path d="M190.204 19.3898C191.174 18.2263 192.365 17.3503 193.783 16.7637C196.699 15.5575 200.089 14.9943 203.961 15.0739C207.28 15.1458 210.682 15.509 214.154 16.1674C214.381 16.2102 214.539 16.4083 214.539 16.6414L214.606 23.5833C214.61 23.9096 214.322 24.1602 214.006 24.1136C208.976 23.3425 204.028 23.0492 199.158 23.2376C198.489 23.2609 197.726 23.5445 196.863 24.0883C196.732 24.168 196.636 24.2923 196.589 24.4341C196.194 25.6966 196.579 26.6289 197.746 27.2311C198.779 27.7613 200.124 28.2663 201.771 28.75C201.79 28.7539 203.096 29.0569 205.695 29.659C208.14 30.2223 210.234 31.0497 211.977 32.1374C213.077 32.8231 213.941 33.802 214.57 35.0665C215.095 36.1173 215.416 37.3332 215.546 38.7142C215.95 43.0865 214.038 46.3186 209.816 48.4046C208.447 49.0806 206.497 49.5506 203.955 49.809C198.748 50.3528 193.599 50.0925 188.508 49.032C188.334 48.9951 188.214 48.8514 188.21 48.6863L188.109 41.3753C188.106 41.2102 188.259 41.0859 188.431 41.1111C193.067 41.7735 197.75 42.0532 202.48 41.9444C202.51 41.9444 203.013 41.958 203.999 41.9813C205.33 42.0143 206.363 41.6589 207.097 40.9169C207.783 40.2157 207.749 39.5533 206.996 38.9298C205.781 37.9218 204.427 37.2303 202.932 36.8535C200.958 36.3465 198.978 35.8687 196.995 35.42C195.944 35.1792 194.77 34.7052 193.479 33.9963C192.231 33.3106 191.245 32.5492 190.519 31.716C188.488 29.3793 187.8 26.5105 188.468 23.1191C188.752 21.6759 189.332 20.4309 190.202 19.3898H190.204Z" fill="white"/>
<path d="M288.354 19.6598C289.695 17.9369 291.462 16.7501 293.656 16.1014C296.437 15.274 299.282 14.9049 302.196 14.9943C305.679 15.103 309.08 15.5148 312.405 16.2335C312.612 16.2762 312.76 16.4607 312.76 16.6686V23.865C312.76 24.0068 312.636 24.1117 312.492 24.0922C308.919 23.595 305.383 23.2881 301.881 23.1599C300.012 23.0939 298.941 23.0706 298.657 23.0842C297.476 23.1463 296.423 23.4008 295.496 23.8553C294.473 24.3622 294.295 25.1469 294.958 26.2211C295.386 26.9222 296.162 27.4603 297.292 27.8351C299.219 28.4742 301.179 29.018 303.163 29.4589C304.537 29.762 305.882 30.1543 307.193 30.6418C308.735 31.209 309.956 31.8616 310.849 32.6017C312.602 34.0546 313.625 35.8804 313.909 38.081C314.207 40.3575 313.789 42.4533 312.655 44.3781C311.498 46.3516 309.692 47.7792 307.237 48.6688C305.724 49.2185 304.21 49.5914 302.707 49.7954C301.64 49.943 300.094 50.0323 298.067 50.0751C294.411 50.1508 290.704 49.8148 286.932 49.067C286.672 49.0204 286.485 48.797 286.485 48.5464L286.488 41.3966C286.488 41.2451 286.628 41.1267 286.782 41.1461C291.063 41.7288 295.188 41.9968 299.162 41.956C300.895 41.9366 302.26 41.8842 303.259 41.7948C304.139 41.7152 304.801 41.4918 305.249 41.1228C305.898 40.5886 305.978 39.9496 305.489 39.1979C305.215 38.7861 304.774 38.4171 304.154 38.0908C302.747 37.3527 301.143 36.8088 299.341 36.4592C297.659 36.1329 295.648 35.5502 293.303 34.7227C289.35 33.3262 287.102 30.5641 286.563 26.4328C286.232 23.8786 286.828 21.6216 288.356 19.6617L288.354 19.6598Z" fill="white"/>
<path d="M161.119 30.2204L160.945 49.5875C160.945 49.7196 160.835 49.8245 160.695 49.8245L152.744 49.8537C152.63 49.8537 152.533 49.7585 152.533 49.64L152.563 15.7052C152.563 15.4216 152.797 15.1943 153.087 15.1982L160.858 15.3109C161.012 15.3148 161.152 15.3905 161.237 15.5187L174.332 34.8043C174.61 35.2161 174.75 35.1734 174.75 34.682L174.78 15.5148C174.78 15.3536 174.914 15.2215 175.078 15.2254L182.815 15.3206C183.084 15.3245 183.304 15.542 183.304 15.8081V49.4263C183.304 49.6633 183.113 49.8517 182.882 49.8478L175.105 49.7721C174.955 49.7721 174.817 49.6924 174.731 49.5642L161.458 30.1213C161.237 29.795 161.121 29.828 161.117 30.2204H161.119Z" fill="white"/>
<path d="M229.332 41.7793L245.927 41.8084C246.162 41.8084 246.349 41.9929 246.349 42.2202V49.403C246.349 49.6341 246.158 49.8245 245.921 49.8245H220.679C220.549 49.8245 220.439 49.7157 220.445 49.5875C220.589 41.1597 220.589 32.7376 220.449 24.3117C220.425 22.8394 220.439 21.3302 220.492 19.7938C220.539 18.3701 220.583 16.9463 220.616 15.5206C220.62 15.3886 220.727 15.2837 220.861 15.2837C227.687 15.307 234.518 15.3167 241.343 15.3128C241.372 15.3128 242.062 15.2895 243.423 15.2468C244.36 15.2137 245.277 15.2604 246.18 15.3886C246.33 15.4119 246.444 15.5401 246.44 15.6916L246.263 22.9171C246.259 23.0453 246.152 23.1482 246.022 23.1482L229.604 23.1191C229.306 23.1191 229.072 23.3503 229.076 23.6299L229.129 28.3576C229.133 28.4897 229.249 28.5946 229.389 28.5946L242.555 28.6742C242.796 28.6781 242.987 28.8626 242.987 29.0957V36.0552C242.987 36.2203 242.853 36.3621 242.686 36.3718C240.528 36.4903 238.347 36.4941 236.149 36.3815C234.064 36.2727 231.817 36.3193 229.405 36.5291C229.214 36.5427 229.07 36.7 229.07 36.8846L229.084 41.5404C229.084 41.6724 229.194 41.7812 229.334 41.7812L229.332 41.7793Z" fill="white"/>
<path d="M261.996 15.7751C262.139 15.4158 262.504 15.1827 262.912 15.1924L270.455 15.34C270.605 15.3439 270.733 15.4294 270.792 15.5614L284.493 49.3312C284.57 49.5254 284.435 49.7391 284.228 49.7391L275.799 49.8439C275.497 49.8478 275.227 49.6497 275.126 49.3622L272.975 43.1079C272.928 42.97 272.797 42.8767 272.648 42.8767L260.197 42.9059C260.047 42.9059 259.919 42.9952 259.87 43.1292L257.756 49.1622C257.636 49.5079 257.314 49.7391 256.953 49.7449L248.591 49.8575C248.407 49.8575 248.279 49.6827 248.346 49.5176L261.996 15.7751ZM266.261 25.4752L262.995 34.6081C262.958 34.7169 263.039 34.8296 263.159 34.8296H269.644C269.769 34.8296 269.855 34.7169 269.818 34.6023L266.643 25.4752C266.519 25.1198 266.393 25.1198 266.265 25.4752H266.261Z" fill="white"/>
<path d="M65.0528 32.2011L73.0645 32.4516C73.2282 32.4555 73.3721 32.5235 73.4589 32.6362C73.7606 33.0344 73.7527 33.3704 73.4352 33.6442C73.2578 33.7958 72.9876 33.8812 72.6287 33.8948C68.5607 34.0832 65.9421 34.1162 64.7807 33.9939C63.7474 33.8851 62.9409 34.1162 62.3691 34.6951C56.9799 40.1123 51.5947 45.5295 46.2095 50.9525C44.6044 52.5666 42.9086 54.1458 41.1181 55.6938C40.9012 55.8822 40.5759 55.8745 40.3728 55.6705L18.8004 34.3027C18.6032 34.1046 18.3351 33.9958 18.055 33.9958C15.1012 33.9958 12.2183 34.0191 9.41823 34.0716C8.31397 34.0949 7.9334 33.5976 8.28045 32.5915C8.32778 32.4536 8.45398 32.3604 8.60778 32.3506C11.1594 32.1428 13.713 32.137 16.2744 32.3409C16.7221 32.374 16.8266 32.203 16.6018 31.8243C15.7618 30.4374 15.1702 28.971 14.8251 27.4151C14.4938 25.9292 14.4268 24.3773 14.624 22.7554C15.0124 19.5001 16.3099 16.7944 18.5145 14.6403C20.8729 12.3308 23.6966 10.9731 26.9877 10.5711C30.4562 10.1399 33.7808 11.0392 36.9555 13.2632C38.4975 14.3373 39.7457 15.728 40.708 17.4276C40.7652 17.5325 40.915 17.5324 40.9762 17.4314C42.5714 14.918 44.636 13.0456 47.1678 11.8064C50.2124 10.3166 53.3891 10.0505 56.694 11.0062C62.3375 12.6377 65.7587 16.2019 66.9438 21.6949C67.7266 25.2999 67.0582 28.7359 64.9404 32.001C64.8595 32.1292 64.897 32.1991 65.0547 32.205M61.1011 15.2618C58.7369 13.3078 56.134 12.3095 53.2945 12.2667C50.7922 12.2337 48.4811 12.9194 46.3673 14.3353C44.2672 15.7397 42.6739 17.6704 41.5736 20.1313C41.0885 21.2249 40.5739 21.1918 40.0415 20.042C38.3121 16.3127 35.6087 13.9041 31.9331 12.8164C29.8922 12.2104 27.8415 12.1541 25.7789 12.6513C23.598 13.1719 21.7247 14.1664 20.159 15.6367C17.9249 17.7383 16.6629 20.3061 16.3592 23.3498C16.0516 26.4304 16.9607 29.3361 19.0883 32.0651C19.1849 32.1875 19.3289 32.2632 19.4768 32.2632L26.9226 32.2069C27.0626 32.2069 27.1908 32.1117 27.2401 31.9699C28.0032 29.7848 28.7485 27.5938 29.4683 25.3931C29.5984 25.0008 29.7364 24.7017 29.8863 24.4938C30.3241 23.8839 30.7224 23.8742 31.0734 24.4744C31.1937 24.6784 31.3179 25.0241 31.4579 25.5155C32.4616 29.0603 33.3213 32.6362 34.0371 36.2509C34.1436 36.7753 34.2244 36.7753 34.2875 36.2412C34.4078 35.1768 34.676 34.056 35.094 32.8673C35.1078 32.8304 35.167 32.6109 35.2676 32.2186C35.4588 31.4844 36.0129 31.2105 36.92 31.395C37.4721 31.5038 39.164 31.4805 41.9917 31.3193C42.1356 31.3095 42.2598 31.2144 42.2993 31.0784C43.2754 27.7803 44.2455 24.4783 45.1999 21.1744C45.3005 20.8383 45.4503 20.5975 45.6515 20.4499C46.0597 20.1527 46.4008 20.209 46.665 20.6247C46.805 20.8422 46.8898 21.1782 46.9332 21.6269C47.4084 26.8169 47.9093 32.0088 48.422 37.1929C48.4358 37.358 48.4851 37.3736 48.5659 37.2259L51.0919 32.6556C51.1984 32.4614 51.3995 32.3429 51.6164 32.339L62.2606 32.1117C62.4105 32.1079 62.5544 32.036 62.6491 31.9175C65.1711 28.8039 65.9342 25.2688 64.9305 21.3084C64.3114 18.8766 63.0336 16.8604 61.0972 15.256M28.8057 33.2713C28.6381 33.7686 28.2339 34.023 27.591 34.0288L21.3086 34.0949C21.141 34.0988 21.1174 34.1609 21.2357 34.2794L40.5897 53.4621C40.6804 53.5572 40.8342 53.5572 40.9269 53.4621L60.1606 34.3474C60.3952 34.1104 60.3479 33.9919 60.0166 33.988L52.5471 33.8929C52.2592 33.889 51.995 34.0677 51.8787 34.3416C50.9716 36.5092 49.8713 38.6477 48.5777 40.763C48.3865 41.0796 48.2169 41.3068 48.0729 41.4389C47.6884 41.7944 47.367 41.7846 47.1067 41.4098C46.9667 41.2155 46.876 40.9086 46.8326 40.4872C46.3337 35.7692 45.9492 31.0434 45.685 26.2963C45.6653 25.97 45.612 25.9642 45.5312 26.2827L43.9655 32.339C43.8551 32.7644 43.4844 33.0674 43.0663 33.0732L37.7975 33.1528C37.1882 33.1625 36.8175 33.4422 36.6775 33.99C36.2397 35.7362 35.731 37.4532 35.1394 39.1528C34.9895 39.5742 34.8377 39.8811 34.6681 40.0754C34.2698 40.5435 33.8715 40.5629 33.4633 40.1375C33.2464 39.9103 33.0847 39.5451 32.9684 39.0498C32.223 35.742 31.4559 32.4439 30.6731 29.1458C30.5429 28.5883 30.3793 28.5883 30.192 29.1458L28.8038 33.2713H28.8057Z" fill="white"/>
</g>
<defs>
<clipPath id="clip0_973_16843">
<rect width="305.844" height="46.2979" fill="white" transform="translate(8.15625 9.53192)"/>
</clipPath>
</defs>
</svg>
