<svg width="200" height="200" viewBox="0 0 200 200" fill="none" xmlns="http://www.w3.org/2000/svg">
<g opacity="0.2">
<path fill-rule="evenodd" clip-rule="evenodd" d="M87.1009 10.9299C93.7684 2.78525 106.224 2.78522 112.893 10.9299L121.158 21.0253L133.363 16.4151C143.211 12.6958 153.997 18.9233 155.699 29.311L157.81 42.1866L170.686 44.2968C181.073 45.9993 187.301 56.7859 183.582 66.6332L178.971 78.8388L189.067 87.1042C197.211 93.7725 197.211 106.228 189.067 112.896L178.971 121.162L183.582 133.367C187.301 143.214 181.073 154.001 170.686 155.703L157.81 157.813L155.7 170.689C153.997 181.077 143.211 187.304 133.363 183.585L121.158 178.975L112.893 189.07C106.224 197.215 93.7684 197.215 87.1009 189.07L78.8352 178.975L66.6295 183.585C56.7822 187.304 45.9957 181.077 44.2932 170.689L42.1829 157.813L29.3073 155.703C18.9196 154.001 12.6921 143.214 16.4115 133.367L21.0217 121.162L10.9263 112.896C2.78159 106.228 2.78155 93.7725 10.9263 87.1042L21.0217 78.8388L16.4115 66.6332C12.692 56.7859 18.9197 45.9993 29.3074 44.2968L42.1829 42.1866L44.2932 29.311C45.9957 18.9233 56.7823 12.6958 66.6295 16.4151L78.8352 21.0253L87.1009 10.9299ZM93.3925 135.059L151.726 76.726L139.941 64.9409L87.5 117.382L60.0593 89.9408L48.2741 101.726L81.6075 135.059C83.1703 136.623 85.29 137.5 87.5 137.5C89.71 137.5 91.83 136.623 93.3925 135.059Z" fill="url(#paint0_linear_1_96)"/>
</g>
<path fill-rule="evenodd" clip-rule="evenodd" d="M88.5796 30.9406C93.8419 24.5123 103.673 24.5123 108.936 30.9406L115.459 38.9084L125.093 35.2698C132.865 32.3343 141.378 37.2494 142.721 45.448L144.387 55.6101L154.55 57.2756C162.748 58.6193 167.663 67.1327 164.728 74.9047L161.089 84.5381L169.057 91.0616C175.485 96.3246 175.485 106.155 169.057 111.418L161.089 117.942L164.728 127.575C167.663 135.347 162.748 143.86 154.55 145.204L144.387 146.869L142.722 157.032C141.378 165.23 132.865 170.145 125.093 167.21L115.459 163.571L108.936 171.539C103.673 177.967 93.8419 177.967 88.5796 171.539L82.0558 163.571L72.4224 167.21C64.6504 170.145 56.137 165.23 54.7933 157.032L53.1277 146.869L42.9656 145.204C34.7671 143.86 29.852 135.347 32.7875 127.575L36.4262 117.942L28.4583 111.418C22.03 106.155 22.03 96.3246 28.4583 91.0616L36.4262 84.5381L32.7875 74.9047C29.8519 67.1327 34.7671 58.6193 42.9657 57.2756L53.1277 55.6101L54.7933 45.448C56.137 37.2494 64.6504 32.3343 72.4224 35.2698L82.0558 38.9084L88.5796 30.9406ZM93.5453 128.91L139.585 82.8705L130.284 73.5691L88.8946 114.958L67.2368 93.3004L57.9353 102.602L84.2438 128.91C85.4773 130.144 87.1503 130.837 88.8946 130.837C90.6389 130.837 92.3121 130.144 93.5453 128.91Z" fill="url(#paint1_linear_1_96)"/>
<defs>
<linearGradient id="paint0_linear_1_96" x1="-4.83089" y1="158.937" x2="273.614" y2="134.175" gradientUnits="userSpaceOnUse">
<stop stop-color="#3EB655"/>
<stop offset="0.916667" stop-color="#8BD399"/>
</linearGradient>
<linearGradient id="paint1_linear_1_96" x1="16.0218" y1="147.756" x2="206.863" y2="124.754" gradientUnits="userSpaceOnUse">
<stop stop-color="#3EB655"/>
<stop offset="0.979167" stop-color="#94C7FF"/>
</linearGradient>
</defs>
</svg>
