<svg width="28" height="28" viewBox="0 0 28 28" fill="none" xmlns="http://www.w3.org/2000/svg">
<path d="M6.27336 0.997827C5.81164 0.960327 5.29836 1.09392 4.82492 1.42673C4.40774 1.71736 3.50774 2.4322 2.66633 3.2408C2.2468 3.64392 1.84602 4.06345 1.53664 4.47595C1.22492 4.88845 0.95305 5.2658 0.969456 5.81423C0.985863 6.30642 1.03508 7.76189 2.08274 9.99314C3.13039 12.222 5.16242 15.2806 9.12571 19.2463C13.0913 23.2119 16.1499 25.2439 18.3788 26.2916C20.6077 27.3392 22.0655 27.3885 22.5577 27.4049C23.1038 27.4213 23.4812 27.1494 23.8937 26.8377C24.3062 26.526 24.7257 26.1275 25.1288 25.708C25.9351 24.8666 26.6499 23.9666 26.9405 23.5494C27.6038 22.6049 27.4937 21.4892 26.7554 20.9713C26.2913 20.6455 22.0234 17.8049 21.3812 17.4111C20.7296 17.0127 19.9796 17.1931 19.3093 17.547C18.782 17.826 17.3546 18.6439 16.9468 18.8783C16.6398 18.6838 15.4749 17.908 12.9695 15.4025C10.4616 12.897 9.68821 11.7322 9.49367 11.4252C9.72805 11.0174 10.5437 9.59705 10.8249 9.06033C11.1765 8.39236 11.3734 7.63533 10.9538 6.97908C10.778 6.70017 9.97883 5.48377 9.17258 4.26267C8.36399 3.04158 7.59758 1.88376 7.39836 1.6072V1.60486C7.13821 1.24626 6.73274 1.03533 6.27336 0.997827Z" fill="#6BB1FC"/>
</svg>
