<svg width="38" height="50" viewBox="0 0 38 50" fill="none" xmlns="http://www.w3.org/2000/svg">
<path d="M37.256 22.3157L28.2568 22.3219C25.8508 21.1436 23.5097 19.8262 23.4664 19.8015L23.2159 19.6716V16.3904C23.7757 15.7039 24.2581 14.8472 24.6478 13.8329C25.6838 13.5576 26.5311 12.7938 26.8837 11.8011C27.2919 10.7713 27.0197 9.59302 26.2312 8.83226C26.2312 8.81061 26.2312 8.78897 26.2312 8.76423C26.3085 7.64473 26.5342 4.23367 24.4406 2.00087C23.2005 0.674171 21.3635 0 18.9884 0C16.6134 0 14.7733 0.680356 13.5209 2.01324C11.4241 4.25223 11.6344 7.65401 11.7055 8.7735V8.79206C11.4427 9.03018 11.2138 9.39819 11.0592 9.84352C10.8304 10.5022 10.8118 11.2011 11.0066 11.8289C11.0128 11.8753 11.0221 11.9186 11.0376 11.9619C11.4056 12.967 12.2653 13.7277 13.3137 13.9844C13.7219 14.9957 14.2105 15.8399 14.7826 16.511L14.7702 19.6809L14.5507 19.8046C14.5074 19.8231 14.3589 19.9035 14.1239 20.0303C13.3415 20.4509 11.5293 21.425 9.6954 22.3342L0.73016 22.3404C0.383796 22.3466 0.105469 22.6218 0.105469 22.9651L0.127116 49.3815C0.127116 49.7248 0.405444 50 0.745622 50L37.2777 49.9722C37.6178 49.9722 37.8962 49.6969 37.8962 49.3537L37.8745 22.9373C37.8745 22.594 37.5962 22.3188 37.256 22.3188V22.3157ZM13.7559 12.8031H13.6817C13.0322 12.667 12.488 12.2248 12.2344 11.6279C12.2313 11.597 12.222 11.5661 12.2127 11.5382C11.9158 10.694 12.3457 9.84661 12.5529 9.69508C12.9951 9.53427 12.9673 9.09203 12.9426 8.69928C12.8838 7.70967 12.6952 4.70683 14.427 2.86059C15.4382 1.78748 16.9752 1.23701 18.9946 1.23701C21.0141 1.23701 22.5479 1.7782 23.5499 2.85131C25.2725 4.69446 25.0745 7.7004 25.0096 8.69001C24.9849 9.07966 24.9601 9.44767 25.2879 9.6425C25.8013 10.06 25.9837 10.7404 25.7333 11.3712C25.4951 12.0299 24.9199 12.5216 24.221 12.667H24.1963C23.9334 12.667 23.7015 12.8309 23.6149 13.0783C23.2685 14.0494 22.851 14.8503 22.3624 15.4843V15.4874C22.1799 15.5616 22.0439 15.7224 22.0006 15.9111C21.1625 16.7924 20.142 17.2378 18.9482 17.2408C17.7545 17.2439 16.7587 16.8141 15.9299 15.9482C15.9299 15.9451 15.9299 15.9451 15.9299 15.9451C15.8928 15.8801 15.8433 15.8245 15.7846 15.7812C15.2217 15.141 14.7455 14.2844 14.3404 13.2051C14.2507 12.9639 14.0188 12.8031 13.7621 12.8031H13.7559ZM14.7084 21.122C14.9187 21.0075 15.0517 20.9364 15.1166 20.9055L15.6825 20.5962C15.8805 20.488 16.0042 20.2808 16.0042 20.055L16.0103 17.6274C16.8639 18.1964 17.8442 18.481 18.9452 18.4779C20.0461 18.4748 21.0976 18.1624 21.9789 17.5501V20.052C21.9789 20.2839 22.1119 20.4942 22.316 20.6024L22.8819 20.8931C22.8974 20.9024 24.0355 21.5426 25.5322 22.325L12.4137 22.3342C13.4033 21.8209 14.2383 21.3725 14.7084 21.1189V21.122ZM3.7361 33.9529C4.07937 33.9529 4.3546 34.2312 4.3546 34.5714V36.3187C4.3546 36.6588 4.08246 36.9372 3.73919 36.9372C3.39592 36.9372 3.12068 36.6588 3.12068 36.3187V34.5714C3.12068 34.2312 3.39592 33.9529 3.7361 33.9529ZM3.11759 32.8179V31.0737C3.11759 30.7305 3.39283 30.4552 3.733 30.4552C4.07318 30.4552 4.35151 30.7305 4.35151 31.0737V32.8179C4.35151 33.1612 4.07937 33.4364 3.7361 33.4364C3.39283 33.4364 3.11759 33.1612 3.11759 32.8179ZM3.73919 37.4536C4.08246 37.4536 4.3577 37.7288 4.3577 38.0721V39.8256C4.3577 40.1658 4.08555 40.4441 3.74228 40.4441C3.39901 40.4441 3.12378 40.1658 3.12378 39.8256V38.0721C3.12378 37.7288 3.39901 37.4536 3.73919 37.4536ZM3.73919 40.9605C4.08246 40.9605 4.3577 41.2358 4.3577 41.579V43.3325C4.3577 43.6727 4.08555 43.951 3.74228 43.951C3.39901 43.951 3.12378 43.6727 3.12378 43.3325V41.579C3.12378 41.2358 3.39901 40.9605 3.73919 40.9605ZM34.2594 33.9281C34.5995 33.9281 34.8779 34.2065 34.8779 34.5466V36.2939C34.8779 36.6341 34.6026 36.9124 34.2624 36.9124C33.9223 36.9124 33.6439 36.6341 33.6439 36.2939V34.5466C33.6439 34.2065 33.9192 33.9281 34.2594 33.9281ZM33.6408 32.7932V31.049C33.6408 30.7057 33.9161 30.4305 34.2563 30.4305C34.5964 30.4305 34.8748 30.7057 34.8748 31.049V32.7932C34.8748 33.1364 34.5995 33.4117 34.2594 33.4117C33.9192 33.4117 33.6408 33.1364 33.6408 32.7932ZM36.6375 26.3205L19.6595 26.3329V28.0214C21.1285 27.6225 22.7026 27.8359 24.0231 28.6523C24.0355 28.6585 24.0447 28.6646 24.054 28.6739C24.6014 29.0605 25.5786 30.6098 26.5002 32.6478C26.5404 32.7313 26.5744 32.8179 26.6146 32.9014C26.6146 32.9045 26.6177 32.9045 26.6177 32.9076C27.7156 35.3878 28.7114 38.5267 28.7856 41.1832V41.1894C28.7887 41.2481 28.7918 41.3069 28.7887 41.3657V41.3873C28.8041 42.6552 28.6 43.8057 28.0836 44.7056C28.0063 44.8386 27.8826 44.9375 27.7341 44.987L26.5837 45.355C26.5218 45.3736 26.46 45.3829 26.3951 45.3829C26.3146 45.3829 26.2311 45.3674 26.1569 45.3365C24.3942 44.5974 21.2862 43.4655 19.6719 42.8872V45.2715C19.6719 45.2715 19.6905 45.2715 19.6997 45.2715C23.5221 45.6457 25.458 47.4951 26.3425 48.7352H23.587L19.675 46.6075V48.7413H18.4411V46.6075L14.5043 48.7444H11.7581C12.6673 47.5012 14.6311 45.6426 18.4132 45.2715C18.4225 45.2715 18.4287 45.2684 18.438 45.2715V42.8501C16.6845 43.4902 13.6353 44.6345 11.8478 45.3581C11.7736 45.389 11.6963 45.4045 11.6159 45.4045C11.554 45.4045 11.4891 45.3952 11.4272 45.3736L10.2768 45.0056C10.1284 44.9592 10.0047 44.8602 9.93043 44.7272C8.85114 42.8563 9.12019 39.906 9.90878 37.0392C9.9428 36.9093 9.97991 36.7794 10.017 36.6526C10.017 36.6496 10.017 36.6465 10.017 36.6465C10.416 35.2734 10.9231 33.9312 11.455 32.7499C11.5169 32.6107 11.5818 32.4715 11.6437 32.3355C12.5189 30.4645 13.4126 29.0636 13.9291 28.6925C13.9414 28.6832 13.9538 28.677 13.9662 28.6677C15.3145 27.8482 16.9257 27.6317 18.4225 28.043V26.3298L1.34248 26.3422V25.1051L36.6375 25.0773V26.3143V26.3205Z" fill="#6BB1FC"/>
<path d="M18.3977 35.3568L11.0498 37.4999C10.7468 38.607 10.5581 39.6245 10.4746 40.5337L11.7797 40.11C12.16 39.9863 12.5621 39.8533 12.9827 39.7172C14.7392 39.142 16.7122 38.4957 18.3915 37.9607C18.4069 37.9545 18.4224 37.9514 18.4379 37.9483V35.3506L18.4039 35.3599H18.4008L18.3977 35.3568Z" fill="#6BB1FC"/>
<path d="M18.4131 31.8963L12.5589 33.3065C12.2219 34.0673 11.8817 34.9054 11.5755 35.7991C11.5415 35.895 11.5106 35.9908 11.4766 36.0867L18.4007 34.0673H18.4069L18.4286 34.058V31.8901L18.4162 31.8932H18.41L18.4131 31.8963Z" fill="#6BB1FC"/>
<path d="M18.4254 29.3448C17.173 28.8964 15.7844 29.0294 14.6371 29.719C14.3897 29.9077 13.8609 30.6993 13.2578 31.8652L18.4223 30.622L18.4285 29.3448H18.4254Z" fill="#6BB1FC"/>
<path d="M10.4395 41.845C10.4735 42.6583 10.625 43.3541 10.8971 43.9108L11.5961 44.1334C13.5505 43.3479 16.7575 42.1542 18.3749 41.5635L18.3842 39.2627L12.162 41.2852C11.5033 41.5017 10.9126 41.6903 10.4395 41.845Z" fill="#6BB1FC"/>
<path d="M19.6549 31.8717L19.6488 31.8687L19.6426 33.9654H19.6457L19.6549 31.8717Z" fill="#6BB1FC"/>
<path d="M19.6405 35.252H19.6343L19.625 37.8682H19.6281L19.6405 35.252Z" fill="#6BB1FC"/>
<path d="M18.4289 30.6193V29.9946L18.4258 30.6193H18.4289Z" fill="#6BB1FC"/>
<path d="M19.8162 30.6288L24.8478 32.0575C24.1922 30.771 23.6108 29.8959 23.351 29.6948C22.2346 29.0114 20.8863 28.8815 19.6678 29.3206L19.6616 30.3845V28.9341L19.6523 30.604H19.6616C19.7111 30.604 19.7637 30.6164 19.8132 30.6288H19.8162Z" fill="#6BB1FC"/>
<path d="M19.6699 33.9709L26.4859 35.944C26.4673 35.8883 26.4487 35.8295 26.4271 35.7708C26.155 34.9822 25.855 34.2307 25.5519 33.5411L19.6699 31.8711V33.9709Z" fill="#6BB1FC"/>
<path d="M19.673 37.8832L27.528 40.4345C27.4414 39.513 27.2404 38.4801 26.9281 37.3606L19.6699 35.2607V37.8832H19.673Z" fill="#6BB1FC"/>
<path d="M19.675 41.579C21.0604 42.0769 24.4313 43.2923 26.426 44.1118L27.1218 43.8891C27.4001 43.317 27.5485 42.5995 27.5733 41.7553C25.7425 41.1708 22.616 40.1472 19.6719 39.1885V41.579H19.675Z" fill="#6BB1FC"/>
</svg>
