<svg width="44" height="50" viewBox="0 0 44 50" fill="none" xmlns="http://www.w3.org/2000/svg">
<path d="M39.1184 26.7119H20.8403C20.4939 26.7119 20.2168 26.989 20.2168 27.3323C20.2168 27.6756 20.4971 27.9527 20.8403 27.9527H39.1184C39.4648 27.9527 39.742 27.6756 39.742 27.3323C39.742 26.989 39.4617 26.7119 39.1184 26.7119Z" fill="#6BB1FC"/>
<path d="M17.9145 26.7119H15.7856C15.4392 26.7119 15.1621 26.989 15.1621 27.3323C15.1621 27.6756 15.4424 27.9527 15.7856 27.9527H17.9145C18.2609 27.9527 18.5381 27.6756 18.5381 27.3323C18.5381 26.989 18.2578 26.7119 17.9145 26.7119Z" fill="#6BB1FC"/>
<path d="M39.1194 32.7554H15.7837C15.4373 32.7554 15.1602 33.0325 15.1602 33.3758C15.1602 33.719 15.4404 33.9962 15.7837 33.9962H39.1194C39.4658 33.9962 39.743 33.719 39.743 33.3758C39.743 33.0325 39.4627 32.7554 39.1194 32.7554Z" fill="#6BB1FC"/>
<path d="M39.118 39.5767H35.7231C35.3767 39.5767 35.0996 39.8538 35.0996 40.1971C35.0996 40.5403 35.3799 40.8175 35.7231 40.8175H39.118C39.4644 40.8175 39.7416 40.5403 39.7416 40.1971C39.7416 39.8538 39.4613 39.5767 39.118 39.5767Z" fill="#6BB1FC"/>
<path d="M32.7914 39.5767H15.7856C15.4392 39.5767 15.1621 39.8538 15.1621 40.1971C15.1621 40.5403 15.4424 40.8175 15.7856 40.8175H32.7914C33.1379 40.8175 33.415 40.5403 33.415 40.1971C33.415 39.8538 33.1347 39.5767 32.7914 39.5767Z" fill="#6BB1FC"/>
<path d="M43.7257 17.0342V48.18C43.7257 49.1846 42.9037 50.0002 41.896 50.0002H13.0113C12.0036 50.0002 11.1816 49.1846 11.1816 48.18V20.4574C11.5879 20.5298 12.0067 20.5834 12.4287 20.6148V48.18C12.4287 48.498 12.6901 48.7594 13.0113 48.7594H41.896C42.2172 48.7594 42.4786 48.498 42.4786 48.18V17.6546H35.3362C34.3914 17.6546 33.623 16.8893 33.623 15.9477V8.84306H25.2744C25.2775 8.78953 25.2776 8.73914 25.2776 8.6856C25.2776 8.32029 25.2618 7.95813 25.2272 7.59912H34.2465C34.2686 7.59912 34.2906 7.59912 34.3095 7.60227C34.3253 7.60227 34.341 7.60227 34.3567 7.60857C34.3599 7.60857 34.3662 7.61172 34.3693 7.61172C34.3882 7.61487 34.4071 7.61802 34.4229 7.62431C34.4229 7.62431 34.425 7.62536 34.4292 7.62746C34.4481 7.63061 34.4638 7.63691 34.4827 7.64321C34.4827 7.64636 34.4859 7.64636 34.4859 7.64636C34.5048 7.65266 34.5205 7.66211 34.5331 7.6684C34.5362 7.67155 34.5394 7.67155 34.5426 7.67155C34.5583 7.681 34.5709 7.69045 34.5835 7.69675C34.5866 7.6999 34.5929 7.70305 34.5961 7.70305C34.6087 7.71249 34.6213 7.72194 34.6307 7.73139C34.637 7.73454 34.6402 7.73769 34.6433 7.74084C34.6591 7.75343 34.6717 7.76603 34.6843 7.77863C34.6843 7.77863 34.6864 7.77863 34.6906 7.77863L43.543 16.5901C43.543 16.5901 43.5462 16.5933 43.5462 16.5964C43.5588 16.609 43.5714 16.6216 43.584 16.6342C43.5871 16.6405 43.5903 16.6437 43.5934 16.65C43.6029 16.6594 43.6123 16.672 43.6218 16.6846C43.6218 16.6878 43.6249 16.6941 43.628 16.6972C43.6375 16.7098 43.6438 16.7224 43.6532 16.7382C43.6532 16.7382 43.6564 16.7413 43.6564 16.7445C43.6627 16.7602 43.6721 16.7759 43.6784 16.7917C43.6784 16.7917 43.6795 16.7938 43.6816 16.798C43.6816 16.798 43.6942 16.8326 43.6973 16.8484C43.7005 16.8484 43.7005 16.8547 43.7005 16.8547C43.7068 16.8736 43.7099 16.8893 43.7131 16.9082C43.7162 16.9082 43.7162 16.9177 43.7162 16.924C43.7194 16.9397 43.7225 16.9523 43.7225 16.968C43.7257 16.9869 43.7257 17.009 43.7257 17.031V17.0342Z" fill="#6BB1FC"/>
<path d="M27.1584 16.382V18.6305C27.1584 19.0935 26.7805 19.4714 26.3176 19.4714H23.1337V22.6363C23.1337 23.0993 22.7558 23.4772 22.2897 23.4772H20.0317C19.5656 23.4772 19.1877 23.0993 19.1877 22.6363V19.4714H18.498C18.498 19.4714 18.5106 19.4651 18.5169 19.4619C19.4554 19.0084 20.2994 18.3754 21.0426 17.648C21.8331 16.8764 22.9353 15.8057 23.1337 15.5254V15.5443H26.3144C26.7805 15.5443 27.1584 15.919 27.1584 16.382Z" fill="#6BB1FC"/>
<path d="M4.07064 5.3916H1.48828V6.70798H4.07064V5.3916Z" fill="#6BB1FC"/>
<path d="M4.07064 10.6631H1.48828V11.9795H4.07064V10.6631Z" fill="#6BB1FC"/>
<path d="M4.0714 8.02734H0.273438V9.34372H4.0714V8.02734Z" fill="#6BB1FC"/>
<path d="M14.0762 0C9.28622 0 5.39062 3.89558 5.39062 8.68555C5.39062 13.4755 9.28622 17.3742 14.0762 17.3742C18.8661 17.3742 22.7649 13.4755 22.7649 8.68555C22.7649 3.89558 18.8661 0 14.0762 0ZM16.5798 12.0237L13.1849 9.70904V4.75847H14.5013V9.01307L17.323 10.9372L16.5798 12.0237Z" fill="#6BB1FC"/>
</svg>
