<svg width="58" height="50" viewBox="0 0 58 50" fill="none" xmlns="http://www.w3.org/2000/svg">
<path d="M26.0448 45.0063C17.8522 43.5836 11.1136 37.5267 8.88094 29.5717C6.6483 21.6168 9.25305 12.9707 15.5195 7.54549C15.5476 7.5236 15.5664 7.49858 15.5882 7.47357C17.1079 7.42667 18.5714 6.8044 19.647 5.70372C20.9666 4.35288 21.5607 2.44231 21.2324 0.58803C21.1824 0.322239 20.9728 0.115861 20.7071 0.0783374C18.834 -0.196834 16.9297 0.44419 15.607 1.7919C14.5282 2.89259 13.9372 4.37164 13.9372 5.88508C13.9372 6.22592 13.9654 6.57301 14.0279 6.91385C14.0404 6.99202 14.0717 7.06394 14.1123 7.1296C13.3619 7.82691 12.6645 8.57425 12.0204 9.35912C12.0235 9.14336 12.0173 8.9276 11.9985 8.71184C11.8234 6.8857 10.7696 5.24093 9.17488 4.31222C8.94036 4.17777 8.64642 4.20591 8.4463 4.38414C7.07044 5.60053 6.36062 7.41103 6.54511 9.23091C6.70771 11.0289 7.7271 12.6518 9.27181 13.593C8.48069 15.1752 7.8772 16.8419 7.46757 18.5586C7.35187 18.2428 7.20803 17.9395 7.03292 17.6455C6.10109 16.0633 4.45006 15.0158 2.61141 14.8407C2.34562 14.8188 2.09234 14.9657 1.9829 15.2096C1.23243 16.8857 1.34188 18.8338 2.27371 20.4191C2.73962 21.2102 3.3869 21.8669 4.14674 22.3516C4.90972 22.8331 5.78214 23.1364 6.70146 23.224C6.72022 23.224 6.73899 23.2271 6.75775 23.2271C6.79214 23.2271 6.82341 23.2178 6.85468 23.2115C6.80152 25.0939 6.98601 26.9951 7.4144 28.8681C7.08607 28.4804 6.70772 28.1302 6.27933 27.8363C4.75963 26.7981 2.81467 26.5417 1.07921 27.1608C0.8228 27.2484 0.657073 27.4923 0.6602 27.7612C0.70085 29.5967 1.63268 31.3134 3.15238 32.3516C4.12486 33.0207 5.26932 33.3647 6.42629 33.3647C7.07357 33.3647 7.72397 33.2584 8.34936 33.0364C8.49946 32.9832 8.61203 32.8738 8.68395 32.7424C9.53135 34.6999 10.6477 36.5167 11.986 38.1458C11.3637 37.7674 10.6727 37.5016 9.93473 37.3766C8.10546 37.067 6.22929 37.6611 4.91598 38.9619C4.72523 39.1527 4.6752 39.4435 4.79403 39.6843C5.61329 41.3384 7.19552 42.5048 9.02479 42.8018C9.34686 42.855 9.66894 42.8831 9.98789 42.8831C11.4857 42.8831 12.946 42.2984 14.0279 41.2384C14.2218 41.0507 14.2718 40.7599 14.153 40.516C14.128 40.4691 14.1029 40.4222 14.0779 40.3753C15.8572 42.0357 17.8991 43.4178 20.1286 44.4529C19.2186 44.2465 18.2555 44.259 17.3331 44.5091C15.5539 44.9969 14.1092 46.3103 13.4651 48.0301C13.3681 48.2834 13.4463 48.5679 13.6589 48.7368C14.6908 49.5654 15.9729 50.0001 17.2737 50.0001C17.7834 50.0001 18.2931 49.9344 18.7934 49.7968C20.5726 49.3121 22.0204 47.9988 22.6614 46.279C22.7552 46.0257 22.677 45.7412 22.4675 45.5723C22.3018 45.4378 22.1298 45.319 21.9516 45.2064C23.2024 45.6599 24.4969 46.0069 25.829 46.2383C25.8665 46.2446 25.904 46.2477 25.9384 46.2477C26.2355 46.2477 26.5013 46.0351 26.5545 45.7286C26.6139 45.3909 26.3856 45.0657 26.0448 45.0063ZM16.5013 2.66745C17.4331 1.71686 18.7371 1.21029 20.0567 1.27283C20.1536 2.57677 19.6814 3.88071 18.7527 4.82817C17.8209 5.78189 16.5201 6.28533 15.2005 6.22904C15.1004 4.92198 15.5726 3.61804 16.5013 2.66745ZM7.78964 9.11522V9.10896C7.66144 7.84255 8.0867 6.58239 8.94036 5.65056C9.96287 6.40103 10.632 7.558 10.7509 8.83066C10.8728 10.1002 10.435 11.3604 9.56887 12.2891C8.55887 11.5323 7.90534 10.3785 7.78964 9.11522ZM6.35437 21.9107C5.10359 21.6605 4.00291 20.8882 3.3525 19.7844C2.7021 18.6837 2.56451 17.3579 2.95538 16.154C4.20616 16.4041 5.30685 17.1765 5.95725 18.2803C6.60453 19.381 6.74524 20.7068 6.35437 21.9107ZM3.85907 31.3197C2.80216 30.5973 2.10798 29.456 1.9485 28.2052C3.18677 27.905 4.5126 28.1427 5.57263 28.8681C6.62954 29.5936 7.3206 30.7381 7.48007 31.9888C6.2418 32.289 4.9191 32.0483 3.85907 31.3197ZM9.23429 41.5698C9.23429 41.5698 9.23116 41.5698 9.22804 41.5698C7.95224 41.3634 6.82967 40.6161 6.14799 39.5435C7.14549 38.743 8.45255 38.3991 9.72835 38.6148C11.0041 38.8275 12.1236 39.5811 12.799 40.6599C11.8046 41.4479 10.5038 41.7887 9.23429 41.5729V41.5698ZM18.465 48.5898C17.2236 48.9306 15.8947 48.7211 14.8253 48.0363C15.3912 46.9075 16.4231 46.0539 17.6614 45.7161C18.9028 45.3784 20.2318 45.5879 21.3012 46.2727C20.7352 47.4016 19.7033 48.2552 18.465 48.5898Z" fill="#6BB1FC"/>
<path d="M56.9253 27.1138C55.1867 26.5009 53.2417 26.7573 51.7251 27.8017C51.2967 28.0956 50.9184 28.4458 50.5901 28.8336C51.0185 26.9605 51.1967 25.0594 51.1404 23.1769C51.1748 23.1769 51.2029 23.1894 51.2373 23.1894C51.2561 23.1894 51.278 23.1894 51.2968 23.1863C53.1354 23.0112 54.7895 21.9606 55.7183 20.3752C56.6501 18.793 56.7595 16.8449 56.0091 15.1657C55.8996 14.9218 55.6432 14.7748 55.3805 14.7998C53.5419 14.9718 51.8877 16.0225 50.9559 17.6078C50.7839 17.9018 50.637 18.2082 50.5213 18.524C50.1116 16.8105 49.505 15.1407 48.7108 13.5616C50.2523 12.6172 51.2686 10.9912 51.4281 9.19635C51.6094 7.37647 50.8965 5.56597 49.5206 4.35271C49.3174 4.17135 49.0235 4.14321 48.7921 4.28079C47.1973 5.2095 46.1467 6.8574 45.9747 8.68353C45.9559 8.90242 45.9497 9.11818 45.9528 9.33081C45.3086 8.54908 44.6113 7.80174 43.8577 7.10443C43.8984 7.03876 43.9297 6.96684 43.9422 6.88867C44.2736 5.03439 43.6795 3.12069 42.3537 1.76985C41.2342 0.631644 39.6989 0 38.1198 0C37.8321 0 37.5413 0.0218886 37.2536 0.0656659C36.9878 0.103189 36.7752 0.309568 36.7283 0.575358C36.4031 2.42964 36.9972 4.3402 38.3199 5.68792C39.3987 6.78548 40.8653 7.40774 42.385 7.45152C42.4037 7.47653 42.4256 7.50155 42.4506 7.52344C48.7264 12.9393 51.3468 21.5822 49.1266 29.5372C46.9034 37.4984 40.1773 43.5678 31.9878 45.003C31.647 45.0624 31.4187 45.3845 31.4782 45.7254C31.5313 46.0287 31.7971 46.2444 32.0942 46.2444C32.1317 46.2444 32.1661 46.2413 32.2036 46.2351C33.5357 46.0005 34.8302 45.6503 36.0779 45.1938C35.9028 45.3064 35.7308 45.4283 35.5651 45.5596C35.3556 45.7285 35.2774 46.0162 35.3712 46.2695C36.0185 47.9861 37.4663 49.2995 39.2455 49.781C39.7427 49.9155 40.2524 49.9811 40.7558 49.9811C42.0598 49.9811 43.3449 49.5434 44.3799 48.7116C44.5894 48.5427 44.6676 48.2582 44.5738 48.0049C43.9265 46.2882 42.4756 44.9749 40.6964 44.4902C39.774 44.2401 38.814 44.2307 37.9009 44.4371C40.1304 43.3989 42.1692 42.0137 43.9484 40.3501C43.9234 40.397 43.8953 40.4439 43.8734 40.494C43.7546 40.7348 43.8046 41.0256 43.9953 41.2132C45.0773 42.2701 46.5344 42.8517 48.0322 42.8517C48.3543 42.8517 48.6795 42.8267 49.0016 42.7704C50.8308 42.4702 52.4099 41.3007 53.2292 39.6466C53.348 39.4058 53.298 39.115 53.1073 38.9242C51.7908 37.6266 49.9115 37.0356 48.0822 37.3451C47.3474 37.4702 46.6532 37.7391 46.0341 38.1175C47.3693 36.4884 48.4825 34.6685 49.3268 32.7079C49.3987 32.8423 49.5113 32.9487 49.6614 33.0018C50.2836 33.2207 50.934 33.3301 51.5782 33.3301C52.7351 33.3301 53.8859 32.983 54.8583 32.3108C56.378 31.2695 57.3067 29.5497 57.3411 27.7173C57.3474 27.4484 57.1785 27.2044 56.9253 27.1138ZM52.0347 18.2426C52.6851 17.1357 53.7827 16.3633 55.0366 16.1132C55.4274 17.3139 55.2899 18.6397 54.6395 19.7436C54.3143 20.297 53.8796 20.7661 53.3668 21.1288C52.854 21.4915 52.2661 21.7479 51.6407 21.873C51.2467 20.6723 51.3843 19.3433 52.0347 18.2426ZM42.7696 6.20699C41.4469 6.2664 40.1461 5.76297 39.2142 4.81237C38.2855 3.86491 37.8102 2.5641 37.904 1.25703C39.2236 1.19762 40.5275 1.69793 41.4625 2.64853C42.3943 3.59599 42.8665 4.8968 42.7696 6.20699ZM47.2223 8.80236C47.3412 7.52969 48.0041 6.36959 49.0297 5.61913C49.8834 6.54783 50.3118 7.80799 50.1836 9.0744V9.08066C50.071 10.3439 49.4175 11.5009 48.4106 12.2576C47.5413 11.3321 47.1035 10.0719 47.2223 8.80236ZM40.3712 45.6972C41.6095 46.0349 42.6445 46.8855 43.2105 48.0143C42.1442 48.6991 40.8152 48.9117 39.5738 48.574C38.9547 48.4083 38.3856 48.1112 37.9009 47.7141C37.4162 47.3201 37.016 46.826 36.7314 46.2601C37.8008 45.5721 39.1298 45.3626 40.3712 45.6972ZM48.2917 38.5803C49.5707 38.3614 50.8777 38.7054 51.8752 39.5027C51.1936 40.5784 50.0741 41.3257 48.7952 41.5353C48.7952 41.5353 48.7921 41.5353 48.7921 41.5384C47.5225 41.7541 46.2217 41.4164 45.2242 40.6284C45.8996 39.5496 47.016 38.796 48.2917 38.5803ZM54.1517 31.2789C53.0916 32.0106 51.7689 32.2513 50.5275 31.9543C50.687 30.7035 51.3781 29.559 52.4318 28.8305C53.4919 28.105 54.8177 27.8642 56.056 28.1613C55.8996 29.4121 55.2086 30.5534 54.1517 31.2789Z" fill="#6BB1FC"/>
<path d="M40.5781 28.199C40.5781 28.5461 40.2998 28.8244 39.9527 28.8275H33.6801L33.6832 34.9782C33.6832 35.3222 33.4049 35.6036 33.0578 35.6036L24.9559 35.6098C24.6119 35.6098 24.3305 35.3284 24.3305 34.9845V28.84L18.0516 28.8431C17.8858 28.8431 17.7264 28.7775 17.6107 28.6618C17.495 28.5461 17.4262 28.3835 17.4262 28.2177L17.4199 20.0064C17.4199 19.8406 17.4856 19.6843 17.6013 19.5655C17.7201 19.4466 17.8765 19.381 18.0453 19.381H24.318L24.3148 13.2303C24.3148 12.8863 24.5931 12.6049 24.9371 12.6049L33.0422 12.5986C33.3861 12.5986 33.6675 12.8769 33.6675 13.224V19.3685H39.9464C40.1122 19.3685 40.2717 19.4341 40.3874 19.5498C40.503 19.6655 40.5718 19.8281 40.5718 19.9939L40.5781 28.2021V28.199Z" fill="#6BB1FC"/>
</svg>
