<svg width="185" height="185" viewBox="0 0 185 185" fill="none" xmlns="http://www.w3.org/2000/svg">
<g opacity="0.2">
<path d="M92.5 185C143.586 185 185 143.586 185 92.5C185 41.4137 143.586 0 92.5 0C41.4137 0 0 41.4137 0 92.5C0 143.586 41.4137 185 92.5 185Z" fill="#E24C4B"/>
<path d="M185 92.4995C185 143.375 143.375 185 92.4999 185C63.0158 185 37.0002 171.703 20.2344 150.312C35.8437 163.031 56.0781 170.547 78.0467 170.547C128.922 170.547 170.547 128.922 170.547 78.0467C170.547 56.0782 163.031 35.8437 150.312 20.2344C171.703 36.9994 185 63.015 185 92.4995Z" fill="#D1403F"/>
<path d="M134.703 134.703C131.234 138.171 125.453 138.171 121.984 134.703L92.4997 105.219L63.0155 134.703C59.5469 138.171 53.7654 138.171 50.2968 134.703C46.8282 131.234 46.8282 125.453 50.2968 121.984L79.781 92.4997L50.2968 63.0155C46.8282 59.5469 46.8282 53.7654 50.2968 50.2968C53.7654 46.8282 59.5469 46.8282 63.0155 50.2968L92.4997 79.781L121.984 50.2968C125.453 46.8282 131.234 46.8282 134.703 50.2968C138.171 53.7654 138.171 59.5469 134.703 63.0155L105.219 92.4997L134.703 121.984C138.171 125.453 138.171 131.234 134.703 134.703Z" fill="white"/>
</g>
<g clip-path="url(#clip0_1_110)">
<path d="M92.5002 172C136.407 172 172 136.407 172 92.5002C172 48.5934 136.407 13 92.5002 13C48.5934 13 13 48.5934 13 92.5002C13 136.407 48.5934 172 92.5002 172Z" fill="#E24C4B"/>
<path d="M172 92.5002C172 136.225 136.225 172 92.4998 172C67.1593 172 44.8 160.572 30.3904 142.188C43.806 153.119 61.1967 159.579 80.0778 159.579C123.803 159.579 159.578 123.804 159.578 80.0785C159.578 61.1974 153.119 43.8067 142.187 30.3911C160.572 44.7999 172 67.1593 172 92.5002Z" fill="#D1403F"/>
<path d="M128.772 128.772C125.791 131.753 120.822 131.753 117.841 128.772L92.5002 103.431L67.1597 128.772C64.1786 131.753 59.2095 131.753 56.2284 128.772C53.2473 125.791 53.2473 120.822 56.2284 117.841L81.5689 92.5001L56.2284 67.1596C53.2473 64.1785 53.2473 59.2095 56.2284 56.2283C59.2095 53.2472 64.1786 53.2472 67.1597 56.2283L92.5002 81.5689L117.841 56.2283C120.822 53.2472 125.791 53.2472 128.772 56.2283C131.753 59.2095 131.753 64.1785 128.772 67.1596L103.432 92.5001L128.772 117.841C131.753 120.822 131.753 125.79 128.772 128.772Z" fill="white"/>
</g>
<defs>
<clipPath id="clip0_1_110">
<rect width="159" height="159" fill="white" transform="translate(13 13)"/>
</clipPath>
</defs>
</svg>
