<svg width="13" height="11" viewBox="0 0 13 11" fill="none" xmlns="http://www.w3.org/2000/svg">
<path d="M12.8099 1.67442C12.4646 2.17842 12.0446 2.61242 11.5499 2.97642V3.29842C11.5499 3.97976 11.4519 4.65642 11.2559 5.32842C11.0599 6.00042 10.7612 6.64909 10.3599 7.27442C9.95857 7.89976 9.47791 8.44576 8.91791 8.91242C8.35791 9.37909 7.68591 9.76176 6.90191 10.0604C6.11791 10.3591 5.27324 10.4991 4.36791 10.4804C2.95857 10.4804 1.67057 10.1024 0.503906 9.34642C0.68124 9.37442 0.881906 9.38842 1.10591 9.38842C2.28191 9.38842 3.32724 9.02909 4.24191 8.31042C3.69124 8.29176 3.20124 8.12376 2.77191 7.80642C2.34257 7.48909 2.04391 7.07376 1.87591 6.56042C2.05324 6.57909 2.21191 6.58842 2.35191 6.58842C2.57591 6.58842 2.79991 6.56042 3.02391 6.50442C2.43591 6.38309 1.95057 6.09376 1.56791 5.63642C1.18524 5.17909 0.993906 4.64242 0.993906 4.02642V3.99842C1.34857 4.19442 1.73124 4.30176 2.14191 4.32042C1.79657 4.08709 1.52124 3.78842 1.31591 3.42442C1.11057 3.06042 1.00791 2.65442 1.00791 2.20642C1.00791 1.75842 1.12457 1.33842 1.35791 0.946423C1.99257 1.72109 2.75791 2.34176 3.65391 2.80842C4.54991 3.27509 5.52057 3.53176 6.56591 3.57842C6.51924 3.38242 6.49591 3.19109 6.49591 3.00442C6.49591 2.30442 6.74324 1.71176 7.23791 1.22642C7.73257 0.741089 8.32524 0.493756 9.01591 0.484423C9.75324 0.484423 10.3692 0.750422 10.8639 1.28242C11.4332 1.17042 11.9652 0.965089 12.4599 0.666423C12.2732 1.26376 11.9046 1.73042 11.3539 2.06642C11.8392 2.01042 12.3246 1.87976 12.8099 1.67442Z" fill="#6BB1FC"/>
</svg>
