<svg width="24" height="24" viewBox="0 0 24 24" fill="none" xmlns="http://www.w3.org/2000/svg">
<path d="M11.9991 0.0400391C5.40002 0.0400391 0.0390625 5.401 0.0390625 12C0.0390625 14.1212 0.62078 16.1007 1.59094 17.8287L0.0583594 23.2999C0.033875 23.3874 0.0327687 23.4799 0.0551508 23.568C0.0775329 23.6561 0.122621 23.7368 0.185921 23.8021C0.24922 23.8673 0.328518 23.9148 0.415909 23.9399C0.503301 23.9649 0.595731 23.9666 0.683984 23.9448L6.38875 22.5311C8.06507 23.426 9.96721 23.96 11.9991 23.96C18.5981 23.96 23.9591 18.5991 23.9591 12C23.9591 5.401 18.5981 0.0400391 11.9991 0.0400391ZM11.9991 1.08004C18.036 1.08004 22.9191 5.96308 22.9191 12C22.9191 18.037 18.036 22.92 11.9991 22.92C10.0636 22.92 8.25097 22.4155 6.67516 21.5337C6.5599 21.4693 6.42447 21.4512 6.29633 21.4829L1.30047 22.721L2.64008 17.9414C2.65925 17.8739 2.66454 17.8032 2.65564 17.7335C2.64674 17.6639 2.62382 17.5968 2.58828 17.5362C1.63062 15.9123 1.07906 14.0229 1.07906 12C1.07906 5.96308 5.9621 1.08004 11.9991 1.08004ZM7.6532 5.76004C7.31986 5.76004 6.84381 5.88405 6.45273 6.30543C6.21784 6.55852 5.23906 7.51219 5.23906 9.18879C5.23906 10.9368 6.45139 12.4451 6.59797 12.6389H6.59899V12.6399C6.58508 12.6216 6.78504 12.9112 7.05195 13.2584C7.31887 13.6056 7.69211 14.0617 8.16102 14.5554C9.09882 15.5428 10.4174 16.6839 12.0539 17.3818C12.8076 17.7028 13.4021 17.8965 13.8526 18.0379C14.6874 18.3001 15.4477 18.2602 16.0189 18.1761C16.4464 18.1131 16.9166 17.9078 17.3819 17.6134C17.8471 17.319 18.3031 16.9529 18.5041 16.3967C18.6482 15.9979 18.7214 15.6294 18.7479 15.3262C18.7611 15.1746 18.7628 15.0408 18.753 14.9169C18.7431 14.793 18.7536 14.6981 18.6382 14.5086C18.3961 14.1111 18.1219 14.1008 17.8359 13.9592C17.6769 13.8805 17.2244 13.6595 16.7705 13.4432C16.3171 13.2272 15.9245 13.0359 15.6827 12.9496C15.53 12.8947 15.3435 12.8156 15.0744 12.8461C14.8053 12.8765 14.5395 13.0707 14.3848 13.3C14.2381 13.5174 13.6477 14.2144 13.4677 14.4193C13.4653 14.4178 13.4809 14.425 13.4098 14.3898C13.1871 14.2796 12.9149 14.1859 12.512 13.9734C12.109 13.7609 11.605 13.447 11.0535 12.9608V12.9598C10.2326 12.2371 9.65764 11.3298 9.47625 11.025C9.48847 11.0105 9.4748 11.0281 9.50063 11.0027L9.50164 11.0017C9.68703 10.8191 9.85133 10.601 9.99016 10.4411C10.187 10.2143 10.2739 10.0144 10.368 9.82762C10.5555 9.45539 10.4511 9.04578 10.3426 8.83027V8.82926C10.3501 8.84417 10.2839 8.69812 10.2126 8.52965C10.1411 8.3607 10.0499 8.14166 9.95258 7.90809C9.75788 7.44094 9.54052 6.91699 9.41125 6.61012V6.6091C9.25897 6.24763 9.05295 5.98723 8.78359 5.8616C8.51424 5.73597 8.27627 5.77169 8.26664 5.77121H8.26563C8.07341 5.76234 7.86248 5.76004 7.6532 5.76004Z" fill="#6BB1FC"/>
</svg>
