<svg width="53" height="53" viewBox="0 0 53 53" fill="none" xmlns="http://www.w3.org/2000/svg">
<path d="M29.1525 24.9182C29.6967 24.9862 29.9688 25.2583 29.9688 25.7345V27.4692C29.9688 30.8025 29.0504 33.8978 27.2137 36.7549C25.377 39.6121 22.928 41.7209 19.8667 43.0815C19.6627 43.2175 19.4246 43.2175 19.1525 43.0815C17.1116 42.1971 15.3429 40.9556 13.8463 39.357C12.3497 37.7583 11.1763 35.9386 10.3259 33.8978C9.47559 31.857 9.05042 29.7141 9.05042 27.4692V25.7345C9.05042 25.2583 9.32253 24.9862 9.86675 24.9182L12.5198 24.7141C13.9484 24.5781 15.2919 23.8638 16.5504 22.5712C17.8089 21.2787 18.5062 20.2923 18.6423 19.6121C18.7103 19.0678 19.0164 18.7957 19.5606 18.7957C20.1048 18.7957 20.377 19.0678 20.377 19.6121C20.513 20.2923 21.2103 21.2787 22.4688 22.5712C23.7273 23.8638 25.0708 24.5781 26.4994 24.7141L29.1525 24.9182ZM28.2341 27.4692V26.5508L26.3974 26.4488C25.0368 26.3127 23.7443 25.7855 22.5198 24.8672C21.2953 23.9488 20.3089 22.9114 19.5606 21.7549C18.8123 22.9114 17.8259 23.9488 16.6014 24.8672C15.377 25.7855 14.0844 26.3127 12.7239 26.4488L10.7851 26.5508V27.4692C10.7851 30.3944 11.5844 33.1155 13.1831 35.6325C14.7817 38.1495 16.9076 40.0542 19.5606 41.3468C22.2137 40.0542 24.3225 38.1495 25.8872 35.6325C27.4518 33.1155 28.2341 30.3944 28.2341 27.4692ZM45.6831 32.4692C48.4042 33.4896 50.377 35.2923 51.6014 37.8774C52.8259 40.4624 52.962 43.1155 52.0096 45.8366C51.0572 48.5576 49.2715 50.5304 46.6525 51.7549C44.0334 52.9794 41.3633 53.1155 38.6423 52.1631C38.5062 52.5712 38.2341 52.7753 37.8259 52.7753H1.29532C0.683076 52.7753 0.376953 52.4692 0.376953 51.857V6.65288C0.376953 6.04064 0.683076 5.73451 1.29532 5.73451H12.6219C12.8259 4.23792 13.5062 2.99641 14.6627 2.01002C15.8191 1.02363 17.1457 0.53043 18.6423 0.53043H20.377C21.9416 0.53043 23.2851 1.02363 24.4076 2.01002C25.53 2.99641 26.1933 4.23792 26.3974 5.73451H37.8259C38.3702 5.73451 38.6423 6.04064 38.6423 6.65288V32.4692C39.7987 32.061 40.9892 31.857 42.2137 31.857C43.3702 31.857 44.5266 32.061 45.6831 32.4692ZM30.8872 7.46921V9.2039H34.3565C34.9008 9.2039 35.1729 9.51003 35.1729 10.1223V34.51C35.7171 34.0338 36.2953 33.6257 36.9076 33.2855V7.46921H30.8872ZM9.05042 12.6733C8.5062 12.6733 8.2341 12.4012 8.2341 11.857V10.9386H5.58104V47.5712H33.1321C32.1116 45.8706 31.6355 44.0168 31.7035 42.01C31.7715 40.0032 32.3497 38.1835 33.4382 36.5508V10.9386H30.8872V11.857C30.8872 12.4012 30.581 12.6733 29.9688 12.6733H9.05042ZM2.11165 51.0406H36.3974C35.6491 50.5644 34.9688 49.9862 34.3565 49.3059H4.76471C4.15246 49.3059 3.84634 48.9998 3.84634 48.3876V10.1223C3.84634 9.51003 4.15246 9.2039 4.76471 9.2039H8.2341V7.46921H2.11165V51.0406ZM42.2137 51.0406C43.7783 51.0406 45.2239 50.6495 46.5504 49.8672C47.877 49.0849 48.9314 48.0304 49.7137 46.7039C50.496 45.3774 50.8872 43.9318 50.8872 42.3672C50.8872 39.9182 50.0368 37.8434 48.3361 36.1427C46.6355 34.442 44.5776 33.5917 42.1627 33.5917C39.7477 33.5917 37.6899 34.442 35.9892 36.1427C34.2885 37.8434 33.4382 39.9012 33.4382 42.3161C33.4382 44.7311 34.2885 46.7889 35.9892 48.4896C37.6899 50.1903 39.7647 51.0406 42.2137 51.0406ZM48.2341 38.7957C48.8463 38.7957 49.1525 39.1019 49.1525 39.7141V44.9182C49.1525 45.5304 48.8463 45.8366 48.2341 45.8366H45.6831V48.3876C45.6831 48.9998 45.377 49.3059 44.7647 49.3059H39.5606C38.9484 49.3059 38.6423 48.9998 38.6423 48.3876V45.8366H36.0912C35.479 45.8366 35.1729 45.5304 35.1729 44.9182V39.7141C35.1729 39.1019 35.479 38.7957 36.0912 38.7957H38.6423V36.2447C38.6423 35.6325 38.9484 35.3264 39.5606 35.3264H44.7647C45.377 35.3264 45.6831 35.6325 45.6831 36.2447V38.7957H48.2341ZM24.7647 27.5712H26.4994C26.4994 29.8161 25.9212 31.942 24.7647 33.9488C23.6082 35.9556 22.0096 37.5372 19.9688 38.6937L19.0504 37.2651C20.8191 36.2447 22.2137 34.8672 23.2341 33.1325C24.2545 31.3978 24.7647 29.544 24.7647 27.5712Z" fill="#6BB1FC"/>
</svg>
