<svg width="53" height="54" viewBox="0 0 53 54" fill="none" xmlns="http://www.w3.org/2000/svg">
<path d="M45.8974 38.3498C46.3055 38.8259 46.5096 39.4042 46.5096 40.0844C46.5096 40.7647 46.3055 41.343 45.8974 41.8191C46.3055 42.2953 46.5096 42.8736 46.5096 43.5538C46.5096 44.3021 46.2545 44.9314 45.7443 45.4416C45.2341 45.9518 44.6389 46.2069 43.9586 46.2069H38.4484C37.0198 46.2069 35.6593 45.8327 34.3668 45.0844V45.2885C34.3668 45.9008 34.0606 46.2069 33.4484 46.2069H29.979C29.4348 46.2069 29.1627 45.9008 29.1627 45.2885V34.8804C29.1627 34.2681 29.4348 33.962 29.979 33.962H33.4484C34.0606 33.962 34.3668 34.2681 34.3668 34.8804V35.3906L34.5708 35.2885C34.979 35.1525 35.1831 34.8804 35.1831 34.4722V27.9416C35.1831 27.3293 35.4892 27.0232 36.1014 27.0232C37.2579 27.0232 38.2613 27.4484 39.1116 28.2987C39.962 29.1491 40.3872 30.1865 40.3872 31.411V32.6355C40.3872 33.0436 40.5232 33.3668 40.7953 33.6049C41.0674 33.8429 41.3736 33.962 41.7137 33.962H43.9586C44.6389 33.962 45.2171 34.2001 45.6933 34.6763C46.2375 35.1525 46.5266 35.7477 46.5606 36.462C46.5946 37.1763 46.3736 37.8055 45.8974 38.3498ZM43.9586 24.8804C47.7001 26.581 50.2851 29.3361 51.7137 33.1457C53.1423 36.9552 53.0062 40.7307 51.3055 44.4722C49.6048 48.2137 46.8327 50.7987 42.9892 52.2273C39.1457 53.6559 35.3872 53.5198 31.7137 51.8191V52.2273C31.7137 52.8396 31.4416 53.1457 30.8974 53.1457H1.30552C1.2375 53.1457 1.20348 53.1457 1.20348 53.1457C0.591239 53.0776 0.31913 52.7715 0.387157 52.2273L2.12185 31.3089C2.18988 30.9008 2.39396 30.6627 2.7341 30.5947L9.97899 28.1457V24.8804C9.97899 24.8804 9.94498 24.8634 9.87695 24.8293C9.80893 24.7953 9.77491 24.7783 9.77491 24.7783C6.91777 22.3974 5.28512 19.3702 4.87695 15.6967C4.80893 15.6967 4.77491 15.6967 4.77491 15.6967C4.16267 15.6967 3.85654 15.4246 3.85654 14.8804V13.0436C3.85654 9.7103 5.04702 6.85315 7.42797 4.4722C9.80893 2.09125 12.6831 0.900772 16.0504 0.900772C19.4178 0.900772 22.2919 2.09125 24.6729 4.4722C27.0538 6.85315 28.2443 9.7103 28.2443 13.0436V13.962C28.2443 14.5742 27.9382 14.8804 27.3259 14.8804C27.1219 18.894 25.4892 22.1933 22.428 24.7783C22.3599 24.7783 22.3089 24.7953 22.2749 24.8293C22.2409 24.8634 22.1899 24.8804 22.1219 24.8804V28.1457L25.9994 29.4722C27.428 27.5674 29.1797 26.1049 31.2545 25.0844C33.3293 24.064 35.5232 23.5538 37.8361 23.5538C39.945 23.5538 41.9858 23.996 43.9586 24.8804ZM9.97899 51.411V29.9824L3.85654 32.0232L2.22389 51.411H9.97899ZM20.3872 51.411V35.4926L17.3259 34.4722L19.4688 42.4314C19.5368 42.7035 19.5368 42.9076 19.4688 43.0436L16.8157 48.3498C16.7477 48.4858 16.6116 48.5878 16.4076 48.6559C15.9314 48.928 15.5572 48.8259 15.2851 48.3498L12.6321 43.0436C12.564 42.9076 12.564 42.7035 12.6321 42.4314L14.7749 34.4722L11.7137 35.4926V51.411H20.3872ZM11.7137 33.6559L13.7545 32.9416L11.7137 31.9212V33.6559ZM20.3872 33.6559V31.9212L18.3463 32.9416L20.3872 33.6559ZM20.3872 29.9824V26.0028C19.0266 26.6831 17.581 27.0232 16.0504 27.0232C14.5198 27.0232 13.0742 26.6831 11.7137 26.0028V29.9824L16.1014 32.1253L20.3872 29.9824ZM10.8974 23.3498C12.394 24.6423 14.1116 25.2885 16.0504 25.2885C17.9892 25.2885 19.7409 24.6423 21.3055 23.3498C23.9586 21.1729 25.3872 18.3498 25.5912 14.8804H23.8565C22.428 14.8804 21.1355 14.4042 19.979 13.4518C18.8225 12.4994 18.1423 11.2749 17.9382 9.77832C13.8565 10.7307 10.047 12.3634 6.50961 14.6763C6.71369 18.2137 8.17627 21.1049 10.8974 23.3498ZM22.1219 51.411H29.877V50.7987C26.5436 48.6899 24.4008 45.7137 23.4484 41.8702C22.496 38.0266 23.0402 34.3702 25.081 30.9008L22.1219 29.9824V51.411ZM37.8361 51.411C41.4416 51.411 44.5198 50.1355 47.0708 47.5844C49.6219 45.0334 50.8974 41.9552 50.8974 38.3498C50.8974 34.7443 49.6219 31.6661 47.0708 29.1151C44.5198 26.564 41.4416 25.2885 37.8361 25.2885C34.2307 25.2885 31.1525 26.564 28.6014 29.1151C26.0504 31.6661 24.7749 34.7443 24.7749 38.3498C24.7749 40.1185 25.1151 41.8021 25.7953 43.4008C26.4756 44.9994 27.394 46.394 28.5504 47.5844C29.7069 48.7749 31.1014 49.7103 32.7341 50.3906C34.3667 51.0708 36.0674 51.411 37.8361 51.411ZM29.979 4.37016V2.63547H31.7137V4.37016H29.979ZM33.4484 4.37016V2.63547H35.1831V4.37016H33.4484ZM36.9178 21.8191V20.0844H38.6525V21.8191H36.9178ZM36.9178 18.3498V16.6151H38.6525V18.3498H36.9178ZM36.9178 14.8804V13.0436H38.6525V14.8804H36.9178ZM36.9178 11.3089V9.57425H38.6525V11.3089H36.9178ZM36.9178 7.83955V6.10485H38.6525V7.83955H36.9178ZM36.9178 4.37016V2.63547H38.6525V4.37016H36.9178ZM26.5096 4.37016V2.63547H28.2443V4.37016H26.5096Z" fill="#6BB1FC"/>
</svg>
