<svg width="53" height="53" viewBox="0 0 53 53" fill="none" xmlns="http://www.w3.org/2000/svg">
<path d="M31.5912 32.9751C31.9994 33.1112 32.2035 33.3833 32.2035 33.7914V52.0567C32.2035 52.669 31.9314 52.9751 31.3872 52.9751H1.79532C1.18308 52.9751 0.876953 52.669 0.876953 52.0567V33.7914C0.876953 33.3833 1.11505 33.1112 1.59124 32.9751L10.4688 30.8322V24.7098C10.4688 24.7098 10.4348 24.6928 10.3667 24.6588C10.2987 24.6248 10.2647 24.6077 10.2647 24.6077C7.40757 22.2268 5.77491 19.1996 5.36675 15.5261C5.29872 15.5261 5.26471 15.5261 5.26471 15.5261C4.65246 15.5261 4.34634 15.254 4.34634 14.7098V12.8731C4.34634 9.53972 5.53682 6.68258 7.91777 4.30163C10.2987 1.92067 13.1729 0.730198 16.5402 0.730198C19.9076 0.730198 22.7817 1.92067 25.1627 4.30163C27.5436 6.68258 28.7341 9.53972 28.7341 12.8731V13.7914C28.7341 14.4037 28.462 14.7098 27.9178 14.7098H27.8157C27.6116 18.7234 25.979 22.0227 22.9178 24.6077L22.8157 24.7098H22.7137V30.8322L31.5912 32.9751ZM10.4688 51.2404V32.669L2.61165 34.5057V51.2404H10.4688ZM6.08104 12.8731V12.9751C9.89056 10.5261 14.0062 8.82544 18.428 7.87305L19.0402 7.66897C19.1082 7.66897 19.1423 7.66897 19.1423 7.66897C19.7545 7.66897 20.0606 7.9751 20.0606 8.58734C20.0606 9.7438 20.4858 10.7472 21.3361 11.5975C22.1865 12.4479 23.2239 12.8731 24.4484 12.8731H26.9994C26.9994 10.0159 25.979 7.56693 23.9382 5.52612C21.8974 3.4853 19.4314 2.46489 16.5402 2.46489C13.6491 2.46489 11.1831 3.4853 9.14226 5.52612C7.10144 7.56693 6.08104 10.0159 6.08104 12.8731ZM20.979 51.2404V35.322L17.8157 34.3016L20.0606 42.2608C20.1287 42.5329 20.0946 42.737 19.9586 42.8731L17.3055 48.1792C17.2375 48.3152 17.1355 48.4173 16.9994 48.4853C16.4552 48.7574 16.047 48.6554 15.7749 48.1792L13.2239 42.8731C13.0878 42.737 13.0538 42.5329 13.1219 42.2608L15.2647 34.3016L12.2035 35.322V51.2404H20.979ZM12.2035 33.4853L14.3463 32.771L12.2035 31.7506V33.4853ZM16.5912 36.2404L14.8565 42.4649L16.5912 45.8322L18.2239 42.4649L16.5912 36.2404ZM20.979 33.4853V31.7506L18.8361 32.771L20.979 33.4853ZM20.979 29.8118V25.8322C19.5504 26.5125 18.0708 26.8526 16.5402 26.8526C15.0096 26.8526 13.564 26.5125 12.2035 25.8322V29.8118L16.5912 31.9547L20.979 29.8118ZM11.3872 23.1792C12.8838 24.4717 14.6185 25.118 16.5912 25.118C18.564 25.118 20.2987 24.4717 21.7953 23.1792C24.4484 21.0023 25.877 18.1792 26.081 14.7098H24.4484C22.9518 14.7098 21.6423 14.2336 20.5198 13.2812C19.3974 12.3288 18.7001 11.1043 18.428 9.60775C14.3463 10.5601 10.5368 12.1928 6.9994 14.5057C7.20348 18.0431 8.66607 20.9343 11.3872 23.1792ZM30.4688 51.2404V34.5057L22.7137 32.669V51.2404H30.4688ZM23.53 14.7098C24.1423 14.7098 24.4484 14.9819 24.4484 15.5261V18.9955C24.4484 19.6077 24.1423 19.9139 23.53 19.9139H18.3259C17.7137 19.9139 17.4076 19.6077 17.4076 18.9955V18.1792H15.6729V18.9955C15.6729 19.6077 15.4008 19.9139 14.8565 19.9139H9.65246C9.04022 19.9139 8.7341 19.6077 8.7341 18.9955V15.5261C8.7341 14.9819 9.04022 14.7098 9.65246 14.7098H14.8565C15.4008 14.7098 15.6729 14.9819 15.6729 15.5261V16.4445H17.4076V15.5261C17.4076 14.9819 17.7137 14.7098 18.3259 14.7098H23.53ZM13.9382 18.1792V16.4445H10.4688V18.1792H13.9382ZM22.7137 18.1792V16.4445H19.1423V18.1792H22.7137ZM51.9994 22.4649C52.6116 23.3492 52.4756 24.0975 51.5912 24.7098L49.7545 25.9343L50.6729 27.9751C50.8089 28.1792 50.877 28.3492 50.877 28.4853C50.877 28.9615 50.7409 29.3697 50.4688 29.7098C50.1967 30.0499 49.8225 30.22 49.3463 30.22L47.2035 30.4241L46.9994 32.669C46.9314 33.2132 46.6593 33.6214 46.1831 33.8935V44.3016C46.1831 44.5057 46.1151 44.7098 45.979 44.9139C45.5028 45.322 45.0606 45.322 44.6525 44.9139L40.0606 40.322L35.4688 44.9139C35.3327 45.0499 35.1287 45.118 34.8565 45.118C34.3123 45.118 34.0402 44.8458 34.0402 44.3016V33.8935C33.496 33.6214 33.2239 33.2132 33.2239 32.669L33.0198 30.4241L30.7749 30.22C30.5708 30.22 30.4008 30.186 30.2647 30.118C29.8565 29.9139 29.5674 29.6077 29.3974 29.1996C29.2273 28.7914 29.2443 28.3833 29.4484 27.9751L30.3668 25.9343L28.6321 24.7098C28.428 24.5737 28.2919 24.4377 28.2239 24.3016C27.6116 23.4173 27.7477 22.669 28.6321 22.0567L30.3668 20.7302L29.4484 18.7914C29.3804 18.5873 29.3463 18.4173 29.3463 18.2812C29.2783 17.805 29.3974 17.3969 29.7035 17.0567C30.0096 16.7166 30.3668 16.5125 30.7749 16.4445L33.0198 16.2404L33.2239 14.0975C33.2239 13.8935 33.2579 13.6894 33.3259 13.4853C33.53 13.1452 33.8361 12.8901 34.2443 12.72C34.6525 12.5499 35.0606 12.5669 35.4688 12.771L37.5096 13.6894L38.7341 11.8526C38.8702 11.7166 39.0062 11.5805 39.1423 11.4445C40.0266 10.8322 40.7749 10.9683 41.3872 11.8526L42.7137 13.6894L44.6525 12.771C44.8565 12.703 45.0606 12.635 45.2647 12.5669C45.6729 12.5669 46.047 12.703 46.3872 12.9751C46.7273 13.2472 46.9314 13.6214 46.9994 14.0975L47.2035 16.2404L49.3463 16.4445C49.5504 16.5125 49.7545 16.5805 49.9586 16.6486C50.3668 16.7846 50.6389 17.0737 50.7749 17.5159C50.911 17.9581 50.877 18.3833 50.6729 18.7914L49.7545 20.7302L51.5912 22.0567C51.7273 22.1928 51.8633 22.3288 51.9994 22.4649ZM44.4484 42.1588V33.8935L42.7137 33.0771L41.3872 34.9139C41.3191 35.0499 41.1831 35.152 40.979 35.22C40.0946 35.9003 39.3463 35.7982 38.7341 34.9139L37.5096 33.0771L35.7749 33.8935V42.1588L39.4484 38.3833C39.8565 37.9751 40.2647 37.9751 40.6729 38.3833L44.4484 42.1588ZM48.7341 24.6077L50.4688 23.3833L48.7341 22.1588C47.9858 21.6146 47.7817 20.9343 48.1219 20.118L49.0402 18.1792L46.8974 17.9751C46.013 17.9071 45.5368 17.4309 45.4688 16.5465L45.2647 14.4037L43.3259 15.322C42.5096 15.6622 41.8293 15.4921 41.2851 14.8118L40.0606 12.9751L38.8361 14.8118C38.3599 15.4921 37.7137 15.6622 36.8974 15.322L34.9586 14.4037L34.7545 16.5465C34.6185 17.4309 34.1082 17.9071 33.2239 17.9751L31.081 18.1792L31.9994 20.118C32.4076 20.9343 32.2375 21.6146 31.4892 22.1588L29.7545 23.3833L31.4892 24.6077C32.2375 25.152 32.4076 25.8322 31.9994 26.6486L31.081 28.5873L33.2239 28.6894C34.1082 28.8254 34.6185 29.3356 34.7545 30.22L34.9586 32.3629L36.8974 31.4445C37.7137 31.0363 38.3599 31.2064 38.8361 31.9547L40.0606 33.6894L41.2851 31.9547C41.8293 31.2064 42.5096 31.0363 43.3259 31.4445L45.2647 32.3629L45.4688 30.22C45.5368 29.3356 46.013 28.8254 46.8974 28.6894L49.0402 28.5873L48.1219 26.6486C47.7817 25.8322 47.9858 25.152 48.7341 24.6077ZM34.4994 17.822C34.4994 17.822 34.8821 17.4394 35.6474 16.6741C36.4127 15.9088 37.8838 15.5261 40.0606 15.5261C42.2375 15.5261 44.0912 16.2914 45.6219 17.822C47.1525 19.3526 47.9178 21.2064 47.9178 23.3833C47.9178 25.5601 47.1525 27.4139 45.6219 28.9445C44.0912 30.4751 42.2375 31.2404 40.0606 31.2404C37.8838 31.2404 36.03 30.4751 34.4994 28.9445C32.9688 27.4139 32.2035 25.5601 32.2035 23.3833C32.2035 21.2064 32.9688 19.3526 34.4994 17.822ZM35.8259 27.72C35.8259 27.72 36.1236 28.0176 36.7188 28.6129C37.314 29.2081 38.445 29.5057 40.1116 29.5057C41.7783 29.5057 43.2069 28.9105 44.3974 27.72C45.5878 26.5295 46.1831 25.0839 46.1831 23.3833C46.1831 21.6826 45.5878 20.237 44.3974 19.0465C43.2069 17.856 41.7783 17.2608 40.1116 17.2608C38.445 17.2608 37.0164 17.856 35.8259 19.0465C34.6355 20.237 34.0402 21.6826 34.0402 23.3833C34.0402 25.0839 34.6355 26.5295 35.8259 27.72ZM45.2647 8.58734V6.85265H47.1014V8.58734H45.2647ZM48.8361 8.58734V6.85265H50.5708V8.58734H48.8361ZM47.1014 6.85265V5.11795H48.8361V6.85265H47.1014ZM47.1014 10.322V8.58734H48.8361V10.322H47.1014ZM35.7749 4.19958V2.46489H37.5096V4.19958H35.7749ZM39.2443 4.19958V2.46489H40.979V4.19958H39.2443ZM37.5096 2.46489V0.730198H39.2443V2.46489H37.5096ZM37.5096 5.93428V4.19958H39.2443V5.93428H37.5096Z" fill="#6BB1FC"/>
</svg>
