<svg width="54" height="53" viewBox="0 0 54 53" fill="none" xmlns="http://www.w3.org/2000/svg">
<path d="M48.6614 14.7961L41.8246 17.9594V22.6533C41.8246 23.1295 41.9437 23.5716 42.1818 23.9798C42.4199 24.388 42.743 24.6941 43.1511 24.8982C43.5593 25.1023 44.0015 25.2043 44.4777 25.2043C45.158 25.2043 45.7532 24.9492 46.2634 24.439C46.7736 23.9288 47.0287 23.3336 47.0287 22.6533V20.0002H48.7634V22.6533C48.7634 24.558 47.879 25.8846 46.1103 26.6329C45.0219 27.1091 43.9165 27.1261 42.794 26.6839C41.6716 26.2417 40.8722 25.4764 40.396 24.388C38.6273 28.4016 35.6341 31.0887 31.4165 32.4492V42.6533H38.3552C39.5797 42.6533 40.6171 43.0785 41.4675 43.9288C42.3178 44.7791 42.743 45.8165 42.743 47.041V51.3267C42.743 51.939 42.4369 52.2451 41.8246 52.2451H12.2328C11.6205 52.2451 11.3144 51.939 11.3144 51.3267V47.041C11.3144 46.2247 11.5185 45.4934 11.9267 44.8472C12.3348 44.2009 12.862 43.6737 13.5083 43.2655C14.1545 42.8574 14.8858 42.6533 15.7022 42.6533H22.6409V32.4492C18.4233 31.0887 15.4301 28.4016 13.6614 24.388C12.9131 26.1567 11.5525 27.041 9.57972 27.041C8.42326 27.041 7.41986 26.6159 6.56952 25.7655C5.71918 24.9152 5.29401 23.8778 5.29401 22.6533V20.0002H7.0287V22.6533C7.0287 23.3336 7.2838 23.9288 7.79401 24.439C8.30421 24.9492 8.91645 25.2043 9.63074 25.2043C10.345 25.2043 10.9573 24.9492 11.4675 24.439C11.9777 23.9288 12.2328 23.3336 12.2328 22.6533V17.9594L5.39605 14.7961C4.0355 14.1839 2.94707 13.2315 2.13074 11.939C1.31441 10.6465 0.90625 9.25192 0.90625 7.75532C0.90625 5.64648 1.67156 3.82675 3.20217 2.29614C4.73278 0.765524 6.55251 0.000217438 8.66135 0.000217438H45.396C46.8926 0.000217438 48.2872 0.408381 49.5797 1.22471C50.8722 2.04103 51.8246 3.12947 52.4369 4.49001C53.3212 6.4628 53.3892 8.4526 52.6409 10.4594C51.8926 12.4662 50.5661 13.9118 48.6614 14.7961ZM42.6409 1.73491L41.8246 16.0206L47.9471 13.2655C48.9675 12.7893 49.8008 12.058 50.4471 11.0716C51.0933 10.0853 51.4165 8.97981 51.4165 7.75532C51.4165 6.12267 50.8212 4.7111 49.6307 3.52063C48.4403 2.33015 47.0287 1.73491 45.396 1.73491H42.6409ZM6.11033 13.2655L12.2328 16.0206L11.4165 1.73491H8.66135C7.0287 1.73491 5.61713 2.33015 4.42666 3.52063C3.23618 4.7111 2.64094 6.12267 2.64094 7.75532C2.64094 8.91178 2.96407 10.0002 3.61033 11.0206C4.25659 12.041 5.08992 12.7893 6.11033 13.2655ZM36.6205 50.5104V48.7757H17.4369V50.5104H36.6205ZM38.3552 44.388H15.7022C14.9539 44.388 14.3246 44.6431 13.8144 45.1533C13.3042 45.6635 13.0491 46.2927 13.0491 47.041V50.5104H15.7022V47.8574C15.7022 47.3131 16.0083 47.041 16.6205 47.041H37.4369C38.0491 47.041 38.3552 47.3131 38.3552 47.8574V50.5104H41.0083V47.041C41.0083 46.2927 40.7532 45.6635 40.243 45.1533C39.7328 44.6431 39.1035 44.388 38.3552 44.388ZM24.3756 42.6533H29.6818V32.8574C27.9131 33.1975 26.1443 33.1975 24.3756 32.8574V42.6533ZM39.9879 19.0819L40.9063 1.73491H13.1511L14.0695 19.0819C14.2736 22.5512 15.6341 25.4594 18.1511 27.8063C20.6682 30.1533 23.6273 31.3267 27.0287 31.3267C30.4301 31.3267 33.3892 30.1533 35.9063 27.8063C38.4233 25.4594 39.7838 22.5512 39.9879 19.0819ZM22.6409 6.93899C23.2532 6.93899 23.5593 7.22811 23.5593 7.80634C23.5593 8.38457 23.2532 8.67369 22.6409 8.67369C22.1648 8.67369 21.7396 8.79273 21.3654 9.03083C20.9913 9.26893 20.6852 9.59205 20.4471 10.0002C20.209 10.4084 20.0899 10.8506 20.0899 11.3267C20.0899 11.871 19.8008 12.1431 19.2226 12.1431C18.6443 12.1431 18.3552 11.871 18.3552 11.3267C18.3552 10.5784 18.1001 9.9492 17.5899 9.43899C17.0797 8.92879 16.4505 8.67369 15.7022 8.67369C15.158 8.67369 14.8858 8.38457 14.8858 7.80634C14.8858 7.22811 15.158 6.93899 15.7022 6.93899C16.1784 6.93899 16.6205 6.81995 17.0287 6.58185C17.4369 6.34376 17.76 6.03763 17.9981 5.66348C18.2362 5.28933 18.3552 4.86416 18.3552 4.38797C18.3552 3.77573 18.6443 3.46961 19.2226 3.46961C19.8008 3.46961 20.0899 3.77573 20.0899 4.38797C20.0899 5.06824 20.345 5.66348 20.8552 6.17369C21.3654 6.68389 21.9607 6.93899 22.6409 6.93899ZM19.1716 8.67369C19.4437 8.33355 19.7498 8.06144 20.0899 7.85736C19.7498 7.58525 19.4437 7.27913 19.1716 6.93899C18.9675 7.27913 18.6954 7.58525 18.3552 7.85736C18.6954 8.06144 18.9675 8.33355 19.1716 8.67369ZM52.2328 37.4492C52.845 37.4492 53.1511 37.7383 53.1511 38.3165C53.1511 38.8948 52.845 39.1839 52.2328 39.1839C51.5525 39.1839 50.9573 39.439 50.4471 39.9492C49.9369 40.4594 49.6818 41.0887 49.6818 41.837C49.6818 42.3812 49.3926 42.6533 48.8144 42.6533C48.2362 42.6533 47.9471 42.3812 47.9471 41.837C47.9471 41.0887 47.692 40.4594 47.1818 39.9492C46.6716 39.439 46.0423 39.1839 45.294 39.1839C44.7498 39.1839 44.4777 38.8948 44.4777 38.3165C44.4777 37.7383 44.7498 37.4492 45.294 37.4492C46.0423 37.4492 46.6716 37.1941 47.1818 36.6839C47.692 36.1737 47.9471 35.5444 47.9471 34.7961C47.9471 34.2519 48.2362 33.9798 48.8144 33.9798C49.3926 33.9798 49.6818 34.2519 49.6818 34.7961C49.6818 35.2043 49.7498 35.5614 49.8858 35.8676C50.0219 36.1737 50.209 36.4458 50.4471 36.6839C50.6852 36.922 50.9573 37.1091 51.2634 37.2451C51.5695 37.3812 51.8926 37.4492 52.2328 37.4492ZM48.7634 39.1839C49.0355 38.8438 49.3416 38.5376 49.6818 38.2655C49.3416 38.0614 49.0355 37.7893 48.7634 37.4492C48.5593 37.7893 48.2872 38.0614 47.9471 38.2655C48.2872 38.5376 48.5593 38.8438 48.7634 39.1839ZM35.7022 19.1839H37.4369C37.4369 20.2043 37.2838 21.2077 36.9777 22.1941C36.6716 23.1805 36.2294 24.0648 35.6511 24.8472C35.0729 25.6295 34.3756 26.3097 33.5593 26.888C32.743 27.4662 31.8586 27.9254 30.9063 28.2655C29.9539 28.6057 28.9675 28.7757 27.9471 28.7757H27.0287V27.041H27.9471C30.0559 26.973 31.8756 26.1907 33.4063 24.6941C34.9369 23.1975 35.7022 21.3608 35.7022 19.1839Z" fill="#6BB1FC"/>
</svg>
