<svg width="56" height="55" viewBox="0 0 56 55" fill="none" xmlns="http://www.w3.org/2000/svg">
<path d="M30.6525 25.9184C31.1967 25.9865 31.4688 26.2586 31.4688 26.7348V28.4695C31.4688 31.8028 30.5504 34.898 28.7137 37.7552C26.877 40.6123 24.428 42.7212 21.3667 44.0817C21.1627 44.2178 20.9246 44.2178 20.6525 44.0817C18.6116 43.1973 16.8429 41.9558 15.3463 40.3572C13.8497 38.7586 12.6763 36.9388 11.8259 34.898C10.9756 32.8572 10.5504 30.7143 10.5504 28.4695V26.7348C10.5504 26.2586 10.8225 25.9865 11.3667 25.9184L14.0198 25.7143C15.4484 25.5783 16.7919 24.864 18.0504 23.5715C19.3089 22.279 20.0062 21.2926 20.1423 20.6123C20.2103 20.0681 20.5164 19.796 21.0606 19.796C21.6048 19.796 21.877 20.0681 21.877 20.6123C22.013 21.2926 22.7103 22.279 23.9688 23.5715C25.2273 24.864 26.5708 25.5783 27.9994 25.7143L30.6525 25.9184ZM29.7341 28.4695V27.5511L27.8974 27.449C26.5368 27.313 25.2443 26.7858 24.0198 25.8674C22.7953 24.949 21.8089 23.9116 21.0606 22.7552C20.3123 23.9116 19.3259 24.949 18.1014 25.8674C16.877 26.7858 15.5844 27.313 14.2239 27.449L12.2851 27.5511V28.4695C12.2851 31.3946 13.0844 34.1157 14.6831 36.6327C16.2817 39.1497 18.4076 41.0545 21.0606 42.347C23.7137 41.0545 25.8225 39.1497 27.3872 36.6327C28.9518 34.1157 29.7341 31.3946 29.7341 28.4695ZM47.1831 33.4695C49.9042 34.4899 51.877 36.2926 53.1014 38.8776C54.3259 41.4626 54.462 44.1157 53.5096 46.8368C52.5572 49.5579 50.7715 51.5307 48.1525 52.7552C45.5334 53.9797 42.8633 54.1157 40.1423 53.1633C40.0062 53.5715 39.7341 53.7756 39.3259 53.7756H2.79532C2.18308 53.7756 1.87695 53.4695 1.87695 52.8572V7.65312C1.87695 7.04088 2.18308 6.73476 2.79532 6.73476H14.1219C14.3259 5.23816 15.0062 3.99666 16.1627 3.01027C17.3191 2.02387 18.6457 1.53068 20.1423 1.53068H21.877C23.4416 1.53068 24.7851 2.02387 25.9076 3.01027C27.03 3.99666 27.6933 5.23816 27.8974 6.73476H39.3259C39.8702 6.73476 40.1423 7.04088 40.1423 7.65312V33.4695C41.2987 33.0613 42.4892 32.8572 43.7137 32.8572C44.8702 32.8572 46.0266 33.0613 47.1831 33.4695ZM32.3872 8.46945V10.2041H35.8565C36.4008 10.2041 36.6729 10.5103 36.6729 11.1225V35.5103C37.2171 35.0341 37.7953 34.6259 38.4076 34.2858V8.46945H32.3872ZM11.4688 8.46945V11.9388H30.6525V8.46945H27.081C26.5368 8.46945 26.2647 8.19734 26.2647 7.65312C26.2647 6.8368 26.0606 6.10551 25.6525 5.45925C25.2443 4.81299 24.7171 4.28578 24.0708 3.87761C23.4246 3.46945 22.6933 3.26537 21.877 3.26537H20.1423C18.9858 3.26537 17.9824 3.69054 17.1321 4.54088C16.2817 5.39122 15.8565 6.42863 15.8565 7.65312C15.8565 8.19734 15.5504 8.46945 14.9382 8.46945H11.4688ZM10.5504 13.6735C10.0062 13.6735 9.7341 13.4014 9.7341 12.8572V11.9388H7.08103V48.5715H34.6321C33.6116 46.8708 33.1355 45.0171 33.2035 43.0103C33.2715 41.0035 33.8497 39.1837 34.9382 37.5511V11.9388H32.3872V12.8572C32.3872 13.4014 32.081 13.6735 31.4688 13.6735H10.5504ZM3.61165 52.0409H37.8974C37.1491 51.5647 36.4688 50.9865 35.8565 50.3062H6.26471C5.65246 50.3062 5.34634 50.0001 5.34634 49.3878V11.1225C5.34634 10.5103 5.65246 10.2041 6.26471 10.2041H9.7341V8.46945H3.61165V52.0409ZM43.7137 52.0409C45.2783 52.0409 46.7239 51.6497 48.0504 50.8674C49.377 50.0851 50.4314 49.0307 51.2137 47.7041C51.996 46.3776 52.3872 44.932 52.3872 43.3674C52.3872 40.9184 51.5368 38.8436 49.8361 37.1429C48.1355 35.4422 46.0776 34.5919 43.6627 34.5919C41.2477 34.5919 39.1899 35.4422 37.4892 37.1429C35.7885 38.8436 34.9382 40.9014 34.9382 43.3164C34.9382 45.7314 35.7885 47.7892 37.4892 49.4899C39.1899 51.1905 41.2647 52.0409 43.7137 52.0409ZM49.7341 39.796C50.3463 39.796 50.6525 40.1021 50.6525 40.7144V45.9184C50.6525 46.5307 50.3463 46.8368 49.7341 46.8368H47.1831V49.3878C47.1831 50.0001 46.877 50.3062 46.2647 50.3062H41.0606C40.4484 50.3062 40.1423 50.0001 40.1423 49.3878V46.8368H37.5912C36.979 46.8368 36.6729 46.5307 36.6729 45.9184V40.7144C36.6729 40.1021 36.979 39.796 37.5912 39.796H40.1423V37.245C40.1423 36.6327 40.4484 36.3266 41.0606 36.3266H46.2647C46.877 36.3266 47.1831 36.6327 47.1831 37.245V39.796H49.7341ZM48.9178 45.1021V41.6327H46.2647C45.7205 41.6327 45.4484 41.3266 45.4484 40.7144V38.0613H41.979V40.7144C41.979 41.3266 41.6729 41.6327 41.0606 41.6327H38.4076V45.1021H41.0606C41.6729 45.1021 41.979 45.3742 41.979 45.9184V48.5715H45.4484V45.9184C45.4484 45.3742 45.7205 45.1021 46.2647 45.1021H48.9178ZM26.2647 28.5715H27.9994C27.9994 30.8164 27.4212 32.9422 26.2647 34.949C25.1082 36.9558 23.5096 38.5375 21.4688 39.6939L20.5504 38.2654C22.3191 37.245 23.7137 35.8674 24.7341 34.1327C25.7545 32.398 26.2647 30.5443 26.2647 28.5715Z" fill="#6BB1FC"/>
</svg>
