<svg width="53" height="53" viewBox="0 0 53 53" fill="none" xmlns="http://www.w3.org/2000/svg">
<path d="M35.1729 5.11795C36.1253 5.11795 37.0096 5.33904 37.8259 5.78122C38.6423 6.2234 39.2885 6.85265 39.7647 7.66897C40.2409 8.4853 40.479 9.36965 40.479 10.322V11.1384C40.479 11.2064 40.445 11.2744 40.377 11.3424L38.03 27.1588C37.894 28.3152 37.4518 29.4037 36.7035 30.4241L36.1933 31.0363C35.513 31.9207 35.1729 32.9411 35.1729 34.0975V34.7098H36.0912C36.6355 34.7098 36.9076 34.9819 36.9076 35.5261V39.9139C37.5198 39.9139 37.8259 40.22 37.8259 40.8322V52.0567C37.8259 52.669 37.5198 52.9751 36.9076 52.9751H14.3565C13.7443 52.9751 13.4382 52.669 13.4382 52.0567V40.8322C13.4382 40.22 13.7443 39.9139 14.3565 39.9139V35.5261C14.3565 34.9819 14.6287 34.7098 15.1729 34.7098H16.0912V34.5057C16.0912 33.1452 15.615 31.9887 14.6627 31.0363C13.3021 29.6758 12.5878 28.0431 12.5198 26.1384V4.19959C12.5198 3.11115 12.928 2.2268 13.7443 1.54652C14.4926 0.93428 15.3429 0.662171 16.2953 0.730198C17.2477 0.798225 18.03 1.20639 18.6423 1.95469C18.7783 1.81863 18.9144 1.68258 19.0504 1.54652C19.7987 0.93428 20.6321 0.662171 21.5504 0.730198C22.4688 0.798225 23.2341 1.20639 23.8463 1.95469C23.9824 1.81863 24.1185 1.68258 24.2545 1.54652C25.0028 0.93428 25.8531 0.662171 26.8055 0.730198C27.7579 0.798225 28.5402 1.20639 29.1525 1.95469C29.8327 1.13836 30.6831 0.730198 31.7035 0.730198C32.7239 0.730198 33.5572 1.07033 34.2035 1.75061C34.8497 2.43088 35.1729 3.2472 35.1729 4.19959V5.11795ZM29.9688 4.19959V5.11795H33.4382V4.19959C33.4382 3.7234 33.2681 3.31523 32.928 2.9751C32.5878 2.63496 32.1797 2.46489 31.7035 2.46489C31.2273 2.46489 30.8191 2.63496 30.479 2.9751C30.1389 3.31523 29.9688 3.7234 29.9688 4.19959ZM24.7647 4.19959V5.11795H28.2341V4.19959C28.2341 3.7234 28.064 3.31523 27.7239 2.9751C27.3838 2.63496 26.9756 2.46489 26.4994 2.46489C26.2953 2.46489 26.0742 2.51591 25.8361 2.61795C25.598 2.71999 25.411 2.83904 25.2749 2.9751C25.1389 3.11115 25.0198 3.29823 24.9178 3.53632C24.8157 3.77442 24.7647 3.9955 24.7647 4.19959ZM19.5606 4.19959V14.7098C19.5606 15.186 19.7307 15.5941 20.0708 15.9343C20.411 16.2744 20.8191 16.4445 21.2953 16.4445C21.7715 16.4445 22.1797 16.2744 22.5198 15.9343C22.8599 15.5941 23.03 15.186 23.03 14.7098V11.5465C22.4858 11.2744 22.0436 10.8663 21.7035 10.322C21.2273 9.43768 21.1253 8.53632 21.3974 7.61795C21.6695 6.69959 22.2137 6.00231 23.03 5.52612V4.19959C23.03 3.7234 22.8599 3.31523 22.5198 2.9751C22.1797 2.63496 21.7715 2.46489 21.2953 2.46489C21.0232 2.46489 20.7851 2.51591 20.581 2.61795C20.377 2.71999 20.1899 2.83904 20.0198 2.9751C19.8497 3.11115 19.7307 3.29823 19.6627 3.53632C19.5946 3.77442 19.5606 3.9955 19.5606 4.19959ZM14.3565 4.19959V14.7098C14.3565 15.186 14.5266 15.5941 14.8667 15.9343C15.2069 16.2744 15.615 16.4445 16.0912 16.4445C16.5674 16.4445 16.9756 16.2744 17.3157 15.9343C17.6559 15.5941 17.8259 15.186 17.8259 14.7098V4.19959C17.8259 3.7234 17.6559 3.31523 17.3157 2.9751C16.9756 2.63496 16.5674 2.46489 16.0912 2.46489C15.615 2.46489 15.2069 2.63496 14.8667 2.9751C14.5266 3.31523 14.3565 3.7234 14.3565 4.19959ZM16.0912 36.4445V39.9139H35.1729V36.4445H16.0912ZM36.0912 41.6486H15.1729V51.2404H36.0912V41.6486ZM38.6423 11.1384V10.322C38.6423 9.36965 38.3021 8.55333 37.6219 7.87306C36.9416 7.19278 36.1253 6.85265 35.1729 6.85265H24.7647C24.2885 6.85265 23.8804 7.02272 23.5402 7.36285C23.2001 7.70299 23.03 8.11115 23.03 8.58734C23.03 9.06353 23.2001 9.47169 23.5402 9.81183C23.8804 10.152 24.2885 10.322 24.7647 10.322H31.7035C32.3157 10.322 32.6219 10.5941 32.6219 11.1384V17.2608C32.6219 17.3969 32.5878 17.4989 32.5198 17.5669C32.5198 17.635 32.5198 17.669 32.5198 17.669C32.4518 17.737 32.4178 17.805 32.4178 17.8731L29.8668 20.8322C28.2341 22.737 27.4178 24.9479 27.4178 27.4649V29.5057H25.581V27.4649C25.581 24.5397 26.5674 21.9547 28.5402 19.7098L30.1729 17.771C29.7647 17.5669 29.4246 17.2948 29.1525 16.9547C29.0164 17.0907 28.8804 17.2268 28.7443 17.3629C27.996 17.9751 27.1457 18.2302 26.1933 18.1282C25.2409 18.0261 24.4586 17.635 23.8463 16.9547C23.7783 17.0907 23.6763 17.2268 23.5402 17.3629C22.7919 17.9751 21.9416 18.2302 20.9892 18.1282C20.0368 18.0261 19.2545 17.635 18.6423 16.9547C18.098 17.5669 17.4178 17.9411 16.6014 18.0771C15.7851 18.2132 15.0368 18.0771 14.3565 17.669V26.1384C14.3565 27.5669 14.8667 28.7914 15.8872 29.8118C17.1797 31.1043 17.8259 32.669 17.8259 34.5057V34.7098H33.4382V34.0975C33.4382 32.5329 33.9144 31.1724 34.8668 30.0159L35.2749 29.3016C35.8191 28.6214 36.1593 27.839 36.2953 26.9547L38.6423 11.1384ZM24.7647 14.7098C24.7647 15.186 24.9348 15.5941 25.2749 15.9343C25.615 16.2744 26.0232 16.4445 26.4994 16.4445C26.9756 16.4445 27.3838 16.2744 27.7239 15.9343C28.064 15.5941 28.2341 15.186 28.2341 14.7098V12.0567H24.7647V14.7098ZM29.9688 14.7098C29.9688 15.322 30.2749 15.7982 30.8872 16.1384V12.0567H29.9688V14.7098ZM43.03 12.0567V10.322H44.7647V12.0567H43.03ZM44.7647 16.4445H46.4994V18.1792H44.7647V20.7302H43.03V18.1792H41.2953V16.4445H43.03V13.7914H44.7647V16.4445ZM49.1525 23.3833V21.6486H50.8872V23.3833H49.1525ZM50.8872 27.771H52.6219V29.5057H50.8872V32.0567H49.1525V29.5057H47.4178V27.771H49.1525V25.118H50.8872V27.771ZM51.7035 4.19959C52.3157 4.19959 52.6219 4.4887 52.6219 5.06693C52.6219 5.64516 52.3157 5.93428 51.7035 5.93428C51.0232 5.93428 50.428 6.18938 49.9178 6.69959C49.4076 7.20979 49.1525 7.83904 49.1525 8.58734C49.1525 9.13156 48.8633 9.40367 48.2851 9.40367C47.7069 9.40367 47.4178 9.13156 47.4178 8.58734C47.4178 7.83904 47.1627 7.20979 46.6525 6.69959C46.1423 6.18938 45.513 5.93428 44.7647 5.93428C44.2205 5.93428 43.9484 5.64516 43.9484 5.06693C43.9484 4.4887 44.2205 4.19959 44.7647 4.19959C45.513 4.19959 46.1423 3.94448 46.6525 3.43428C47.1627 2.92408 47.4178 2.32884 47.4178 1.64857C47.4178 1.03632 47.7069 0.730198 48.2851 0.730198C48.8633 0.730198 49.1525 1.03632 49.1525 1.64857C49.1525 2.32884 49.4076 2.92408 49.9178 3.43428C50.428 3.94448 51.0232 4.19959 51.7035 4.19959ZM48.2341 5.93428C48.5062 5.59414 48.8123 5.32203 49.1525 5.11795C48.8123 4.84584 48.5062 4.53972 48.2341 4.19959C48.03 4.53972 47.7579 4.84584 47.4178 5.11795C47.7579 5.32203 48.03 5.59414 48.2341 5.93428ZM9.96879 24.1996C10.513 24.1996 10.7851 24.4887 10.7851 25.0669C10.7851 25.6452 10.513 25.9343 9.96879 25.9343C9.22049 25.9343 8.59124 26.1894 8.08104 26.6996C7.57083 27.2098 7.31573 27.839 7.31573 28.5873C7.31573 29.1996 7.02661 29.5057 6.44838 29.5057C5.87015 29.5057 5.58103 29.1996 5.58103 28.5873C5.58103 27.839 5.32593 27.2098 4.81573 26.6996C4.30552 26.1894 3.71029 25.9343 3.03001 25.9343C2.41777 25.9343 2.11165 25.6452 2.11165 25.0669C2.11165 24.4887 2.41777 24.1996 3.03001 24.1996C3.71029 24.1996 4.30552 23.9445 4.81573 23.4343C5.32593 22.9241 5.58103 22.3288 5.58103 21.6486C5.58103 21.0363 5.87015 20.7302 6.44838 20.7302C7.02661 20.7302 7.31573 21.0363 7.31573 21.6486C7.31573 22.3288 7.57083 22.9241 8.08104 23.4343C8.59124 23.9445 9.22049 24.1996 9.96879 24.1996ZM6.4994 25.9343C6.70348 25.6622 6.97559 25.3901 7.31573 25.118C6.97559 24.8458 6.70348 24.5397 6.4994 24.1996C6.22729 24.5397 5.92117 24.8458 5.58103 25.118C5.92117 25.3901 6.22729 25.6622 6.4994 25.9343ZM2.11165 2.46489V0.730198H3.84634V2.46489H2.11165ZM3.84634 6.85265H5.58103V8.58734H3.84634V11.1384H2.11165V8.58734H0.376953V6.85265H2.11165V4.19959H3.84634V6.85265Z" fill="#6BB1FC"/>
</svg>
