<?xml version="1.0" encoding="utf-8"?>
<!-- Generator: Adobe Illustrator 27.3.1, SVG Export Plug-In . SVG Version: 6.00 Build 0)  -->
<svg version="1.1" id="Layer_1" xmlns="http://www.w3.org/2000/svg" xmlns:xlink="http://www.w3.org/1999/xlink" x="0px" y="0px"
	 viewBox="0 0 70 70" style="enable-background:new 0 0 70 70;" xml:space="preserve">
<style type="text/css">
	.st0{fill:none;stroke:#79ADDD;stroke-width:1.5;stroke-linecap:round;stroke-linejoin:round;}
	.st1{fill:#79ADDD;}
</style>
<path class="st0" d="M46.03,69.32H23.96c-0.62,0-1.14-0.51-1.14-1.13V41.43c0-0.62,0.51-1.13,1.14-1.13h22.07
	c0.62,0,1.14,0.51,1.14,1.13v26.81C47.13,68.84,46.63,69.32,46.03,69.32z M47.12,66.5c17.66-6.65,26.55-26.24,19.85-43.77
	S40.54-3.62,22.87,3.02C5.21,9.67-3.67,29.27,3.01,46.8c3.47,9.09,10.7,16.27,19.85,19.7 M25.34,40.05v-4.89
	c0-0.62,0.51-1.13,1.14-1.13h17.14c0.62,0,1.14,0.51,1.14,1.13v4.89"/>
<path class="st1" d="M52.48,57.96c-0.94,0-1.7-0.75-1.7-1.69c0-0.94,0.76-1.69,1.7-1.69s1.7,0.75,1.7,1.69l0,0
	C54.18,57.21,53.42,57.96,52.48,57.96z M17.4,57.96c-0.94,0-1.7-0.75-1.7-1.69c0-0.94,0.76-1.69,1.7-1.69s1.7,0.75,1.7,1.69l0,0
	C19.11,57.21,18.35,57.96,17.4,57.96z"/>
<path class="st0" d="M47.12,52.31c9.85-6.65,12.41-19.96,5.71-29.73c-6.7-9.78-20.11-12.31-29.95-5.67
	c-9.85,6.65-12.41,19.96-5.71,29.73c1.53,2.23,3.46,4.16,5.71,5.67"/>
</svg>
