<?xml version="1.0" encoding="utf-8"?>
<!-- Generator: Adobe Illustrator 27.3.1, SVG Export Plug-In . SVG Version: 6.00 Build 0)  -->
<svg version="1.1" id="Layer_1" xmlns="http://www.w3.org/2000/svg" xmlns:xlink="http://www.w3.org/1999/xlink" x="0px" y="0px"
	 viewBox="0 0 70 70" style="enable-background:new 0 0 70 70;" xml:space="preserve">
<style type="text/css">
	.st0{fill:none;stroke:#79ADDD;stroke-width:1.5;stroke-linecap:round;stroke-linejoin:round;}
</style>
<path class="st0" d="M19.51,12.85c-3.11,0.45-6.16,1.21-9.13,2.24c0,0-0.41,8.43-0.3,19.49 M10.23,41.92
	c0.11,3.8,0.3,7.68,0.6,11.54l13.62,1.67"/>
<path class="st0" d="M31.99,7.26c5.15-0.07,22.9,5.42,22.9,5.42c8.39,2.07,14.4,11.07,14.4,22.07c-0.11,3.05-0.66,6.07-1.62,8.97"/>
<path class="st0" d="M50.05,19.92l16.26,2.42"/>
<path class="st0" d="M27.71,35.71c-0.38-1.02-0.56-2.09-0.51-3.18c0-3.93,2.22-7.13,5-7.19s5.23,3.21,5.23,7.28
	c0.01,1.3-0.25,2.61-0.76,3.8 M54.26,43.57c-0.51,5.13-1.94,10.12-4.21,14.74"/>
<path class="st0" d="M54.43,43.54c0,0-5.42,14.64-19.21,13.41l15,1.33l12.49-1.71c0,0,1.81-1.81,3.59-6.91
	c0.7-1.93,1.22-3.93,1.52-5.96C67.82,43.69,54.43,43.54,54.43,43.54z M20.34,35.18c-0.25-1-0.35-2.04-0.33-3.06
	c0-6.28,4.09-11.41,9.21-11.49c5.12-0.08,9.51,5.14,9.51,11.65c0,4.55-2.11,8.42-5.16,10.27 M12.35,33.98
	c-0.04-0.64-0.06-1.26-0.06-1.9c0-13.54,8.8-24.66,19.87-24.8c11.28-0.15,20.59,11.11,20.58,25.15
	c-0.01,14.05-9.32,25.11-20.6,24.72c-8.1-0.25-15.01-6.37-18.07-14.93"/>
<path class="st0" d="M5.23,41.51l28.18,1.09"/>
<path class="st0" d="M37.81,36.66l-25.3-2.06l-0.55,5.48"/>
<path class="st0" d="M0.82,35.31l11.7-0.72l-0.19,5.56c0,0-5.57,2.62-11.13,0.55C1.2,40.7,0.82,35.31,0.82,35.31z"/>
</svg>
