<?xml version="1.0" encoding="utf-8"?>
<!-- Generator: Adobe Illustrator 27.3.1, SVG Export Plug-In . SVG Version: 6.00 Build 0)  -->
<svg version="1.1" id="Layer_1" xmlns="http://www.w3.org/2000/svg" xmlns:xlink="http://www.w3.org/1999/xlink" x="0px" y="0px"
	 viewBox="0 0 70 70" style="enable-background:new 0 0 70 70;" xml:space="preserve">
<style type="text/css">
	.st0{fill:none;stroke:#FFFFFF;stroke-width:1.5;stroke-linecap:round;stroke-linejoin:round;}
</style>
<path class="st0" d="M18.48,59.62l-4.73-0.07c-0.38,0-0.7-0.28-0.76-0.65c0-0.07-0.3-1.8-0.47-3.32c-0.07-0.62-0.43-0.94-1.03-1.48
	c-0.41-0.34-0.78-0.74-1.09-1.18c-1.03-1.56,0.66-5.39,1.48-6.22c0.35-0.31,0.83-0.47,1.3-0.44c0.9,0,1.76,0.39,2.36,1.06
	c0.24,0.29,0.34,0.66,0.3,1.04l0.47,0.19c0.24,0.08,0.51,0.18,0.77,0.29c0.14-0.12,0.27-0.26,0.39-0.4c0.31-0.53,0.82-0.9,1.42-1.01
	c0.13-0.02,0.27-0.02,0.4,0c0.64,0.19,3.43,1.58,3.9,2.9c0.14,0.37,0.09,0.79-0.14,1.11c-0.47,0.54-1.13,0.88-1.84,0.94
	c-0.69,0.09-1.34,0.38-1.87,0.82c-0.59,0.55-0.54,3.23-0.12,5.37c0.08,0.42-0.2,0.82-0.63,0.91c-0.05,0-0.09,0.01-0.14,0.01
	C18.45,59.49,18.48,59.62,18.48,59.62z M38.41,49.16c-1.44,0-2.04-0.64-2.1-1.61c-0.06-0.98,0.83-1.59,2.15-2.12
	c0.59-0.24,1.12-0.59,1.57-1.04c1.09-0.95,2.01-2.06,2.75-3.3l0.08-0.28c0.47-0.87,0.15-1.96-0.72-2.43
	c-0.05-0.02-0.09-0.05-0.14-0.07c-0.28-0.16-0.61-0.26-0.95-0.26c-0.72,0.06-1.42,0.25-2.08,0.54c-1.25,0.54-2.59,0.84-3.95,0.88
	c-1.36-0.05-2.69-0.34-3.95-0.88c-0.66-0.29-1.36-0.48-2.08-0.54c-0.33,0-0.66,0.09-0.95,0.26c-0.91,0.39-1.32,1.45-0.93,2.36
	c0.02,0.05,0.05,0.09,0.07,0.14l0.08,0.29c0.74,1.24,1.67,2.35,2.75,3.3c0.45,0.45,0.99,0.8,1.58,1.03c1.34,0.52,2.1,1.01,2.04,2.12
	s-0.54,1.6-1.99,1.6c-0.59,0-1.18-0.18-1.65-0.54c-0.9-0.64-1.94-1.04-3.03-1.18c-0.21,0.04-0.43,0.09-0.61,0.2
	c-0.32,0.18-0.67,0.27-1.03,0.28c-0.56-0.04-1.08-0.27-1.45-0.68c-1.21-0.86-2.53-1.53-3.94-2l-0.66-0.28
	c-0.26-0.12-0.85-0.35-0.83-0.98c0.02-0.62,0.59-0.79,0.9-0.9c0.28-0.06,0.54-0.2,0.74-0.4c-0.7-0.44-1.43-0.79-2.21-1.06
	c-1.62-0.47-3.1-1.32-4.33-2.47c-2.3-2.86,2.95-8.43,4.96-10.13c1.77-1.5,4.01-2.33,6.33-2.36c1.7-0.04,3.37,0.51,4.73,1.53
	l1.03,0.82c2.21,1.7,3.23,2.47,4.37,2.47c1.15,0,2.19-0.77,4.4-2.47l1.02-0.82c1.36-1.03,3.03-1.57,4.73-1.53
	c2.32,0.02,4.56,0.86,6.32,2.36c2.03,1.71,7.29,7.27,4.99,10.13c-1.22,1.14-2.68,1.99-4.28,2.47c-0.77,0.27-1.49,0.62-2.17,1.06
	c0.2,0.2,0.46,0.33,0.74,0.38c0.32,0.12,0.86,0.28,0.89,0.9s-0.57,0.87-0.83,0.98l-0.66,0.27c-1.41,0.47-2.74,1.14-3.95,2
	c-0.38,0.42-0.9,0.67-1.47,0.71c-0.35-0.01-0.71-0.11-1.03-0.28c-0.19-0.09-0.39-0.16-0.59-0.2c-1.1,0.13-2.15,0.54-3.05,1.18
	c-0.48,0.37-1.08,0.55-1.68,0.54L38.41,49.16L38.41,49.16z M51.61,59.62c-0.43,0-0.78-0.35-0.77-0.79c0-0.05,0-0.08,0.01-0.13
	c0.41-2.14,0.47-4.83-0.12-5.37c-0.53-0.45-1.18-0.73-1.87-0.82c-0.71-0.06-1.37-0.4-1.84-0.94c-0.22-0.33-0.27-0.74-0.12-1.11
	c0.45-1.32,3.24-2.71,3.88-2.9c0.13-0.02,0.26-0.02,0.39,0c0.61,0.07,1.16,0.4,1.5,0.91c0.12,0.14,0.25,0.27,0.39,0.39
	c0.27-0.12,0.53-0.21,0.76-0.29l0.47-0.19c-0.05-0.38,0.06-0.74,0.3-1.04c0.59-0.66,1.43-1.05,2.32-1.07
	c0.5-0.02,0.97,0.15,1.32,0.49c0.83,0.82,2.51,4.71,1.48,6.22c-0.31,0.44-0.67,0.84-1.09,1.18c-0.59,0.53-0.95,0.86-1.03,1.5
	c-0.18,1.53-0.47,3.24-0.47,3.32c-0.07,0.37-0.39,0.64-0.76,0.64l-4.73,0.07C51.64,59.68,51.61,59.62,51.61,59.62z M35.04,18.73
	c-1.78,0.16-3.37-1.15-3.53-2.93c0-0.07,0-0.15-0.01-0.22c0-0.78-1.18-1-1.18-1c-0.37-0.07-0.64-0.39-0.64-0.75v-2.64
	c0-0.42,0.34-0.78,0.78-0.78c0.14,0,0.28,0.04,0.4,0.11c1.29,0.78,2.71,1.32,4.18,1.58c1.47-0.27,2.87-0.81,4.14-1.59
	c0.37-0.22,0.85-0.11,1.08,0.27c0.07,0.12,0.12,0.26,0.11,0.4v2.64c0,0.41-0.33,0.74-0.73,0.77c-0.57-0.02-1.04,0.42-1.06,0.99
	c0,0,0,0,0,0.01c0,1.96-1.35,3.18-3.52,3.18C35.04,18.75,35.04,18.73,35.04,18.73z M35.04,28.23c-1.78,0.16-3.37-1.15-3.53-2.93
	c0-0.08-0.01-0.16-0.01-0.25c0-0.77-1.18-0.99-1.18-0.99c-0.37-0.07-0.64-0.39-0.64-0.77v-2.63c0-0.42,0.34-0.78,0.78-0.78
	c0.14,0,0.28,0.04,0.4,0.11c1.28,0.8,2.69,1.34,4.18,1.63c1.47-0.28,2.87-0.84,4.14-1.64c0.37-0.22,0.85-0.11,1.08,0.27
	c0.07,0.12,0.12,0.26,0.11,0.4v2.64c0,0.41-0.32,0.75-0.73,0.78c-0.57-0.02-1.04,0.42-1.06,0.99l0,0c0,1.96-1.35,3.18-3.52,3.18l0,0
	L35.04,28.23z"/>
<path id="_Path_" class="st0" d="M6.92,0.92h56.25c3.37,0,6.11,2.73,6.11,6.09v56.09c0,3.36-2.74,6.09-6.11,6.09H6.92
	c-3.37,0-6.11-2.73-6.11-6.09V7.02C0.81,3.65,3.55,0.92,6.92,0.92z"/>
</svg>
