<?xml version="1.0" encoding="utf-8"?>
<!-- Generator: Adobe Illustrator 27.3.1, SVG Export Plug-In . SVG Version: 6.00 Build 0)  -->
<svg version="1.1" id="Layer_1" xmlns="http://www.w3.org/2000/svg" xmlns:xlink="http://www.w3.org/1999/xlink" x="0px" y="0px"
	 viewBox="0 0 70 70" style="enable-background:new 0 0 70 70;" xml:space="preserve">
<style type="text/css">
	.st0{fill:none;stroke:#FFFFFF;stroke-width:1.5;stroke-linecap:round;stroke-linejoin:round;}
	.st1{fill:#FFFFFF;}
</style>
<path class="st0" d="M46.1,69.28H24.03c-0.62,0-1.14-0.51-1.14-1.12V41.49c0-0.62,0.51-1.12,1.14-1.12H46.1
	c0.62,0,1.14,0.51,1.14,1.12v26.72C47.2,68.81,46.7,69.28,46.1,69.28z M47.19,66.47c17.67-6.62,26.56-26.15,19.86-43.62
	S40.6-3.41,22.94,3.2C5.27,9.83-3.62,29.36,3.07,46.83c3.47,9.06,10.71,16.21,19.86,19.64 M25.4,40.11v-4.87
	c0-0.62,0.51-1.12,1.14-1.12h17.14c0.62,0,1.14,0.51,1.14,1.12v4.87"/>
<path class="st1" d="M52.55,57.96c-0.94,0-1.7-0.75-1.7-1.68s0.76-1.68,1.7-1.68c0.94,0,1.7,0.75,1.7,1.68l0,0
	C54.25,57.21,53.49,57.96,52.55,57.96z M17.46,57.96c-0.94,0-1.7-0.75-1.7-1.68s0.76-1.68,1.7-1.68s1.7,0.75,1.7,1.68l0,0
	C19.17,57.21,18.41,57.96,17.46,57.96z"/>
<path class="st0" d="M47.19,52.32c9.86-6.62,12.41-19.9,5.71-29.63c-6.7-9.75-20.12-12.27-29.96-5.65
	c-9.86,6.62-12.41,19.9-5.71,29.63c1.53,2.22,3.46,4.14,5.71,5.65"/>
</svg>
