<?xml version="1.0" encoding="utf-8"?>
<!-- Generator: Adobe Illustrator 27.3.1, SVG Export Plug-In . SVG Version: 6.00 Build 0)  -->
<svg version="1.1" id="Layer_1" xmlns="http://www.w3.org/2000/svg" xmlns:xlink="http://www.w3.org/1999/xlink" x="0px" y="0px"
	 viewBox="0 0 70 70" style="enable-background:new 0 0 70 70;" xml:space="preserve">
<style type="text/css">
	.st0{fill:none;stroke:#79ADDD;stroke-width:1.5;stroke-linecap:round;stroke-linejoin:round;}
	.st1{fill:#79ADDD;}
</style>
<path id="_Path_" class="st0" d="M39.38,18.7l23.2,23.13c-0.28,10.62-9,19.1-19.65,19.12"/>
<path id="_Path_2" class="st0" d="M25.86,60.96C15.2,60.94,6.47,52.47,6.19,41.83L29.41,18.7"/>
<path id="_Path_3" class="st0" d="M6.83,0.77h56.34c3.38,0,6.12,2.74,6.12,6.11v56.3c0,3.38-2.74,6.11-6.12,6.11H6.83
	c-3.38,0-6.12-2.74-6.12-6.11V6.89C0.71,3.51,3.45,0.77,6.83,0.77z"/>
<path id="_Path_4" class="st0" d="M35,66.86V3.36"/>
<path id="_Path_5" class="st1" d="M16.63,10.67h2.45v2.46h-2.45C16.63,13.13,16.63,10.67,16.63,10.67z"/>
<path id="_Path_6" class="st1" d="M21.53,10.67h2.45v2.46h-2.47L21.53,10.67z"/>
<path id="_Path_7" class="st1" d="M26.43,10.67h2.45v2.46h-2.45V10.67z"/>
<path id="_Path_8" class="st1" d="M41.12,10.67h2.45v2.46h-2.45V10.67z"/>
<path id="_Path_9" class="st1" d="M46.01,10.67h2.46v2.46h-2.46C46.01,13.13,46.01,10.67,46.01,10.67z"/>
<path id="_Path_10" class="st1" d="M50.92,10.67h2.45v2.46h-2.45V10.67z"/>
<path class="st0" d="M44.86,35.7v-3.45c0.12-1.58-1.08-2.96-2.68-3.08c-0.19-0.01-0.38,0-0.56,0.01h-1.92 M43.64,36.64v0.97
	c0,2.2-1.18,3.42-3.67,3.42h-1.38 M40.33,36.41h5.33c1.96,0,2.9,1.02,2.9,3.16c0,2.15,1.18,3.07,3.22,3.07h4.64 M39.14,54.46h9.47
	c0,0,3.67-0.12,3.67-3.38v-8.47 M41.6,49.42l3.98-3.97 M41.6,45.46l3.98,3.97 M23.42,35.7v-3.45c-0.12-1.58,1.08-2.96,2.68-3.08
	c0.19-0.01,0.38,0,0.56,0.01h1.92 M24.63,36.64v0.97c0,2.2,1.18,3.42,3.67,3.42h1.37 M27.95,36.41h-5.37c-1.96,0-2.9,1.02-2.9,3.16
	c0,2.15-1.18,3.07-3.22,3.07h-4.53 M16.06,42.61v6.3c0,3.27,3.67,3.39,3.67,3.39h3.08c1.23-0.13,2.34,0.76,2.49,1.98
	c0.01,0.14,0.01,0.3,0,0.44c0,1.59,0.71,2.53,2.37,2.53h2.86 M21.53,52.3v-2.51c0-1.65,0.76-2.36,2.37-2.36h4.08 M6.91,17.52V7.13
	h4.19c0,0,1.94-0.06,1.94,2.36s-1.93,2.44-1.93,2.44H6.93l5.56,5.49h1.79 M57.11,7.11v10.42l6.51-0.12"/>
</svg>
