<?xml version="1.0" encoding="utf-8"?>
<!-- Generator: Adobe Illustrator 27.3.1, SVG Export Plug-In . SVG Version: 6.00 Build 0)  -->
<svg version="1.1" id="Layer_1" xmlns="http://www.w3.org/2000/svg" xmlns:xlink="http://www.w3.org/1999/xlink" x="0px" y="0px"
	 viewBox="0 0 70 70" style="enable-background:new 0 0 70 70;" xml:space="preserve">
<style type="text/css">
	.st0{fill:none;stroke:#FFFFFF;stroke-width:1.5;stroke-linecap:round;stroke-linejoin:round;}
</style>
<path class="st0" d="M28.53,42.63c-3.32-3.97-2.78-9.89,1.2-13.21c3.97-3.32,9.89-2.78,13.21,1.2c2.7,3.24,2.91,7.87,0.51,11.34
	 M28.57,47.96c-1.21-0.75-2.28-1.7-3.19-2.8c-4.66-5.73-3.79-14.16,1.93-18.82c5.73-4.66,14.16-3.79,18.82,1.93
	c1.92,2.37,2.98,5.32,3,8.36c-0.01,2.27-0.6,4.51-1.72,6.48 M27.22,40.02c2.25-0.65,4.05-2.34,4.83-4.54
	c0.89-2.24,0.73-4.78-0.44-6.89 M56.76,46.09c5.31-11.77,0.07-25.61-11.71-30.92C33.28,9.86,19.44,15.1,14.13,26.88
	S14.06,52.49,25.84,57.8c0.94,0.43,1.9,0.78,2.88,1.07c1.1,0.34,2.23,0.58,3.38,0.73 M26.79,11.59
	C13.96,12.98,4.67,24.49,6.06,37.32c0.37,3.46,1.51,6.79,3.34,9.75c1.16,1.84,2.53,3.52,4.1,5.03 M25.28,11.4
	c-3.87-0.51-7.8,0-11.43,1.45C2.99,17.42-2.11,29.95,2.47,40.81c1.09,2.6,2.7,4.96,4.72,6.94c0.96,0.94,2,1.79,3.11,2.53
	c0.55,0.38,1.12,0.72,1.71,1.03c0.53,0.18,1.03,0.44,1.5,0.75 M38.05,13.22c-0.73-0.05-1.47-0.15-2.19-0.31l-3-0.44l-5.56-0.79
	c-0.71-0.1-1.42-0.19-2.13-0.31 M13.19,51.91l12.47,5.78 M31.62,59.55l13.73,5.4 M49.67,50.46l-20.79-7.3
	c4.93,0.74,9.88,0.97,14.6-0.89c1.12,0.39,11.55,3.72,12.45,4 M49.67,50.46l-20.79-7.3l0.03,5.15l20.6,8.72 M45.35,64.95
	c2.61-0.31,5.7-0.56,8.32-0.87l4.41-0.52c0.12,0,0.71,0,0.77-0.1c0.07-0.1,0-1.04,0-1.26v-4.68 M31.65,59.55v-9.83 M45.35,64.95
	l0.14-8.85"/>
<path class="st0" d="M49.56,57.04c8.99,0.46,13.01,0,18.53-1.61l0.13-6.87c0-0.05,0-0.11,0-0.15l0.97-2.32
	c0.09-0.17,0.01-0.4-0.16-0.47c-0.06-0.03-0.12-0.04-0.18-0.04l-18.89,1.35c-0.64,0.07-1.1,0.63-1.04,1.27
	c0.01,0.11,0.04,0.21,0.08,0.31l0.58,1.66c0,0.06,0,0.11,0,0.16L49.56,57.04L49.56,57.04z M67.61,49.59
	c-5.88,1.36-11.94,1.77-17.95,1.23"/>
</svg>
