<?xml version="1.0" encoding="utf-8"?>
<!-- Generator: Adobe Illustrator 27.3.1, SVG Export Plug-In . SVG Version: 6.00 Build 0)  -->
<svg version="1.1" id="Layer_1" xmlns="http://www.w3.org/2000/svg" xmlns:xlink="http://www.w3.org/1999/xlink" x="0px" y="0px"
	 viewBox="0 0 70 70" style="enable-background:new 0 0 70 70;" xml:space="preserve">
<style type="text/css">
	.st0{fill:none;stroke:#FFFFFF;stroke-width:1.5;stroke-linecap:round;stroke-linejoin:round;}
</style>
<path class="st0" d="M19.44,15.84c-3.11,0.45-6.17,1.21-9.14,2.25c0,0-0.41,8.45-0.3,19.52 M10.16,44.95
	c0.11,3.81,0.3,7.69,0.6,11.56l13.63,1.68"/>
<path class="st0" d="M31.95,10.25c5.16-0.07,22.93,5.43,22.93,5.43c8.4,2.08,14.42,11.08,14.42,22.1c-0.11,3.06-0.66,6.07-1.62,8.98
	"/>
<path class="st0" d="M50.03,22.92l16.28,2.42"/>
<path class="st0" d="M27.66,38.73c-0.38-1.02-0.56-2.09-0.51-3.18c0-3.93,2.22-7.14,5.01-7.2c2.79-0.06,5.24,3.22,5.24,7.29
	c0.01,1.3-0.25,2.61-0.76,3.81 M54.24,46.6c-0.51,5.13-1.94,10.13-4.22,14.76"/>
<path class="st0" d="M54.42,46.57c0,0-5.43,14.66-19.23,13.43l15.02,1.33l12.5-1.71c0,0,1.81-1.81,3.6-6.92
	c0.7-1.93,1.22-3.93,1.52-5.97C67.82,46.73,54.42,46.57,54.42,46.57z M20.28,38.21c-0.25-1-0.35-2.04-0.33-3.07
	c0-6.28,4.09-11.43,9.22-11.5c5.12-0.08,9.52,5.14,9.52,11.66c0,4.55-2.11,8.43-5.17,10.28 M12.28,37c-0.04-0.64-0.06-1.27-0.06-1.9
	c0-13.56,8.81-24.69,19.9-24.83c11.29-0.15,20.61,11.12,20.6,25.18C52.72,49.51,43.4,60.58,32.11,60.2
	c-8.11-0.25-15.02-6.38-18.09-14.95"/>
<path class="st0" d="M5.15,44.54l28.21,1.09"/>
<path class="st0" d="M37.77,39.68l-25.33-2.07l-0.55,5.48"/>
<path class="st0" d="M0.73,38.33l11.71-0.72l-0.19,5.57c0,0-5.58,2.63-11.14,0.55C1.12,43.73,0.73,38.33,0.73,38.33z"/>
</svg>
