<?xml version="1.0" encoding="utf-8"?>
<!-- Generator: Adobe Illustrator 27.3.1, SVG Export Plug-In . SVG Version: 6.00 Build 0)  -->
<svg version="1.1" id="Layer_1" xmlns="http://www.w3.org/2000/svg" xmlns:xlink="http://www.w3.org/1999/xlink" x="0px" y="0px"
	 viewBox="0 0 70 70" style="enable-background:new 0 0 70 70;" xml:space="preserve">
<style type="text/css">
	.st0{fill:none;stroke:#FFFFFF;stroke-width:1.5;stroke-linecap:round;stroke-linejoin:round;}
	.st1{fill:#FFFFFF;}
</style>
<path id="_Path_" class="st0" d="M39.38,18.66l23.08,23.16c-0.28,10.64-8.95,19.12-19.55,19.14"/>
<path id="_Path_2" class="st0" d="M25.93,60.96c-10.61-0.01-19.29-8.5-19.57-19.14l23.11-23.16"/>
<path id="_Path_3" class="st0" d="M6.99,0.85h56.06c3.36,0,6.09,2.74,6.09,6.11v56.25c0,3.37-2.73,6.11-6.09,6.11H6.99
	c-3.36,0-6.09-2.74-6.09-6.11V6.96C0.91,3.58,3.63,0.85,6.99,0.85z"/>
<path id="_Path_4" class="st0" d="M35.03,66.87V3.29"/>
<path id="_Path_5" class="st1" d="M16.75,10.62h2.44v2.46h-2.44C16.75,13.08,16.75,10.62,16.75,10.62z"/>
<path id="_Path_6" class="st1" d="M21.62,10.62h2.44v2.46H21.6L21.62,10.62z"/>
<path id="_Path_7" class="st1" d="M26.5,10.62h2.44v2.46H26.5V10.62z"/>
<path id="_Path_8" class="st1" d="M41.11,10.62h2.44v2.46h-2.44V10.62z"/>
<path id="_Path_9" class="st1" d="M45.98,10.62h2.45v2.46h-2.45C45.98,13.08,45.98,10.62,45.98,10.62z"/>
<path id="_Path_10" class="st1" d="M50.87,10.62h2.44v2.46h-2.44V10.62z"/>
<path class="st0" d="M44.84,35.67v-3.45c0.12-1.58-1.07-2.97-2.66-3.08c-0.19-0.01-0.38,0-0.55,0.01h-1.91 M43.62,36.62v0.97
	c0,2.2-1.18,3.43-3.65,3.43h-1.38 M40.33,36.38h5.3c1.96,0,2.89,1.02,2.89,3.17c0,2.15,1.18,3.07,3.2,3.07h4.62 M39.15,54.46h9.42
	c0,0,3.65-0.12,3.65-3.38V42.6 M41.6,49.42l3.96-3.97 M41.6,45.45l3.96,3.97 M23.51,35.67v-3.45c-0.12-1.58,1.07-2.97,2.66-3.08
	c0.19-0.01,0.38,0,0.55,0.01h1.91 M24.71,36.62v0.97c0,2.2,1.18,3.43,3.65,3.43h1.37 M28.01,36.38h-5.35
	c-1.96,0-2.89,1.02-2.89,3.17c0,2.15-1.18,3.07-3.2,3.07h-4.51 M16.18,42.6v6.31c0,3.27,3.65,3.39,3.65,3.39h3.06
	c1.22-0.13,2.33,0.76,2.47,1.99c0.01,0.14,0.01,0.3,0,0.44c0,1.6,0.71,2.53,2.36,2.53h2.85 M21.62,52.3v-2.52
	c0-1.65,0.75-2.36,2.36-2.36h4.06 M7.08,17.47V7.08h4.17c0,0,1.93-0.06,1.93,2.36s-1.92,2.45-1.92,2.45H7.1l5.54,5.49h1.78
	 M57.03,7.05v10.43l6.48-0.12"/>
</svg>
