<?xml version="1.0" encoding="utf-8"?>
<!-- Generator: Adobe Illustrator 27.3.1, SVG Export Plug-In . SVG Version: 6.00 Build 0)  -->
<svg version="1.1" id="Layer_1" xmlns="http://www.w3.org/2000/svg" xmlns:xlink="http://www.w3.org/1999/xlink" x="0px" y="0px"
	 viewBox="0 0 70 70" style="enable-background:new 0 0 70 70;" xml:space="preserve">
<style type="text/css">
	.st0{fill:#FFFFFF;}
</style>
<g transform="translate(0.000000,752.000000) scale(0.100000,-0.100000)">
	<path class="st0" d="M220.33,7514.78c-16.01-9.31-15.64-7.63-15.64-66.83v-51.94l-13.78-1.12c-16.2-1.12-27.55-5.77-37.98-15.08
		c-12.47-11.36-18.8-29.41-12.84-36.86c1.12-1.68,7.63-7.07,13.96-11.73c6.52-4.84,11.54-8.94,11.17-9.31
		c-0.37-0.56-8.75,0-18.43,1.12c-24.39,2.79-50.26,0.74-56.96-4.47c-9.31-7.26-13.59-13.22-16.38-22.9
		c-4.1-13.4-1.3-24.01,9.68-36.11c6.89-7.63,9.68-9.31,18.24-11.17c28.3-5.96,47.66-34.62,55.85-82.84
		c1.49-9.31,3.54-34.44,4.47-55.85c1.49-36.67,1.86-40.21,7.63-57.52c7.45-22.9,15.45-40.58,26.62-59.2l8.75-14.33v-74.46
		c0-43.75,0.74-76.32,1.86-79.12c2.23-6.14,11.91-6.89,14.89-1.3c1.12,2.42,1.86,26.62,1.86,66.08v62.55l17.31-17.31
		c9.68-9.49,21.41-20.1,26.06-23.64l8.75-6.14v-38.91c0-23.27,0.74-40.4,1.86-42.63c2.61-4.84,12.29-4.84,14.89,0
		c1.12,2.23,1.86,17.31,1.86,36.11v32.39l16.75-8.38l16.75-8.38v-25.32c0-26.81,0.93-29.97,8.38-29.97c7.26,0,8.38,3.35,8.38,26.62
		c0,20.29,0.37,22.15,3.35,21.22c1.68-0.37,9.68-2.79,17.68-5.21l14.33-4.28v-15.64c0-17.31,1.86-22.71,8-22.71
		c8.19,0,9.68,2.79,10.42,18.62l0.56,15.26l6.89-1.3c24.39-4.65,44.3-6.7,72.97-7.82c27.74-0.93,34.07-0.56,42.07,2.05
		c40.77,13.59,85.82,72.6,100.9,132.54c18.06,70.92,0.19,136.45-50.82,188.01c-35.37,35.56-83.02,62.73-147.99,84.51
		c-14.89,5.03-27.36,9.87-27.55,10.61c-1.12,2.98,12.66,17.31,21.22,22.34c4.65,2.79,13.59,6.33,19.92,8l11.36,3.16v17.68
		c0,16.2-0.56,18.62-6.14,29.41c-3.35,6.52-5.77,11.91-5.58,12.1c0.93,0.74,30.53,10.05,38.35,12.1l7.82,2.05v9.12
		c0,26.25-17.68,49.33-43.75,56.78c-10.98,3.16-29.97,4.28-35.74,2.23c-4.28-1.49-4.28-1.3-4.28,13.4c0,14.71,0,14.89-6.33,19.73
		c-8,6.14-24.94,12.1-34.44,12.1c-9.87,0-16.57-2.79-23.83-9.87l-6.14-5.77v-32.95c0-32.58,0-32.95-4.47-35.74
		c-2.42-1.68-9.87-7.63-16.75-13.4l-12.29-10.42v64.41v64.41l-16.2,7.63c-14.15,6.89-17.87,7.82-32.02,8.56
		C230.75,7520.37,229.26,7519.99,220.33,7514.78z M262.4,7499.14l12.1-4.28l0.56-70.37c0.37-69.06,0.37-70.37-3.54-75.76l-3.91-5.58
		l-6.14,8.94c-6.89,10.24-24.57,27.18-32.76,31.46l-5.4,2.79l0.37,55.29l0.56,55.29l6.52,3.16
		C239.32,7504.54,247.69,7504.17,262.4,7499.14z M373.72,7461.54l5.96-2.61v-14.52l-0.19-14.52l-17.68-8.56l-17.68-8.56l0.56,24.39
		c0.56,23.83,0.74,24.39,5.21,26.62C354.92,7466.57,363.67,7465.64,373.72,7461.54z M437.57,7404.76
		c6.14-3.35,14.71-12.29,12.66-13.59c-0.37-0.19-7.82-2.79-16.57-5.77c-18.06-6.14-44.3-18.62-59.57-28.67
		c-5.58-3.72-17.31-13.78-26.06-22.52c-19.92-20.1-30.16-39.09-34.81-64.41c-3.72-20.29-1.68-41.7,4.65-48.03
		c5.58-5.58,14.89-5.03,20.1,1.12c3.91,4.65,4.1,6.14,3.16,21.41c-0.93,13.78-0.37,18.8,2.79,29.6
		c7.26,23.64,26.25,46.72,51.38,61.8c10.42,6.14,10.61,6.14,14.33,2.79c4.84-4.28,9.12-12.47,8.94-16.94
		c0-2.23-3.72-5.21-11.36-8.75c-23.64-11.17-42.82-36.67-48.21-64.04c-4.65-24.39,3.16-76.7,12.47-83.58
		c5.77-4.1,14.89-2.98,19.17,2.42c4.65,5.77,4.84,9.68,1.12,21.78c-3.16,10.8-7.07,37.98-5.77,41.51
		c1.12,2.98,20.66-2.79,53.24-15.45c99.22-38.72,154.69-99.22,159.53-173.87c2.42-38.91-9.68-81.54-33.88-118.02
		c-10.8-16.2-32.76-38.53-44.12-44.86c-9.68-5.21-10.24-5.4-35-5.03c-59.38,1.12-113.93,13.03-159.16,35
		c-60.31,29.41-106.29,82.65-128.63,149.11c-6.89,20.1-6.89,20.66-8.19,61.24c-1.68,45.05-5.4,69.25-14.71,93.26
		c-7.07,18.06-21.04,38.53-32.58,47.66c-10.24,8.19-26.06,16.38-31.65,16.38c-4.47,0-10.42,5.21-10.42,8.94
		c0,1.68,1.3,4.47,3.16,6.33c2.42,2.79,5.96,3.35,20.85,3.35c18.99,0,45.24-3.54,60.69-8.38c12.66-3.72,17.68-3.54,22.71,1.3
		c10.24,9.68,2.23,29.78-21.22,53.24c-8.56,8.56-15.45,15.82-15.45,16.38c0,0.37,2.79,2.42,6.14,4.47
		c3.91,2.42,9.31,3.72,15.45,3.72c7.82,0,11.36-1.3,20.48-7.07c26.43-17.31,37.98-39.84,37.98-74.65c0-19.92-2.79-33.88-11.54-59.2
		c-5.03-14.52-5.58-17.68-3.72-21.78c4.65-10.24,17.68-10.8,24.76-1.12c5.4,7.07,14.52,35.74,17.68,55.66
		c2.05,11.73,2.61,23.83,2.05,35l-0.93,17.13l9.31,13.4c24.39,34.62,65.53,66.08,107.6,82.09
		C412.44,7411.09,425.1,7411.09,437.57,7404.76z"/>
	<path class="st0" d="M444.08,7126.28c-4.1-3.91-3.72-7.07,1.68-15.45c10.42-15.45,12.66-25.13,13.03-53.24
		c0.37-22.71,0.93-27.74,5.21-39.65c8.75-25.13,27.74-51.19,49.33-67.76c17.13-13.03,26.62-14.15,27.92-2.79
		c0.56,3.91-1.12,5.77-9.68,11.36c-11.17,7.07-27.36,22.9-35.37,34.25l-5.03,7.45l10.24,20.48c5.77,11.35,14.15,25.32,18.8,30.9
		c8.56,10.61,10.05,15.45,6.14,19.36c-7.82,7.82-22.71-7.07-38.72-38.72l-6.14-12.1l-2.42,6.52c-1.3,3.91-2.42,16.01-2.42,29.78
		c-0.19,32.02-6.33,53.43-19.36,67.57C451.72,7130,448.18,7130.56,444.08,7126.28z"/>
	<path class="st0" d="M329.41,7123.67c-2.79-5.03-0.93-10.05,4.47-12.84c6.14-3.35,8.56-9.68,8.56-21.97
		c0-9.49-4.1-29.97-7.26-35.37c-0.74-1.68-4.28,0.19-11.36,6.14c-14.33,11.73-33.69,23.08-39.65,23.08c-3.54,0-5.77-1.3-7.26-4.65
		c-2.61-5.96-0.93-7.82,14.71-16.94c16.2-9.31,35.74-27.74,42.26-39.65c3.35-6.33,6.14-16.2,8.38-29.41
		c4.1-23.64,8.19-35.18,17.87-49.7c8.56-13.03,20.85-23.64,35.74-30.9c14.71-7.26,36.86-12.1,42.82-9.49
		c8.75,4.1,2.61,16.94-8,16.94c-8.56,0-28.48,7.63-38.35,14.89c-12.29,8.75-24.39,25.88-28.48,40.02c-1.68,5.4-4.1,17.13-5.4,26.25
		c-1.49,9.49-4.47,20.48-6.89,25.5l-4.65,8.94l6.52,18.99c10.98,33.14,8.38,59.01-7.07,69.99
		C339.47,7128.51,332.02,7128.51,329.41,7123.67z"/>
</g>
</svg>
