<?xml version="1.0" encoding="utf-8"?>
<!-- Generator: Adobe Illustrator 27.3.1, SVG Export Plug-In . SVG Version: 6.00 Build 0)  -->
<svg version="1.1" id="Layer_1" xmlns="http://www.w3.org/2000/svg" xmlns:xlink="http://www.w3.org/1999/xlink" x="0px" y="0px"
	 viewBox="0 0 752 752" style="enable-background:new 0 0 752 752;" xml:space="preserve">
<style type="text/css">
	.st0{fill:#FFFFFF;}
</style>
<rect x="-13" y="-14.7" width="780.5" height="780.5"/>
<g transform="translate(0.000000,752.000000) scale(0.100000,-0.100000)">
	<path class="st0" d="M3147.7,5840.6c-86-50-84-41-84-359v-279l-74-6c-87-6-148-31-204-81c-67-61-101-158-69-198c6-9,41-38,75-63
		c35-26,62-48,60-50c-2-3-47,0-99,6c-131,15-270,4-306-24c-50-39-73-71-88-123c-22-72-7-129,52-194c37-41,52-50,98-60
		c152-32,256-186,300-445c8-50,19-185,24-300c8-197,10-216,41-309c40-123,83-218,143-318l47-77v-400c0-235,4-410,10-425
		c12-33,64-37,80-7c6,13,10,143,10,355v336l93-93c52-51,115-108,140-127l47-33v-209c0-125,4-217,10-229c14-26,66-26,80,0
		c6,12,10,93,10,194v174l90-45l90-45v-136c0-144,5-161,45-161c39,0,45,18,45,143c0,109,2,119,18,114c9-2,52-15,95-28l77-23v-84
		c0-93,10-122,43-122c44,0,52,15,56,100l3,82l37-7c131-25,238-36,392-42c149-5,183-3,226,11c219,73,461,390,542,712
		c97,381,1,733-273,1010c-190,191-446,337-795,454c-80,27-147,53-148,57c-6,16,68,93,114,120c25,15,73,34,107,43l61,17v95
		c0,87-3,100-33,158c-18,35-31,64-30,65c5,4,164,54,206,65l42,11v49c0,141-95,265-235,305c-59,17-161,23-192,12c-23-8-23-7-23,72
		s0,80-34,106c-43,33-134,65-185,65c-53,0-89-15-128-53l-33-31v-177c0-175,0-177-24-192c-13-9-53-41-90-72l-66-56v346v346l-87,41
		c-76,37-96,42-172,46C3203.7,5870.6,3195.7,5868.6,3147.7,5840.6z M3373.7,5756.6l65-23l3-378c2-371,2-378-19-407l-21-30l-33,48
		c-37,55-132,146-176,169l-29,15l2,297l3,297l35,17C3249.7,5785.6,3294.7,5783.6,3373.7,5756.6z M3971.7,5554.6l32-14v-78l-1-78
		l-95-46l-95-46l3,131c3,128,4,131,28,143C3870.7,5581.6,3917.7,5576.6,3971.7,5554.6z M4314.7,5249.6c33-18,79-66,68-73
		c-2-1-42-15-89-31c-97-33-238-100-320-154c-30-20-93-74-140-121c-107-108-162-210-187-346c-20-109-9-224,25-258c30-30,80-27,108,6
		c21,25,22,33,17,115c-5,74-2,101,15,159c39,127,141,251,276,332c56,33,57,33,77,15c26-23,49-67,48-91c0-12-20-28-61-47
		c-127-60-230-197-259-344c-25-131,17-412,67-449c31-22,80-16,103,13c25,31,26,52,6,117c-17,58-38,204-31,223c6,16,111-15,286-83
		c533-208,831-533,857-934c13-209-52-438-182-634c-58-87-176-207-237-241c-52-28-55-29-188-27c-319,6-612,70-855,188
		c-324,158-571,444-691,801c-37,108-37,111-44,329c-9,242-29,372-79,501c-38,97-113,207-175,256c-55,44-140,88-170,88
		c-24,0-56,28-56,48c0,9,7,24,17,34c13,15,32,18,112,18c102,0,243-19,326-45c68-20,95-19,122,7c55,52,12,160-114,286
		c-46,46-83,85-83,88c0,2,15,13,33,24c21,13,50,20,83,20c42,0,61-7,110-38c142-93,204-214,204-401c0-107-15-182-62-318
		c-27-78-30-95-20-117c25-55,95-58,133-6c29,38,78,192,95,299c11,63,14,128,11,188l-5,92l50,72c131,186,352,355,578,441
		C4179.7,5283.6,4247.7,5283.6,4314.7,5249.6z"/>
	<path class="st0" d="M4349.7,3753.6c-22-21-20-38,9-83c56-83,68-135,70-286c2-122,5-149,28-213c47-135,149-275,265-364
		c92-70,143-76,150-15c3,21-6,31-52,61c-60,38-147,123-190,184l-27,40l55,110c31,61,76,136,101,166c46,57,54,83,33,104
		c-42,42-122-38-208-208l-33-65l-13,35c-7,21-13,86-13,160c-1,172-34,287-104,363C4390.7,3773.6,4371.7,3776.6,4349.7,3753.6z"/>
	<path class="st0" d="M3733.7,3739.6c-15-27-5-54,24-69c33-18,46-52,46-118c0-51-22-161-39-190c-4-9-23,1-61,33
		c-77,63-181,124-213,124c-19,0-31-7-39-25c-14-32-5-42,79-91c87-50,192-149,227-213c18-34,33-87,45-158c22-127,44-189,96-267
		c46-70,112-127,192-166c79-39,198-65,230-51c47,22,14,91-43,91c-46,0-153,41-206,80c-66,47-131,139-153,215c-9,29-22,92-29,141
		c-8,51-24,110-37,137l-25,48l35,102c59,178,45,317-38,376C3787.7,3765.6,3747.7,3765.6,3733.7,3739.6z"/>
</g>
</svg>
