<svg width="60" height="60" viewBox="0 0 60 60" fill="none" xmlns="http://www.w3.org/2000/svg">
<g clip-path="url(#clip0_37_3782)">
<path d="M51.5625 7.50016H27.1875C27.0651 7.49788 26.9434 7.52037 26.8298 7.56628C26.7162 7.6122 26.6131 7.68059 26.5266 7.76734L15.2766 19.0173C15.187 19.1041 15.1162 19.2084 15.0686 19.3237C15.021 19.4391 14.9977 19.5629 15 19.6877V59.0627C15 59.3113 15.0988 59.5498 15.2746 59.7256C15.4504 59.9014 15.6889 60.0002 15.9375 60.0002H51.5625C51.8112 60.0002 52.0496 59.9014 52.2255 59.7256C52.4013 59.5498 52.5 59.3113 52.5 59.0627V8.43766C52.5 8.18902 52.4013 7.95056 52.2255 7.77474C52.0496 7.59893 51.8112 7.50016 51.5625 7.50016ZM26.25 10.7017V18.7502H18.2016L26.25 10.7017ZM50.625 58.1252H16.875V20.6252H27.1875C27.4362 20.6252 27.6746 20.5264 27.8505 20.3506C28.0263 20.1748 28.125 19.9363 28.125 19.6877V9.37516H50.625V58.1252Z" fill="#6BB1FC"/>
<path d="M45.9375 37.5H21.5625C21.3139 37.5 21.0754 37.5988 20.8996 37.7746C20.7238 37.9504 20.625 38.1889 20.625 38.4375C20.625 38.6861 20.7238 38.9246 20.8996 39.1004C21.0754 39.2762 21.3139 39.375 21.5625 39.375H45.9375C46.1861 39.375 46.4246 39.2762 46.6004 39.1004C46.7762 38.9246 46.875 38.6861 46.875 38.4375C46.875 38.1889 46.7762 37.9504 46.6004 37.7746C46.4246 37.5988 46.1861 37.5 45.9375 37.5ZM45.9375 43.125H21.5625C21.3139 43.125 21.0754 43.2238 20.8996 43.3996C20.7238 43.5754 20.625 43.8139 20.625 44.0625C20.625 44.3111 20.7238 44.5496 20.8996 44.7254C21.0754 44.9012 21.3139 45 21.5625 45H45.9375C46.1861 45 46.4246 44.9012 46.6004 44.7254C46.7762 44.5496 46.875 44.3111 46.875 44.0625C46.875 43.8139 46.7762 43.5754 46.6004 43.3996C46.4246 43.2238 46.1861 43.125 45.9375 43.125ZM36.5625 48.75H21.5625C21.3139 48.75 21.0754 48.8488 20.8996 49.0246C20.7238 49.2004 20.625 49.4389 20.625 49.6875C20.625 49.9361 20.7238 50.1746 20.8996 50.3504C21.0754 50.5262 21.3139 50.625 21.5625 50.625H36.5625C36.8111 50.625 37.0496 50.5262 37.2254 50.3504C37.4012 50.1746 37.5 49.9361 37.5 49.6875C37.5 49.4389 37.4012 49.2004 37.2254 49.0246C37.0496 48.8488 36.8111 48.75 36.5625 48.75Z" fill="#6BB1FC"/>
<path d="M12.1875 50.625H9.375V1.875H43.125V4.6875C43.125 4.93614 43.2238 5.1746 43.3996 5.35041C43.5754 5.52623 43.8139 5.625 44.0625 5.625C44.3111 5.625 44.5496 5.52623 44.7254 5.35041C44.9012 5.1746 45 4.93614 45 4.6875V0.9375C45 0.68886 44.9012 0.450403 44.7254 0.274587C44.5496 0.0987721 44.3111 0 44.0625 0L8.4375 0C8.18886 0 7.9504 0.0987721 7.77459 0.274587C7.59877 0.450403 7.5 0.68886 7.5 0.9375V51.5625C7.5 51.8111 7.59877 52.0496 7.77459 52.2254C7.9504 52.4012 8.18886 52.5 8.4375 52.5H12.1875C12.4361 52.5 12.6746 52.4012 12.8504 52.2254C13.0262 52.0496 13.125 51.8111 13.125 51.5625C13.125 51.3139 13.0262 51.0754 12.8504 50.8996C12.6746 50.7238 12.4361 50.625 12.1875 50.625Z" fill="#6BB1FC"/>
<path d="M40.7812 33.75H37.0312C36.5377 33.7381 36.0677 33.5367 35.7186 33.1877C35.3695 32.8386 35.1681 32.3685 35.1562 31.875V28.5938H31.875C31.3815 28.5819 30.9114 28.3805 30.5623 28.0314C30.2133 27.6823 30.0119 27.2123 30 26.7188V22.9688C30.013 22.4756 30.2148 22.0062 30.5636 21.6574C30.9124 21.3085 31.3818 21.1068 31.875 21.0938H35.1562V17.8125C35.1693 17.3193 35.371 16.85 35.7199 16.5011C36.0687 16.1523 36.5381 15.9505 37.0312 15.9375H40.7812C41.2744 15.9505 41.7438 16.1523 42.0926 16.5011C42.4415 16.85 42.6432 17.3193 42.6562 17.8125V21.0938H45.9375C46.4307 21.1068 46.9001 21.3085 47.2489 21.6574C47.5977 22.0062 47.7995 22.4756 47.8125 22.9688V26.7188C47.7995 27.2119 47.5977 27.6813 47.2489 28.0301C46.9001 28.379 46.4307 28.5807 45.9375 28.5938H42.6562V31.875C42.6444 32.3685 42.443 32.8386 42.0939 33.1877C41.7448 33.5367 41.2748 33.7381 40.7812 33.75ZM40.7812 27.6562C40.7812 27.4076 40.88 27.1692 41.0558 26.9933C41.2317 26.8175 41.4701 26.7188 41.7188 26.7188H45.9375V22.9688H41.7188C41.4701 22.9688 41.2317 22.87 41.0558 22.6942C40.88 22.5183 40.7812 22.2799 40.7812 22.0312V17.8125H37.0312V22.0312C37.0312 22.2799 36.9325 22.5183 36.7567 22.6942C36.5808 22.87 36.3424 22.9688 36.0938 22.9688H31.875V26.7188H36.0938C36.3424 26.7188 36.5808 26.8175 36.7567 26.9933C36.9325 27.1692 37.0312 27.4076 37.0312 27.6562V31.875H40.7812V27.6562Z" fill="#6BB1FC"/>
</g>
<defs>
<clipPath id="clip0_37_3782">
<rect width="60" height="60" fill="white"/>
</clipPath>
</defs>
</svg>
