<?xml version="1.0" encoding="utf-8"?>
<!-- Generator: Adobe Illustrator 27.3.1, SVG Export Plug-In . SVG Version: 6.00 Build 0)  -->
<svg version="1.1" id="Layer_1" xmlns="http://www.w3.org/2000/svg" xmlns:xlink="http://www.w3.org/1999/xlink" x="0px" y="0px"
	 viewBox="0 0 70 70" style="enable-background:new 0 0 70 70;" xml:space="preserve">
<style type="text/css">
	.st0{fill:#79ADDD;}
</style>
<g transform="translate(0.000000,752.000000) scale(0.100000,-0.100000)">
	<path class="st0" d="M27.65,7516.71c-2.68-2.21-4.1-4.73-4.1-7.73c0-7.73,8.99-47.93,12.3-55.65
		c5.05-11.19,14.19-19.86,37.84-35.63l21.91-14.5l2.05-16.08c4.26-34.21,12.3-53.92,29.48-72.21c5.52-5.83,19.55-17.18,32-25.86
		c12.3-8.51,22.86-16.71,23.49-17.97c5.83-11.04,7.25-64.32,2.68-93.96c-15.61-99.95-70.95-190.61-140.47-230.5
		c-5.99-3.47-14.5-7.57-18.76-9.3c-10.41-3.94-22.23-15.29-24.44-23.49c-1.1-3.78-1.73-22.23-1.73-46.19v-39.89l3.94-3.78
		c2.05-2.21,5.68-3.94,7.88-3.94s5.83,1.73,7.88,3.94l3.94,3.78v40.04c0,46.35-1.89,41.46,19.23,51.4
		c79.62,37.68,145.52,136.22,164.28,245.32c3.47,19.86,5.52,53.92,4.26,72.21c-0.63,9.93-0.47,15.14,0.63,14.66
		c0.95-0.31,11.67-7.57,23.81-16.24c12.3-8.67,27.91-18.6,34.68-22.07c49.82-25.7,109.1-25.7,158.92,0
		c6.78,3.47,22.39,13.4,34.68,22.07c12.14,8.67,23.02,15.92,23.81,16.24c1.1,0.47,1.26-4.57,0.63-14.66
		c-0.63-8.51-0.47-25.07,0.32-36.73c8.36-121.08,78.51-238.38,168.22-280.79c21.13-9.93,19.23-5.04,19.23-51.4v-40.04l3.94-3.78
		c4.89-5.04,10.88-5.04,15.77,0l3.94,3.78v39.89c0,23.96-0.63,42.41-1.73,46.19c-2.21,8.2-14.03,19.55-24.44,23.49
		c-20.18,7.73-43.2,23.81-64.95,45.56c-47.14,46.51-79.93,113.2-93.49,189.5c-5.2,29.8-4.73,77.57,1.1,97.27
		c0.47,1.58,11.19,10.09,23.96,19.08c43.83,31.06,55.81,50.13,61.8,98.38l2.05,16.08l21.91,14.5
		c23.65,15.77,32.79,24.44,37.84,35.63c3.31,7.73,12.3,47.93,12.3,55.65c0,7.88-9.93,13.4-17.18,9.46
		c-3.94-2.05-5.68-7.25-9.62-27.59c-5.99-31.22-7.88-34.37-27.27-47.3c-6.94-4.73-12.93-8.36-13.09-8.2
		c-0.32,0.16,1.58,15.61,4.1,34.21s4.73,36.26,4.73,39.1c0,9.77-11.04,14.82-18.92,8.51c-3-2.52-4.1-8.67-12.61-72.84
		c-5.2-38.63-10.41-74.41-11.82-79.62c-3.78-13.87-10.88-25.86-20.97-35.79c-13.24-12.77-119.5-87.19-137.48-96.17
		c-23.81-11.98-35.32-14.5-66.22-14.5s-42.57,2.52-66.22,14.5c-17.97,8.99-124.23,83.4-137.48,96.17
		c-10.09,9.93-17.18,21.91-20.97,35.79c-1.42,5.2-6.62,40.99-11.82,79.62c-8.51,64.17-9.62,70.32-12.61,72.84
		c-7.73,6.15-18.92,0.63-18.92-9.14c0-2.52,2.21-19.87,4.73-38.47s4.41-34.05,4.1-34.21c-0.16-0.16-6.15,3.47-13.24,8.36
		c-18.6,12.3-20.97,16.4-26.17,42.73c-2.36,11.98-5.05,23.81-5.99,26.17C42.31,7520.5,34.74,7522.23,27.65,7516.71z"/>
	<path class="st0" d="M307.81,7374.35c-21.76-5.83-27.27-9.3-27.27-17.66c0-3.63,1.1-5.99,4.1-8.36c5.2-4.1,5.99-4.1,19.86,0.47
		c27.75,9.3,71.1,8.67,95.23-1.42c8.04-3.31,12.14-3,16.24,1.42c2.52,2.68,3.47,5.2,3,8.99c-0.63,6.94-6.78,11.04-23.65,15.77
		c-11.35,3.15-17.18,3.78-43.04,4.1C324.83,7378.13,321.05,7377.82,307.81,7374.35z"/>
	<path class="st0" d="M321.52,7331.94c-8.83-4.41-8.2-17.18,1.26-21.13c7.73-3.31,35-4.57,46.04-2.21
		c14.19,3,19.86,12.14,12.93,20.65c-3.15,3.94-5.99,4.1-21.13,2.05c-9.93-1.42-24.91-0.63-32,1.58
		C326.88,7333.51,323.73,7333.04,321.52,7331.94z"/>
	<path class="st0" d="M330.19,7169.08c-58.65-8.67-102.79-42.57-116.82-89.71c-1.89-6.46-2.84-14.66-2.84-26.01
		c0-26.8,9.14-49.5,28.38-70.63c15.77-17.34,45.72-35.47,64.17-38.94c7.25-1.42,13.72,3.78,13.72,10.88
		c0,6.62-2.84,8.99-16.55,14.35c-17.18,6.94-29.01,14.66-40.99,26.64c-51.24,51.55-23.18,125.02,55.97,146.94
		c14.5,4.1,54.86,4.1,69.37,0c41.62-11.51,70.95-37.84,79.62-71.42c10.41-40.04-16.08-82.77-63.22-101.53
		c-15.29-5.99-17.97-8.36-17.97-14.98c0-7.09,6.46-12.3,13.72-10.88c14.82,2.68,42.25,17.82,56.6,31.06
		c17.5,16.08,30.27,38.63,34.68,60.38c11.19,57.07-31.85,113.51-99.48,130.23C376.23,7168.45,341.07,7170.65,330.19,7169.08z"/>
	<path class="st0" d="M282.58,7109.17c-9.46-3.47-20.02-13.4-23.96-22.7c-13.24-30.74,4.1-71.42,37.36-87.82
		c11.04-5.52,13.09-5.99,25.38-5.99c9.77,0,14.98,0.79,18.92,2.84c7.09,3.47,12.3,3.47,21.44-0.63c10.88-4.73,28.38-3.78,41.15,2.52
		c11.19,5.36,28.06,21.91,34.05,33.27c17.5,32.79,7.73,69.21-21.13,78.83c-15.77,5.2-36.1,0-52.97-13.56
		c-5.36-4.26-11.19-7.88-12.93-7.88c-1.73,0-7.57,3.63-12.93,7.88c-5.36,4.41-13.72,9.46-18.6,11.19
		C307.02,7111.53,291.25,7112.32,282.58,7109.17z M313.32,7084.26c2.52-1.26,8.36-5.52,12.93-9.46
		c16.24-13.87,32.64-13.24,49.5,1.73c12.77,11.51,30.59,14.82,38.94,7.41c12.3-10.88,9.3-35.63-5.99-52.66
		c-13.4-14.98-28.69-19.55-43.04-12.77c-9.46,4.26-22.07,4.26-31.53,0c-14.35-6.78-29.64-2.21-43.04,12.77
		c-17.03,18.92-18.29,46.35-2.52,54.86C293.3,7088.67,306.7,7087.73,313.32,7084.26z"/>
	<path class="st0" d="M342.96,6957.03c-8.04-6.31-3.15-20.34,7.09-20.34c5.52,0,10.88,6.15,10.88,12.14
		c0,5.36-5.99,11.51-11.04,11.51C348.32,6960.34,345.33,6958.92,342.96,6957.03z"/>
</g>
</svg>
