<?xml version="1.0" encoding="utf-8"?>
<!-- Generator: Adobe Illustrator 27.3.1, SVG Export Plug-In . SVG Version: 6.00 Build 0)  -->
<svg version="1.1" id="Layer_1" xmlns="http://www.w3.org/2000/svg" xmlns:xlink="http://www.w3.org/1999/xlink" x="0px" y="0px"
	 viewBox="0 0 752 752" style="enable-background:new 0 0 752 752;" xml:space="preserve">
<style type="text/css">
	.st0{fill:#FFFFFF;}
</style>
<rect x="-19" y="-10.7" width="786" height="778"/>
<g transform="translate(0.000000,752.000000) scale(0.100000,-0.100000)">
	<path class="st0" d="M1716,5959c-17-14-26-30-26-49c0-49,57-304,78-353c32-71,90-126,240-226l139-92l13-102c27-217,78-342,187-458
		c35-37,124-109,203-164c78-54,145-106,149-114c37-70,46-408,17-596c-99-634-450-1209-891-1462c-38-22-92-48-119-59
		c-66-25-141-97-155-149c-7-24-11-141-11-293v-253l25-24c13-14,36-25,50-25s37,11,50,25l25,24v254c0,294-12,263,122,326
		c505,239,923,864,1042,1556c22,126,35,342,27,458c-4,63-3,96,4,93c6-2,74-48,151-103c78-55,177-118,220-140c316-163,692-163,1008,0
		c43,22,142,85,220,140c77,55,146,101,151,103c7,3,8-29,4-93c-4-54-3-159,2-233c53-768,498-1512,1067-1781c134-63,122-32,122-326
		v-254l25-24c31-32,69-32,100,0l25,24v253c0,152-4,269-11,293c-14,52-89,124-155,149c-128,49-274,151-412,289
		c-299,295-507,718-593,1202c-33,189-30,492,7,617c3,10,71,64,152,121c278,197,354,318,392,624l13,102l139,92
		c150,100,208,155,240,226c21,49,78,304,78,353c0,50-63,85-109,60c-25-13-36-46-61-175c-38-198-50-218-173-300c-44-30-82-53-83-52
		c-2,1,10,99,26,217s30,230,30,248c0,62-70,94-120,54c-19-16-26-55-80-462c-33-245-66-472-75-505c-24-88-69-164-133-227
		c-84-81-758-553-872-610c-151-76-224-92-420-92s-270,16-420,92c-114,57-788,529-872,610c-64,63-109,139-133,227
		c-9,33-42,260-75,505c-54,407-61,446-80,462c-49,39-120,4-120-58c0-16,14-126,30-244s28-216,26-217c-1-1-39,22-84,53
		c-118,78-133,104-166,271c-15,76-32,151-38,166C1809,5983,1761,5994,1716,5959z"/>
	<path class="st0" d="M3493,5056c-138-37-173-59-173-112c0-23,7-38,26-53c33-26,38-26,126,3c176,59,451,55,604-9c51-21,77-19,103,9
		c16,17,22,33,19,57c-4,44-43,70-150,100c-72,20-109,24-273,26C3601,5080,3577,5078,3493,5056z"/>
	<path class="st0" d="M3580,4787c-56-28-52-109,8-134c49-21,222-29,292-14c90,19,126,77,82,131c-20,25-38,26-134,13
		c-63-9-158-4-203,10C3614,4797,3594,4794,3580,4787z"/>
	<path class="st0" d="M3635,3754c-372-55-652-270-741-569c-12-41-18-93-18-165c0-170,58-314,180-448c100-110,290-225,407-247
		c46-9,87,24,87,69c0,42-18,57-105,91c-109,44-184,93-260,169c-325,327-147,793,355,932c92,26,348,26,440,0c264-73,450-240,505-453
		c66-254-102-525-401-644c-97-38-114-53-114-95c0-45,41-78,87-69c94,17,268,113,359,197c111,102,192,245,220,383
		c71,362-202,720-631,826C3927,3750,3704,3764,3635,3754z"/>
	<path class="st0" d="M3333,3374c-60-22-127-85-152-144c-84-195,26-453,237-557c70-35,83-38,161-38c62,0,95,5,120,18
		c45,22,78,22,136-4c69-30,180-24,261,16c71,34,178,139,216,211c111,208,49,439-134,500c-100,33-229,0-336-86c-34-27-71-50-82-50
		s-48,23-82,50c-34,28-87,60-118,71C3488,3389,3388,3394,3333,3374z M3528,3216c16-8,53-35,82-60c103-88,207-84,314,11
		c81,73,194,94,247,47c78-69,59-226-38-334c-85-95-182-124-273-81c-60,27-140,27-200,0c-91-43-188-14-273,81
		c-108,120-116,294-16,348C3401,3244,3486,3238,3528,3216z"/>
	<path class="st0" d="M3716,2409c-51-40-20-129,45-129c35,0,69,39,69,77c0,34-38,73-70,73C3750,2430,3731,2421,3716,2409z"/>
</g>
</svg>
