<?xml version="1.0" encoding="utf-8"?>
<!-- Generator: Adobe Illustrator 27.3.1, SVG Export Plug-In . SVG Version: 6.00 Build 0)  -->
<svg version="1.1" id="Layer_1" xmlns="http://www.w3.org/2000/svg" xmlns:xlink="http://www.w3.org/1999/xlink" x="0px" y="0px"
	 viewBox="0 0 70 70" style="enable-background:new 0 0 70 70;" xml:space="preserve">
<style type="text/css">
	.st0{fill:#79ADDD;}
</style>
<g transform="translate(0.000000,752.000000) scale(0.100000,-0.100000)">
	<path class="st0" d="M346.66,7519.62c-2.53-0.3-11.38-1.33-19.6-2.22c-29.08-3.11-65.59-13.18-94.99-26.07
		c-71.13-31.11-120.12-87.1-135.14-154.51c-3-13.48-6.01-48-4.58-53.62c1.58-7.26-4.11-35.26-12.01-57.48
		c-8.38-24-17.07-44-28.61-65.48c-18.49-34.52-20.23-52.88-6.48-67.85c6.95-7.7,15.96-12,27.34-12.89
		c10.75-1.04,14.54,1.63,17.23,11.7c4.58,16.74,15.49,44,21.97,54.66c23.71,39.26,72.71,70.66,114.75,73.48
		c29.87,1.93,58.95-6.52,86.61-25.18c14.23-9.63,32.4-16.59,49.47-19.11c28.61-4.15,62.12,5.18,101.63,28.29
		c21.81,12.89,29.87,13.48,35.56,2.67c7.43-14.37-3.16-25.78-34.77-37.48c-7.59-2.81-17.23-7.11-21.34-9.63
		c-22.6-13.48-38.25-42.96-42.36-79.85c-0.95-6.96-1.74-66.37-2.05-132.14l-0.47-119.55l3.64-3.41l3.64-3.41h91.67h91.83l3,3.56
		c2.84,3.26,3,7.7,3,136.88c0,89.77,0.63,136.43,1.74,142.66c1.26,6.96,3.32,11.26,7.74,16.89c6.95,8.89,23.87,43.7,32.09,66.66
		c10.59,29.18,12.49,41.63,12.64,87.4c0.32,45.18-0.32,50.07-10.91,79.85c-29.71,83.99-116.17,146.95-222.7,162.36
		C400.56,7519.03,355.83,7520.81,346.66,7519.62z M417,7495.92c61.01-9.93,107-31.55,147.94-69.48
		c31.45-29.18,49.31-58.81,59.11-97.62c3.64-14.52,6.64-42.96,5.53-52.44c-0.32-3.85-1.11-15.55-1.58-26.22
		c-0.79-21.48-4.74-39.4-13.91-62.96c-8.38-21.48-21.97-48.88-28.45-56.74c-11.85-14.52-12.17-17.78-12.17-163.54v-126.36h-76.82
		H420l0.95,111.4c0.47,61.33,1.26,116.29,1.58,121.92c1.9,24.74,12.33,50.22,25.13,62.07c6.95,6.22,8.85,7.26,31.45,15.85
		c29.24,11.11,44.1,26.66,44.26,46.07c0,5.63-1.11,11.85-2.85,15.7c-3.79,8.59-14.7,17.33-24.66,19.55
		c-13.28,2.96-20.39,0.59-51.05-16.74c-33.51-18.96-59.9-25.18-85.03-20.15c-12.64,2.52-21.02,6.37-39.99,18.22
		c-18.49,11.55-29.87,16.44-51.37,21.78c-19.12,4.89-49.16,4.89-67.17,0.15c-34.46-9.18-73.34-34.52-95.94-62.51
		c-10.43-12.89-23.23-37.18-29.87-56.59c-3.16-9.48-6.16-16-7.43-16c-1.11,0-3.79,1.78-6.16,4.15c-3.64,3.56-3.95,4.89-3.16,13.04
		c0.63,7.55,3,13.63,13.43,34.07c19.12,37.63,31.61,68.73,37.62,93.77c1.26,5.33,3,23.11,3.79,39.4
		c1.74,33.48,4.43,50.51,11.06,69.18c27.5,77.03,107.48,130.95,212.27,143.4C353.14,7500.22,399.3,7498.88,417,7495.92z"/>
	<path class="st0" d="M175.96,7152.54c-13.59-3.56-24.5-8.15-35.4-14.81c-19.28-11.7-23.08-16.44-43.31-53.03
		c-16.12-29.33-18.49-34.37-18.49-40.74c0-4.3,1.11-8.74,2.85-11.11c4.11-5.93,13.59-12.44,22.44-15.41l7.74-2.67l-4.58-4.89
		c-11.38-12-7.11-31.85,8.54-39.7l5.69-2.96v-20c0-18.67,0.32-20.74,4.11-27.85c5.06-9.48,14.86-17.18,27.03-21.33
		c8.69-2.81,11.54-2.96,55.32-2.37l45.99,0.74l0.95-4.44c0.47-2.37,0.95-18.22,0.95-35.11c0-29.33,0.16-30.81,3.32-33.48
		c3-2.52,6.64-2.81,44.57-3.26c44.89-0.44,48.84,0,51.53,7.11c1.74,5.04-0.47,144.28-3,178.21c-2.53,35.7-8.22,52.59-25.45,75.99
		c-21.34,28.74-61.96,58.37-94.68,68.88C218.95,7154.47,188.13,7155.65,175.96,7152.54z M222.59,7131.36
		c26.08-6.67,63.7-32.74,83.77-58.22c10.43-13.18,18.49-29.48,21.18-42.96c2.69-13.33,5.22-66.07,6.48-137.47l0.95-52.14l-28.92,0.3
		l-28.92,0.44l-0.16,27.4c0,30.22-1.11,35.55-8.69,42.37l-4.74,4.3l-52.79,0.74c-50.1,0.74-52.95,0.89-57.06,3.85
		c-10.43,7.26-10.91,8.89-10.43,33.92c0.32,13.78,0,23.85-1.11,25.63c-0.95,1.48-5.06,4.3-9.33,5.93
		c-13.28,5.33-13.91,9.04-3.16,17.04c11.54,8.3,15.49,12.74,15.49,16.89c0,7.11-3.79,10.37-13.91,12.3
		c-13.43,2.52-23.39,5.78-27.98,9.18l-4.11,2.96l16.91,30.52c17.7,32.29,21.5,37.18,35.4,45.92
		C173.59,7134.02,197.62,7137.73,222.59,7131.36z"/>
</g>
</svg>
