<?xml version="1.0" encoding="utf-8"?>
<!-- Generator: Adobe Illustrator 27.3.1, SVG Export Plug-In . SVG Version: 6.00 Build 0)  -->
<svg version="1.1" id="Layer_1" xmlns="http://www.w3.org/2000/svg" xmlns:xlink="http://www.w3.org/1999/xlink" x="0px" y="0px"
	 viewBox="0 0 752 752" style="enable-background:new 0 0 752 752;" xml:space="preserve">
<style type="text/css">
	.st0{fill:#FFFFFF;}
</style>
<rect x="-13" y="-13.7" width="776.5" height="776.5"/>
<g transform="translate(0.000000,752.000000) scale(0.100000,-0.100000)">
	<path class="st0" d="M3795,6124c-16-2-72-9-124-15c-184-21-415-89-601-176c-450-210-760-588-855-1043c-19-91-38-324-29-362
		c10-49-26-238-76-388c-53-162-108-297-181-442c-117-233-128-357-41-458c44-52,101-81,173-87c68-7,92,11,109,79
		c29,113,98,297,139,369c150,265,460,477,726,496c189,13,373-44,548-170c90-65,205-112,313-129c181-28,393,35,643,191
		c138,87,189,91,225,18c47-97-20-174-220-253c-48-19-109-48-135-65c-143-91-242-290-268-539c-6-47-11-448-13-892l-3-807l23-23l23-23
		h580h581l19,24c18,22,19,52,19,924c0,606,4,921,11,963c8,47,21,76,49,114c44,60,151,295,203,450c67,197,79,281,80,590
		c2,305-2,338-69,539c-188,567-735,992-1409,1096C4136,6120,3853,6132,3795,6124z M4240,5964c386-67,677-213,936-469
		c199-197,312-397,374-659c23-98,42-290,35-354c-2-26-7-105-10-177c-5-145-30-266-88-425c-53-145-139-330-180-383
		c-75-98-77-120-77-1104v-853h-486h-485l6,752c3,414,8,785,10,823c12,167,78,339,159,419c44,42,56,49,199,107
		c185,75,279,180,280,311c0,38-7,80-18,106c-24,58-93,117-156,132c-84,20-129,4-323-113c-212-128-379-170-538-136
		c-80,17-133,43-253,123c-117,78-189,111-325,147c-121,33-311,33-425,1c-218-62-464-233-607-422c-66-87-147-251-189-382
		c-20-64-39-108-47-108c-7,0-24,12-39,28c-23,24-25,33-20,88c4,51,19,92,85,230c121,254,200,464,238,633c8,36,19,156,24,266
		c11,226,28,341,70,467c174,520,680,884,1343,968C3836,5993,4128,5984,4240,5964z"/>
	<path class="st0" d="M2715,3646c-86-24-155-55-224-100c-122-79-146-111-274-358c-102-198-117-232-117-275c0-29,7-59,18-75
		c26-40,86-84,142-104l49-18l-29-33c-72-81-45-215,54-268l36-20v-135c0-126,2-140,26-188c32-64,94-116,171-144c55-19,73-20,350-16
		l291,5l6-30c3-16,6-123,6-237c0-198,1-208,21-226c19-17,42-19,282-22c284-3,309,0,326,48c11,34-3,974-19,1203
		c-16,241-52,355-161,513c-135,194-392,394-599,465C2987,3659,2792,3667,2715,3646z M3010,3503c165-45,403-221,530-393
		c66-89,117-199,134-290c17-90,33-446,41-928l6-352l-183,2l-183,3l-1,185c0,204-7,240-55,286l-30,29l-334,5c-317,5-335,6-361,26
		c-66,49-69,60-66,229c2,93,0,161-7,173c-6,10-32,29-59,40c-84,36-88,61-20,115c73,56,98,86,98,114c0,48-24,70-88,83
		c-85,17-148,39-177,62l-26,20l107,206c112,218,136,251,224,310C2700,3521,2852,3546,3010,3503z"/>
</g>
</svg>
