<?xml version="1.0" encoding="utf-8"?>
<!-- Generator: Adobe Illustrator 27.3.1, SVG Export Plug-In . SVG Version: 6.00 Build 0)  -->
<svg version="1.1" id="Layer_1" xmlns="http://www.w3.org/2000/svg" xmlns:xlink="http://www.w3.org/1999/xlink" x="0px" y="0px"
	 viewBox="0 0 70 70" style="enable-background:new 0 0 70 70;" xml:space="preserve">
<style type="text/css">
	.st0{fill:#FFFFFF;}
</style>
<g transform="translate(0.000000,752.000000) scale(0.100000,-0.100000)">
	<path class="st0" d="M343.82,7519.62c-2.5-0.3-11.23-1.33-19.34-2.22c-28.7-3.11-64.73-13.18-93.74-26.06
		c-70.19-31.09-118.54-87.06-133.36-154.43c-2.96-13.47-5.93-47.97-4.52-53.6c1.56-7.25-4.06-35.24-11.85-57.45
		c-8.27-23.99-16.85-43.98-28.23-65.45c-18.25-34.5-19.97-52.86-6.4-67.81c6.86-7.7,15.75-11.99,26.98-12.88
		c10.61-1.04,14.35,1.63,17,11.7c4.52,16.73,15.29,43.98,21.68,54.64c23.4,39.24,71.75,70.63,113.24,73.44
		c29.48,1.92,58.18-6.52,85.48-25.17c14.04-9.62,31.98-16.58,48.82-19.1c28.23-4.15,61.3,5.18,100.29,28.28
		c21.52,12.88,29.48,13.47,35.09,2.67c7.33-14.36-3.12-25.76-34.32-37.46c-7.49-2.81-17-7.11-21.06-9.62
		c-22.3-13.47-37.75-42.94-41.8-79.81c-0.94-6.96-1.72-66.33-2.03-132.08l-0.47-119.49l3.59-3.41l3.59-3.41h90.47h90.62l2.96,3.55
		c2.81,3.26,2.96,7.7,2.96,136.81c0,89.73,0.62,136.37,1.72,142.59c1.25,6.96,3.28,11.25,7.64,16.88
		c6.86,8.88,23.55,43.68,31.66,66.63c10.45,29.17,12.32,41.61,12.48,87.36c0.31,45.16-0.31,50.05-10.76,79.81
		c-29.32,83.95-114.64,146.88-219.77,162.28C397,7519.03,352.86,7520.81,343.82,7519.62z M413.23,7495.93
		c60.21-9.92,105.6-31.54,145.99-69.44c31.04-29.17,48.66-58.78,58.34-97.58c3.59-14.51,6.55-42.94,5.46-52.42
		c-0.31-3.85-1.09-15.55-1.56-26.21c-0.78-21.47-4.68-39.39-13.73-62.93c-8.27-21.47-21.68-48.86-28.08-56.71
		c-11.7-14.51-12.01-17.77-12.01-163.47v-126.3h-75.8h-75.65l0.94,111.35c0.47,61.3,1.25,116.23,1.56,121.86
		c1.87,24.73,12.17,50.19,24.8,62.04c6.86,6.22,8.73,7.25,31.04,15.84c28.86,11.1,43.52,26.65,43.67,46.05
		c0,5.63-1.09,11.85-2.81,15.69c-3.74,8.59-14.51,17.32-24.33,19.54c-13.1,2.96-20.12,0.59-50.38-16.73
		c-33.07-18.95-59.12-25.17-83.92-20.14c-12.48,2.52-20.74,6.37-39.46,18.21c-18.25,11.55-29.48,16.44-50.69,21.77
		c-18.87,4.89-48.51,4.89-66.29,0.15c-34-9.18-72.37-34.5-94.68-62.48c-10.29-12.88-22.93-37.16-29.48-56.56
		c-3.12-9.48-6.08-15.99-7.33-15.99c-1.09,0-3.74,1.78-6.08,4.15c-3.59,3.55-3.9,4.89-3.12,13.03c0.62,7.55,2.96,13.62,13.26,34.06
		c18.87,37.61,31.2,68.7,37.12,93.73c1.25,5.33,2.96,23.1,3.74,39.39c1.72,33.46,4.37,50.49,10.92,69.15
		c27.14,76.99,106.06,130.89,209.48,143.33C350.21,7500.22,395.76,7498.89,413.23,7495.93z"/>
	<path class="st0" d="M175.36,7152.71c-13.41-3.55-24.18-8.14-34.94-14.81c-19.03-11.7-22.77-16.44-42.74-53.01
		c-15.91-29.32-18.25-34.35-18.25-40.72c0-4.29,1.09-8.74,2.81-11.1c4.06-5.92,13.41-12.44,22.15-15.4l7.64-2.67l-4.52-4.89
		c-11.23-11.99-7.02-31.83,8.42-39.68l5.62-2.96v-19.99c0-18.66,0.31-20.73,4.06-27.84c4.99-9.48,14.66-17.18,26.67-21.32
		c8.58-2.81,11.39-2.96,54.59-2.37l45.39,0.74l0.94-4.44c0.47-2.37,0.94-18.21,0.94-35.09c0-29.32,0.16-30.8,3.28-33.46
		c2.96-2.52,6.55-2.81,43.99-3.26c44.3-0.44,48.2,0,50.85,7.11c1.72,5.03-0.47,144.22-2.96,178.12
		c-2.5,35.68-8.11,52.56-25.11,75.96c-21.06,28.73-61.14,58.34-93.43,68.85C217.79,7154.64,187.37,7155.82,175.36,7152.71z
		 M221.37,7131.54c25.74-6.66,62.86-32.72,82.67-58.19c10.29-13.18,18.25-29.47,20.9-42.94c2.65-13.33,5.15-66.04,6.4-137.41
		l0.94-52.12l-28.54,0.3l-28.54,0.44l-0.16,27.39c0,30.21-1.09,35.54-8.58,42.35l-4.68,4.29l-52.1,0.74
		c-49.44,0.74-52.25,0.89-56.31,3.85c-10.29,7.26-10.76,8.88-10.29,33.91c0.31,13.77,0,23.84-1.09,25.62
		c-0.94,1.48-4.99,4.29-9.2,5.92c-13.1,5.33-13.73,9.03-3.12,17.03c11.39,8.29,15.29,12.73,15.29,16.88
		c0,7.11-3.74,10.36-13.73,12.29c-13.26,2.52-23.08,5.77-27.61,9.18l-4.06,2.96l16.69,30.5c17.47,32.28,21.21,37.16,34.94,45.9
		C173.02,7134.2,196.73,7137.91,221.37,7131.54z"/>
</g>
</svg>
