<?xml version="1.0" encoding="utf-8"?>
<!-- Generator: Adobe Illustrator 27.3.1, SVG Export Plug-In . SVG Version: 6.00 Build 0)  -->
<svg version="1.1" id="Layer_1" xmlns="http://www.w3.org/2000/svg" xmlns:xlink="http://www.w3.org/1999/xlink" x="0px" y="0px"
	 viewBox="0 0 752 752" style="enable-background:new 0 0 752 752;" xml:space="preserve">
<style type="text/css">
	.st0{fill:#FFFFFF;}
</style>
<rect x="-18" y="-12.7" width="790" height="782"/>
<g transform="translate(0.000000,752.000000) scale(0.100000,-0.100000)">
	<path class="st0" d="M2516,5879c-193-46-328-247-296-444c18-109,46-148,327-457c1560-1712,1694-1858,1731-1867c65-17,127-30,221-45
		l92-15l64-68c35-37,64-73,65-80c0-6-16-48-35-93s-35-94-35-109c0-49,415-528,578-667c131-112,276-169,495-193c125-14,303-13,347,2
		c39,13,65,55,56,91c-3,12-243,283-534,602l-529,579l20,30c32,45,34,137,5,197c-16,32-370,427-1093,1220
		c-588,645-1089,1192-1112,1215C2792,5869,2646,5909,2516,5879z M2680,5714c45-13,66-29,128-92c40-43,84-91,98-108l24-31l-92-236
		c-51-130-95-237-98-237c-12,0-317,345-338,383c-20,35-23,53-20,114c3,60,8,78,33,114c36,50,68,75,121,94
		C2587,5734,2615,5733,2680,5714z M3273,5114l156-171l-95-241l-96-241l-188,206l-188,206l27,66c15,36,58,144,96,240l67,173l33-33
		C3102,5300,3187,5208,3273,5114z M4215,4080c781-857,737-807,733-834c-9-62-267-59-565,6l-52,11l-483,529c-266,291-483,534-483,539
		c0,16,180,469,186,469C3555,4800,3853,4476,4215,4080z M5384,2523c262-288,476-526,476-529c0-12-227,20-310,43
		c-99,28-165,69-266,165c-96,93-241,251-387,424l-76,92l39,91c22,51,40,103,40,117c0,15-16,42-41,69l-40,44l33,4c18,2,38,4,44,3
		S5122,2810,5384,2523z"/>
	<path class="st0" d="M1421,1773c-11-10-24-32-27-50c-5-27-1-37,24-63l30-30h1657h1657l30,30c25,26,29,36,24,63c-3,18-16,40-27,50
		c-20,16-115,17-1684,17S1441,1789,1421,1773z"/>
</g>
</svg>
