<?xml version="1.0" encoding="utf-8"?>
<!-- Generator: Adobe Illustrator 27.3.1, SVG Export Plug-In . SVG Version: 6.00 Build 0)  -->
<svg version="1.1" id="Layer_1" xmlns="http://www.w3.org/2000/svg" xmlns:xlink="http://www.w3.org/1999/xlink" x="0px" y="0px"
	 viewBox="0 0 70 70" style="enable-background:new 0 0 70 70;" xml:space="preserve">
<style type="text/css">
	.st0{fill:#FFFFFF;}
</style>
<g transform="translate(0.000000,752.000000) scale(0.100000,-0.100000)">
	<path class="st0" d="M167.7,7477.04c-28.36-6.76-48.2-36.3-43.5-65.25c2.65-16.02,6.76-21.75,48.05-67.16
		c229.24-251.58,248.93-273.03,254.37-274.35c9.55-2.5,18.66-4.41,32.48-6.61l13.52-2.2l9.4-9.99c5.14-5.44,9.4-10.73,9.55-11.76
		c0-0.88-2.35-7.05-5.14-13.67c-2.79-6.61-5.14-13.81-5.14-16.02c0-7.2,60.98-77.59,84.94-98.01
		c19.25-16.46,40.56-24.83,72.74-28.36c18.37-2.06,44.53-1.91,50.99,0.29c5.73,1.91,9.55,8.08,8.23,13.37
		c-0.44,1.76-35.71,41.59-78.47,88.46l-77.74,85.08l2.94,4.41c4.7,6.61,5,20.13,0.73,28.95c-2.35,4.7-54.37,62.75-160.61,179.28
		c-86.41,94.78-160.03,175.16-163.41,178.54C208.25,7475.57,186.8,7481.45,167.7,7477.04z M191.8,7452.79
		c6.61-1.91,9.7-4.26,18.81-13.52c5.88-6.32,12.34-13.37,14.4-15.87l3.53-4.56l-13.52-34.68c-7.49-19.1-13.96-34.83-14.4-34.83
		c-1.76,0-46.58,50.7-49.67,56.28c-2.94,5.14-3.38,7.79-2.94,16.75c0.44,8.82,1.18,11.46,4.85,16.75
		c5.29,7.35,9.99,11.02,17.78,13.81C178.13,7455.73,182.25,7455.58,191.8,7452.79z M278.94,7364.62l22.92-25.13l-13.96-35.41
		l-14.11-35.41l-27.63,30.27l-27.63,30.27l3.97,9.7c2.2,5.29,8.52,21.16,14.11,35.27l9.85,25.42l4.85-4.85
		C253.81,7391.95,266.3,7378.43,278.94,7364.62z M417.36,7212.68c114.77-125.94,108.3-118.59,107.71-122.56
		c-1.32-9.11-39.24-8.67-83.03,0.88l-7.64,1.62l-70.98,77.74c-39.09,42.76-70.98,78.47-70.98,79.21c0,2.35,26.45,68.92,27.33,68.92
		C320.38,7318.48,364.17,7270.87,417.36,7212.68z M589.15,6983.88c38.5-42.32,69.95-77.29,69.95-77.74c0-1.76-33.36,2.94-45.55,6.32
		c-14.55,4.11-24.25,10.14-39.09,24.25c-14.11,13.67-35.41,36.88-56.87,62.31l-11.17,13.52l5.73,13.37
		c3.23,7.49,5.88,15.14,5.88,17.19c0,2.2-2.35,6.17-6.02,10.14l-5.88,6.47l4.85,0.59c2.65,0.29,5.58,0.59,6.47,0.44
		C518.32,7060.58,550.65,7026.05,589.15,6983.88z"/>
	<path class="st0" d="M6.79,6873.67c-1.62-1.47-3.53-4.7-3.97-7.35c-0.73-3.97-0.15-5.44,3.53-9.26l4.41-4.41h243.49h243.49
		l4.41,4.41c3.67,3.82,4.26,5.29,3.53,9.26c-0.44,2.65-2.35,5.88-3.97,7.35c-2.94,2.35-16.9,2.5-247.46,2.5
		S9.73,6876.02,6.79,6873.67z"/>
</g>
</svg>
