<?xml version="1.0" encoding="utf-8"?>
<!-- Generator: Adobe Illustrator 27.3.1, SVG Export Plug-In . SVG Version: 6.00 Build 0)  -->
<svg version="1.1" id="Layer_1" xmlns="http://www.w3.org/2000/svg" xmlns:xlink="http://www.w3.org/1999/xlink" x="0px" y="0px"
	 viewBox="0 0 70 70" style="enable-background:new 0 0 70 70;" xml:space="preserve">
<style type="text/css">
	.st0{fill:#79ADDD;}
</style>
<g transform="translate(0.000000,752.000000) scale(0.100000,-0.100000)">
	<path class="st0" d="M166.13,7483.31c-28.53-6.8-48.48-36.51-43.75-65.63c2.66-16.11,6.8-21.88,48.34-67.55
		c230.59-253.06,250.4-274.64,255.87-275.97c9.61-2.51,18.77-4.43,32.67-6.65l13.6-2.22l9.46-10.05c5.17-5.47,9.46-10.79,9.61-11.83
		c0-0.89-2.37-7.1-5.17-13.75c-2.81-6.65-5.17-13.89-5.17-16.11c0-7.24,61.34-78.05,85.44-98.59c19.36-16.56,40.8-24.98,73.17-28.53
		c18.48-2.07,44.79-1.92,51.29,0.3c5.76,1.92,9.61,8.13,8.28,13.45c-0.44,1.77-35.92,41.83-78.93,88.98l-78.19,85.58l2.96,4.43
		c4.73,6.65,5.03,20.25,0.74,29.12c-2.36,4.73-54.69,63.12-161.56,180.33c-86.91,95.34-160.97,176.19-164.37,179.59
		C206.92,7481.83,185.34,7487.74,166.13,7483.31z M190.37,7458.92c6.65-1.92,9.76-4.29,18.92-13.6
		c5.91-6.36,12.42-13.45,14.49-15.96l3.55-4.58l-13.6-34.88c-7.54-19.22-14.04-35.03-14.49-35.03c-1.77,0-46.86,51-49.96,56.61
		c-2.96,5.17-3.4,7.83-2.96,16.85c0.44,8.87,1.18,11.53,4.88,16.85c5.32,7.39,10.05,11.09,17.89,13.89
		C176.62,7461.87,180.76,7461.72,190.37,7458.92z M278.02,7370.23l23.06-25.28l-14.04-35.62l-14.19-35.62l-27.79,30.45l-27.79,30.45
		l3.99,9.76c2.22,5.32,8.57,21.29,14.19,35.48l9.9,25.57l4.88-4.88C252.74,7397.72,265.31,7384.12,278.02,7370.23z M417.26,7217.39
		c115.44-126.68,108.94-119.29,108.35-123.28c-1.33-9.16-39.47-8.72-83.52,0.89l-7.69,1.63l-71.39,78.19
		c-39.32,43.01-71.39,78.93-71.39,79.67c0,2.37,26.61,69.33,27.49,69.33C319.7,7323.81,363.75,7275.92,417.26,7217.39z
		 M590.06,6987.24c38.73-42.57,70.36-77.75,70.36-78.19c0-1.77-33.55,2.96-45.82,6.36c-14.63,4.14-24.39,10.2-39.32,24.39
		c-14.19,13.75-35.62,37.1-57.2,62.67l-11.23,13.6l5.76,13.45c3.25,7.54,5.91,15.22,5.91,17.29c0,2.22-2.36,6.21-6.06,10.2
		l-5.91,6.5l4.88,0.59c2.66,0.3,5.62,0.59,6.5,0.44C518.81,7064.4,551.33,7029.66,590.06,6987.24z"/>
	<path class="st0" d="M4.27,6876.38c-1.63-1.48-3.55-4.73-3.99-7.39c-0.74-3.99-0.15-5.47,3.55-9.31l4.43-4.43h244.93h244.93
		l4.43,4.43c3.7,3.84,4.29,5.32,3.55,9.31c-0.44,2.66-2.37,5.91-3.99,7.39c-2.96,2.36-17,2.51-248.92,2.51
		S7.23,6878.74,4.27,6876.38z"/>
</g>
</svg>
