<svg width="60" height="60" viewBox="0 0 60 60" fill="none" xmlns="http://www.w3.org/2000/svg">
<path d="M36.9532 11.8442C36.7026 11.8442 36.4557 11.7416 36.281 11.5555C36.1443 11.4112 36.0684 11.2555 35.9355 10.9935C35.7152 10.5568 35.3089 9.74795 34.4658 8.68086C34.1203 8.24036 33.9836 8.09605 33.8886 8.00111C33.8317 7.94415 33.7026 7.82263 33.5165 7.67833C33.319 7.8796 33.1026 8.05808 32.8671 8.20618C31.9785 8.76061 31.0899 8.73782 30.4405 8.72263H30.395C30.376 8.72263 28.3899 8.67706 26.2671 8.82516L26.1646 8.83276C25.4545 8.88213 24.7823 8.9277 24.2696 9.20111C23.7988 9.45175 23.5064 10.0138 23.3203 11.0163C23.2671 11.2973 23.1152 11.5366 22.8912 11.6847C22.6785 11.8252 22.4127 11.8745 22.162 11.8214C22.0064 11.7872 21.7747 11.6961 21.5924 11.4492C21.1671 10.8834 21.0874 10.1467 21.0266 9.60744L21.0228 9.58846C20.9393 8.83656 20.7798 7.00998 21.0836 6.28846C21.2431 5.90491 21.7291 4.90618 22.7393 3.92643C24.7177 2.01251 27.9722 1.26061 28.6026 1.13149C29.8367 0.877064 31.0177 0.785925 32.1114 0.861874C32.8823 0.915039 33.5355 1.01377 34.1051 1.15808C34.8836 1.35554 35.4988 1.74289 35.8785 2.27453C36.076 2.54795 36.1937 2.82517 36.2962 3.072C36.3874 3.28466 36.4671 3.47073 36.5658 3.57706C36.714 3.73656 36.9228 3.88466 37.1431 4.04035C37.3937 4.21884 37.6823 4.4239 37.9405 4.68972C38.5709 5.33529 39.2886 6.41757 39.3988 7.51884C39.5013 8.55554 39.057 9.44415 38.6583 10.1049C38.6127 10.1809 38.3962 10.5188 38.1798 10.834C37.7734 11.4302 37.5266 11.791 37.0405 11.8404C37.0177 11.8404 36.9874 11.8442 36.9532 11.8442ZM33.3304 5.58592C33.7291 5.58592 34.0595 5.81757 34.2494 5.95048L34.2684 5.96187C34.7089 6.26567 35.0203 6.55428 35.1684 6.69858C35.3279 6.85428 35.5139 7.05934 35.9013 7.55301C36.4177 8.20618 36.7899 8.7758 37.0595 9.23909C37.0823 9.20491 37.0975 9.17833 37.1127 9.15555C37.4886 8.53656 37.6367 8.08846 37.5988 7.69732C37.5494 7.19225 37.1583 6.47833 36.6532 5.96187C36.5051 5.80998 36.3076 5.66947 36.0988 5.52137C35.8291 5.3277 35.5215 5.11124 35.2481 4.81884C34.9291 4.47706 34.762 4.09352 34.6329 3.78213C34.557 3.59985 34.4886 3.44415 34.4089 3.33023C34.2836 3.15554 34.0215 3.01124 33.6684 2.9201C33.2013 2.80238 32.6545 2.72263 31.9937 2.67706C31.0671 2.61251 30.0532 2.69225 28.9823 2.9163C27.4747 3.2277 25.2684 4.02516 24.0152 5.23656C23.2519 5.97706 22.8874 6.72516 22.781 6.9682C22.7507 7.08972 22.7241 7.46567 22.7431 8.07327C22.9367 7.88719 23.157 7.7239 23.4152 7.58719C24.2772 7.1277 25.2152 7.06314 26.0469 7.00618L26.1456 6.99858C28.3519 6.84668 30.357 6.89225 30.4405 6.89225H30.4861C31.0177 6.90365 31.4772 6.91504 31.9026 6.65301C32.1228 6.5163 32.3127 6.31504 32.4684 6.06441C32.6089 5.83276 32.8443 5.66567 33.1102 5.60491C33.1861 5.59352 33.2583 5.58592 33.3304 5.58592ZM34.0367 7.00238C34.0367 7.00618 34.0329 7.00618 34.0329 7.00998C34.0329 7.00618 34.0329 7.00618 34.0367 7.00238Z" fill="#6BB1FC"/>
<path d="M30.0797 23.0703C29.6127 23.0703 29.081 23.0247 28.5076 22.8994C27.9949 22.7855 26.6696 22.4095 25.3633 21.3425C24.7405 20.8298 23.5937 19.7019 22.9443 17.8944C22.7848 17.4538 22.6785 16.9868 22.6101 16.6336C21.5734 16.1285 20.7797 15.1184 20.5177 13.9298C20.2139 12.5589 20.6772 11.2184 21.7899 10.2462C22.1696 9.91587 22.743 9.95384 23.0772 10.3336C23.4076 10.7133 23.3696 11.2868 22.9899 11.6209C22.219 12.2931 22.1886 13.0336 22.2987 13.5349C22.462 14.2678 23.0278 14.9095 23.681 15.0994C24.0266 15.1981 24.281 15.4943 24.3304 15.8513C24.3797 16.2197 24.4975 16.8121 24.6646 17.2754C25.1848 18.726 26.138 19.6146 26.5253 19.9298C27.5241 20.7462 28.5228 21.0311 28.9063 21.1184C29.9962 21.3576 30.8924 21.2019 31.2266 21.1222C32.1418 20.9057 32.7608 20.4804 33.0266 20.2981C33.2165 20.1652 33.7177 19.7969 34.2266 19.1931C34.9671 18.3197 35.5101 17.1235 35.8063 15.7374C35.8861 15.3728 36.1785 15.0918 36.5468 15.0273C36.9418 14.9589 37.4241 14.264 37.4886 13.3716C37.5152 12.9842 37.4924 12.0614 36.6722 11.7956C36.1937 11.6399 35.9279 11.1273 36.0835 10.6488C36.2392 10.1703 36.7519 9.90448 37.2304 10.0602C37.9823 10.3032 38.5709 10.8007 38.9316 11.4994C39.2278 12.0766 39.3608 12.7678 39.3076 13.5007C39.2165 14.7462 38.5671 16.0943 37.4696 16.626C37.0899 18.1032 36.4671 19.3602 35.6203 20.3665C34.9899 21.1108 34.3709 21.5817 34.0595 21.7981C33.7405 22.0184 32.8937 22.5994 31.6481 22.8956C31.3025 22.9754 30.7595 23.0703 30.0797 23.0703ZM51.8848 59.1652H8.11519C7.61013 59.1652 7.2038 58.7589 7.2038 58.2538V31.7247C7.2038 31.2197 7.61013 30.8133 8.11519 30.8133H51.8848C52.3899 30.8133 52.7962 31.2197 52.7962 31.7247V58.2538C52.7962 58.7589 52.3899 59.1652 51.8848 59.1652ZM9.02658 57.3424H50.9734V32.6361H9.02658V57.3424Z" fill="#6BB1FC"/>
<path d="M30 56.9809C29.495 56.9809 29.0886 56.5745 29.0886 56.0695V31.7239C29.0886 31.2188 29.495 30.8125 30 30.8125C30.5051 30.8125 30.9114 31.2188 30.9114 31.7239V56.0695C30.9114 56.5745 30.5051 56.9809 30 56.9809Z" fill="#6BB1FC"/>
<path d="M37.4355 37.693H22.5646C22.3215 37.693 22.0899 37.598 21.919 37.4271L20.457 35.9613C20.1 35.6044 20.1 35.0271 20.457 34.674C20.8139 34.3208 21.3912 34.317 21.7443 34.674L22.9405 35.8702H37.0595L38.2557 34.674C38.6127 34.317 39.1899 34.317 39.5431 34.674C39.9 35.0309 39.9 35.6081 39.5431 35.9613L38.081 37.4233C37.9102 37.5942 37.6785 37.693 37.4355 37.693ZM38.6924 42.1854H21.3076C21.0646 42.1854 20.8329 42.0904 20.662 41.9195L19.2 40.4575C18.8431 40.1006 18.8431 39.5233 19.2 39.1702C19.557 38.817 20.1342 38.8132 20.4874 39.1702L21.6836 40.3664H38.3165L39.5127 39.1702C39.8696 38.8132 40.4469 38.8132 40.8 39.1702C41.157 39.5271 41.157 40.1044 40.8 40.4575L39.338 41.9195C39.1671 42.0904 38.9355 42.1854 38.6924 42.1854ZM39.3 46.6816H20.7C20.457 46.6816 20.2253 46.5866 20.0545 46.4157L18.5924 44.9537C18.2355 44.5968 18.2355 44.0195 18.5924 43.6664C18.9494 43.3132 19.5266 43.3094 19.8798 43.6664L21.076 44.8626H38.9241L40.1203 43.6664C40.4772 43.3094 41.0545 43.3094 41.4076 43.6664C41.7646 44.0233 41.7646 44.6006 41.4076 44.9537L39.9456 46.4157C39.7747 46.5828 39.5431 46.6816 39.3 46.6816ZM38.2747 51.174H21.7253C21.4823 51.174 21.2507 51.079 21.0798 50.9081L19.6177 49.4461C19.2608 49.0892 19.2608 48.5119 19.6177 48.1588C19.9747 47.8056 20.5519 47.8018 20.9051 48.1588L22.1013 49.355H37.895L39.0912 48.1588C39.4481 47.8018 40.0253 47.8018 40.3785 48.1588C40.7355 48.5157 40.7355 49.093 40.3785 49.4461L38.9165 50.9081C38.7494 51.079 38.5177 51.174 38.2747 51.174ZM32.1836 59.1638C30.4785 59.1638 29.0886 57.774 29.0886 56.0689C29.0886 54.3638 30.4785 52.974 32.1836 52.974C33.8886 52.974 35.2785 54.3638 35.2785 56.0689C35.2785 57.774 33.8886 59.1638 32.1836 59.1638ZM32.1836 54.7968C31.481 54.7968 30.9114 55.3664 30.9114 56.0689C30.9114 56.7714 31.481 57.3411 32.1836 57.3411C32.8861 57.3411 33.4557 56.7714 33.4557 56.0689C33.4557 55.3664 32.8861 54.7968 32.1836 54.7968Z" fill="#6BB1FC"/>
<path d="M27.8164 59.1636C26.1114 59.1636 24.7215 57.7738 24.7215 56.0687C24.7215 54.3636 26.1114 52.9738 27.8164 52.9738C29.5215 52.9738 30.9114 54.3636 30.9114 56.0687C30.9114 57.7738 29.5215 59.1636 27.8164 59.1636ZM27.8164 54.7966C27.1139 54.7966 26.5443 55.3662 26.5443 56.0687C26.5443 56.7712 27.1139 57.3409 27.8164 57.3409C28.519 57.3409 29.0886 56.7712 29.0886 56.0687C29.0886 55.3662 28.519 54.7966 27.8164 54.7966ZM14.1797 32.6345C14.0886 32.6345 13.9937 32.6193 13.8987 32.589C13.4202 32.4333 13.1544 31.9206 13.3101 31.4421C14.0506 29.1409 15.3531 27.2155 17.081 25.875C18.9304 24.4396 21.2126 23.7371 23.681 23.832L25.3481 23.8282C25.5531 23.2928 25.6709 22.7383 25.6861 22.2523C25.6937 21.9257 25.6519 21.7814 25.5797 21.5231C25.5569 21.4472 25.5342 21.3636 25.5114 21.2687C25.3861 20.7826 25.6785 20.2852 26.1683 20.1598C26.6544 20.0345 27.1519 20.3269 27.2772 20.8168C27.2962 20.889 27.3152 20.9573 27.3342 21.0295C27.4253 21.3447 27.524 21.7016 27.5088 22.3054C27.4785 23.5358 27.0266 24.6143 26.7607 25.1497C26.6088 25.4611 26.2899 25.6548 25.9443 25.6548L23.6658 25.6586H23.6278C19.5835 25.4915 16.3785 27.8611 15.0456 32.0004C14.924 32.3877 14.5671 32.6345 14.1797 32.6345ZM45.8202 32.6345C45.4367 32.6345 45.0759 32.3877 44.9544 32.0004C43.6253 27.8611 40.4164 25.4915 36.3721 25.6586H36.3342L34.0557 25.6548C33.7101 25.6548 33.3949 25.4573 33.2392 25.1497C32.9734 24.6143 32.5253 23.5358 32.4911 22.3054C32.4759 21.7016 32.5785 21.3447 32.6658 21.0295C32.6848 20.9573 32.7038 20.8928 32.7228 20.8168C32.8481 20.3307 33.3456 20.0345 33.8316 20.1598C34.3177 20.2852 34.6139 20.7826 34.4886 21.2687C34.4658 21.3636 34.4392 21.4472 34.4202 21.5231C34.3443 21.7852 34.3063 21.9295 34.3139 22.256C34.3253 22.7421 34.4468 23.2966 34.6519 23.832L36.319 23.8358C38.7873 23.7371 41.0696 24.4434 42.919 25.8788C44.6468 27.2193 45.9494 29.1409 46.6899 31.4459C46.8456 31.9244 46.5797 32.4371 46.1012 32.5928C46.0063 32.6193 45.9114 32.6345 45.8202 32.6345Z" fill="#6BB1FC"/>
</svg>
