<svg width="60" height="60" viewBox="0 0 60 60" fill="none" xmlns="http://www.w3.org/2000/svg">
<path d="M52.5297 34.1055C53.1769 34.1055 53.7015 33.5808 53.7015 32.9336C53.7015 32.2864 53.1769 31.7617 52.5297 31.7617C51.8825 31.7617 51.3578 32.2864 51.3578 32.9336C51.3578 33.5808 51.8825 34.1055 52.5297 34.1055Z" fill="#6BB1FC"/>
<path d="M32.1433 17.5214C32.6742 17.8941 33.4065 17.7657 33.779 17.2348L37.3356 12.1673L43.3317 23.3042C43.4313 23.4892 43.5787 23.644 43.7585 23.7526C43.9384 23.8612 44.144 23.9196 44.3541 23.9217H44.3656C44.789 23.9217 45.18 23.6935 45.3884 23.3243L55.24 5.85253L55.6143 8.02015C55.7129 8.59156 56.2091 8.9948 56.77 8.99468C56.8363 8.99468 56.9036 8.98906 56.9712 8.97734C57.6102 8.86695 58.0388 8.25945 57.9284 7.62043L57.0147 2.32976C56.9858 2.16253 56.921 2.00355 56.8247 1.86376C56.7285 1.72398 56.6031 1.60673 56.4571 1.52007C56.3112 1.43342 56.1482 1.37942 55.9795 1.36181C55.8107 1.3442 55.6401 1.36338 55.4794 1.41804L50.3964 3.14761C49.7824 3.35644 49.4542 4.02347 49.6631 4.63742C49.8721 5.25148 50.5393 5.57972 51.1529 5.37078L53.2104 4.6707L44.3893 20.3149L38.5014 9.37882C38.4064 9.20249 38.268 9.05338 38.0991 8.94565C37.9303 8.83793 37.7367 8.77517 37.5368 8.76336C37.3368 8.7513 37.1371 8.79072 36.9567 8.87783C36.7763 8.96494 36.6213 9.09684 36.5064 9.26093L31.8566 15.8858C31.4841 16.4165 31.6124 17.1488 32.1433 17.5214Z" fill="#6BB1FC"/>
<path d="M60 16.8109C60 16.1624 59.4743 15.6367 58.8258 15.6367H52.5296C51.8812 15.6367 51.3554 16.1624 51.3554 16.8109V27.6781C51.3554 28.3266 51.8811 28.8523 52.5296 28.8523C53.1782 28.8523 53.7039 28.3266 53.7039 27.6781V17.9852H57.6517V51.6352H53.7039V38.1771C53.7039 37.5286 53.1782 37.0029 52.5296 37.0029C51.8811 37.0029 51.3554 37.5286 51.3554 38.1771V51.6351H48.6879V28.9982C48.6879 28.3497 48.1622 27.824 47.5137 27.824H41.2174C40.569 27.824 40.0432 28.3497 40.0432 28.9982V51.6352H37.3898V22.1236C37.3898 21.4751 36.8641 20.9494 36.2156 20.9494H29.9194C29.271 20.9494 28.7452 21.4751 28.7452 22.1236V31.5371C25.7398 28.0782 21.3107 25.8876 16.3794 25.8876C7.34789 25.8876 0 33.2355 0 42.2672C0 51.299 7.34789 58.6469 16.3796 58.6469C20.8239 58.6469 24.8596 56.8669 27.8135 53.9835H58.8258C59.4742 53.9835 60 53.4578 60 52.8093C60 52.7671 59.9975 52.7255 59.9932 52.6845C59.9975 52.6435 60 52.6019 60 52.5597V16.8109ZM42.3916 30.1723H46.3396V51.6352H42.3916V30.1723ZM31.0937 23.2979H35.0416V51.6352H29.8082C31.667 48.9787 32.7594 45.7484 32.7594 42.2672C32.7594 39.6887 32.1598 37.2481 31.0938 35.0759V23.2979H31.0937ZM17.5539 56.249V54.3143C17.5539 53.6658 17.0282 53.1401 16.3796 53.1401C15.7311 53.1401 15.2054 53.6658 15.2054 54.3143V56.249C8.40328 55.6827 2.96414 50.2436 2.39789 43.4414H4.33254C4.98094 43.4414 5.50676 42.9157 5.50676 42.2672C5.50676 41.6187 4.98105 41.093 4.33254 41.093H2.39789C2.96414 34.2907 8.40328 28.8517 15.2054 28.2855V30.2201C15.2054 30.8686 15.7311 31.3943 16.3796 31.3943C17.0282 31.3943 17.5539 30.8686 17.5539 30.2201V28.2855C24.3561 28.8517 29.7952 34.2909 30.3614 41.093H28.4268C27.7784 41.093 27.2525 41.6187 27.2525 42.2672C27.2525 42.9157 27.7782 43.4414 28.4268 43.4414H30.3614C29.7952 50.2436 24.356 55.6827 17.5539 56.249Z" fill="#6BB1FC"/>
<path d="M22.26 41.0924H17.5538V35.3266C17.5538 34.678 17.0281 34.1523 16.3795 34.1523C15.731 34.1523 15.2053 34.678 15.2053 35.3266V42.2666C15.2053 42.9152 15.731 43.4409 16.3795 43.4409H22.2599C22.9083 43.4409 23.4341 42.9152 23.4341 42.2666C23.4341 41.6181 22.9084 41.0924 22.26 41.0924Z" fill="#6BB1FC"/>
</svg>
