<?xml version="1.0" encoding="utf-8"?>
<!-- Generator: Adobe Illustrator 27.3.1, SVG Export Plug-In . SVG Version: 6.00 Build 0)  -->
<svg version="1.1" id="Layer_1" xmlns="http://www.w3.org/2000/svg" xmlns:xlink="http://www.w3.org/1999/xlink" x="0px" y="0px"
	 viewBox="0 0 70 70" style="enable-background:new 0 0 70 70;" xml:space="preserve">
<style type="text/css">
	.st0{fill:#79ADDD;stroke:#79ADDD;stroke-width:0.3;stroke-miterlimit:1;}
</style>
<g transform="translate(0.000000,752.000000) scale(0.100000,-0.100000)">
	<path class="st0" d="M295.35,7517.73c-37.82-3.12-81.56-17.1-113.13-36.01c-61.17-36.83-99.97-91.42-113.29-159.33
		c-4.6-23.68-4.93-62.48-0.66-88.63c8.39-51.3,30.91-107.86,61.66-155.22c6.41-9.87,13.48-22.53,15.78-28.28
		c6.58-16.94,12-41.44,13.98-63.3c4.11-45.55-6.74-101.94-28.61-148.15c-3.95-8.22-6.74-15.95-6.08-16.94
		c0.82-1.15,42.09-1.81,143.05-1.81c78.1-0.16,142.23,0,142.39,0.33c0.33,0.33,1.81,10.52,3.29,22.69
		c1.48,12.17,3.62,25.16,4.6,28.77c2.63,9.37,14.8,21.05,25.49,24.5c18.58,6.25,51.3,6.25,89.28,0c22.69-3.78,48.67-3.78,61.5,0
		c11.51,3.29,24.83,11.84,30.42,19.4c4.93,6.74,6.25,22.2,3.29,40.12l-1.97,12.33l6.08,8.88c11.35,17.1,12.33,23.02,6.25,34.69
		c-2.47,4.77-2.47,5.43,1.81,12.5c5.92,10.19,5.43,15.95-2.3,28.77c-3.62,6.08-6.58,12-6.58,13.32c0,1.15,2.47,4.11,5.43,6.58
		c11.18,9.21,27.95,25.98,30.09,30.25c3.45,6.58,0.49,12.33-15.29,31.08c-26.31,31.08-32.39,40.94-37.49,60.84
		c-3.62,13.65-5.43,43.24-4.11,64.78c2.47,39.79-7.4,90.43-24.5,126.28c-14.47,30.25-39.13,59.85-65.94,79.25
		c-49,35.19-116.91,53.93-192.21,53.11C313.44,7518.38,298.97,7518.06,295.35,7517.73z M388.09,7506.55
		c61-8.55,113.62-32.23,147.98-66.43c17.59-17.43,28.28-32.39,39.63-55.25c19.07-38.48,24.66-67.58,25.32-132.36
		c0.49-39.63,0.99-46.86,4.11-58.86c5.75-22.36,15.46-38.48,40.45-66.1c6.08-6.74,12-14.14,13.15-16.61
		c2.14-4.11,1.97-4.77-3.12-10.69c-2.96-3.62-11.84-11.51-19.73-17.76c-7.73-6.25-14.14-12.17-14.14-12.83
		c0-2.79,7.23-18.58,11.02-24.33c4.93-7.4,4.77-10.36-1.15-20.06c-5.92-9.37-5.92-10.19-1.64-15.62c5.59-7.07,4.28-14.63-4.6-28.12
		l-8.06-11.84l2.14-11.18c1.15-6.08,2.14-16.44,2.3-23.18v-12.17l-7.23-7.07c-16.11-15.29-37-18.25-83.86-11.35
		c-26.14,3.78-34.86,4.28-54.26,3.62c-14.96-0.49-26.14-1.64-31.73-3.45c-16.94-5.43-30.58-18.09-34.86-32.23
		c-0.82-3.12-2.47-12.83-3.45-21.38c-0.99-8.55-2.14-17.26-2.63-19.24l-0.66-3.78H269.04H135.2l5.75,12.5
		c16.44,36.01,25.16,74.32,26.47,115.76c0.99,31.73-0.66,48.83-6.91,72.84c-5.92,22.69-10.69,33.38-23.68,53.11
		c-13.48,20.39-34.86,62.81-43.57,86.32c-13.81,37.49-19.73,70.54-19.73,108.36c0,50.48,10.52,86.82,36.01,125.13
		c40.45,60.84,110,100.46,186.62,106.71C320.01,7510.99,365.56,7509.67,388.09,7506.55z"/>
	<path class="st0" d="M313.44,7461.33c-56.56-5.75-90.6-17.26-122.83-41.44c-35.52-26.97-60.34-70.7-69.55-122.99
		c-3.62-21.21-5.1-60.67-2.63-72.68c5.59-26.31,24.99-46.53,48.18-49.99c8.71-1.32,10.69-2.8,12-8.88
		c1.81-7.89,13.15-24.01,22.03-30.91c16.61-13.15,37.49-17.1,58.86-11.02c14.47,4.11,21.21,2.3,26.64-7.23
		c5.75-9.7,13.32-13.65,24.17-12.83c14.47,0.99,16.94,3.95,29.27,35.35c8.71,22.2,10.85,29.43,10.85,36.67v9.04l16.11,2.96
		c50.15,9.37,79.09,31.73,75.14,58.04l-0.99,7.07l7.23-0.99c11.35-1.64,30.91,3.45,50.48,12.83c14.8,7.07,19.24,10.19,30.58,21.7
		c16.28,16.28,20.39,25.32,20.39,45.05c0,16.11-3.12,28.77-11.35,45.55c-20.55,41.76-65.94,70.54-128.42,81.56
		C387.92,7462.15,337.61,7463.63,313.44,7461.33z M409.63,7450.97c30.91-5.75,62.81-17.92,81.72-31.08l7.89-5.43l-10.85-0.99
		c-18.74-1.48-20.06-2.63-31.24-24.66c-5.59-11.35-11.35-20.55-13.65-22.03c-3.78-2.47-4.44-2.47-12,1.32
		c-4.28,2.3-14.14,8.71-21.7,14.14c-10.69,7.73-14.31,9.54-16.11,8.22c-1.15-0.99-2.14-2.8-2.14-3.95c0-2.8,23.68-20.06,35.52-25.98
		c11.51-5.59,16.44-5.26,23.18,1.48l4.28,4.27l5.92-5.75c3.29-2.96,9.7-8.39,14.14-12c4.6-3.45,9.21-7.56,10.36-8.88
		c4.28-5.1,7.07-14.31,8.22-26.31c0.99-11.18,1.48-12.33,4.93-12.83c3.45-0.49,3.62,0,3.62,9.87c0,13.81-3.62,25.65-10.69,35.02
		l-5.75,7.4l6.91,4.44c9.87,6.58,22.69,6.25,37.82-0.66c10.03-4.77,11.02-5.59,12.17-11.51c2.8-13.32,1.64-27.13-2.96-36.01
		c-12.17-23.51-55.25-48.34-83.53-48.34c-4.28,0-8.06,0.49-8.55,0.99c-0.66,0.49,0.66,4.77,2.8,9.37
		c8.55,18.74,11.51,40.94,6.74,50.31c-3.29,6.08-12.5,13.98-22.03,18.91c-8.55,4.28-41.6,15.79-45.55,15.79
		c-1.48,0-5.43,6.08-9.7,14.47c-9.21,18.25-14.31,24.5-22.36,26.8l-6.25,1.97l7.89,8.06l8.06,8.22l16.94-2.8
		c18.74-2.96,30.58-2.14,36.17,2.3c4.77,3.95,2.96,9.37-2.47,7.56c-5.43-1.97-28.94-2.8-37.32-1.32c-6.74,1.32-7.4,1.81-8.55,7.73
		c-2.8,12.99-8.71,18.91-17.1,16.77c-5.26-1.32-4.77-6.58,0.66-7.23c2.14-0.33,4.77-2.63,6.25-5.59c2.47-4.77,2.3-5.26-1.97-11.51
		c-2.47-3.45-8.71-9.7-13.65-13.81l-9.21-7.23h-13.98c-17.1,0-23.18,2.47-37.82,15.46c-13.81,12.33-19.57,14.8-32.06,13.65
		c-12.83-0.99-32.56-9.54-31.73-13.81c0.82-3.95,4.77-3.45,16.94,1.81c5.75,2.47,12.99,4.27,17.43,4.27
		c8.22,0,10.19-1.15,29.27-17.59c12-10.19,17.43-12,37.98-12c18.74,0,34.04-2.3,37.65-5.59c2.63-2.3,16.94-30.09,22.2-42.59
		c3.12-7.4,13.98-19.57,21.87-24.34c5.43-3.29,5.92-3.45,8.39-0.66c2.63,2.63,2.47,2.96-1.32,5.43
		c-6.41,4.11-19.73,18.09-19.73,20.72c0,4.77,39.63-10.19,51.96-19.57c8.22-6.25,9.87-13.98,6.58-28.94
		c-2.96-13.48-8.71-27.13-13.32-31.73c-2.8-2.63-2.8-3.78-0.82-13.48c1.81-9.37,1.64-11.51-0.82-17.92
		c-4.93-13.15-22.03-24.33-50.97-33.05c-13.98-4.27-16.94-4.6-50.15-4.93c-21.21-0.16-42.92-1.32-54.26-2.96
		c-42.59-5.92-77.44-9.54-93.72-9.7c-15.78-0.33-18.09,0-26.64,4.28c-23.84,11.67-32.23,31.9-30.42,72.35
		c2.3,46.53,12.83,82.71,33.38,114.44c21.87,33.38,56.89,58.21,98.82,70.21c14.8,4.11,15.13,4.11,21.21,1.32
		c3.45-1.64,11.35-7.73,17.43-13.48c10.69-10.19,14.47-11.51,14.47-5.43c0,2.96-17.26,21.54-20.06,21.54
		c-0.66,0-1.32,0.66-1.32,1.48C292.88,7454.75,383.65,7455.74,409.63,7450.97z M512.72,7400.16c8.71-8.06,25.32-34.53,23.18-36.67
		c-0.33-0.33-5.59,1.15-12,3.45c-17.26,5.75-25.49,4.77-39.96-4.93l-8.06-5.43l-8.55,8.06c-4.6,4.44-8.39,8.88-8.39,9.7
		s2.8,6.91,6.08,13.65c7.56,15.46,12,17.76,32.39,16.61C506.31,7404.11,509.6,7403.12,512.72,7400.16z M337.77,7186.74
		c5.59,0,6.08-0.33,6.08-4.93c0-5.43,0.66-5.26-21.38-8.88c-13.81-2.3-13.98-2.3-22.2,1.81c-4.44,2.3-10.03,5.43-12.33,6.91
		c-3.95,2.63-3.78,2.63,9.04,4.6c7.23,0.99,17.92,1.64,23.84,1.15C326.75,7187.06,334.32,7186.74,337.77,7186.74z M283.35,7174.24
		c7.56-4.11,14.31-8.06,15.13-8.88c1.97-1.97-7.56-13.65-17.59-21.54c-11.02-8.88-32.23-15.46-45.38-14.14
		c-18.42,1.64-36.83,14.47-45.22,31.57c-2.3,4.93-4.28,9.54-4.28,10.36s9.87,2.47,21.87,3.62c11.84,1.15,27.95,2.96,35.68,4.11
		C266.9,7182.79,268.38,7182.63,283.35,7174.24z M341.72,7165.03c-12.83-32.56-18.25-45.38-19.73-47.19
		c-1.15-1.32-4.44-3.29-7.4-4.6c-7.89-3.29-16.44,0.99-20.88,10.52c-2.14,4.93-4.44,7.23-7.4,7.89c-4.11,0.99-3.95,1.15,6.58,12
		c6.08,6.08,12.17,12.83,13.65,14.96c1.97,3.12,5.1,4.44,13.81,5.92C335.8,7167.33,342.7,7167.5,341.72,7165.03z"/>
	<path class="st0" d="M212.48,7412.99c-2.96-3.62,0.49-18.42,6.58-28.12c4.77-7.56,4.77-7.89,1.97-11.02
		c-1.64-1.81-4.93-4.6-7.23-6.41c-4.11-2.96-4.44-2.96-14.31,1.15c-5.43,2.14-14.47,4.44-19.9,4.93c-9.37,0.99-10.03,0.99-10.03-2.3
		c0-2.8,1.32-3.62,6.25-4.44c8.39-1.48,22.03-5.43,24.83-7.23c1.81-1.15,0.99-3.45-4.28-12c-6.91-10.85-13.65-24.99-13.65-28.45
		s5.43-7.07,20.22-13.15c20.88-8.88,24.99-16.11,16.11-28.61c-2.8-3.78-2.96-4.77-0.82-8.39c1.15-2.3,2.14-7.73,2.3-12.33
		c0-20.39-22.36-40.28-45.38-40.28c-5.92,0-9.37-3.12-7.23-6.41c1.64-2.96,14.8-1.32,27.13,3.29c22.36,8.39,37.65,33.54,32.39,53.11
		c-1.48,5.1-1.32,7.4,0.82,11.35c1.64,3.45,2.3,7.56,1.64,13.32c-0.66,6.91-1.64,9.04-6.58,13.32c-3.12,2.63-11.51,7.07-18.42,9.7
		c-6.91,2.63-12.99,5.75-13.48,6.91c-1.48,3.78,12.5,27.62,22.69,38.97c9.87,10.85,19.73,17.59,25.65,17.59
		c5.26,0,13.48-6.25,16.77-12.83c1.81-3.62,4.77-6.91,6.58-7.4c2.47-0.66,3.29-2.47,3.78-7.89c0.33-5.92,1.15-7.23,3.78-7.23
		c2.47,0,3.62,1.64,4.93,6.41l1.48,6.41l19.9-0.99c24.5-0.99,39.46-5.26,44.89-12.66c2.14-2.63,4.77-4.93,5.92-4.93
		c3.62,0,4.44,4.77,1.64,9.21c-2.63,3.95-2.63,8.22,0.33,20.88c0.82,3.62,0.49,4.44-2.14,4.44c-3.45,0-7.07-6.08-7.07-11.84
		c0-2.63-0.82-3.12-3.62-2.47c-20.88,4.77-30.09,6.08-47.52,6.74c-16.94,0.66-20.72,1.32-22.03,3.62
		c-3.45,5.92-11.35,14.14-15.95,16.44c-2.63,1.32-8.06,2.3-12.17,2.14c-6.41-0.33-8.06,0.16-10.69,3.62
		c-3.12,4.11-6.58,11.84-9.04,20.22C217.74,7415.12,215.27,7416.28,212.48,7412.99z"/>
	<path class="st0" d="M233.2,7350.51c-0.49-1.15-0.33-4.77,0.33-7.89c2.96-12.99,11.51-23.51,28.61-34.86
		c25.32-16.77,46.04-22.53,56.56-15.95c2.8,1.81,8.22,7.23,11.84,12.33c3.62,4.93,8.22,9.37,10.03,10.03
		c5.1,1.64,12.33-0.49,16.44-5.1c5.1-5.26,9.87-5.26,9.87,0.16c0,2.96-1.97,5.43-6.58,8.88c-14.14,10.19-24.66,7.89-36.83-7.89
		c-4.44-5.75-9.54-10.52-11.84-11.02c-6.58-1.64-15.46,0.66-31.08,8.39c-23.51,11.67-40.12,28.61-40.28,41.6
		C240.27,7353.3,234.68,7354.45,233.2,7350.51z"/>
	<path class="st0" d="M278.08,7326.33c0-5.26,15.46-11.67,26.64-11.02c7.4,0.49,8.71,0.99,8.71,3.78s-1.48,3.45-9.04,4.28
		c-4.93,0.49-11.84,2.3-15.46,3.78C280.55,7330.61,278.08,7330.45,278.08,7326.33z"/>
	<path class="st0" d="M146.87,7324.53c-2.3-2.96,1.64-13.81,6.91-19.24c3.78-3.78,4.44-3.95,6.74-1.64s2.3,2.96-0.66,6.58
		c-1.64,2.14-4.28,6.74-5.59,10.19C151.48,7326.83,149.67,7327.81,146.87,7324.53z"/>
	<path class="st0" d="M372.79,7288.35c-0.49-1.15-1.15-3.95-1.64-6.25c-1.48-6.58-7.23-14.63-11.84-16.77
		c-3.12-1.48-10.85-1.48-32.56,0c-15.62,1.15-29.6,1.64-30.75,1.32c-1.32-0.33-9.04-1.15-17.1-1.64l-14.8-0.99l-3.12,5.59
		c-3.29,6.25-7.23,8.55-9.87,5.92c-1.15-1.15-1.15-3.12,0.33-6.58c1.15-2.8,2.8-7.07,3.95-9.54c2.8-6.91,0.66-12.33-9.7-23.68
		c-13.98-15.62-23.18-37.32-16.44-38.8c1.97-0.49,3.62,1.15,5.26,5.75c4.77,12,8.22,17.76,15.95,26.31
		c8.88,9.87,12.83,16.77,12.83,22.36c0,3.12,1.15,4.27,4.77,4.93c13.15,2.63,36.34,3.12,57.88,1.15
		c17.43-1.64,24.83-1.81,29.93-0.33c8.22,2.14,12.5,0,17.59-8.39c5.59-9.04,4.6-11.35-11.02-24.5
		c-14.47-12.17-17.76-16.94-12.99-18.74c1.48-0.49,8.22,3.78,17.92,11.51l15.46,12.33l10.52-3.29c12.5-3.95,18.74-3.62,18.74,0.82
		c0,2.63-1.97,3.62-10.19,5.26c-13.81,2.79-15.95,4.27-18.09,12.66c-1.15,4.27-4.44,10.03-7.89,13.48l-5.75,6.25l4.93,9.87
		c5.92,11.67,6.25,15.95,1.64,15.95C374.93,7290.33,373.12,7289.34,372.79,7288.35z"/>
	<path class="st0" d="M148.19,7283.58c-11.18-3.95-12.99-5.59-9.7-8.88c2.14-2.3,3.45-2.14,12,0.82
		c11.35,3.78,14.31,5.92,12.99,9.21C162.33,7287.69,159.2,7287.53,148.19,7283.58z"/>
	<path class="st0" d="M166.93,7265.33c-5.1-10.19-18.58-24.83-25.32-27.62c-5.26-2.14-6.58-7.23-2.47-8.88
		c4.6-1.64,22.53,12.33,29.6,23.18c3.62,5.59,7.07,10.19,7.56,10.19c0.66,0.16,1.48-2.14,2.14-4.93
		c0.99-5.59,10.69-16.28,14.63-16.28c5.1,0,4.44,5.1-1.15,10.52c-3.78,3.45-6.08,7.4-6.74,11.67c-1.64,8.55-3.45,10.69-9.21,10.69
		C172.03,7273.88,170.55,7272.57,166.93,7265.33z"/>
	<path class="st0" d="M303.24,7235.41c-5.59-3.95-14.47-8.39-19.73-9.87c-5.26-1.64-10.52-3.29-11.67-3.62
		c-1.32-0.33-1.97-1.97-1.64-3.45c0.66-3.12,6.74-3.78,14.8-1.64c4.11,1.15,4.6,0.66,6.25-5.43c1.32-4.93,2.63-6.58,5.26-6.58
		c3.12,0,3.29,0.66,2.3,8.71c-1.15,8.22-0.99,8.71,3.78,11.51c8.71,5.1,14.96,11.18,14.96,14.47
		C317.55,7244.12,314.75,7243.3,303.24,7235.41z"/>
</g>
</svg>
