<?xml version="1.0" encoding="utf-8"?>
<!-- Generator: Adobe Illustrator 27.3.1, SVG Export Plug-In . SVG Version: 6.00 Build 0)  -->
<svg version="1.1" id="Layer_1" xmlns="http://www.w3.org/2000/svg" xmlns:xlink="http://www.w3.org/1999/xlink" x="0px" y="0px"
	 viewBox="0 0 752 752" style="enable-background:new 0 0 752 752;" xml:space="preserve">
<style type="text/css">
	.st0{fill:#FFFFFF;stroke:#FFFFFF;stroke-width:3;stroke-miterlimit:10;}
</style>
<rect x="-14" y="-19.7" width="794.5" height="794.5"/>
<g transform="translate(0.000000,752.000000) scale(0.100000,-0.100000)">
	<path class="st0" d="M3325,5883c-230-19-496-104-688-219c-372-224-608-556-689-969c-28-144-30-380-4-539c51-312,188-656,375-944
		c39-60,82-137,96-172c40-103,73-252,85-385c25-277-41-620-174-901c-24-50-41-97-37-103c5-7,256-11,870-11c475-1,865,0,866,2
		c2,2,11,64,20,138s22,153,28,175c16,57,90,128,155,149c113,38,312,38,543,0c138-23,296-23,374,0c70,20,151,72,185,118
		c30,41,38,135,20,244l-12,75l37,54c69,104,75,140,38,211c-15,29-15,33,11,76c36,62,33,97-14,175c-22,37-40,73-40,81
		c0,7,15,25,33,40c68,56,170,158,183,184c21,40,3,75-93,189c-160,189-197,249-228,370c-22,83-33,263-25,394c15,242-45,550-149,768
		c-88,184-238,364-401,482c-298,214-711,328-1169,323C3435,5887,3347,5885,3325,5883z M3889,5815c371-52,691-196,900-404
		c107-106,172-197,241-336c116-234,150-411,154-805c3-241,6-285,25-358c35-136,94-234,246-402c37-41,73-86,80-101c13-25,12-29-19-65
		c-18-22-72-70-120-108c-47-38-86-74-86-78c0-17,44-113,67-148c30-45,29-63-7-122c-36-57-36-62-10-95c34-43,26-89-28-171l-49-72
		l13-68c7-37,13-100,14-141v-74l-44-43c-98-93-225-111-510-69c-159,23-212,26-330,22c-91-3-159-10-193-21c-103-33-186-110-212-196
		c-5-19-15-78-21-130s-13-105-16-117l-4-23h-815h-814l35,76c100,219,153,452,161,704c6,193-4,297-42,443c-36,138-65,203-144,323
		c-82,124-212,382-265,525c-84,228-120,429-120,659c0,307,64,528,219,761c246,370,669,611,1135,649C3475,5842,3752,5834,3889,5815z"
		/>
	<path class="st0" d="M3435,5540c-344-35-551-105-747-252c-216-164-367-430-423-748c-22-129-31-369-16-442c34-160,152-283,293-304
		c53-8,65-17,73-54c11-48,80-146,134-188c101-80,228-104,358-67c88,25,129,14,162-44c35-59,81-83,147-78c88,6,103,24,178,215
		c53,135,66,179,66,223v55l98,18c305,57,481,193,457,353l-6,43l44-6c69-10,188,21,307,78c90,43,117,62,186,132
		c99,99,124,154,124,274c0,98-19,175-69,277c-125,254-401,429-781,496C3888,5545,3582,5554,3435,5540z M4020,5477
		c188-35,382-109,497-189l48-33l-66-6c-114-9-122-16-190-150c-34-69-69-125-83-134c-23-15-27-15-73,8c-26,14-86,53-132,86
		c-65,47-87,58-98,50c-7-6-13-17-13-24c0-17,144-122,216-158c70-34,100-32,141,9l26,26l36-35c20-18,59-51,86-73c28-21,56-46,63-54
		c26-31,43-87,50-160c6-68,9-75,30-78s22,0,22,60c0,84-22,156-65,213l-35,45l42,27c60,40,138,38,230-4c61-29,67-34,74-70
		c17-81,10-165-18-219c-74-143-336-294-508-294c-26,0-49,3-52,6c-4,3,4,29,17,57c52,114,70,249,41,306c-20,37-76,85-134,115
		c-52,26-253,96-277,96c-9,0-33,37-59,88c-56,111-87,149-136,163l-38,12l48,49l49,50l103-17c114-18,186-13,220,14c29,24,18,57-15,46
		c-33-12-176-17-227-8c-41,8-45,11-52,47c-17,79-53,115-104,102c-32-8-29-40,4-44c13-2,29-16,38-34c15-29,14-32-12-70
		c-15-21-53-59-83-84l-56-44h-85c-104,0-141,15-230,94c-84,75-119,90-195,83c-78-6-198-58-193-84c5-24,29-21,103,11
		c35,15,79,26,106,26c50,0,62-7,178-107c73-62,106-73,231-73c114,0,207-14,229-34c16-14,103-183,135-259c19-45,85-119,133-148
		c33-20,36-21,51-4c16,16,15,18-8,33c-39,25-120,110-120,126c0,29,241-62,316-119c50-38,60-85,40-176c-18-82-53-165-81-193
		c-17-16-17-23-5-82c11-57,10-70-5-109c-30-80-134-148-310-201c-85-26-103-28-305-30c-129-1-261-8-330-18c-259-36-471-58-570-59
		c-96-2-110,0-162,26c-145,71-196,194-185,440c14,283,78,503,203,696c133,203,346,354,601,427c90,25,92,25,129,8c21-10,69-47,106-82
		c65-62,88-70,88-33c0,18-105,131-122,131c-4,0-8,4-8,9C3310,5500,3862,5506,4020,5477z M4647,5168c53-49,154-210,141-223
		c-2-2-34,7-73,21c-105,35-155,29-243-30l-49-33l-52,49c-28,27-51,54-51,59s17,42,37,83c46,94,73,108,197,101
		C4608,5192,4628,5186,4647,5168z M3583,3870c34,0,37-2,37-30c0-33,4-32-130-54c-84-14-85-14-135,11c-27,14-61,33-75,42
		c-24,16-23,16,55,28c44,6,109,10,145,7C3516,3872,3562,3870,3583,3870z M3252,3794c46-25,87-49,92-54c12-12-46-83-107-131
		c-67-54-196-94-276-86c-112,10-224,88-275,192c-14,30-26,58-26,63s60,15,133,22c72,7,170,18,217,25C3152,3846,3161,3845,3252,3794z
		 M3607,3738c-78-198-111-276-120-287c-7-8-27-20-45-28c-48-20-100,6-127,64c-13,30-27,44-45,48c-25,6-24,7,40,73c37,37,74,78,83,91
		c12,19,31,27,84,36C3571,3752,3613,3753,3607,3738z"/>
	<path class="st0" d="M2821,5246c-18-22,3-112,40-171c29-46,29-48,12-67c-10-11-30-28-44-39c-25-18-27-18-87,7c-33,13-88,27-121,30
		c-57,6-61,6-61-14c0-17,8-22,38-27c51-9,134-33,151-44c11-7,6-21-26-73c-42-66-83-152-83-173s33-43,123-80c127-54,152-98,98-174
		c-17-23-18-29-5-51c7-14,13-47,14-75c0-124-136-245-276-245c-36,0-57-19-44-39c10-18,90-8,165,20c136,51,229,204,197,323
		c-9,31-8,45,5,69c10,21,14,46,10,81c-4,42-10,55-40,81c-19,16-70,43-112,59s-79,35-82,42c-9,23,76,168,138,237
		c60,66,120,107,156,107c32,0,82-38,102-78c11-22,29-42,40-45c15-4,20-15,23-48c2-36,7-44,23-44c15,0,22,10,30,39l9,39l121-6
		c149-6,240-32,273-77c13-16,29-30,36-30c22,0,27,29,10,56c-16,24-16,50,2,127c5,22,3,27-13,27c-21,0-43-37-43-72c0-16-5-19-22-15
		c-127,29-183,37-289,41c-103,4-126,8-134,22c-21,36-69,86-97,100c-16,8-49,14-74,13c-39-2-49,1-65,22c-19,25-40,72-55,123
		C2853,5259,2838,5266,2821,5246z"/>
	<path class="st0" d="M2947,4866c-3-7-2-29,2-48c18-79,70-143,174-212c154-102,280-137,344-97c17,11,50,44,72,75c22,30,50,57,61,61
		c31,10,75-3,100-31c31-32,60-32,60,1c0,18-12,33-40,54c-86,62-150,48-224-48c-27-35-58-64-72-67c-40-10-94,4-189,51
		c-143,71-244,174-245,253C2990,4883,2956,4890,2947,4866z"/>
	<path class="st0" d="M3220,4719c0-32,94-71,162-67c45,3,53,6,53,23s-9,21-55,26c-30,3-72,14-94,23C3235,4745,3220,4744,3220,4719z"
		/>
	<path class="st0" d="M2422,4708c-14-18,10-84,42-117c23-23,27-24,41-10s14,18-4,40c-10,13-26,41-34,62
		C2450,4722,2439,4728,2422,4708z"/>
	<path class="st0" d="M3796,4488c-3-7-7-24-10-38c-9-40-44-89-72-102c-19-9-66-9-198,0c-95,7-180,10-187,8c-8-2-55-7-104-10l-90-6
		l-19,34c-20,38-44,52-60,36c-7-7-7-19,2-40c7-17,17-43,24-58c17-42,4-75-59-144c-85-95-141-227-100-236c12-3,22,7,32,35
		c29,73,50,108,97,160c54,60,78,102,78,136c0,19,7,26,29,30c80,16,221,19,352,7c106-10,151-11,182-2c50,13,76,0,107-51
		c34-55,28-69-67-149c-88-74-108-103-79-114c9-3,50,23,109,70l94,75l64-20c76-24,114-22,114,5c0,16-12,22-62,32c-84,17-97,26-110,77
		c-7,26-27,61-48,82l-35,38l30,60c36,71,38,97,10,97C3809,4500,3798,4494,3796,4488z"/>
	<path class="st0" d="M2430,4459c-68-24-79-34-59-54c13-14,21-13,73,5c69,23,87,36,79,56C2516,4484,2497,4483,2430,4459z"/>
	<path class="st0" d="M2544,4348c-31-62-113-151-154-168c-32-13-40-44-15-54c28-10,137,75,180,141c22,34,43,62,46,62c4,1,9-13,13-30
		c6-34,65-99,89-99c31,0,27,31-7,64c-23,21-37,45-41,71c-10,52-21,65-56,65C2575,4400,2566,4392,2544,4348z"/>
	<path class="st0" d="M3373,4166c-34-24-88-51-120-60c-32-10-64-20-71-22c-8-2-12-12-10-21c4-19,41-23,90-10c25,7,28,4,38-33
		c8-30,16-40,32-40c19,0,20,4,14,53c-7,50-6,53,23,70c53,31,91,68,91,88C3460,4219,3443,4214,3373,4166z"/>
</g>
</svg>
