<?xml version="1.0" encoding="utf-8"?>
<!-- Generator: Adobe Illustrator 27.3.1, SVG Export Plug-In . SVG Version: 6.00 Build 0)  -->
<svg version="1.1" id="Layer_1" xmlns="http://www.w3.org/2000/svg" xmlns:xlink="http://www.w3.org/1999/xlink" x="0px" y="0px"
	 viewBox="0 0 70 70" style="enable-background:new 0 0 70 70;" xml:space="preserve">
<style type="text/css">
	.st0{fill:#FFFFFF;stroke:#FFFFFF;stroke-width:0.3;stroke-miterlimit:1;}
</style>
<g transform="translate(0.000000,752.000000) scale(0.100000,-0.100000)">
	<path class="st0" d="M278.64,7517.74c-37.75-3.11-81.41-17.04-112.93-35.87c-61.06-36.69-99.8-91.08-113.09-158.73
		c-4.6-23.59-4.92-62.25-0.66-88.29c8.37-51.11,30.86-107.46,61.55-154.64c6.4-9.83,13.46-22.44,15.76-28.18
		c6.57-16.87,11.98-41.28,13.95-63.07c4.1-45.38-6.73-101.56-28.56-147.59c-3.94-8.19-6.73-15.89-6.07-16.87
		c0.82-1.15,42.02-1.8,142.8-1.8c77.97-0.16,141.98,0,142.15,0.33c0.33,0.33,1.81,10.48,3.28,22.61c1.48,12.12,3.61,25.06,4.6,28.67
		c2.63,9.34,14.77,20.97,25.44,24.41c18.55,6.22,51.21,6.22,89.13,0c22.65-3.77,48.59-3.77,61.39,0
		c11.49,3.28,24.79,11.79,30.37,19.33c4.92,6.72,6.24,22.11,3.28,39.97l-1.97,12.29l6.07,8.85c11.33,17.04,12.31,22.93,6.24,34.56
		c-2.46,4.75-2.46,5.41,1.81,12.45c5.91,10.16,5.42,15.89-2.3,28.67c-3.61,6.06-6.57,11.96-6.57,13.27c0,1.15,2.46,4.1,5.42,6.55
		c11.16,9.17,27.9,25.88,30.04,30.14c3.45,6.55,0.49,12.29-15.27,30.96c-26.26,30.96-32.34,40.79-37.42,60.61
		c-3.61,13.6-5.42,43.08-4.1,64.54c2.46,39.64-7.39,90.09-24.46,125.81c-14.44,30.14-39.07,59.63-65.82,78.96
		c-48.91,35.06-116.71,53.73-191.88,52.91C296.69,7518.39,282.25,7518.07,278.64,7517.74z M371.21,7506.6
		c60.9-8.52,113.42-32.11,147.73-66.18c17.56-17.36,28.23-32.27,39.56-55.04c19.04-38.33,24.62-67.33,25.28-131.87
		c0.49-39.48,0.98-46.69,4.1-58.64c5.74-22.28,15.43-38.33,40.38-65.85c6.07-6.72,11.98-14.09,13.13-16.54
		c2.13-4.1,1.97-4.75-3.12-10.65c-2.95-3.6-11.82-11.47-19.7-17.69c-7.71-6.22-14.12-12.12-14.12-12.78c0-2.78,7.22-18.51,11-24.24
		c4.92-7.37,4.76-10.32-1.15-19.98c-5.91-9.34-5.91-10.16-1.64-15.56c5.58-7.04,4.27-14.58-4.6-28.01l-8.04-11.79l2.13-11.14
		c1.15-6.06,2.13-16.38,2.3-23.1v-12.12l-7.22-7.04c-16.09-15.23-36.93-18.18-83.71-11.3c-26.1,3.77-34.8,4.26-54.17,3.6
		c-14.94-0.49-26.1-1.64-31.68-3.44c-16.91-5.41-30.53-18.02-34.8-32.11c-0.82-3.11-2.46-12.78-3.45-21.29
		c-0.98-8.52-2.13-17.2-2.63-19.17l-0.66-3.77H252.37H118.76l5.74,12.45c16.41,35.87,25.11,74.04,26.43,115.32
		c0.98,31.61-0.66,48.65-6.89,72.57c-5.91,22.61-10.67,33.25-23.64,52.91c-13.46,20.31-34.8,62.58-43.5,86
		c-13.79,37.35-19.7,70.27-19.7,107.95c0,50.29,10.51,86.49,35.95,124.66c40.38,60.61,109.81,100.09,186.3,106.31
		C303.26,7511.02,348.73,7509.71,371.21,7506.6z"/>
	<path class="st0" d="M296.69,7461.55c-56.46-5.73-90.44-17.2-122.61-41.28c-35.45-26.86-60.24-70.44-69.43-122.53
		c-3.61-21.13-5.09-60.45-2.63-72.4c5.58-26.21,24.95-46.36,48.09-49.8c8.7-1.31,10.67-2.78,11.98-8.85
		c1.81-7.86,13.13-23.92,22-30.8c16.58-13.1,37.42-17.04,58.76-10.98c14.44,4.1,21.17,2.29,26.59-7.21
		c5.74-9.67,13.3-13.6,24.13-12.78c14.44,0.98,16.91,3.93,29.22,35.22c8.7,22.11,10.83,29.32,10.83,36.53v9.01l16.09,2.95
		c50.06,9.34,78.95,31.61,75.01,57.82l-0.98,7.04l7.22-0.98c11.33-1.64,30.86,3.44,50.39,12.78c14.77,7.04,19.2,10.16,30.53,21.62
		c16.25,16.22,20.35,25.23,20.35,44.88c0,16.05-3.12,28.67-11.33,45.38c-20.52,41.61-65.82,70.27-128.2,81.25
		C371.05,7462.37,320.82,7463.84,296.69,7461.55z M392.72,7451.23c30.86-5.73,62.7-17.85,81.58-30.96l7.88-5.41l-10.83-0.98
		c-18.71-1.47-20.03-2.62-31.19-24.57c-5.58-11.3-11.33-20.48-13.62-21.95c-3.78-2.46-4.43-2.46-11.98,1.31
		c-4.27,2.29-14.12,8.68-21.67,14.09c-10.67,7.7-14.28,9.5-16.09,8.19c-1.15-0.98-2.13-2.78-2.13-3.93
		c0-2.78,23.64-19.98,35.45-25.88c11.49-5.57,16.41-5.24,23.14,1.47l4.27,4.26l5.91-5.73c3.28-2.95,9.68-8.35,14.12-11.96
		c4.6-3.44,9.19-7.54,10.34-8.85c4.27-5.08,7.06-14.25,8.21-26.21c0.98-11.14,1.48-12.29,4.92-12.78c3.45-0.49,3.61,0,3.61,9.83
		c0,13.76-3.61,25.55-10.67,34.89l-5.74,7.37l6.89,4.42c9.85,6.55,22.65,6.23,37.75-0.66c10.01-4.75,11-5.57,12.15-11.47
		c2.79-13.27,1.64-27.03-2.95-35.87c-12.15-23.42-55.15-48.16-83.38-48.16c-4.27,0-8.04,0.49-8.54,0.98
		c-0.66,0.49,0.66,4.75,2.79,9.34c8.54,18.67,11.49,40.79,6.73,50.13c-3.28,6.06-12.47,13.92-22,18.84
		c-8.54,4.26-41.53,15.73-45.47,15.73c-1.48,0-5.42,6.06-9.68,14.42c-9.19,18.18-14.28,24.41-22.32,26.7l-6.24,1.97l7.88,8.03
		l8.04,8.19l16.91-2.78c18.71-2.95,30.53-2.13,36.11,2.29c4.76,3.93,2.95,9.34-2.46,7.54c-5.42-1.97-28.89-2.78-37.26-1.31
		c-6.73,1.31-7.39,1.8-8.54,7.7c-2.79,12.94-8.7,18.84-17.07,16.71c-5.25-1.31-4.76-6.55,0.66-7.21c2.13-0.33,4.76-2.62,6.24-5.57
		c2.46-4.75,2.3-5.24-1.97-11.47c-2.46-3.44-8.7-9.66-13.62-13.76l-9.19-7.21h-13.95c-17.07,0-23.14,2.46-37.75,15.4
		c-13.79,12.29-19.53,14.74-32.01,13.6c-12.8-0.98-32.5-9.5-31.68-13.76c0.82-3.93,4.76-3.44,16.91,1.8
		c5.74,2.46,12.97,4.26,17.4,4.26c8.21,0,10.18-1.15,29.22-17.53c11.98-10.16,17.4-11.96,37.92-11.96c18.71,0,33.98-2.29,37.59-5.57
		c2.63-2.29,16.91-29.98,22.16-42.43c3.12-7.37,13.95-19.49,21.83-24.24c5.42-3.28,5.91-3.44,8.37-0.66
		c2.63,2.62,2.46,2.95-1.31,5.41c-6.4,4.1-19.7,18.02-19.7,20.64c0,4.75,39.56-10.16,51.87-19.49c8.21-6.22,9.85-13.92,6.57-28.83
		c-2.95-13.43-8.7-27.03-13.3-31.62c-2.79-2.62-2.79-3.77-0.82-13.43c1.81-9.34,1.64-11.47-0.82-17.86
		c-4.92-13.1-22-24.24-50.88-32.93c-13.95-4.26-16.91-4.59-50.06-4.91c-21.17-0.16-42.84-1.31-54.17-2.95
		c-42.51-5.9-77.31-9.5-93.56-9.66c-15.76-0.33-18.06,0-26.59,4.26c-23.8,11.63-32.17,31.78-30.37,72.08
		c2.3,46.36,12.8,82.4,33.32,114.01c21.83,33.25,56.79,57.99,98.65,69.95c14.77,4.1,15.1,4.1,21.17,1.31
		c3.45-1.64,11.33-7.7,17.4-13.43c10.67-10.16,14.44-11.47,14.44-5.41c0,2.95-17.23,21.46-20.03,21.46c-0.66,0-1.31,0.66-1.31,1.47
		C276.17,7455,366.78,7455.98,392.72,7451.23z M495.63,7400.61c8.7-8.03,25.28-34.4,23.14-36.53c-0.33-0.33-5.58,1.15-11.98,3.44
		c-17.23,5.73-25.44,4.75-39.89-4.91l-8.04-5.41l-8.54,8.03c-4.6,4.42-8.37,8.85-8.37,9.66c0,0.82,2.79,6.88,6.07,13.6
		c7.55,15.4,11.98,17.69,32.34,16.54C489.23,7404.55,492.51,7403.56,495.63,7400.61z M320.99,7187.99c5.58,0,6.07-0.33,6.07-4.91
		c0-5.41,0.66-5.24-21.34-8.85c-13.79-2.29-13.95-2.29-22.16,1.8c-4.43,2.29-10.01,5.41-12.31,6.88c-3.94,2.62-3.78,2.62,9.03,4.59
		c7.22,0.98,17.89,1.64,23.8,1.15C309.99,7188.32,317.54,7187.99,320.99,7187.99z M266.65,7175.54c7.55-4.1,14.28-8.03,15.1-8.85
		c1.97-1.97-7.55-13.6-17.56-21.46c-11-8.85-32.17-15.4-45.3-14.09c-18.38,1.64-36.77,14.42-45.14,31.45
		c-2.3,4.91-4.27,9.5-4.27,10.32c0,0.82,9.85,2.46,21.83,3.6c11.82,1.15,27.9,2.95,35.62,4.1
		C250.24,7184.06,251.72,7183.9,266.65,7175.54z M324.92,7166.37c-12.8-32.43-18.22-45.21-19.7-47.01
		c-1.15-1.31-4.43-3.28-7.39-4.59c-7.88-3.28-16.41,0.98-20.85,10.48c-2.13,4.91-4.43,7.21-7.39,7.86
		c-4.1,0.98-3.94,1.15,6.57,11.96c6.07,6.06,12.15,12.78,13.62,14.91c1.97,3.11,5.09,4.42,13.79,5.9
		C319.02,7168.66,325.91,7168.83,324.92,7166.37z"/>
	<path class="st0" d="M195.91,7413.39c-2.95-3.6,0.49-18.35,6.57-28.01c4.76-7.54,4.76-7.86,1.97-10.98
		c-1.64-1.8-4.92-4.59-7.22-6.39c-4.1-2.95-4.43-2.95-14.28,1.15c-5.42,2.13-14.44,4.42-19.86,4.91
		c-9.36,0.98-10.01,0.98-10.01-2.29c0-2.78,1.31-3.6,6.24-4.42c8.37-1.47,22-5.41,24.79-7.21c1.81-1.15,0.98-3.44-4.27-11.96
		c-6.89-10.81-13.62-24.9-13.62-28.34s5.42-7.04,20.19-13.1c20.85-8.85,24.95-16.05,16.09-28.5c-2.79-3.77-2.95-4.75-0.82-8.35
		c1.15-2.29,2.13-7.7,2.3-12.29c0-20.31-22.32-40.13-45.3-40.13c-5.91,0-9.36-3.11-7.22-6.39c1.64-2.95,14.77-1.31,27.08,3.28
		c22.32,8.35,37.59,33.42,32.34,52.91c-1.48,5.08-1.31,7.37,0.82,11.3c1.64,3.44,2.3,7.54,1.64,13.27
		c-0.66,6.88-1.64,9.01-6.57,13.27c-3.12,2.62-11.49,7.04-18.38,9.66s-12.97,5.73-13.46,6.88c-1.48,3.77,12.47,27.52,22.65,38.82
		c9.85,10.81,19.7,17.53,25.61,17.53c5.25,0,13.46-6.22,16.74-12.78c1.81-3.6,4.76-6.88,6.57-7.37c2.46-0.66,3.28-2.46,3.78-7.86
		c0.33-5.9,1.15-7.21,3.78-7.21c2.46,0,3.61,1.64,4.92,6.39l1.48,6.39l19.86-0.98c24.46-0.98,39.39-5.24,44.81-12.61
		c2.13-2.62,4.76-4.91,5.91-4.91c3.61,0,4.43,4.75,1.64,9.17c-2.63,3.93-2.63,8.19,0.33,20.8c0.82,3.6,0.49,4.42-2.13,4.42
		c-3.45,0-7.06-6.06-7.06-11.79c0-2.62-0.82-3.11-3.61-2.46c-20.85,4.75-30.04,6.06-47.44,6.72c-16.91,0.66-20.68,1.31-22,3.6
		c-3.45,5.9-11.33,14.09-15.92,16.38c-2.63,1.31-8.04,2.29-12.15,2.13c-6.4-0.33-8.04,0.16-10.67,3.6
		c-3.12,4.1-6.57,11.79-9.03,20.15C201.16,7415.52,198.7,7416.67,195.91,7413.39z"/>
	<path class="st0" d="M216.59,7351.14c-0.49-1.15-0.33-4.75,0.33-7.86c2.95-12.94,11.49-23.42,28.56-34.73
		c25.28-16.71,45.96-22.44,56.46-15.89c2.79,1.8,8.21,7.21,11.82,12.29c3.61,4.91,8.21,9.34,10.01,9.99
		c5.09,1.64,12.31-0.49,16.41-5.08c5.09-5.24,9.85-5.24,9.85,0.16c0,2.95-1.97,5.41-6.57,8.85c-14.12,10.16-24.62,7.86-36.77-7.86
		c-4.43-5.73-9.52-10.48-11.82-10.98c-6.57-1.64-15.43,0.66-31.02,8.35c-23.47,11.63-40.05,28.5-40.21,41.44
		C223.65,7353.93,218.07,7355.08,216.59,7351.14z"/>
	<path class="st0" d="M261.4,7327.06c0-5.24,15.43-11.63,26.59-10.98c7.39,0.49,8.7,0.98,8.7,3.77s-1.48,3.44-9.03,4.26
		c-4.92,0.49-11.82,2.29-15.43,3.77C263.86,7331.32,261.4,7331.16,261.4,7327.06z"/>
	<path class="st0" d="M130.42,7325.26c-2.3-2.95,1.64-13.76,6.89-19.17c3.78-3.77,4.43-3.93,6.73-1.64s2.3,2.95-0.66,6.55
		c-1.64,2.13-4.27,6.72-5.58,10.16C135.01,7327.56,133.21,7328.54,130.42,7325.26z"/>
	<path class="st0" d="M355.95,7289.22c-0.49-1.15-1.15-3.93-1.64-6.22c-1.48-6.55-7.22-14.58-11.82-16.71
		c-3.12-1.47-10.83-1.47-32.5,0c-15.59,1.15-29.55,1.64-30.69,1.31c-1.31-0.33-9.03-1.15-17.07-1.64l-14.77-0.98l-3.12,5.57
		c-3.28,6.22-7.22,8.52-9.85,5.9c-1.15-1.15-1.15-3.11,0.33-6.55c1.15-2.79,2.79-7.04,3.94-9.5c2.79-6.88,0.66-12.29-9.68-23.59
		c-13.95-15.56-23.14-37.18-16.41-38.66c1.97-0.49,3.61,1.15,5.25,5.73c4.76,11.96,8.21,17.69,15.92,26.21
		c8.86,9.83,12.8,16.71,12.8,22.28c0,3.11,1.15,4.26,4.76,4.91c13.13,2.62,36.28,3.11,57.78,1.15c17.4-1.64,24.79-1.8,29.87-0.33
		c8.21,2.13,12.47,0,17.56-8.35c5.58-9.01,4.6-11.3-11-24.41c-14.44-12.12-17.73-16.87-12.97-18.67c1.48-0.49,8.21,3.77,17.89,11.47
		l15.43,12.29l10.51-3.28c12.47-3.93,18.71-3.6,18.71,0.82c0,2.62-1.97,3.6-10.18,5.24c-13.79,2.78-15.92,4.26-18.06,12.61
		c-1.15,4.26-4.43,9.99-7.88,13.43l-5.74,6.23l4.92,9.83c5.91,11.63,6.24,15.89,1.64,15.89
		C358.08,7291.19,356.28,7290.21,355.95,7289.22z"/>
	<path class="st0" d="M131.73,7284.47c-11.16-3.93-12.97-5.57-9.68-8.85c2.13-2.29,3.45-2.13,11.98,0.82
		c11.33,3.77,14.28,5.9,12.97,9.17C145.85,7288.57,142.73,7288.41,131.73,7284.47z"/>
	<path class="st0" d="M150.44,7266.29c-5.09-10.16-18.55-24.73-25.28-27.52c-5.25-2.13-6.57-7.21-2.46-8.85
		c4.6-1.64,22.49,12.29,29.55,23.1c3.61,5.57,7.06,10.16,7.55,10.16c0.66,0.16,1.48-2.13,2.13-4.91
		c0.98-5.57,10.67-16.22,14.61-16.22c5.09,0,4.43,5.08-1.15,10.48c-3.78,3.44-6.07,7.37-6.73,11.63
		c-1.64,8.52-3.45,10.65-9.19,10.65C155.53,7274.81,154.05,7273.5,150.44,7266.29z"/>
	<path class="st0" d="M286.52,7236.48c-5.58-3.93-14.44-8.35-19.7-9.83c-5.25-1.64-10.51-3.28-11.65-3.6
		c-1.31-0.33-1.97-1.97-1.64-3.44c0.66-3.11,6.73-3.77,14.77-1.64c4.1,1.15,4.6,0.66,6.24-5.41c1.31-4.91,2.63-6.55,5.25-6.55
		c3.12,0,3.28,0.66,2.3,8.68c-1.15,8.19-0.98,8.68,3.78,11.47c8.7,5.08,14.94,11.14,14.94,14.42
		C300.8,7245.16,298.01,7244.34,286.52,7236.48z"/>
</g>
</svg>
