<?xml version="1.0" encoding="utf-8"?>
<!-- Generator: Adobe Illustrator 27.3.1, SVG Export Plug-In . SVG Version: 6.00 Build 0)  -->
<svg version="1.1" id="Layer_1" xmlns="http://www.w3.org/2000/svg" xmlns:xlink="http://www.w3.org/1999/xlink" x="0px" y="0px"
	 viewBox="0 0 70 70" style="enable-background:new 0 0 70 70;" xml:space="preserve">
<style type="text/css">
	.st0{fill:#FFFFFF;}
</style>
<g transform="translate(0.000000,752.000000) scale(0.100000,-0.100000)">
	<path class="st0" d="M286.22,7519.15c-14.57-1.44-43.39-7.68-59.77-12.79C124.11,7474.37,46,7389.45,24.22,7286.77
		c-26.04-123.63,30.79-248.7,142.46-313.15c83.02-47.98,189.95-53.26,276.74-13.75l15.39,7.2l3.6-3.68
		c1.96-2.08,27.67-30.71,56.99-63.65c31.28-35.19,57.15-62.85,62.55-66.69c26.53-19.67,64.52-16.79,87.28,6.72
		c20.8,21.43,25.22,50.86,11.46,75.97c-2.78,5.12-28,34.71-61.41,71.97c-31.11,34.71-56.99,63.65-57.31,64.29
		c-0.33,0.48,3.77,7.68,9.17,15.99c20.31,30.55,35.21,66.53,42.9,103.8c3.28,15.99,3.77,22.71,3.77,55.82
		c-0.16,34.55-0.49,39.18-4.59,57.74c-27.02,123.79-126.42,214.95-253.81,232.54C344.36,7519.95,301.45,7520.75,286.22,7519.15z
		 M361.55,7498.52c89.74-13.27,168.17-69.41,208.95-149.22c63.54-124.91,21.62-275.25-98.41-352.5
		c-64.85-41.74-148.85-55.02-224.83-35.51c-32.1,8.32-64.19,23.03-92.52,42.38c-18.67,12.79-51.09,44.3-64.03,62.05
		c-60.26,83.01-70.09,187.92-26.2,278.61c23.91,49.1,64.03,92.12,111.68,119.47C232.02,7495.96,297.03,7508.12,361.55,7498.52z
		 M608.65,6970.9c60.42-67.65,61.73-69.57,60.26-88.12c-1.8-24.31-18.83-41.26-43.72-43.34c-11.14-0.96-22.76,2.24-31.6,8.8
		c-3.28,2.4-30.95,32.31-61.57,66.53l-55.84,62.05l9.5,5.92c14.25,9.12,32.42,23.99,48.63,39.98
		c13.92,13.75,14.74,14.39,17.36,11.67C553.3,7032.95,578.85,7004.32,608.65,6970.9z"/>
	<path class="st0" d="M278.86,7456.94c-17.36-3.04-34.55-7.84-48.47-13.43c-18.67-7.36-22.27-10.88-19.32-18.87
		c2.29-5.92,8.19-5.92,24.4,0.48c97.43,38.06,206.65,5.44,264.46-79.17c16.05-23.35,26.53-47.82,32.91-76.77
		c4.26-19.19,4.26-63.97,0-83.01c-9.83-43.98-29.15-79.17-60.59-109.71c-31.93-31.03-70.9-51.02-115.61-59.18
		c-20.96-3.84-56-3.84-76.96,0c-138.53,25.43-216.97,167.13-162.77,293.8c3.28,7.68,3.6,9.76,1.97,13.27
		c-2.13,4.48-8.68,6.88-12.61,4.48c-5.9-3.36-15.56-28.79-21.62-56.46c-4.91-22.07-5.24-63.65-0.98-85.56
		c9.83-49.1,31.77-90.04,66.65-123.95c33.57-32.79,74.34-54.38,121.67-64.29c22.27-4.64,68.28-5.12,90.06-0.8
		c94.32,18.55,166.37,85.88,188.64,175.93c19.32,77.89-4.91,160.41-63.86,217.83c-33.57,32.95-72.71,53.74-120.36,63.97
		C348.94,7459.34,296.38,7460.14,278.86,7456.94z"/>
	<path class="st0" d="M333.06,7420.15c-2.13-1.92-2.62-6.24-2.62-19.83v-17.43l-6.06-0.96c-17.19-2.56-29.97-8.16-41.43-18.07
		c-6.06-5.12-9.01-6.4-16.7-7.36c-5.24-0.64-12.61-2.88-16.38-4.96l-7.04-3.68l-13.92,13.27c-7.7,7.36-15.39,13.75-17.36,14.23
		c-4.42,1.28-12.12-4.48-12.12-8.96c0-2.08,6.06-9.44,15.23-18.71c14.25-14.23,15.23-15.67,13.76-19.51s-2.62-4.32-11.63-4.96
		c-25.71-1.6-46.83-23.03-47.32-48.14c-0.16-5.44,0.16-11.84,0.82-14.07l1.31-4.16l-16.38-1.28c-14.9-0.96-16.7-1.44-19-4.8
		c-3.11-4.64-1.8-9.6,3.11-12.63c2.78-1.6,8.19-1.76,22.43-1.12c10.32,0.64,19,0.96,19.32,0.8c0.16,0-1.97-5.12-4.91-11.2
		c-4.42-9.12-5.4-13.43-5.9-24.31c-0.66-14.55,1.47-19.51,8.68-19.51c5.73,0,8.52,4.8,9.66,16.31c1.31,12.63,4.26,20.15,11.79,29.75
		c3.11,4,5.57,8.48,5.57,10.24c0,1.6-2.62,5.28-5.73,8.16c-6.39,5.92-12.12,17.27-12.28,24.47c0,11.68,7.7,24.31,18.01,29.43
		c7.86,3.84,21.29,4.48,21.29,0.8c0-1.28,2.29-7.04,5.24-12.63c4.75-9.6,5.08-10.72,3.11-16.79c-1.15-3.84-5.08-9.76-9.17-13.91
		c-8.02-8-9.17-12.96-4.42-17.11c5.08-4.48,10.81-3.36,18.34,3.84c6.22,5.92,14.74,20.31,14.74,25.11c0,1.12,2.13,1.92,4.91,1.92
		c3.44,0,5.73,1.28,7.53,4c3.93,5.76,1.15,10.88-8.52,15.51c-17.69,8.64-18.83,32.63-1.97,43.02c4.42,2.56,7.21,3.04,15.07,2.4
		l9.66-0.64l9.17,9.28c13.43,13.43,20.63,16.79,37.83,16.79c11.95,0,15.23-0.64,23.42-4.64c9.17-4.32,22.6-17.75,22.27-22.23
		c-0.16-3.2-11.14-11.04-15.56-11.04c-5.24,0-9.99,4.16-11.3,10.08c-2.13,9.6-14.57,12.31-18.5,4c-2.13-4.64-0.49-11.2,4.59-19.51
		c3.93-6.08,13.92-13.43,18.34-13.43c2.46,0,2.95-1.44,2.95-7.68c0-8.48,3.27-13.11,9.17-13.11c6.55,0,10.48,5.92,10.48,15.83
		c0,9.12,5.9,15.19,17.69,18.55c12.45,3.68,26.36,2.56,37.5-3.04c4.75-2.24,10.32-4.16,12.45-4.16c4.75,0,9.33,4.64,9.33,9.12
		c0,3.52-7.53,10.72-14.08,13.59c-3.6,1.6-3.44,1.76,3.6,11.2c7.37,9.92,8.52,13.59,5.57,19.03c-1.31,2.08-3.44,3.04-7.37,3.04
		c-5.24,0-6.55-1.12-15.88-13.59l-10.15-13.59h-9.17h-9.17l-7.04,10.4c-7.53,11.35-19.32,21.11-31.77,26.23l-7.86,3.36l0.33,18.23
		c0.33,13.11-0.33,19.19-1.8,20.95C344.19,7423.51,336.33,7423.35,333.06,7420.15z"/>
	<path class="st0" d="M158.17,7399.52c-10.64-8.96-24.24-24.15-24.24-27.35c0-4.16,7.86-10.56,11.46-9.44
		c4.26,1.28,32.26,28.63,33.57,32.79c1.15,3.52-5.4,11.2-9.66,11.2C168,7406.72,163.08,7403.52,158.17,7399.52z"/>
	<path class="st0" d="M301.94,7314.12c-3.93-4.32-7.53-16.79-7.53-26.39c0.16-16.47,11.46-30.23,29.31-35.19
		c17.69-4.8,28-2.4,28,6.56c0,4.96-4.75,8-15.23,9.92c-20.8,3.68-26.53,13.27-19.81,32.63c2.46,7.04,2.46,7.84,0,11.52
		C313.41,7318.12,306.04,7318.44,301.94,7314.12z"/>
	<path class="st0" d="M461.44,7290.29c-3.27-2.56-3.77-4.32-3.44-13.11c0.65-21.91-9.99-39.02-27.35-43.82
		c-5.24-1.44-12.61-2.56-16.38-2.56c-5.57,0-7.37-0.8-9.66-4.16c-2.46-3.84-2.46-4.64-0.33-8.48c3.77-6.4,9.17-7.52,23.91-4.48
		c7.04,1.6,13.92,2.88,15.23,3.2c3.44,0.48,7.04-11.04,5.73-18.39c-1.15-6.24-9.33-18.87-12.45-18.87c-0.98,0-4.75,2.08-8.52,4.48
		c-10.97,7.04-15.56,8.48-32.42,9.76c-12.77,0.96-17.19,2.08-23.42,5.6c-7.86,4.48-12.45,10.88-12.45,17.75
		c0,4.8-5.24,10.4-9.83,10.4c-4.42,0-9.83-5.6-9.83-9.92c0-11.36,7.86-25.59,18.01-32.47l6.06-4.16l-4.59-4.64
		c-5.4-5.28-6.06-11.04-1.8-14.87c4.26-3.68,9.17-3.36,14.57,1.12c16.21,13.27,35.04,14.39,48.47,2.88
		c4.91-4.16,3.77-20.15-2.13-31.99c-8.84-17.11-23.58-26.39-42.58-26.55c-16.7-0.16-19,0.8-20.31,9.76
		c-2.13,15.99-11.95,27.67-25.22,30.23c-15.56,3.04-18.67-15.51-3.28-19.19c5.08-1.12,9.99-8.8,9.17-14.23
		c-0.98-6.72-16.38-4.48-27.18,3.84c-5.24,3.84-10.32,3.84-15.56-0.16c-6.88-5.28-15.23-8-24.89-8c-10.97,0-19.32,3.2-26.69,10.08
		c-5.08,4.64-11.14,13.75-9.83,14.55c0.33,0.16,4.09,1.76,8.68,3.36c21.29,7.68,35.53,33.75,22.27,40.78
		c-5.24,2.72-9.99-0.48-14.57-9.6c-4.91-9.6-11.63-14.07-23.25-15.51c-6.06-0.8-7.86-0.16-18.01,6.56s-11.63,7.36-15.07,5.6
		c-4.75-2.4-6.22-4.48-6.22-8.8c0-4,10.48-13.91,18.83-17.75c4.42-2.08,6.22-4.32,8.19-9.92c1.31-4,3.93-9.44,5.73-12.16l3.11-4.64
		l-11.3-11.52c-12.12-12.15-13.59-16.15-8.19-21.43c5.57-5.44,9.5-3.84,22.76,8.48l12.45,11.68l8.19-4.16c6.88-3.36,10.48-4,22.93-4
		c12.61,0,16.05,0.64,24.07,4.16c6.71,3.2,9.66,3.84,10.97,2.56c1.15-1.12,1.8-8.48,1.8-18.71c0-11.04,0.65-17.59,1.97-18.87
		c2.62-2.56,11.95-2.4,14.08,0.16c0.98,1.12,1.96,8.48,2.29,16.47l0.49,14.23l9.83,1.28c12.77,1.6,11.79,1.6,22.11-1.28
		c11.63-3.36,30.46-2.4,42.58,2.24c5.08,1.76,13.59,6.88,19.16,11.2l9.99,7.84l9.5-7.84c11.46-9.44,14.41-10.56,19.49-7.2
		c6.22,4,5.57,10.88-1.96,17.27c-3.28,2.88-8.52,7.52-11.46,10.08l-5.24,4.8l2.29,8.8c1.31,4.8,2.46,12,2.46,15.99
		c0,6.56,0.66,7.52,6.55,11.67c3.6,2.4,7.7,6.72,9.33,9.28c3.28,5.44,4.09,5.44,23.74,1.28c8.52-1.92,9.66-1.76,12.77,0.96
		c3.77,3.36,4.26,8.48,1.31,12.47c-1.15,1.44-7.86,4-15.23,5.6l-13.1,3.04l-0.98,8.96c-0.49,4.8-2.46,11.68-4.26,15.03l-3.28,6.08
		l3.77,5.6c2.13,3.04,5.57,9.28,7.37,13.75l3.6,8.32l11.3-4c10.32-3.84,11.46-3.84,15.07-1.44c10.48,6.56,6.22,14.71-10.97,20.79
		c-12.12,4.32-12.45,4.48-13.43,10.72c-0.98,5.92-5.57,11.04-9.99,11.04C465.86,7293.17,463.4,7291.89,461.44,7290.29z"/>
</g>
</svg>
