<?xml version="1.0" encoding="utf-8"?>
<!-- Generator: Adobe Illustrator 27.3.1, SVG Export Plug-In . SVG Version: 6.00 Build 0)  -->
<svg version="1.1" id="Layer_1" xmlns="http://www.w3.org/2000/svg" xmlns:xlink="http://www.w3.org/1999/xlink" x="0px" y="0px"
	 viewBox="0 0 752 752" style="enable-background:new 0 0 752 752;" xml:space="preserve">
<style type="text/css">
	.st0{fill:#FFFFFF;}
</style>
<rect x="-10" y="-8.7" width="774" height="774"/>
<g transform="translate(0.000000,752.000000) scale(0.100000,-0.100000)">
	<path class="st0" d="M3350,5943c-89-9-265-48-365-80c-625-200-1102-731-1235-1373c-159-773,188-1555,870-1958
		c507-300,1160-333,1690-86l94,45l22-23c12-13,169-192,348-398c191-220,349-393,382-417c162-123,394-105,533,42
		c127,134,154,318,70,475c-17,32-171,217-375,450c-190,217-348,398-350,402c-2,3,23,48,56,100c124,191,215,416,262,649
		c20,100,23,142,23,349c-1,216-3,245-28,361c-165,774-772,1344-1550,1454C3705,5948,3443,5953,3350,5943z M3810,5814
		c548-83,1027-434,1276-933c388-781,132-1721-601-2204c-396-261-909-344-1373-222c-196,52-392,144-565,265c-114,80-312,277-391,388
		c-368,519-428,1175-160,1742c146,307,391,576,682,747C3019,5798,3416,5874,3810,5814z M5319,2515c369-423,377-435,368-551
		c-11-152-115-258-267-271c-68-6-139,14-193,55c-20,15-189,202-376,416l-341,388l58,37c87,57,198,150,297,250c85,86,90,90,106,73
		C4981,2903,5137,2724,5319,2515z"/>
	<path class="st0" d="M3305,5554c-106-19-211-49-296-84c-114-46-136-68-118-118c14-37,50-37,149,3c595,238,1262,34,1615-495
		c98-146,162-299,201-480c26-120,26-400,0-519c-60-275-178-495-370-686c-195-194-433-319-706-370c-128-24-342-24-470,0
		c-846,159-1325,1045-994,1837c20,48,22,61,12,83c-13,28-53,43-77,28c-36-21-95-180-132-353c-30-138-32-398-6-535
		c60-307,194-563,407-775c205-205,454-340,743-402c136-29,417-32,550-5c576,116,1016,537,1152,1100c118,487-30,1003-390,1362
		c-205,206-444,336-735,400C3733,5569,3412,5574,3305,5554z"/>
	<path class="st0" d="M3636,5324c-13-12-16-39-16-124v-109l-37-6c-105-16-183-51-253-113c-37-32-55-40-102-46c-32-4-77-18-100-31
		l-43-23l-85,83c-47,46-94,86-106,89c-27,8-74-28-74-56c0-13,37-59,93-117c87-89,93-98,84-122s-16-27-71-31c-157-10-286-144-289-301
		c-1-34,1-74,5-88l8-26l-100-8c-91-6-102-9-116-30c-19-29-11-60,19-79c17-10,50-11,137-7c63,4,116,6,118,5c1,0-12-32-30-70
		c-27-57-33-84-36-152c-4-91,9-122,53-122c35,0,52,30,59,102c8,79,26,126,72,186c19,25,34,53,34,64c0,10-16,33-35,51
		c-39,37-74,108-75,153c0,73,47,152,110,184c48,24,130,28,130,5c0-8,14-44,32-79c29-60,31-67,19-105c-7-24-31-61-56-87
		c-49-50-56-81-27-107c31-28,66-21,112,24c38,37,90,127,90,157c0,7,13,12,30,12c21,0,35,8,46,25c24,36,7,68-52,97
		c-108,54-115,204-12,269c27,16,44,19,92,15l59-4l56,58c82,84,126,105,231,105c73,0,93-4,143-29c56-27,138-111,136-139
		c-1-20-68-69-95-69c-32,0-61,26-69,63c-13,60-89,77-113,25c-13-29-3-70,28-122c24-38,85-84,112-84c15,0,18-9,18-48
		c0-53,20-82,56-82c40,0,64,37,64,99c0,57,36,95,108,116c76,23,161,16,229-19c29-14,63-26,76-26c29,0,57,29,57,57c0,22-46,67-86,85
		c-22,10-21,11,22,70c45,62,52,85,34,119c-8,13-21,19-45,19c-32,0-40-7-97-85l-62-85h-56h-56l-43,65c-46,71-118,132-194,164l-48,21
		l2,114c2,82-2,120-11,131C3704,5345,3656,5344,3636,5324z"/>
	<path class="st0" d="M2568,5195c-65-56-148-151-148-171c0-26,48-66,70-59c26,8,197,179,205,205c7,22-33,70-59,70
		C2628,5240,2598,5220,2568,5195z"/>
	<path class="st0" d="M3446,4661c-24-27-46-105-46-165c1-103,70-189,179-220c108-30,171-15,171,41c0,31-29,50-93,62
		c-127,23-162,83-121,204c15,44,15,49,0,72C3516,4686,3471,4688,3446,4661z"/>
	<path class="st0" d="M4420,4512c-20-16-23-27-21-82c4-137-61-244-167-274c-32-9-77-16-100-16c-34,0-45-5-59-26c-15-24-15-29-2-53
		c23-40,56-47,146-28c43,10,85,18,93,20c21,3,43-69,35-115c-7-39-57-118-76-118c-6,0-29,13-52,28c-67,44-95,53-198,61
		c-78,6-105,13-143,35c-48,28-76,68-76,111c0,30-32,65-60,65c-27,0-60-35-60-62c0-71,48-160,110-203l37-26l-28-29
		c-33-33-37-69-11-93c26-23,56-21,89,7c99,83,214,90,296,18c30-26,23-126-13-200c-54-107-144-165-260-166c-102-1-116,5-124,61
		c-13,100-73,173-154,189c-95,19-114-97-20-120c31-7,61-55,56-89c-6-42-100-28-166,24c-32,24-63,24-95-1c-42-33-93-50-152-50
		c-67,0-118,20-163,63c-31,29-68,86-60,91c2,1,25,11,53,21c130,48,217,211,136,255c-32,17-61-3-89-60c-30-60-71-88-142-97
		c-37-5-48-1-110,41s-71,46-92,35c-29-15-38-28-38-55c0-25,64-87,115-111c27-13,38-27,50-62c8-25,24-59,35-76l19-29l-69-72
		c-74-76-83-101-50-134c34-34,58-24,139,53l76,73l50-26c42-21,64-25,140-25c77,0,98,4,147,26c41,20,59,24,67,16c7-7,11-53,11-117
		c0-69,4-110,12-118c16-16,73-15,86,1c6,7,12,53,14,103l3,89l60,8c78,10,72,10,135-8c71-21,186-15,260,14c31,11,83,43,117,70l61,49
		l58-49c70-59,88-66,119-45c38,25,34,68-12,108c-20,18-52,47-70,63l-32,30l14,55c8,30,15,75,15,100c0,41,4,47,40,73
		c22,15,47,42,57,58c20,34,25,34,145,8c52-12,59-11,78,6c23,21,26,53,8,78c-7,9-48,25-93,35l-80,19l-6,56c-3,30-15,73-26,94l-20,38
		l23,35c13,19,34,58,45,86l22,52l69-25c63-24,70-24,92-9c64,41,38,92-67,130c-74,27-76,28-82,67c-6,37-34,69-61,69
		C4447,4530,4432,4522,4420,4512z"/>
</g>
</svg>
