<?xml version="1.0" encoding="utf-8"?>
<!-- Generator: Adobe Illustrator 27.3.1, SVG Export Plug-In . SVG Version: 6.00 Build 0)  -->
<svg version="1.1" id="Layer_1" xmlns="http://www.w3.org/2000/svg" xmlns:xlink="http://www.w3.org/1999/xlink" x="0px" y="0px"
	 viewBox="0 0 70 70" style="enable-background:new 0 0 70 70;" xml:space="preserve">
<style type="text/css">
	.st0{fill:#79ADDD;}
</style>
<g transform="translate(0.000000,752.000000) scale(0.100000,-0.100000)">
	<path class="st0" d="M288.01,7519.15c-14.59-1.44-43.45-7.68-59.84-12.79C125.7,7474.37,47.5,7389.45,25.69,7286.77
		c-26.07-123.63,30.82-248.7,142.64-313.15c83.12-47.98,190.18-53.26,277.08-13.75l15.41,7.2l3.61-3.68
		c1.97-2.08,27.71-30.71,57.06-63.65c31.31-35.19,57.22-62.85,62.63-66.69c26.56-19.67,64.6-16.79,87.39,6.72
		c20.82,21.43,25.25,50.86,11.48,75.97c-2.79,5.12-28.04,34.71-61.48,71.97c-31.15,34.71-57.06,63.65-57.38,64.29
		c-0.33,0.48,3.77,7.68,9.18,15.99c20.33,30.55,35.25,66.53,42.96,103.8c3.28,15.99,3.77,22.71,3.77,55.82
		c-0.16,34.55-0.49,39.18-4.59,57.74c-27.05,123.79-126.57,214.95-254.12,232.54C346.22,7519.95,303.26,7520.75,288.01,7519.15z
		 M363.43,7498.52c89.85-13.27,168.38-69.41,209.2-149.22c63.61-124.91,21.64-275.25-98.53-352.5
		c-64.92-41.74-149.03-55.02-225.11-35.51c-32.13,8.32-64.27,23.03-92.63,42.38c-18.69,12.79-51.15,44.3-64.1,62.05
		c-60.33,83.01-70.17,187.92-26.23,278.61c23.94,49.1,64.1,92.12,111.81,119.47C233.75,7495.96,298.83,7508.12,363.43,7498.52z
		 M610.83,6970.9c60.5-67.65,61.81-69.57,60.33-88.12c-1.8-24.31-18.85-41.26-43.77-43.34c-11.15-0.96-22.79,2.24-31.64,8.8
		c-3.28,2.4-30.99,32.31-61.65,66.53l-55.91,62.05l9.51,5.92c14.26,9.12,32.46,23.99,48.69,39.98
		c13.94,13.75,14.76,14.39,17.38,11.67C555.42,7032.95,580.99,7004.32,610.83,6970.9z"/>
	<path class="st0" d="M280.64,7456.94c-17.38-3.04-34.59-7.84-48.53-13.43c-18.69-7.36-22.3-10.88-19.35-18.87
		c2.3-5.92,8.2-5.92,24.43,0.48c97.55,38.06,206.91,5.44,264.78-79.17c16.07-23.35,26.56-47.82,32.95-76.77
		c4.26-19.19,4.26-63.97,0-83.01c-9.84-43.98-29.18-79.17-60.66-109.71c-31.97-31.03-70.99-51.02-115.75-59.18
		c-20.99-3.84-56.07-3.84-77.06,0c-138.7,25.43-217.24,167.13-162.97,293.8c3.28,7.68,3.61,9.76,1.97,13.27
		c-2.13,4.48-8.69,6.88-12.62,4.48c-5.9-3.36-15.58-28.79-21.64-56.46c-4.92-22.07-5.25-63.65-0.98-85.56
		c9.84-49.1,31.81-90.04,66.73-123.95c33.61-32.79,74.43-54.38,121.82-64.29c22.3-4.64,68.37-5.12,90.17-0.8
		c94.44,18.55,166.57,85.88,188.87,175.93c19.35,77.89-4.92,160.41-63.94,217.83c-33.61,32.95-72.79,53.74-120.5,63.97
		C350.81,7459.34,298.18,7460.14,280.64,7456.94z"/>
	<path class="st0" d="M334.9,7420.15c-2.13-1.92-2.62-6.24-2.62-19.83v-17.43l-6.07-0.96c-17.21-2.56-30-8.16-41.48-18.07
		c-6.07-5.12-9.02-6.4-16.72-7.36c-5.25-0.64-12.62-2.88-16.4-4.96l-7.05-3.68l-13.94,13.27c-7.71,7.36-15.41,13.75-17.38,14.23
		c-4.43,1.28-12.13-4.48-12.13-8.96c0-2.08,6.07-9.44,15.25-18.71c14.26-14.23,15.25-15.67,13.77-19.51
		c-1.48-3.84-2.62-4.32-11.64-4.96c-25.74-1.6-46.89-23.03-47.38-48.14c-0.16-5.44,0.16-11.84,0.82-14.07l1.31-4.16l-16.4-1.28
		c-14.92-0.96-16.72-1.44-19.02-4.8c-3.12-4.64-1.8-9.6,3.12-12.63c2.79-1.6,8.2-1.76,22.46-1.12c10.33,0.64,19.02,0.96,19.35,0.8
		c0.16,0-1.97-5.12-4.92-11.2c-4.43-9.12-5.41-13.43-5.9-24.31c-0.66-14.55,1.48-19.51,8.69-19.51c5.74,0,8.53,4.8,9.67,16.31
		c1.31,12.63,4.26,20.15,11.8,29.75c3.12,4,5.57,8.48,5.57,10.24c0,1.6-2.62,5.28-5.74,8.16c-6.39,5.92-12.13,17.27-12.3,24.47
		c0,11.68,7.71,24.31,18.03,29.43c7.87,3.84,21.31,4.48,21.31,0.8c0-1.28,2.3-7.04,5.25-12.63c4.75-9.6,5.08-10.72,3.12-16.79
		c-1.15-3.84-5.08-9.76-9.18-13.91c-8.03-8-9.18-12.96-4.43-17.11c5.08-4.48,10.82-3.36,18.36,3.84
		c6.23,5.92,14.76,20.31,14.76,25.11c0,1.12,2.13,1.92,4.92,1.92c3.44,0,5.74,1.28,7.54,4c3.93,5.76,1.15,10.88-8.53,15.51
		c-17.71,8.64-18.85,32.63-1.97,43.02c4.43,2.56,7.21,3.04,15.08,2.4l9.67-0.64l9.18,9.28c13.44,13.43,20.66,16.79,37.87,16.79
		c11.97,0,15.25-0.64,23.45-4.64c9.18-4.32,22.63-17.75,22.3-22.23c-0.16-3.2-11.15-11.04-15.58-11.04c-5.25,0-10,4.16-11.31,10.08
		c-2.13,9.6-14.59,12.31-18.53,4c-2.13-4.64-0.49-11.2,4.59-19.51c3.93-6.08,13.94-13.43,18.36-13.43c2.46,0,2.95-1.44,2.95-7.68
		c0-8.48,3.28-13.11,9.18-13.11c6.56,0,10.49,5.92,10.49,15.83c0,9.12,5.9,15.19,17.71,18.55c12.46,3.68,26.4,2.56,37.54-3.04
		c4.75-2.24,10.33-4.16,12.46-4.16c4.75,0,9.35,4.64,9.35,9.12c0,3.52-7.54,10.72-14.1,13.59c-3.61,1.6-3.44,1.76,3.61,11.2
		c7.38,9.92,8.53,13.59,5.57,19.03c-1.31,2.08-3.44,3.04-7.38,3.04c-5.25,0-6.56-1.12-15.9-13.59l-10.16-13.59h-9.18h-9.18
		l-7.05,10.4c-7.54,11.35-19.35,21.11-31.81,26.23l-7.87,3.36l0.33,18.23c0.33,13.11-0.33,19.19-1.8,20.95
		C346.05,7423.51,338.18,7423.35,334.9,7420.15z"/>
	<path class="st0" d="M159.8,7399.52c-10.66-8.96-24.26-24.15-24.26-27.35c0-4.16,7.87-10.56,11.48-9.44
		c4.26,1.28,32.3,28.63,33.61,32.79c1.15,3.52-5.41,11.2-9.67,11.2C169.64,7406.72,164.72,7403.52,159.8,7399.52z"/>
	<path class="st0" d="M303.75,7314.12c-3.93-4.32-7.54-16.79-7.54-26.39c0.16-16.47,11.48-30.23,29.35-35.19
		c17.71-4.8,28.04-2.4,28.04,6.56c0,4.96-4.75,8-15.25,9.92c-20.82,3.68-26.56,13.27-19.84,32.63c2.46,7.04,2.46,7.84,0,11.52
		C315.23,7318.12,307.85,7318.44,303.75,7314.12z"/>
	<path class="st0" d="M463.44,7290.29c-3.28-2.56-3.77-4.32-3.44-13.11c0.66-21.91-10-39.02-27.38-43.82
		c-5.25-1.44-12.62-2.56-16.4-2.56c-5.57,0-7.38-0.8-9.67-4.16c-2.46-3.84-2.46-4.64-0.33-8.48c3.77-6.4,9.18-7.52,23.94-4.48
		c7.05,1.6,13.94,2.88,15.25,3.2c3.44,0.48,7.05-11.04,5.74-18.39c-1.15-6.24-9.35-18.87-12.46-18.87c-0.98,0-4.75,2.08-8.53,4.48
		c-10.98,7.04-15.58,8.48-32.46,9.76c-12.79,0.96-17.21,2.08-23.45,5.6c-7.87,4.48-12.46,10.88-12.46,17.75
		c0,4.8-5.25,10.4-9.84,10.4c-4.43,0-9.84-5.6-9.84-9.92c0-11.36,7.87-25.59,18.03-32.47l6.07-4.16l-4.59-4.64
		c-5.41-5.28-6.07-11.04-1.8-14.87c4.26-3.68,9.18-3.36,14.59,1.12c16.23,13.27,35.09,14.39,48.53,2.88
		c4.92-4.16,3.77-20.15-2.13-31.99c-8.85-17.11-23.61-26.39-42.63-26.55c-16.72-0.16-19.02,0.8-20.33,9.76
		c-2.13,15.99-11.97,27.67-25.25,30.23c-15.58,3.04-18.69-15.51-3.28-19.19c5.08-1.12,10-8.8,9.18-14.23
		c-0.98-6.72-16.4-4.48-27.22,3.84c-5.25,3.84-10.33,3.84-15.58-0.16c-6.89-5.28-15.25-8-24.92-8c-10.98,0-19.35,3.2-26.72,10.08
		c-5.08,4.64-11.15,13.75-9.84,14.55c0.33,0.16,4.1,1.76,8.69,3.36c21.31,7.68,35.58,33.75,22.3,40.78c-5.25,2.72-10-0.48-14.59-9.6
		c-4.92-9.6-11.64-14.07-23.28-15.51c-6.07-0.8-7.87-0.16-18.03,6.56s-11.64,7.36-15.08,5.6c-4.75-2.4-6.23-4.48-6.23-8.8
		c0-4,10.49-13.91,18.85-17.75c4.43-2.08,6.23-4.32,8.2-9.92c1.31-4,3.93-9.44,5.74-12.16l3.12-4.64l-11.31-11.52
		c-12.13-12.15-13.61-16.15-8.2-21.43c5.57-5.44,9.51-3.84,22.79,8.48l12.46,11.68l8.2-4.16c6.89-3.36,10.49-4,22.95-4
		c12.62,0,16.07,0.64,24.1,4.16c6.72,3.2,9.67,3.84,10.98,2.56c1.15-1.12,1.8-8.48,1.8-18.71c0-11.04,0.66-17.59,1.97-18.87
		c2.62-2.56,11.97-2.4,14.1,0.16c0.98,1.12,1.97,8.48,2.3,16.47l0.49,14.23l9.84,1.28c12.79,1.6,11.8,1.6,22.13-1.28
		c11.64-3.36,30.49-2.4,42.63,2.24c5.08,1.76,13.61,6.88,19.18,11.2l10,7.84l9.51-7.84c11.48-9.44,14.43-10.56,19.51-7.2
		c6.23,4,5.57,10.88-1.97,17.27c-3.28,2.88-8.53,7.52-11.48,10.08l-5.25,4.8l2.3,8.8c1.31,4.8,2.46,12,2.46,15.99
		c0,6.56,0.66,7.52,6.56,11.67c3.61,2.4,7.71,6.72,9.35,9.28c3.28,5.44,4.1,5.44,23.77,1.28c8.53-1.92,9.67-1.76,12.79,0.96
		c3.77,3.36,4.26,8.48,1.31,12.47c-1.15,1.44-7.87,4-15.25,5.6l-13.12,3.04l-0.98,8.96c-0.49,4.8-2.46,11.68-4.26,15.03l-3.28,6.08
		l3.77,5.6c2.13,3.04,5.57,9.28,7.38,13.75l3.61,8.32l11.31-4c10.33-3.84,11.48-3.84,15.08-1.44c10.49,6.56,6.23,14.71-10.98,20.79
		c-12.13,4.32-12.46,4.48-13.44,10.72c-0.98,5.92-5.57,11.04-10,11.04C467.87,7293.17,465.41,7291.89,463.44,7290.29z"/>
</g>
</svg>
