<?xml version="1.0" encoding="utf-8"?>
<!-- Generator: Adobe Illustrator 27.3.1, SVG Export Plug-In . SVG Version: 6.00 Build 0)  -->
<svg version="1.1" id="Layer_1" xmlns="http://www.w3.org/2000/svg" xmlns:xlink="http://www.w3.org/1999/xlink" x="0px" y="0px"
	 viewBox="0 0 752 752" style="enable-background:new 0 0 752 752;" xml:space="preserve">
<style type="text/css">
	.st0{fill:#FFFFFF;}
</style>
<rect x="-18" y="-19.7" width="792" height="792"/>
<g transform="translate(0.000000,752.000000) scale(0.100000,-0.100000)">
	<path class="st0" d="M2890,6069c-710-68-1294-607-1426-1314c-29-152-26-462,5-605c124-579,520-1026,1071-1211
		c312-104,685-107,996-8c196,62,415,184,558,309l59,52l175-175l176-176l-60-63c-88-94-105-172-59-264c33-66,1111-1145,1167-1169
		c52-21,131-19,176,4c20,11,105,88,189,173c127,129,153,160,163,197c16,60,5,120-30,172c-16,24-276,290-577,590
		c-589,588-573,573-675,571c-59-1-98-21-165-85l-54-51l-176,176l-176,176l45,51c68,75,159,214,216,326c294,588,201,1296-235,1791
		C3914,5920,3405,6119,2890,6069z M3267,5954c331-49,617-194,853-433c220-223,358-494,412-806c26-155,21-418-11-562
		c-116-525-478-934-981-1111c-171-60-274-76-490-76c-211,0-302,14-475,71c-704,232-1134,948-1009,1683c89,520,441,952,936,1149
		c85,34,259,78,349,90C2958,5973,3157,5971,3267,5954z M4858,3036c15-8,49-37,77-65l50-51l-195-196l-195-195l-62,65
		c-101,106-95,128,69,294S4794,3070,4858,3036z M5420,2485l355-355l-195-195l-195-195l-352,352c-194,194-353,357-353,363
		c0,10,370,385,380,385C5063,2840,5225,2680,5420,2485z M5919,1985c54-59,61-70,61-107c0-40-5-47-147-189c-151-153-176-169-227-149
		c-31,11-136,107-136,124c0,11,370,386,381,386C5855,2050,5885,2021,5919,1985z"/>
	<path class="st0" d="M2910,5715c-8-2-49-9-90-15c-242-39-513-187-685-372c-228-247-339-529-339-863c0-344,121-641,359-881
		c182-183,389-295,648-351c115-25,379-25,497,1c174,38,306,94,458,195c258,173,445,449,517,764c38,166,38,386,0,550
		c-112,480-483,846-965,952C3242,5710,2950,5725,2910,5715z M3175,5610c362-41,675-244,865-560c160-265,202-604,114-907
		c-171-590-793-945-1388-793c-407,104-719,414-832,825c-26,93-28,114-28,290c0,174,2,198,27,289c108,403,423,718,822,824
		C2901,5617,3026,5627,3175,5610z"/>
	<path class="st0" d="M2926,5060c-272-43-530-184-763-417c-51-51-105-111-120-134l-27-41l19-34c30-55,201-223,319-311
		c258-193,543-284,800-255c136,16,231,44,351,102c149,72,263,157,423,317c129,130,142,146,142,178s-13,48-142,178
		c-82,81-182,170-233,206c-121,85-269,156-389,186C3194,5063,3021,5075,2926,5060z M3295,4932c183-54,352-160,533-336
		c67-65,122-123,122-129c0-5-42-52-92-104c-173-176-366-302-554-359c-81-25-103-28-244-28c-139,0-164,3-241,27
		c-208,64-382,171-563,347l-119,116l96,96c201,201,425,333,647,383C2974,4966,3202,4959,3295,4932z"/>
	<path class="st0" d="M2915,4752c-68-33-127-93-158-161c-30-65-30-187,0-252c29-64,87-125,147-157c45-24,62-27,146-27
		c87,0,100,3,148,29c222,123,222,440,0,561c-44,24-67,30-138,33C2983,4781,2970,4779,2915,4752z M3113,4669c52-14,112-71,133-124
		c60-159-78-322-242-286c-98,22-164,105-164,205c0,68,12,102,53,145C2953,4672,3029,4693,3113,4669z"/>
</g>
</svg>
