<?xml version="1.0" encoding="utf-8"?>
<!-- Generator: Adobe Illustrator 27.3.1, SVG Export Plug-In . SVG Version: 6.00 Build 0)  -->
<svg version="1.1" id="Layer_1" xmlns="http://www.w3.org/2000/svg" xmlns:xlink="http://www.w3.org/1999/xlink" x="0px" y="0px"
	 viewBox="0 0 70 70" style="enable-background:new 0 0 70 70;" xml:space="preserve">
<style type="text/css">
	.st0{fill:#FFFFFF;}
</style>
<g transform="translate(0.000000,752.000000) scale(0.100000,-0.100000)">
	<path class="st0" d="M218.31,7518.86c-106.97-10.25-194.96-91.45-214.84-197.97c-4.37-22.9-3.92-69.61,0.75-91.15
		c18.68-87.23,78.34-154.58,161.36-182.45c47.01-15.67,103.2-16.12,150.06-1.21c29.53,9.34,62.52,27.72,84.07,46.55l8.89,7.83
		l26.37-26.37l26.52-26.52l-9.04-9.49c-13.26-14.16-15.82-25.91-8.89-39.77c4.97-9.94,167.39-172.51,175.82-176.12
		c7.83-3.16,19.74-2.86,26.52,0.6c3.01,1.66,15.82,13.26,28.48,26.06c19.13,19.44,23.05,24.11,24.56,29.68
		c2.41,9.04,0.75,18.08-4.52,25.91c-2.41,3.62-41.58,43.69-86.93,88.89c-88.74,88.59-86.33,86.33-101.7,86.03
		c-8.89-0.15-14.76-3.16-24.86-12.81l-8.14-7.68l-26.52,26.52l-26.52,26.52l6.78,7.68c10.24,11.3,23.96,32.24,32.54,49.12
		c44.29,88.59,30.28,195.26-35.41,269.83C372.58,7496.41,295.9,7526.39,218.31,7518.86z M275.11,7501.53
		c49.87-7.38,92.96-29.23,128.51-65.24c33.15-33.6,53.94-74.43,62.07-121.43c3.92-23.35,3.16-62.98-1.66-84.67
		c-17.48-79.1-72.02-140.72-147.8-167.39c-25.76-9.04-41.28-11.45-73.82-11.45c-31.79,0-45.5,2.11-71.56,10.7
		C64.78,7097,0,7204.88,18.83,7315.61c13.41,78.34,66.44,143.43,141.02,173.11c12.81,5.12,39.02,11.75,52.58,13.56
		C228.55,7504.39,258.53,7504.09,275.11,7501.53z M514.81,7061.9c2.26-1.21,7.38-5.57,11.6-9.79l7.53-7.68l-29.38-29.53
		l-29.38-29.38l-9.34,9.79c-15.22,15.97-14.31,19.28,10.4,44.29C500.95,7064.61,505.17,7067.02,514.81,7061.9z M599.48,6978.88
		l53.48-53.48l-29.38-29.38l-29.38-29.38l-53.03,53.03c-29.23,29.23-53.18,53.79-53.18,54.69c0,1.51,55.74,58,57.25,58
		C545.69,7032.37,570.1,7008.26,599.48,6978.88z M674.66,6903.55c8.14-8.89,9.19-10.55,9.19-16.12c0-6.03-0.75-7.08-22.15-28.48
		c-22.75-23.05-26.52-25.46-34.2-22.45c-4.67,1.66-20.49,16.12-20.49,18.68c0,1.66,55.74,58.16,57.4,58.16
		C665.02,6913.35,669.54,6908.98,674.66,6903.55z"/>
	<path class="st0" d="M221.32,7465.52c-1.21-0.3-7.38-1.36-13.56-2.26c-36.46-5.88-77.29-28.17-103.2-56.05
		c-34.35-37.21-51.07-79.7-51.07-130.02c0-51.83,18.23-96.57,54.09-132.73c27.42-27.57,58.61-44.45,97.63-52.88
		c17.33-3.77,57.1-3.77,74.88,0.15c26.22,5.73,46.1,14.16,69,29.38c38.87,26.06,67.04,67.65,77.89,115.11
		c5.73,25.01,5.73,58.16,0,82.86c-16.87,72.32-72.77,127.46-145.39,143.43C271.34,7464.77,227.35,7467.03,221.32,7465.52z
		 M261.24,7449.7c54.54-6.18,101.7-36.76,130.32-84.37c24.11-39.93,30.43-91,17.18-136.65c-25.76-88.89-119.47-142.38-209.12-119.47
		c-61.32,15.67-108.33,62.37-125.35,124.3c-3.92,14.01-4.22,17.18-4.22,43.69c0,26.21,0.3,29.83,4.07,43.54
		c16.27,60.72,63.73,108.18,123.84,124.15C219.96,7450.76,238.8,7452.26,261.24,7449.7z"/>
	<path class="st0" d="M223.73,7366.84c-40.98-6.48-79.85-27.72-114.95-62.83c-7.68-7.68-15.82-16.72-18.08-20.19l-4.07-6.18
		l2.86-5.12c4.52-8.29,30.28-33.6,48.06-46.86c38.87-29.08,81.81-42.79,120.53-38.42c20.49,2.41,34.8,6.63,52.88,15.37
		c22.45,10.85,39.62,23.65,63.73,47.76c19.44,19.59,21.39,22,21.39,26.82s-1.96,7.23-21.39,26.82
		c-12.35,12.2-27.42,25.61-35.1,31.04c-18.23,12.81-40.53,23.5-58.61,28.02C264.11,7367.29,238.04,7369.1,223.73,7366.84z
		 M279.32,7347.55c27.57-8.14,53.03-24.11,80.3-50.62c10.09-9.79,18.38-18.53,18.38-19.44c0-0.75-6.33-7.83-13.86-15.67
		c-26.06-26.52-55.14-45.5-83.47-54.09c-12.2-3.77-15.52-4.22-36.76-4.22c-20.94,0-24.71,0.45-36.31,4.07
		c-31.34,9.64-57.55,25.76-84.82,52.28l-17.93,17.48l14.46,14.46c30.28,30.28,64.03,50.17,97.48,57.7
		C230.96,7352.68,265.31,7351.62,279.32,7347.55z"/>
	<path class="st0" d="M222.07,7320.43c-10.24-4.97-19.13-14.01-23.8-24.26c-4.52-9.79-4.52-28.17,0-37.97
		c4.37-9.64,13.11-18.83,22.15-23.65c6.78-3.62,9.34-4.07,22-4.07c13.11,0,15.07,0.45,22.3,4.37c33.45,18.53,33.45,66.29,0,84.52
		c-6.63,3.62-10.09,4.52-20.79,4.97C232.32,7324.8,230.36,7324.5,222.07,7320.43z M251.9,7307.93c7.83-2.11,16.87-10.7,20.04-18.68
		c9.04-23.96-11.75-48.51-36.46-43.09c-14.76,3.31-24.71,15.82-24.71,30.89c0,10.25,1.81,15.37,7.99,21.85
		C227.8,7308.38,239.25,7311.54,251.9,7307.93z"/>
</g>
</svg>
