<?xml version="1.0" encoding="utf-8"?>
<!-- Generator: Adobe Illustrator 27.3.1, SVG Export Plug-In . SVG Version: 6.00 Build 0)  -->
<svg version="1.1" id="Layer_1" xmlns="http://www.w3.org/2000/svg" xmlns:xlink="http://www.w3.org/1999/xlink" x="0px" y="0px"
	 viewBox="0 0 70 70" style="enable-background:new 0 0 70 70;" xml:space="preserve">
<style type="text/css">
	.st0{fill:#79ADDD;}
</style>
<g transform="translate(0.000000,752.000000) scale(0.100000,-0.100000)">
	<path class="st0" d="M218.38,7518.86c-106.95-10.25-194.92-91.45-214.81-197.97c-4.37-22.9-3.92-69.61,0.75-91.15
		c18.68-87.23,78.33-154.58,161.33-182.45c47-15.67,103.19-16.12,150.03-1.21c29.52,9.34,62.51,27.72,84.06,46.55l8.89,7.83
		L435,7074.1l26.51-26.52l-9.04-9.49c-13.26-14.16-15.82-25.91-8.89-39.77c4.97-9.94,167.36-172.51,175.79-176.12
		c7.83-3.16,19.73-2.86,26.51,0.6c3.01,1.66,15.82,13.26,28.47,26.06c19.13,19.44,23.05,24.11,24.55,29.68
		c2.41,9.04,0.75,18.08-4.52,25.91c-2.41,3.62-41.58,43.69-86.92,88.89c-88.73,88.59-86.31,86.33-101.68,86.03
		c-8.89-0.15-14.76-3.16-24.86-12.81l-8.13-7.68l-26.51,26.52l-26.51,26.52l6.78,7.68c10.24,11.3,23.95,32.24,32.54,49.12
		c44.29,88.59,30.28,195.26-35.4,269.83C372.64,7496.41,295.96,7526.39,218.38,7518.86z M275.17,7501.53
		c49.86-7.38,92.94-29.23,128.49-65.24c33.14-33.6,53.93-74.43,62.06-121.43c3.92-23.35,3.16-62.98-1.66-84.67
		c-17.47-79.1-72-140.72-147.77-167.39c-25.76-9.04-41.27-11.45-73.81-11.45c-31.78,0-45.49,2.11-71.55,10.7
		C64.89,7097,0.11,7204.88,18.94,7315.61c13.41,78.34,66.43,143.43,141,173.11c12.8,5.12,39.01,11.75,52.57,13.56
		C228.63,7504.39,258.6,7504.09,275.17,7501.53z M514.84,7061.9c2.26-1.21,7.38-5.57,11.6-9.79l7.53-7.68l-29.37-29.53l-29.37-29.38
		l-9.34,9.79c-15.21,15.97-14.31,19.28,10.39,44.29C500.98,7064.61,505.2,7067.02,514.84,7061.9z M599.5,6978.88l53.48-53.48
		l-29.37-29.38l-29.37-29.38l-53.02,53.03c-29.22,29.23-53.17,53.79-53.17,54.69c0,1.51,55.74,58,57.24,58
		C545.72,7032.37,570.12,7008.26,599.5,6978.88z M674.66,6903.55c8.13-8.89,9.19-10.55,9.19-16.12c0-6.03-0.75-7.08-22.14-28.48
		c-22.75-23.05-26.51-25.46-34.19-22.45c-4.67,1.66-20.49,16.12-20.49,18.68c0,1.66,55.74,58.16,57.39,58.16
		C665.02,6913.35,669.54,6908.98,674.66,6903.55z"/>
	<path class="st0" d="M221.4,7465.52c-1.21-0.3-7.38-1.36-13.56-2.26c-36.45-5.88-77.28-28.17-103.19-56.05
		c-34.35-37.21-51.07-79.7-51.07-130.02c0-51.83,18.23-96.57,54.08-132.73c27.42-27.57,58.6-44.45,97.61-52.88
		c17.32-3.77,57.09-3.77,74.87,0.15c26.21,5.73,46.09,14.16,68.99,29.38c38.86,26.06,67.03,67.65,77.88,115.11
		c5.72,25.01,5.72,58.16,0,82.86c-16.87,72.32-72.76,127.46-145.36,143.43C271.41,7464.77,227.42,7467.03,221.4,7465.52z
		 M261.32,7449.7c54.53-6.18,101.68-36.76,130.3-84.37c24.1-39.93,30.43-91,17.17-136.65c-25.76-88.89-119.46-142.38-209.08-119.47
		c-61.31,15.67-108.31,62.37-125.33,124.3c-3.92,14.01-4.22,17.18-4.22,43.69c0,26.21,0.3,29.83,4.07,43.54
		c16.27,60.72,63.72,108.18,123.82,124.15C220.04,7450.76,238.87,7452.26,261.32,7449.7z"/>
	<path class="st0" d="M223.81,7366.84c-40.97-6.48-79.84-27.72-114.94-62.83c-7.68-7.68-15.82-16.72-18.08-20.19l-4.07-6.18
		l2.86-5.12c4.52-8.29,30.28-33.6,48.05-46.86c38.86-29.08,81.8-42.79,120.51-38.42c20.49,2.41,34.8,6.63,52.87,15.37
		c22.44,10.85,39.62,23.65,63.72,47.76c19.43,19.59,21.39,22,21.39,26.82s-1.96,7.23-21.39,26.82
		c-12.35,12.2-27.42,25.61-35.1,31.04c-18.23,12.81-40.52,23.5-58.6,28.02C264.18,7367.29,238.12,7369.1,223.81,7366.84z
		 M279.39,7347.55c27.57-8.14,53.02-24.11,80.29-50.62c10.09-9.79,18.38-18.53,18.38-19.44c0-0.75-6.33-7.83-13.86-15.67
		c-26.06-26.52-55.13-45.5-83.45-54.09c-12.2-3.77-15.52-4.22-36.76-4.22c-20.94,0-24.7,0.45-36.3,4.07
		c-31.33,9.64-57.54,25.76-84.81,52.28l-17.93,17.48l14.46,14.46c30.28,30.28,64.02,50.17,97.46,57.7
		C231.04,7352.68,265.38,7351.62,279.39,7347.55z"/>
	<path class="st0" d="M222.15,7320.43c-10.24-4.97-19.13-14.01-23.8-24.26c-4.52-9.79-4.52-28.17,0-37.97
		c4.37-9.64,13.11-18.83,22.14-23.65c6.78-3.62,9.34-4.07,21.99-4.07c13.11,0,15.06,0.45,22.29,4.37
		c33.44,18.53,33.44,66.29,0,84.52c-6.63,3.62-10.09,4.52-20.79,4.97C232.39,7324.8,230.44,7324.5,222.15,7320.43z M251.98,7307.93
		c7.83-2.11,16.87-10.7,20.03-18.68c9.04-23.96-11.75-48.51-36.45-43.09c-14.76,3.31-24.7,15.82-24.7,30.89
		c0,10.25,1.81,15.37,7.98,21.85C227.87,7308.38,239.32,7311.54,251.98,7307.93z"/>
</g>
</svg>
