<?xml version="1.0" encoding="utf-8"?>
<!-- Generator: Adobe Illustrator 27.3.1, SVG Export Plug-In . SVG Version: 6.00 Build 0)  -->
<svg version="1.1" id="Layer_1" xmlns="http://www.w3.org/2000/svg" xmlns:xlink="http://www.w3.org/1999/xlink" x="0px" y="0px"
	 viewBox="0 0 752 752" style="enable-background:new 0 0 752 752;" xml:space="preserve">
<style type="text/css">
	.st0{fill:#FFFFFF;}
</style>
<rect x="-10" y="-11.7" width="778" height="778"/>
<g transform="translate(0.000000,752.000000) scale(0.100000,-0.100000)">
	<path class="st0" d="M3279,5578.8c-322-275-620-535-664-577c-136-133-235-278-280-412c-40-120-47-209-31-425
		c18-249,28-1046,16-1145c-6-41-20-136-31-210c-33-212-46-643-32-1023c10-286,13-312,31-330c22-22,65-18,74,8c4,8,1,83-4,167
		c-7,91-9,324-6,573c5,426,7,449,53,735c21,126,22,588,1,1025c-19,427-17,493,19,597c35,97,112,219,201,317c32,36,338,305,681,598
		c425,365,622,539,622,552c0,24-26,51-48,51C3872,6079.8,3601,5854.8,3279,5578.8z"/>
	<path class="st0" d="M4723,5921.8c-271-184-520-390-779-642c-104-102-216-202-247-223c-32-21-106-59-166-86
		c-290-128-441-290-508-546c-24-93-25-284-1-374c69-259,301-440,563-441c94,0,165,19,249,65c33,18,92,42,131,54
		c97,29,155,74,193,153c25,53,32,84,41,188c19,217,46,279,183,431c272,301,768,729,1305,1123c116,86,132,101,132,127
		c0,36-30,55-62,38c-83-43-655-490-908-709c-180-156-531-498-600-585c-91-114-124-206-141-384c-14-152-23-184-66-231
		c-28-32-50-44-107-61c-39-11-98-36-131-54c-150-83-274-85-432-8c-132,64-237,202-264,348c-6,33-9,110-7,170c7,172,63,305,175,420
		c79,81,157,129,334,209c128,56,186,101,379,290c247,241,507,457,760,631c102,70,130,94,130,112c0,14-35,53-48,53
		C4827,5989.8,4778,5959.8,4723,5921.8z"/>
	<path class="st0" d="M2829,4877.8c-77-29-175-130-224-229c-84-173-66-347,56-520c47-67,79-89,133-89c83,0,140,104,157,290
		c6,67,19,130,35,175c91,250,96,271,68,326C3018,4898.8,2932,4916.8,2829,4877.8z M2965,4783.8c14-20,10-35-70-252
		c-18-47-30-108-36-175c-9-104-32-190-56-216c-12-13-16-12-34,4c-12,11-36,44-55,74c-95,158-85,323,27,468c50,66,88,93,147,109
		C2942,4810.8,2948,4809.8,2965,4783.8z"/>
	<path class="st0" d="M6344,4423.8c-127-72-633-322-830-411c-275-124-590-255-885-368c-174-66-282-113-307-133
		c-51-40-89-112-102-192c-24-145-6-247,68-400c27-58,57-134,65-170c56-240,44-762-24-1149c-11-62-18-122-15-132c8-25,52-36,70-18
		c49,49,115,696,100,979c-15,280-32,363-113,535c-56,118-57,121-60,225c-5,129,7,180,56,231c32,34,66,50,272,127
		c526,199,1028,420,1480,650c371,190,400,211,354,256C6450,4477.8,6432,4472.8,6344,4423.8z"/>
	<path class="st0" d="M2774,3940.8c-56-34-68-59-120-245c-9-33-30-86-46-118c-61-121-74-277-33-403c13-40,17-109,20-342
		c3-161,9-304,14-318c7-18,37-39,109-75c56-27,110-50,121-50s57,19,104,42l84,41l113-66c116-68,139-76,157-54c5,7,12,101,15,217
		c5,236,14,275,81,343c53,54,176,120,368,198c84,34,168,73,187,88c97,75,95,222-4,289c-63,44-118,54-255,47c-94-5-143-3-196,8
		c-163,35-317,124-420,244c-122,140-166,173-229,173C2822,3959.8,2791,3951.8,2774,3940.8z M2989,3740.8c134-138,180-174,294-226
		c120-56,224-78,346-75c172,4,199,2,238-17c64-31,80-95,34-141c-10-10-87-46-172-81c-311-127-431-211-481-339c-20-49-24-79-27-224
		l-4-167l-62,39c-129,79-113,77-218,24l-92-46l-72,35l-71,35l-6,78c-4,42-7,167-7,278c0,150-4,215-16,256c-42,150-35,247,26,380
		c21,47,44,105,50,130c36,145,59,189,100,190C2857,3869.8,2920,3811.8,2989,3740.8z"/>
	<path class="st0" d="M3600,2999.8c-135-59-172-85-200-143c-28-57-27-114,4-202c15-45,29-116,36-191c22-238,23-246,41-258
		c13-7,41-4,111,13l95,22l41-20c52-27,76-26,95,1c13,19,16,61,16,258c1,133,7,285,14,350c16,130,10,160-39,198
		C3772,3060.8,3727,3055.8,3600,2999.8z M3763,2913.8c0-21-5-102-12-180c-7-77-12-202-12-277v-137l-23,11c-17,8-39,6-84-5
		c-34-9-65-16-71-16c-5,0-13,35-16,78c-12,134-27,225-52,302c-28,85-25,116,14,153c28,26,229,119,247,113
		C3760,2954.8,3764,2935.8,3763,2913.8z"/>
	<path class="st0" d="M2609,2403.8c-6-15-10-206-10-472c0-389,2-450,16-470c18-26,46-28,68-6c14,13,16,67,16,434v419l71-34l71-34
		l92,46l93,46l96-58c87-51,97-61,103-92c4-19,4-130,1-246c-5-198-17-306-47-417c-10-36-9-45,6-61c21-24,46-24,67-1
		c23,25,55,198,67,363c13,168,4,414-15,445c-17,26-247,164-274,164c-11,0-59-19-106-42l-85-42l-85,42
		C2654,2437.8,2623,2440.8,2609,2403.8z"/>
	<path class="st0" d="M3584,2171.8c-55-15-106-31-112-35c-18-11-19-667-1-685c15-15,51-15,66,0c9,9,12,92,12,313v301l70,17
		c55,13,75,14,95,5c25-11,25-14,19-82c-35-408-41-521-27-543c27-45,83-18,84,40c0,18,10,160,23,317c14,174,19,292,14,303
		c-8,16-118,78-135,76C3688,2198.8,3639,2185.8,3584,2171.8z"/>
</g>
</svg>
