<?xml version="1.0" encoding="utf-8"?>
<!-- Generator: Adobe Illustrator 27.3.1, SVG Export Plug-In . SVG Version: 6.00 Build 0)  -->
<svg version="1.1" id="Layer_1" xmlns="http://www.w3.org/2000/svg" xmlns:xlink="http://www.w3.org/1999/xlink" x="0px" y="0px"
	 viewBox="0 0 70 70" style="enable-background:new 0 0 70 70;" xml:space="preserve">
<style type="text/css">
	.st0{fill:#FFFFFF;}
</style>
<g transform="translate(0.000000,752.000000) scale(0.100000,-0.100000)">
	<path class="st0" d="M169.72,7444.41c-53.18-41.49-102.4-80.72-109.67-87.06c-22.46-20.07-38.81-41.94-46.25-62.16
		c-6.61-18.11-7.76-31.53-5.12-64.12c2.97-37.57,4.62-157.82,2.64-172.75c-0.99-6.19-3.3-20.52-5.12-31.68
		c-5.45-31.99-7.6-97.01-5.29-154.35c1.65-43.15,2.15-47.07,5.12-49.79c3.63-3.32,10.74-2.72,12.22,1.21
		c0.66,1.21,0.17,12.52-0.66,25.2c-1.16,13.73-1.49,48.88-0.99,86.45c0.83,64.27,1.16,67.74,8.75,110.89
		c3.47,19.01,3.63,88.72,0.17,154.65c-3.14,64.42-2.81,74.38,3.14,90.07c5.78,14.63,18.5,33.04,33.2,47.83
		c5.29,5.43,55.83,46.02,112.48,90.22c70.19,55.07,102.73,81.32,102.73,83.28c0,3.62-4.29,7.69-7.93,7.69
		C267.66,7520,222.9,7486.05,169.72,7444.41z"/>
	<path class="st0" d="M408.22,7496.16c-44.76-27.76-85.89-58.84-128.66-96.86c-17.18-15.39-35.68-30.48-40.8-33.65
		c-5.29-3.17-17.51-8.9-27.42-12.98c-47.9-19.31-72.84-43.75-83.9-82.38c-3.96-14.03-4.13-42.85-0.17-56.43
		c11.4-39.08,49.71-66.39,92.99-66.54c15.53,0,27.25,2.87,41.13,9.81c5.45,2.72,15.2,6.34,21.64,8.15
		c16.02,4.38,25.6,11.16,31.88,23.08c4.13,8,5.29,12.67,6.77,28.36c3.14,32.74,7.6,42.09,30.23,65.03
		c44.92,45.41,126.85,109.99,215.54,169.43c19.16,12.98,21.8,15.24,21.8,19.16c0,5.43-4.95,8.3-10.24,5.73
		c-13.71-6.49-108.18-73.93-149.97-106.97c-29.73-23.54-87.7-75.14-99.1-88.26c-15.03-17.2-20.48-31.08-23.29-57.94
		c-2.31-22.93-3.8-27.76-10.9-34.85c-4.62-4.83-8.26-6.64-17.67-9.2c-6.44-1.66-16.19-5.43-21.64-8.15
		c-24.77-12.52-45.26-12.82-71.35-1.21c-21.8,9.66-39.14,30.48-43.6,52.51c-0.99,4.98-1.49,16.6-1.16,25.65
		c1.16,25.95,10.41,46.02,28.9,63.37c13.05,12.22,25.93,19.46,55.16,31.53c21.14,8.45,30.72,15.24,62.6,43.75
		c40.8,36.36,83.74,68.95,125.52,95.2c16.85,10.56,21.47,14.18,21.47,16.9c0,2.11-5.78,8-7.93,8
		C425.39,7506.42,417.3,7501.9,408.22,7496.16z"/>
	<path class="st0" d="M95.39,7338.65c-12.72-4.38-28.9-19.61-37-34.55c-13.87-26.1-10.9-52.35,9.25-78.46
		c7.76-10.11,13.05-13.43,21.97-13.43c13.71,0,23.12,15.69,25.93,43.75c0.99,10.11,3.14,19.61,5.78,26.4
		c15.03,37.72,15.86,40.89,11.23,49.19C126.61,7341.81,112.41,7344.53,95.39,7338.65z M117.86,7324.46
		c2.31-3.02,1.65-5.28-11.56-38.02c-2.97-7.09-4.95-16.29-5.95-26.4c-1.49-15.69-5.29-28.67-9.25-32.59
		c-1.98-1.96-2.64-1.81-5.62,0.6c-1.98,1.66-5.95,6.64-9.08,11.16c-15.69,23.84-14.04,48.73,4.46,70.61
		c8.26,9.96,14.53,14.03,24.28,16.45C114.06,7328.54,115.05,7328.39,117.86,7324.46z"/>
	<path class="st0" d="M675.95,7270.15c-20.98-10.86-104.55-48.58-137.09-62.01c-45.42-18.71-97.45-38.47-146.17-55.52
		c-28.74-9.96-46.58-17.05-50.71-20.07c-8.42-6.04-14.7-16.9-16.85-28.97c-3.96-21.88-0.99-37.27,11.23-60.35
		c4.46-8.75,9.41-20.22,10.74-25.65c9.25-36.21,7.27-114.97-3.96-173.36c-1.82-9.35-2.97-18.41-2.48-19.92
		c1.32-3.77,8.59-5.43,11.56-2.72c8.09,7.39,18.99,105.01,16.52,147.71c-2.48,42.25-5.29,54.77-18.66,80.72
		c-9.25,17.8-9.41,18.26-9.91,33.95c-0.83,19.46,1.16,27.16,9.25,34.85c5.29,5.13,10.9,7.54,44.92,19.16
		c86.88,30.02,169.79,63.37,244.44,98.07c61.28,28.67,66.07,31.83,58.47,38.62C693.46,7278.3,690.48,7277.54,675.95,7270.15z"/>
	<path class="st0" d="M86.31,7197.27c-9.25-5.13-11.23-8.9-19.82-36.96c-1.49-4.98-4.95-12.98-7.6-17.8
		c-10.08-18.26-12.22-41.79-5.45-60.8c2.15-6.04,2.81-16.45,3.3-51.6c0.5-24.29,1.49-45.87,2.31-47.98c1.16-2.72,6.11-5.88,18-11.32
		c9.25-4.07,18.17-7.54,19.98-7.54s9.41,2.87,17.18,6.34l13.87,6.19l18.66-9.96c19.16-10.26,22.96-11.47,25.93-8.15
		c0.83,1.06,1.98,15.24,2.48,32.74c0.83,35.61,2.31,41.49,13.38,51.75c8.75,8.15,29.07,18.11,60.78,29.87
		c13.87,5.13,27.75,11.01,30.89,13.28c16.02,11.32,15.69,33.49-0.66,43.6c-10.41,6.64-19.49,8.15-42.12,7.09
		c-15.53-0.75-23.62-0.45-32.37,1.21c-26.92,5.28-52.36,18.71-69.37,36.81c-20.15,21.12-27.42,26.1-37.82,26.1
		C94.24,7200.14,89.12,7198.93,86.31,7197.27z M121.82,7167.1c22.13-20.82,29.73-26.25,48.56-34.1c19.82-8.45,37-11.77,57.15-11.32
		c28.41,0.6,32.87,0.3,39.31-2.56c10.57-4.68,13.21-14.33,5.62-21.27c-1.65-1.51-14.37-6.94-28.41-12.22
		c-51.37-19.16-71.19-31.83-79.44-51.15c-3.3-7.39-3.96-11.92-4.46-33.8l-0.66-25.2l-10.24,5.88
		c-21.31,11.92-18.66,11.62-36.01,3.62l-15.2-6.94l-11.89,5.28l-11.73,5.28l-0.99,11.77c-0.66,6.34-1.16,25.2-1.16,41.94
		c0,22.63-0.66,32.44-2.64,38.62c-6.94,22.63-5.78,37.27,4.29,57.33c3.47,7.09,7.27,15.84,8.26,19.61
		c5.95,21.88,9.74,28.52,16.52,28.67C100.02,7186.56,110.42,7177.81,121.82,7167.1z"/>
	<path class="st0" d="M222.74,7055.3c-22.3-8.9-28.41-12.82-33.03-21.58c-4.62-8.6-4.46-17.2,0.66-30.48
		c2.48-6.79,4.79-17.5,5.95-28.82c3.63-35.91,3.8-37.12,6.77-38.93c2.15-1.06,6.77-0.6,18.33,1.96l15.69,3.32l6.77-3.02
		c8.59-4.07,12.55-3.92,15.69,0.15c2.15,2.87,2.64,9.2,2.64,38.93c0.17,20.07,1.16,43,2.31,52.81c2.64,19.61,1.65,24.14-6.44,29.87
		C251.14,7064.5,243.71,7063.75,222.74,7055.3z M249.66,7042.32c0-3.17-0.83-15.39-1.98-27.16c-1.16-11.62-1.98-30.48-1.98-41.79
		v-20.67l-3.8,1.66c-2.81,1.21-6.44,0.91-13.87-0.75c-5.62-1.36-10.74-2.41-11.73-2.41c-0.83,0-2.15,5.28-2.64,11.77
		c-1.98,20.22-4.46,33.95-8.59,45.56c-4.62,12.82-4.13,17.5,2.31,23.08c4.62,3.92,37.82,17.95,40.8,17.05
		C249.16,7048.51,249.82,7045.64,249.66,7042.32z"/>
	<path class="st0" d="M59.06,6965.38c-0.99-2.26-1.65-31.08-1.65-71.21c0-58.69,0.33-67.89,2.64-70.91
		c2.97-3.92,7.6-4.22,11.23-0.91c2.31,1.96,2.64,10.11,2.64,65.48v63.22l11.73-5.13l11.73-5.13l15.2,6.94l15.36,6.94l15.86-8.75
		c14.37-7.69,16.02-9.2,17.01-13.88c0.66-2.87,0.66-19.61,0.17-37.12c-0.83-29.87-2.81-46.17-7.76-62.92
		c-1.65-5.43-1.49-6.79,0.99-9.2c3.47-3.62,7.6-3.62,11.07-0.15c3.8,3.77,9.08,29.87,11.07,54.77c2.15,25.35,0.66,62.46-2.48,67.14
		c-2.81,3.92-40.8,24.74-45.26,24.74c-1.82,0-9.74-2.87-17.51-6.34l-14.04-6.34l-14.04,6.34
		C66.49,6970.51,61.37,6970.96,59.06,6965.38z"/>
	<path class="st0" d="M220.09,6930.37c-9.08-2.26-17.51-4.68-18.5-5.28c-2.97-1.66-3.14-100.63-0.17-103.35
		c2.48-2.26,8.42-2.26,10.9,0c1.49,1.36,1.98,13.88,1.98,47.22v45.41l11.56,2.56c9.08,1.96,12.39,2.11,15.69,0.75
		c4.13-1.66,4.13-2.11,3.14-12.37c-5.78-61.56-6.77-78.61-4.46-81.93c4.46-6.79,13.71-2.72,13.87,6.04c0,2.72,1.65,24.14,3.8,47.83
		c2.31,26.25,3.14,44.06,2.31,45.72c-1.32,2.41-19.49,11.77-22.3,11.47C237.27,6934.45,229.18,6932.49,220.09,6930.37z"/>
</g>
</svg>
