<?xml version="1.0" encoding="utf-8"?>
<!-- Generator: Adobe Illustrator 27.3.1, SVG Export Plug-In . SVG Version: 6.00 Build 0)  -->
<svg version="1.1" id="Layer_1" xmlns="http://www.w3.org/2000/svg" xmlns:xlink="http://www.w3.org/1999/xlink" x="0px" y="0px"
	 viewBox="0 0 70 70" style="enable-background:new 0 0 70 70;" xml:space="preserve">
<style type="text/css">
	.st0{fill:#79ADDD;}
</style>
<g transform="translate(0.000000,752.000000) scale(0.100000,-0.100000)">
	<path class="st0" d="M169.72,7444.58c-53.18-41.4-102.4-80.54-109.67-86.86c-22.46-20.02-38.81-41.85-46.25-62.02
		c-6.61-18.06-7.76-31.46-5.12-63.98c2.97-37.48,4.62-157.46,2.64-172.36c-0.99-6.17-3.3-20.47-5.12-31.61
		c-5.45-31.91-7.6-96.79-5.29-154c1.65-43.05,2.15-46.97,5.12-49.68c3.63-3.31,10.74-2.71,12.22,1.2c0.66,1.2,0.17,12.49-0.66,25.14
		c-1.16,13.7-1.49,48.77-0.99,86.26c0.83,64.13,1.16,67.59,8.75,110.64c3.47,18.97,3.63,88.52,0.17,154.3
		c-3.14,64.28-2.81,74.21,3.14,89.87c5.78,14.6,18.5,32.97,33.2,47.72c5.29,5.42,55.83,45.91,112.48,90.02
		c70.19,54.95,102.73,81.14,102.73,83.1c0,3.61-4.29,7.68-7.93,7.68C267.66,7520,222.9,7486.13,169.72,7444.58z"/>
	<path class="st0" d="M408.22,7496.22c-44.76-27.7-85.89-58.71-128.66-96.65c-17.18-15.35-35.68-30.41-40.8-33.57
		c-5.29-3.16-17.51-8.88-27.42-12.95c-47.9-19.27-72.84-43.66-83.9-82.19c-3.96-14-4.13-42.75-0.17-56.3
		c11.4-38.99,49.71-66.24,92.99-66.39c15.53,0,27.25,2.86,41.13,9.78c5.45,2.71,15.2,6.32,21.64,8.13
		c16.02,4.37,25.6,11.14,31.88,23.03c4.13,7.98,5.29,12.65,6.77,28.3c3.14,32.67,7.6,42,30.23,64.88
		c44.92,45.31,126.85,109.74,215.54,169.05c19.16,12.95,21.8,15.2,21.8,19.12c0,5.42-4.95,8.28-10.24,5.72
		c-13.71-6.47-108.18-73.76-149.97-106.73c-29.73-23.48-87.7-74.97-99.1-88.06c-15.03-17.16-20.48-31.01-23.29-57.81
		c-2.31-22.88-3.8-27.7-10.9-34.77c-4.62-4.82-8.26-6.62-17.67-9.18c-6.44-1.66-16.19-5.42-21.64-8.13
		c-24.77-12.49-45.26-12.8-71.35-1.2c-21.8,9.63-39.14,30.41-43.6,52.39c-0.99,4.97-1.49,16.56-1.16,25.59
		c1.16,25.89,10.41,45.91,28.9,63.23c13.05,12.19,25.93,19.42,55.16,31.46c21.14,8.43,30.72,15.2,62.6,43.66
		c40.8,36.28,83.74,68.79,125.52,94.99c16.85,10.54,21.47,14.15,21.47,16.86c0,2.11-5.78,7.98-7.93,7.98
		C425.39,7506.45,417.3,7501.94,408.22,7496.22z"/>
	<path class="st0" d="M95.39,7339.05c-12.72-4.37-28.9-19.57-37-34.47c-13.87-26.04-10.9-52.24,9.25-78.28
		c7.76-10.09,13.05-13.4,21.97-13.4c13.71,0,23.12,15.66,25.93,43.66c0.99,10.09,3.14,19.57,5.78,26.34
		c15.03,37.63,15.86,40.8,11.23,49.08C126.61,7342.22,112.41,7344.93,95.39,7339.05z M117.86,7324.9
		c2.31-3.01,1.65-5.27-11.56-37.94c-2.97-7.08-4.95-16.26-5.95-26.34c-1.49-15.66-5.29-28.6-9.25-32.52
		c-1.98-1.96-2.64-1.81-5.62,0.6c-1.98,1.66-5.95,6.62-9.08,11.14c-15.69,23.79-14.04,48.62,4.46,70.45
		c8.26,9.94,14.53,14,24.28,16.41C114.06,7328.97,115.05,7328.82,117.86,7324.9z"/>
	<path class="st0" d="M675.95,7270.71c-20.98-10.84-104.55-48.47-137.09-61.87c-45.42-18.67-97.45-38.39-146.17-55.4
		c-28.74-9.94-46.58-17.01-50.71-20.02c-8.42-6.02-14.7-16.86-16.85-28.9c-3.96-21.83-0.99-37.18,11.23-60.21
		c4.46-8.73,9.41-20.17,10.74-25.59c9.25-36.13,7.27-114.71-3.96-172.97c-1.82-9.33-2.97-18.37-2.48-19.87
		c1.32-3.76,8.59-5.42,11.56-2.71c8.09,7.38,18.99,104.77,16.52,147.38c-2.48,42.15-5.29,54.65-18.66,80.54
		c-9.25,17.76-9.41,18.21-9.91,33.87c-0.83,19.42,1.16,27.1,9.25,34.77c5.29,5.12,10.9,7.53,44.92,19.12
		c86.88,29.96,169.79,63.23,244.44,97.85c61.28,28.6,66.07,31.76,58.47,38.54C693.46,7278.84,690.48,7278.09,675.95,7270.71z"/>
	<path class="st0" d="M86.31,7198c-9.25-5.12-11.23-8.88-19.82-36.88c-1.49-4.97-4.95-12.95-7.6-17.76
		c-10.08-18.21-12.22-41.7-5.45-60.67c2.15-6.02,2.81-16.41,3.3-51.48c0.5-24.24,1.49-45.76,2.31-47.87
		c1.16-2.71,6.11-5.87,18-11.29c9.25-4.06,18.17-7.53,19.98-7.53s9.41,2.86,17.18,6.32l13.87,6.17l18.66-9.94
		c19.16-10.24,22.96-11.44,25.93-8.13c0.83,1.05,1.98,15.2,2.48,32.67c0.83,35.53,2.31,41.4,13.38,51.63
		c8.75,8.13,29.07,18.06,60.78,29.81c13.87,5.12,27.75,10.99,30.89,13.25c16.02,11.29,15.69,33.42-0.66,43.51
		c-10.41,6.62-19.49,8.13-42.12,7.08c-15.53-0.75-23.62-0.45-32.37,1.2c-26.92,5.27-52.36,18.67-69.37,36.73
		c-20.15,21.08-27.42,26.04-37.82,26.04C94.24,7200.86,89.12,7199.66,86.31,7198z M121.82,7167.89
		c22.13-20.77,29.73-26.19,48.56-34.02c19.82-8.43,37-11.74,57.15-11.29c28.41,0.6,32.87,0.3,39.31-2.56
		c10.57-4.67,13.21-14.3,5.62-21.23c-1.65-1.51-14.37-6.92-28.41-12.19c-51.37-19.12-71.19-31.76-79.44-51.03
		c-3.3-7.38-3.96-11.89-4.46-33.72l-0.66-25.14l-10.24,5.87c-21.31,11.89-18.66,11.59-36.01,3.61l-15.2-6.92l-11.89,5.27
		l-11.73,5.27l-0.99,11.74c-0.66,6.32-1.16,25.14-1.16,41.85c0,22.58-0.66,32.37-2.64,38.54c-6.94,22.58-5.78,37.18,4.29,57.2
		c3.47,7.08,7.27,15.81,8.26,19.57c5.95,21.83,9.74,28.45,16.52,28.6C100.02,7187.31,110.42,7178.58,121.82,7167.89z"/>
	<path class="st0" d="M222.74,7056.35c-22.3-8.88-28.41-12.8-33.03-21.53c-4.62-8.58-4.46-17.16,0.66-30.41
		c2.48-6.77,4.79-17.46,5.95-28.75c3.63-35.83,3.8-37.03,6.77-38.84c2.15-1.05,6.77-0.6,18.33,1.96l15.69,3.31l6.77-3.01
		c8.59-4.06,12.55-3.91,15.69,0.15c2.15,2.86,2.64,9.18,2.64,38.84c0.17,20.02,1.16,42.9,2.31,52.69
		c2.64,19.57,1.65,24.09-6.44,29.81C251.14,7065.53,243.71,7064.78,222.74,7056.35z M249.66,7043.4c0-3.16-0.83-15.35-1.98-27.1
		c-1.16-11.59-1.98-30.41-1.98-41.7v-20.62l-3.8,1.66c-2.81,1.2-6.44,0.9-13.87-0.75c-5.62-1.35-10.74-2.41-11.73-2.41
		c-0.83,0-2.15,5.27-2.64,11.74c-1.98,20.17-4.46,33.87-8.59,45.46c-4.62,12.8-4.13,17.46,2.31,23.03
		c4.62,3.91,37.82,17.91,40.8,17.01C249.16,7049.57,249.82,7046.71,249.66,7043.4z"/>
	<path class="st0" d="M59.06,6966.63c-0.99-2.26-1.65-31.01-1.65-71.05c0-58.56,0.33-67.74,2.64-70.75c2.97-3.91,7.6-4.22,11.23-0.9
		c2.31,1.96,2.64,10.09,2.64,65.33v63.07l11.73-5.12l11.73-5.12l15.2,6.92l15.36,6.92l15.86-8.73c14.37-7.68,16.02-9.18,17.01-13.85
		c0.66-2.86,0.66-19.57,0.17-37.03c-0.83-29.81-2.81-46.06-7.76-62.77c-1.65-5.42-1.49-6.77,0.99-9.18
		c3.47-3.61,7.6-3.61,11.07-0.15c3.8,3.76,9.08,29.81,11.07,54.65c2.15,25.29,0.66,62.32-2.48,66.99
		c-2.81,3.91-40.8,24.69-45.26,24.69c-1.82,0-9.74-2.86-17.51-6.32l-14.04-6.32l-14.04,6.32
		C66.49,6971.74,61.37,6972.2,59.06,6966.63z"/>
	<path class="st0" d="M220.09,6931.7c-9.08-2.26-17.51-4.67-18.5-5.27c-2.97-1.66-3.14-100.41-0.17-103.12
		c2.48-2.26,8.42-2.26,10.9,0c1.49,1.35,1.98,13.85,1.98,47.12v45.31l11.56,2.56c9.08,1.96,12.39,2.11,15.69,0.75
		c4.13-1.66,4.13-2.11,3.14-12.34c-5.78-61.42-6.77-78.43-4.46-81.74c4.46-6.77,13.71-2.71,13.87,6.02c0,2.71,1.65,24.09,3.8,47.72
		c2.31,26.19,3.14,43.96,2.31,45.61c-1.32,2.41-19.49,11.74-22.3,11.44C237.27,6935.77,229.18,6933.81,220.09,6931.7z"/>
</g>
</svg>
