<?xml version="1.0" encoding="utf-8"?>
<!-- Generator: Adobe Illustrator 27.3.1, SVG Export Plug-In . SVG Version: 6.00 Build 0)  -->
<svg version="1.1" id="Layer_1" xmlns="http://www.w3.org/2000/svg" xmlns:xlink="http://www.w3.org/1999/xlink" x="0px" y="0px"
	 viewBox="0 0 70 70" style="enable-background:new 0 0 70 70;" xml:space="preserve">
<style type="text/css">
	.st0{fill:#FFFFFF;}
</style>
<path class="st0" d="M55.7,13.6c-1.4,0.6-0.3,2.6,1,2.1C58.2,15.1,57.1,13,55.7,13.6z M55.7,13.6c-1.4,0.6-0.3,2.6,1,2.1
	C58.2,15.1,57.1,13,55.7,13.6z M55.7,13.6c-1.4,0.6-0.3,2.6,1,2.1C58.2,15.1,57.1,13,55.7,13.6z M55.7,13.6c-1.4,0.6-0.3,2.6,1,2.1
	C58.2,15.1,57.1,13,55.7,13.6z M55.7,13.6c-1.4,0.6-0.3,2.6,1,2.1C58.2,15.1,57.1,13,55.7,13.6z M55.7,13.6c-1.4,0.6-0.3,2.6,1,2.1
	C58.2,15.1,57.1,13,55.7,13.6z M55.7,13.6c-1.4,0.6-0.3,2.6,1,2.1C58.2,15.1,57.1,13,55.7,13.6z M55.7,13.6c-1.4,0.6-0.3,2.6,1,2.1
	C58.2,15.1,57.1,13,55.7,13.6z M55.7,13.6c-1.4,0.6-0.3,2.6,1,2.1C58.2,15.1,57.1,13,55.7,13.6z M55.7,13.6c-1.4,0.6-0.3,2.6,1,2.1
	C58.2,15.1,57.1,13,55.7,13.6z M55.7,13.6c-1.4,0.6-0.3,2.6,1,2.1C58.2,15.1,57.1,13,55.7,13.6z M55.7,13.6c-1.4,0.6-0.3,2.6,1,2.1
	C58.2,15.1,57.1,13,55.7,13.6z M55.7,13.6c-1.4,0.6-0.3,2.6,1,2.1C58.2,15.1,57.1,13,55.7,13.6z M55.7,13.6c-1.4,0.6-0.3,2.6,1,2.1
	C58.2,15.1,57.1,13,55.7,13.6z M55.7,13.6c-1.4,0.6-0.3,2.6,1,2.1C58.2,15.1,57.1,13,55.7,13.6z M55.7,13.6c-1.4,0.6-0.3,2.6,1,2.1
	C58.2,15.1,57.1,13,55.7,13.6z M55.7,13.6c-1.4,0.6-0.3,2.6,1,2.1C58.2,15.1,57.1,13,55.7,13.6z M55.7,13.6c-1.4,0.6-0.3,2.6,1,2.1
	C58.2,15.1,57.1,13,55.7,13.6z M69.8,46.6c0-0.5,0-1.2-0.4-1.6c-0.5-0.5-1.8-0.3-2.5-0.3c2.9-6.9,3.6-13.2,0.3-20.2
	c-1.5-3.2-4.3-5.6-6-8.6c-0.4-0.7-0.1-1.7-0.3-2.5c-0.2-0.9-0.8-1.5-1.1-2.3c-0.2-0.7,0.7-1.5,0.8-2.2c0.2-0.7-0.5-1.2-0.4-1.8
	c0.5-2.3,3.3-3.6,0.3-5.4c-0.5-0.3-0.9-0.5-1.4-0.8c-0.6-0.4-1.4-1-2.2-1c-1.5,0-1.9,2.8-2.9,3.7c-0.5,0.5-1.3,0.1-1.8,0.6
	c-0.9,0.8-1.5,2.4-2.1,3.5c-1.4,2.4-2.7,4.7-4.1,7.1c-0.7,1.2-3.5,4.6-1.6,5.5c-0.4,0.8-1.5,2-1.1,2.9c0.4,1.2,2.8,2.1,3.9,2.6
	c0.4,0.2,0.9,0.5,1.4,0.3c0.9-0.3,1.4-1.6,1.7-2.3c2,0.8,2.7-1.7,3.5-3.1c0.3-0.5,0.7-1.6,1.4-1.4c1.3,0.3,1.9,3.9,2.3,5
	c1.3,4.2,1.6,8.7,0.2,12.9c-0.6,1.7-1.6,3.2-2.2,4.8h-0.2c0-1.2,0.6-4.6-0.4-5.4c-0.8-0.7-3-0.3-4-0.3h-9.7c-0.9,0-2.9-0.4-3.6,0.3
	c-0.4,0.3-0.4,0.8-0.4,1.3c0,1-0.5,3.8,0.5,4.4c0.9,0.5,2.7,0.2,3.7,0.2v2.2c-0.6,0-1.8-0.2-2.4,0.3c-0.4,0.4-0.3,1.1-0.3,1.6
	c0,1.1-0.6,4.8,0.6,5.3c1.7,0.7,4.8,0.1,6.6,0.1H67c0.7,0,1.7,0.2,2.3-0.3C70.4,50.9,69.8,47.8,69.8,46.6z M57.5,2.5l2,1.1
	c-0.2,0.7-0.9,2.6-1.7,2.7c-0.6,0-1.3-0.6-1.8-1L57.5,2.5z M48.1,23.8L46,22.7l0.5-1.1l2.2,1.1L48.1,23.8z M51.5,15.3
	c0.1,1,1.3,2.1,1.2,3.1c-0.1,1.1-1.3,2.2-1.7,3.2l-4.6-2.5l2.1-4l5-8.8L58.1,9l-0.5,1.1C54.3,9.3,51.1,11.8,51.5,15.3z M56.6,17.3
	c-3.3,0.6-4.1-4.6-0.8-5.2C59.2,11.3,60,16.7,56.6,17.3z M59.8,38.1c2.3-6.7,0.3-12.7-1.8-19.1c0.5-0.2,1.2-0.9,1.8-0.9
	c0.6,0,1.1,1,1.5,1.4c1.2,1.4,2.2,3,3.2,4.6c2.8,4.9,3.8,10.8,2,16.2c-0.4,1.3-1,3.3-2,4.2c-0.5,0.5-1.7,0.2-2.3,0.2h-5.8
	C57.6,42.5,59,40.5,59.8,38.1z M55.2,42.1c0.2,2.2-2.5,2.6-4,2.6v-2.2C52.5,42.5,54.1,42.8,55.2,42.1z M39.5,40.4v-1.8h13.9v1.8
	H39.5z M49,42.5v2.2h-5.4v-2.2H49z M67.7,49.8H40.9v-3.1h26.8V49.8z M55.7,13.6c-1.4,0.6-0.3,2.6,1,2.1C58.2,15.1,57.1,13,55.7,13.6
	z M55.7,13.6c-1.4,0.6-0.3,2.6,1,2.1C58.2,15.1,57.1,13,55.7,13.6z M55.7,13.6c-1.4,0.6-0.3,2.6,1,2.1C58.2,15.1,57.1,13,55.7,13.6z
	 M55.7,13.6c-1.4,0.6-0.3,2.6,1,2.1C58.2,15.1,57.1,13,55.7,13.6z M55.7,13.6c-1.4,0.6-0.3,2.6,1,2.1C58.2,15.1,57.1,13,55.7,13.6z
	 M55.7,13.6c-1.4,0.6-0.3,2.6,1,2.1C58.2,15.1,57.1,13,55.7,13.6z M55.7,13.6c-1.4,0.6-0.3,2.6,1,2.1C58.2,15.1,57.1,13,55.7,13.6z
	 M55.7,13.6c-1.4,0.6-0.3,2.6,1,2.1C58.2,15.1,57.1,13,55.7,13.6z M55.7,13.6c-1.4,0.6-0.3,2.6,1,2.1C58.2,15.1,57.1,13,55.7,13.6z
	 M55.7,13.6c-1.4,0.6-0.3,2.6,1,2.1C58.2,15.1,57.1,13,55.7,13.6z M55.7,13.6c-1.4,0.6-0.3,2.6,1,2.1C58.2,15.1,57.1,13,55.7,13.6z
	 M55.7,13.6c-1.4,0.6-0.3,2.6,1,2.1C58.2,15.1,57.1,13,55.7,13.6z M55.7,13.6c-1.4,0.6-0.3,2.6,1,2.1C58.2,15.1,57.1,13,55.7,13.6z
	 M55.7,13.6c-1.4,0.6-0.3,2.6,1,2.1C58.2,15.1,57.1,13,55.7,13.6z M55.7,13.6c-1.4,0.6-0.3,2.6,1,2.1C58.2,15.1,57.1,13,55.7,13.6z
	 M55.7,13.6c-1.4,0.6-0.3,2.6,1,2.1C58.2,15.1,57.1,13,55.7,13.6z M55.7,13.6c-1.4,0.6-0.3,2.6,1,2.1C58.2,15.1,57.1,13,55.7,13.6z"
	/>
<path class="st0" d="M55.7,13.6c-1.4,0.6-0.3,2.6,1,2.1C58.2,15.1,57.1,13,55.7,13.6z"/>
<path class="st0" d="M56.7,15.7c-1.4,0.6-2.4-1.5-1-2.1C57.1,13,58.2,15.1,56.7,15.7z"/>
<path class="st0" d="M17.1,34.1c-0.1-0.6-0.7-1-0.8-1.6c-0.2-0.8,0.1-1.6-0.2-2.4c-0.6-2-2.9-2.3-4.6-1.9c-2.9,0.6-1.6,2.7-2.5,4.5
	c-0.7,1.5-1.3,2.9-0.8,4.6c0.2,0.8,0.9,1.3,1,2.2c0.1,2.8-0.8,6.8,0.2,9.4c0.7,1.6,2.4,2.4,4.1,2.1c3.2-0.6,2.8-4.1,2.8-6.5
	c0-1.7-0.2-3.7,0-5.4c0.1-0.6,0.6-0.9,0.8-1.4C17.4,36.7,17.3,35,17.1,34.1z M11.4,30.7c0.4-0.6,2.2-0.8,2.6-0.1
	c0.3,0.5,0.2,1.5,0.2,2.1h-2.9C11.2,32.1,11,31.3,11.4,30.7z M14.1,46.7c0,0.8,0,1.7-0.9,2c-1,0.4-1.7-0.4-1.9-1.3
	c-0.4-1.8-0.1-4-0.1-5.8h2.9V46.7z M14.1,39.5h-2.9v-0.8h2.9V39.5z M15.2,36.5h-4.9v-1.7h4.9V36.5z"/>
<path class="st0" d="M36.9,62.4v-6.5c0-0.8,0.2-2.1-0.1-2.9c-0.3-0.7-1.4-0.8-1.8-0.1c-0.5,0.8-0.2,2.4-0.2,3.4h-3.1
	c0-1.2-0.2-2.7,0-3.8c0.1-0.5,0.6-0.8,0.8-1.2c0.3-0.9,0.2-2.4,0.1-3.4c-0.1-0.8-0.8-1.1-0.9-1.8c-0.2-0.9,0.1-1.9-0.3-2.8
	c-1-1.9-4.7-2.2-6.1-0.6c-1,1.1-0.4,2.3-0.7,3.5c-0.2,0.8-0.9,1.3-1,2.2c-0.2,1.8,0.6,2.7,1,4.3c0.3,1.1,0,2.5,0,3.7H6.1
	c0-0.9,0.3-2.5-0.2-3.4c-0.5-0.8-1.6-0.5-1.9,0.3c-0.3,0.9-0.1,2.1-0.1,3.1v6.2c-1.3,0.1-2.5,0.4-3.3,1.5c-1.4,1.9-0.4,5,1.9,5.6
	c3,0.8,6.6,0.2,9.7,0.2h19.5c2.2,0,6,0.7,7.8-0.8C42.6,66.5,40.2,62.5,36.9,62.4z M31.8,58.4h3.1v4h-3.2L31.8,58.4z M27,44.1
	c0.4-0.6,2.1-0.5,2.4,0c0.4,0.5,0.2,1.5,0.2,2.1h-2.8C26.9,45.7,26.7,44.7,27,44.1z M25.8,48.4h4.9v1.7h-4.9V48.4z M29.6,55.2
	c0,1.9,0.3,4.1,0,6c-0.2,0.9-1.1,1.5-2,1.1c-0.8-0.3-0.8-1.1-0.8-1.9v-5.2L29.6,55.2L29.6,55.2z M26.9,53v-0.8h2.8V53H26.9z
	 M6.1,58.4h18.6l0.2,4H6.1L6.1,58.4L6.1,58.4z M38.2,67.2c-0.7,0.6-1.8,0.4-2.6,0.4H11.5c-2.4,0-5.8,0.6-8.2-0.1
	c-1.5-0.5-1.5-2.4,0-2.9c2.5-0.7,6.1-0.1,8.8-0.1h19.4c1.8,0,4.4-0.5,6.2,0.1C38.7,65,39.1,66.5,38.2,67.2z"/>
</svg>
