<?xml version="1.0" encoding="utf-8"?>
<!-- Generator: Adobe Illustrator 27.3.1, SVG Export Plug-In . SVG Version: 6.00 Build 0)  -->
<svg version="1.1" id="Layer_1" xmlns="http://www.w3.org/2000/svg" xmlns:xlink="http://www.w3.org/1999/xlink" x="0px" y="0px"
	 viewBox="0 0 752 752" style="enable-background:new 0 0 752 752;" xml:space="preserve">
<style type="text/css">
	.st0{fill:#FFFFFF;}
</style>
<rect x="-25.7" y="-22.4" width="799.3" height="799.3"/>
<path class="st0" d="M510.4,210.9c-8.8,3.8-2.2,17.2,6.8,13.7C526.8,220.8,519.7,206.9,510.4,210.9z M510.4,210.9
	c-8.8,3.8-2.2,17.2,6.8,13.7C526.8,220.8,519.7,206.9,510.4,210.9z M510.4,210.9c-8.8,3.8-2.2,17.2,6.8,13.7
	C526.8,220.8,519.7,206.9,510.4,210.9z M510.4,210.9c-8.8,3.8-2.2,17.2,6.8,13.7C526.8,220.8,519.7,206.9,510.4,210.9z M510.4,210.9
	c-8.8,3.8-2.2,17.2,6.8,13.7C526.8,220.8,519.7,206.9,510.4,210.9z M510.4,210.9c-8.8,3.8-2.2,17.2,6.8,13.7
	C526.8,220.8,519.7,206.9,510.4,210.9z M510.4,210.9c-8.8,3.8-2.2,17.2,6.8,13.7C526.8,220.8,519.7,206.9,510.4,210.9z M510.4,210.9
	c-8.8,3.8-2.2,17.2,6.8,13.7C526.8,220.8,519.7,206.9,510.4,210.9z M510.4,210.9c-8.8,3.8-2.2,17.2,6.8,13.7
	C526.8,220.8,519.7,206.9,510.4,210.9z M510.4,210.9c-8.8,3.8-2.2,17.2,6.8,13.7C526.8,220.8,519.7,206.9,510.4,210.9z M510.4,210.9
	c-8.8,3.8-2.2,17.2,6.8,13.7C526.8,220.8,519.7,206.9,510.4,210.9z M510.4,210.9c-8.8,3.8-2.2,17.2,6.8,13.7
	C526.8,220.8,519.7,206.9,510.4,210.9z M510.4,210.9c-8.8,3.8-2.2,17.2,6.8,13.7C526.8,220.8,519.7,206.9,510.4,210.9z M510.4,210.9
	c-8.8,3.8-2.2,17.2,6.8,13.7C526.8,220.8,519.7,206.9,510.4,210.9z M510.4,210.9c-8.8,3.8-2.2,17.2,6.8,13.7
	C526.8,220.8,519.7,206.9,510.4,210.9z M510.4,210.9c-8.8,3.8-2.2,17.2,6.8,13.7C526.8,220.8,519.7,206.9,510.4,210.9z M510.4,210.9
	c-8.8,3.8-2.2,17.2,6.8,13.7C526.8,220.8,519.7,206.9,510.4,210.9z M510.4,210.9c-8.8,3.8-2.2,17.2,6.8,13.7
	C526.8,220.8,519.7,206.9,510.4,210.9z M602.3,425.1c0-3.3,0-7.8-2.7-10.2c-3.5-3.3-11.8-1.8-16.3-1.8c18.6-44.6,23.1-86,1.7-131
	c-10-21.1-28.1-36.2-39-56c-2.4-4.3-0.5-11.1-1.7-16c-1.3-5.6-5.5-9.5-7.2-14.7c-1.5-4.5,4.5-9.9,5.5-14.3c1-4.5-3.5-7.7-2.5-12
	c3.4-14.8,21.4-23.7,2.2-35c-3-1.8-6-3.5-9-5.2c-4.1-2.3-9.1-6.3-14-6.2c-9.9,0.3-12.5,18.3-18.6,23.9c-3.3,3.1-8.3,0.5-11.9,3.8
	c-5.9,5.5-9.7,15.6-13.7,22.6c-8.8,15.4-17.8,30.6-26.6,46c-4.5,7.9-22.9,29.6-10.3,36c-2.5,5.2-9.5,12.9-7.2,19
	c2.8,7.7,18.4,13.5,25.2,17.2c2.7,1.5,5.8,3.1,9,2.1c5.6-1.9,8.9-10.2,11-15.2c12.7,5.3,17.6-11.1,22.7-20c1.8-3.1,4.6-10.3,9.2-9.2
	c8.2,1.9,12.5,25.3,14.7,32.2c8.5,27.2,10.1,56.7,1,84c-3.7,11-10.1,20.5-14.6,31h-1c0-7.5,3.7-30.2-2.3-35.2
	c-5.3-4.3-19.2-1.8-25.7-1.8h-63c-6.1,0-18.7-2.4-23.7,1.8c-2.5,2-2.3,5.3-2.3,8.2c0,6.5-3.2,24.9,3.2,28.8
	c5.6,3.4,17.3,1.2,23.8,1.2v14c-4.2,0-12-1.5-15.3,1.8c-2.5,2.5-1.7,7.1-1.7,10.2c0,7.2-3.8,31,4.1,34.3c11,4.6,31,0.7,42.9,0.7h136
	c4.4,0,11,1.2,14.7-1.7C605.8,453.1,602.4,432.9,602.3,425.1z M522.3,139.1l13,7c-1,4.3-5.8,17.2-11.1,17.3c-4,0-8.7-4.2-11.9-6.3
	L522.3,139.1z M461.3,277.1l-14-7l3-7l14,7L461.3,277.1z M483.4,222.1c0.7,6.7,8.6,13.9,7.9,20c-0.9,7.1-8.2,14.4-11,21l-30-16
	l13.4-26l32.6-57l30,17l-3,7C501.4,182.9,480.9,199.1,483.4,222.1z M516.3,234.8c-21.7,3.6-26.5-30-5-34.1
	C533.1,196.4,538.5,231.2,516.3,234.8z M537.2,370.1c14.8-43.3,2.1-82.8-11.9-124c3.5-1.3,8.1-6,11.9-5.8c3.7,0.2,7.4,6.2,9.5,8.8
	c7.7,9.4,14.5,19.5,20.6,30c18.4,31.6,24.6,70,13,105c-2.7,8.3-6.2,21.4-12.9,27.4c-3.4,3.1-10.9,1.6-15.1,1.6h-38
	C523,399.1,531.8,385.9,537.2,370.1z M507.3,396.1c1.2,14-16.2,17-26,17v-14C489.8,399.1,500,401,507.3,396.1z M405.3,385.1v-12h90
	v12H405.3z M467.3,399.1v14h-35v-14H467.3z M588.3,446.1h-174v-20h174V446.1z M510.4,210.9c-8.8,3.8-2.2,17.2,6.8,13.7
	C526.8,220.8,519.7,206.9,510.4,210.9z M510.4,210.9c-8.8,3.8-2.2,17.2,6.8,13.7C526.8,220.8,519.7,206.9,510.4,210.9z M510.4,210.9
	c-8.8,3.8-2.2,17.2,6.8,13.7C526.8,220.8,519.7,206.9,510.4,210.9z M510.4,210.9c-8.8,3.8-2.2,17.2,6.8,13.7
	C526.8,220.8,519.7,206.9,510.4,210.9z M510.4,210.9c-8.8,3.8-2.2,17.2,6.8,13.7C526.8,220.8,519.7,206.9,510.4,210.9z M510.4,210.9
	c-8.8,3.8-2.2,17.2,6.8,13.7C526.8,220.8,519.7,206.9,510.4,210.9z M510.4,210.9c-8.8,3.8-2.2,17.2,6.8,13.7
	C526.8,220.8,519.7,206.9,510.4,210.9z M510.4,210.9c-8.8,3.8-2.2,17.2,6.8,13.7C526.8,220.8,519.7,206.9,510.4,210.9z M510.4,210.9
	c-8.8,3.8-2.2,17.2,6.8,13.7C526.8,220.8,519.7,206.9,510.4,210.9z M510.4,210.9c-8.8,3.8-2.2,17.2,6.8,13.7
	C526.8,220.8,519.7,206.9,510.4,210.9z M510.4,210.9c-8.8,3.8-2.2,17.2,6.8,13.7C526.8,220.8,519.7,206.9,510.4,210.9z M510.4,210.9
	c-8.8,3.8-2.2,17.2,6.8,13.7C526.8,220.8,519.7,206.9,510.4,210.9z M510.4,210.9c-8.8,3.8-2.2,17.2,6.8,13.7
	C526.8,220.8,519.7,206.9,510.4,210.9z M510.4,210.9c-8.8,3.8-2.2,17.2,6.8,13.7C526.8,220.8,519.7,206.9,510.4,210.9z M510.4,210.9
	c-8.8,3.8-2.2,17.2,6.8,13.7C526.8,220.8,519.7,206.9,510.4,210.9z M510.4,210.9c-8.8,3.8-2.2,17.2,6.8,13.7
	C526.8,220.8,519.7,206.9,510.4,210.9z M510.4,210.9c-8.8,3.8-2.2,17.2,6.8,13.7C526.8,220.8,519.7,206.9,510.4,210.9z"/>
<path class="st0" d="M510.4,210.9c-8.8,3.8-2.2,17.2,6.8,13.7C526.8,220.8,519.7,206.9,510.4,210.9z"/>
<path class="st0" d="M517.2,224.5c-9.1,3.6-15.7-9.9-6.8-13.7C519.7,206.9,526.8,220.8,517.2,224.5z"/>
<path class="st0" d="M260.1,344.1c-0.7-4.1-4.4-6.2-5.5-10.1c-1.4-5.1,0.4-10.7-1.1-15.9c-3.7-13-18.7-14.7-30.2-12.5
	c-18.9,3.6-10.4,17.6-16,29.5c-4.5,9.7-8.7,18.7-5.2,30c1.6,5.2,5.9,8.3,6.2,14c0.8,18.1-5.3,44.2,1.5,61
	c4.3,10.7,15.5,15.7,26.5,13.5c20.7-4,18-26.7,18-42.5c0-11.2-1.6-23.9,0.2-35c0.6-3.7,3.8-5.7,5.1-9.1
	C261.7,361.4,261.1,350.1,260.1,344.1z M222.5,322.3c2.5-4.1,14-5,16.8-0.8c2.2,3.4,1,9.8,1,13.7h-19
	C221.3,331.2,220.4,325.8,222.5,322.3z M240.3,426.1c0,5.3-0.2,11-6,13.3c-6.3,2.5-11.3-2.4-12.5-8.3c-2.5-11.8-0.5-25.9-0.5-38h19
	V426.1z M240.3,379.1h-19v-5h19V379.1z M247.3,360.1h-32v-11h32V360.1z"/>
<path class="st0" d="M388.3,528.1v-42c0-5.5,1.5-13.7-0.6-18.9c-1.9-4.6-8.8-5.3-11.4-0.9c-3.1,5.2-1,15.9-1,21.8h-20
	c0-7.7-1.6-17.5,0.3-24.9c0.8-3.2,3.8-5.1,4.9-8.1c2.2-5.8,1.3-15.9,0.6-22c-0.5-4.9-5-7.4-5.7-12c-1-6.1,0.9-12.2-2-18
	c-6.3-12.6-30.6-14-39.9-3.9c-6.4,6.9-2.4,14.8-4.5,22.8c-1.4,5.2-5.9,8.2-6.5,14.1c-1.3,12,3.9,17.4,6.5,28
	c1.8,7.3,0.3,16.5,0.3,24h-121c0-6.1,2-16.5-1.2-21.8c-3-5.1-10.5-3.2-12.2,1.9c-2,5.9-0.7,13.8-0.7,20v40
	c-8.3,0.4-16.3,2.9-21.3,10c-8.9,12.6-2.9,32.5,12.3,36.5c19.3,5.1,43.1,1.5,63,1.5h127c14.6,0,38.9,4.4,50.9-5.5
	C425.4,554.7,409.9,528.6,388.3,528.1z M355.3,502.1h20v26h-21L355.3,502.1z M324.3,409.5c2.5-3.7,13.4-3.5,15.9,0.1
	c2.3,3.3,1,9.8,1,13.6h-18C323.3,419.3,322.1,412.8,324.3,409.5z M316.3,437.1h32v11h-32V437.1z M341.3,481.1c0,12.4,2,26.8-0.2,39
	c-1,5.7-7.1,9.6-12.7,7.2c-5-2.2-5.1-7.4-5.1-12.2v-34H341.3z M323.3,467.1v-5h18v5H323.3z M188.3,502.1h121l1,26h-122V502.1z
	 M397.1,559.5c-4.5,3.7-11.4,2.6-16.8,2.6h-157c-15.7,0-38,4.1-53-0.6c-9.5-3-9.8-15.9,0-18.8c16.4-4.8,39.9-0.6,57-0.6h126
	c12,0,28.6-3,40,0.7C400.2,545,403,554.5,397.1,559.5z"/>
</svg>
