<?xml version="1.0" encoding="utf-8"?>
<!-- Generator: Adobe Illustrator 27.3.1, SVG Export Plug-In . SVG Version: 6.00 Build 0)  -->
<svg version="1.1" id="Layer_1" xmlns="http://www.w3.org/2000/svg" xmlns:xlink="http://www.w3.org/1999/xlink" x="0px" y="0px"
	 viewBox="0 0 752 752" style="enable-background:new 0 0 752 752;" xml:space="preserve">
<style type="text/css">
	.st0{fill:#6BB1FC;}
	.st1{fill:#FFFFFF;}
</style>
<rect x="-20" y="-12.7" width="789" height="781"/>
<path class="st0" d="M242.3,312.9h-16c3.1-39.1,59.9-40.4,60,0h-15C266.9,294.6,246.7,294.8,242.3,312.9z"/>
<path class="st0" d="M303.3,349.4c-28.8,6.3-18.1,50.7,11,44C342.8,386.8,331.7,343.3,303.3,349.4z M312.1,376.7
	c-7.1,4.3-14.4-6.5-6.7-10.8C312.5,362.1,319,372.6,312.1,376.7z"/>
<path class="st0" d="M346.3,312.9h-16c0.3-39.9,59.7-39.9,60,0h-16C372.4,294.4,348.3,294.4,346.3,312.9z"/>
<path class="st1" d="M354.3,460.4c-38.4,7.2-26.2,66.2,12,59.1C404.8,512.3,392.6,453.2,354.3,460.4z M364.3,503.4
	c-17.2,4.9-25.4-21.9-8-26.9C373.6,471.6,381.8,498.4,364.3,503.4z M354.3,460.4c-38.4,7.2-26.2,66.2,12,59.1
	C404.8,512.3,392.6,453.2,354.3,460.4z M364.3,503.4c-17.2,4.9-25.4-21.9-8-26.9C373.6,471.6,381.8,498.4,364.3,503.4z M354.3,460.4
	c-38.4,7.2-26.2,66.2,12,59.1C404.8,512.3,392.6,453.2,354.3,460.4z M364.3,503.4c-17.2,4.9-25.4-21.9-8-26.9
	C373.6,471.6,381.8,498.4,364.3,503.4z M354.3,460.4c-38.4,7.2-26.2,66.2,12,59.1C404.8,512.3,392.6,453.2,354.3,460.4z
	 M364.3,503.4c-17.2,4.9-25.4-21.9-8-26.9C373.6,471.6,381.8,498.4,364.3,503.4z M610.3,445.3c-8.9-8-19.8-7.3-30.9-7.3h-56
	c-10.4,0-28.2,0.9-28.8-14c-0.4-8.2,7.3-14.3,14.8-14.9c15.9-1.3,36.6,4.5,49.9-6.6c10-8.4,9.1-23.7,9.1-35.5
	c0-25.9-4.1-55.5,0.2-81c0.8-4.9,6.2-5.8,9.8-8.2c6.1-4,11-9.1,15.3-14.9c15.2-20.4,21.7-46.2,24.9-71c0.8-6.1,3.6-21.8-1.7-26.2
	c-5.3-4.5-20-1.8-26.6-1.8v-7h-16v30h16v-7h13c0,23.6-7.5,50.4-20.7,70c-5.5,8.1-14.3,18.7-25.3,16.7c-9.7-1.8-16-11.1-21-18.7
	c-13-19.6-18.2-44.8-20-68h14v7h15v-30h-15v7c-7,0-21-2.7-26.8,1.8c-5.3,4-3.2,13.6-2.5,19.2c2,16.5,4.4,32.3,10,48
	c4.8,13.6,11.9,27.8,22.3,38c4.7,4.5,14.6,7.4,18,12.5c3.5,5.3,1,18.4,1,24.6v56c0,7.3,1.8,17.6-2.7,23.9c-5,7.1-15.7,5.1-23.3,5.1
	c-20,0-46,0.7-47.9,27c-1.1,14.4,6.5,28.1,20.9,32.2c7.4,2.1,16.4,0.8,24,0.8h48c9.1,0,20.7-1.8,27.8,5.2c7.4,7.2,4.6,18.6-4.8,22.6
	c-4.8,2-10.9,1.2-16,1.2h-129c0-25.4-2.3-52.4-12.4-76c-3.6-8.4-8.2-16.9-14-24c-2.2-2.7-7.2-6.2-7-10c0.2-4.3,5.5-9.4,7.6-13
	c5.3-9.3,9.7-18.8,12.9-29c13.1-42.5,4.3-92.1-25.1-126c-63.1-72.7-185.8-58.4-225.1,32c-5.7,13.1-10,27.7-10.7,42
	c-0.9,21.2,0.7,42.2,8.8,62c3.3,8,7.1,15.7,11.8,23c1.8,2.7,5.7,6.5,5.4,10c-0.4,4.5-6.3,9.4-8.8,13c-5.4,8-9.6,16.7-12.5,26
	c-8.8,28.8-6.2,60.4-4.9,90c1,23.5,3.3,48.7,20.1,67c26.1,28.4,67.6,32,103.9,32c55.2,0,127.2-1.5,145.6-66
	c3.5-12.2,4.4-24.4,4.4-37h98c15.9,0,34.5,2.7,50-1C619.8,491.5,627.5,460.8,610.3,445.3z M191.1,297.9c-1.8-14.9,0.9-30.8,5.6-45
	c4.6-13.7,11.5-27,21-38c22.5-26.2,53.4-41,87.7-42.9c19.9-1.1,41.9,21.6,28.4,40.9c-9.8,13.9-43.6,13.5-39-9
	c2.1-10.1,18.4-13.3,20.7-2h16c-3.3-40.2-64.4-21.4-51.5,15c8.1,22.7,40.8,28.2,58.5,13.7c16.8-13.9,17.8-33.1,9-51.7
	c82.6,27.9,104.2,136.2,43,196c-9.4,9.2-20.9,17.4-33,22.6c-53.5,23.1-116.9,5.1-148.6-44.6C198,336,193.4,317.6,191.1,297.9z
	 M302,477.9c-2.7,12.2,0.6,22.1,2.3,34c-11.5-2.8-21.8-4.6-32-11.1c-32.3-20.7-34.3-56.9-21-88.9c21.7,3.2,40,13.5,63,11.9
	c11.4-0.8,23.1-2.8,34-6.2c4.1-1.3,11.5-6,15.8-4.8c5.8,1.5,7.8,14.3,9.2,19.2C341.4,424.2,308.9,446.1,302,477.9z M386.3,525.2
	c-6.6,4.9-13.9,7.4-22,8.5c-25.6,3.3-49.6-20.2-47.9-45.7c1.4-21.6,17.7-38.5,38.9-41.6C399.4,440,420.9,499.5,386.3,525.2z
	 M426,540.9c-21.3,46.9-91.2,47.1-134.7,44.1c-24.9-1.7-51.6-2.3-73-17.1c-32.7-22.7-28-68.1-28-103c0-19.8,0.6-39.6,8.9-58
	c2.5-5.5,7.9-17.8,14.2-19.7c4.6-1.4,19.6,11.4,22.3,15.2c3.3,4.6-6.4,22.5-7.6,28.5c-3.4,17.9-0.7,37,8.2,53
	c11.4,20.4,30.3,35.4,53,41.1c7.3,1.8,16.2,0,23,2.5c4.4,1.6,7.4,6.1,11,8.9c6.7,5.2,13.9,8.8,22,11.1c33.6,9.4,69.4-15.2,74-49.6
	h14C433.3,512.7,432.2,527.3,426,540.9z M419.3,481.9c-1.7-12.4-7.3-24-16-33c-3.7-3.8-10-6.9-12.8-11.4c-2.1-3.4-1.8-8.8-2.9-12.6
	c-2.1-7.6-6.1-14.5-8.3-22l23-18c28.2,19.9,31,65.8,31,97H419.3z M354.3,460.4c-38.4,7.2-26.2,66.2,12,59.1
	C404.8,512.3,392.6,453.2,354.3,460.4z M364.3,503.4c-17.2,4.9-25.4-21.9-8-26.9C373.6,471.6,381.8,498.4,364.3,503.4z M354.3,460.4
	c-38.4,7.2-26.2,66.2,12,59.1C404.8,512.3,392.6,453.2,354.3,460.4z M364.3,503.4c-17.2,4.9-25.4-21.9-8-26.9
	C373.6,471.6,381.8,498.4,364.3,503.4z M354.3,460.4c-38.4,7.2-26.2,66.2,12,59.1C404.8,512.3,392.6,453.2,354.3,460.4z
	 M364.3,503.4c-17.2,4.9-25.4-21.9-8-26.9C373.6,471.6,381.8,498.4,364.3,503.4z"/>
<path class="st1" d="M286.3,312.9h-15c-4.4-18.3-24.7-18.1-29,0h-16C229.5,273.8,286.2,272.6,286.3,312.9z"/>
<path class="st1" d="M303.3,349.4c-28.8,6.3-18.1,50.7,11,44C342.8,386.8,331.7,343.3,303.3,349.4z M312.1,376.7
	c-7.1,4.3-14.4-6.5-6.7-10.8C312.5,362.1,319,372.6,312.1,376.7z"/>
<path class="st1" d="M390.3,312.9h-16c-1.9-18.5-26.1-18.5-28,0h-16C330.7,273,390,273,390.3,312.9z"/>
<path class="st1" d="M303.3,349.4c-28.8,6.3-18.1,50.7,11,44C342.8,386.8,331.7,343.3,303.3,349.4z M312.1,376.7
	c-7.1,4.3-14.4-6.5-6.7-10.8C312.5,362.1,319,372.6,312.1,376.7z M330.3,312.9h16c1.9-18.5,26.1-18.5,28,0h16
	C390,273,330.7,273,330.3,312.9z M226.3,312.9h16c4.3-18.1,24.6-18.3,29,0h15C286.2,272.6,229.5,273.8,226.3,312.9z"/>
<path class="st1" d="M354.3,460.4c-38.4,7.2-26.2,66.2,12,59.1C404.8,512.3,392.6,453.2,354.3,460.4z M364.3,503.4
	c-17.2,4.9-25.4-21.9-8-26.9C373.6,471.6,381.8,498.4,364.3,503.4z"/>
<path class="st1" d="M354.3,460.4c-38.4,7.2-26.2,66.2,12,59.1C404.8,512.3,392.6,453.2,354.3,460.4z M364.3,503.4
	c-17.2,4.9-25.4-21.9-8-26.9C373.6,471.6,381.8,498.4,364.3,503.4z"/>
</svg>
