<?xml version="1.0" encoding="utf-8"?>
<!-- Generator: Adobe Illustrator 27.3.1, SVG Export Plug-In . SVG Version: 6.00 Build 0)  -->
<svg version="1.1" id="Layer_1" xmlns="http://www.w3.org/2000/svg" xmlns:xlink="http://www.w3.org/1999/xlink" x="0px" y="0px"
	 viewBox="0 0 70 70" style="enable-background:new 0 0 70 70;" xml:space="preserve">
<style type="text/css">
	.st0{fill:#6BB1FC;}
	.st1{fill:#FFFFFF;}
</style>
<path class="st0" d="M10.8,24.6H8.3c0.5-6.2,9.4-6.4,9.4,0h-2.4C14.6,21.7,11.5,21.7,10.8,24.6z"/>
<path class="st0" d="M20.3,30.3c-4.5,1-2.8,8,1.7,6.9C26.5,36.2,24.8,29.4,20.3,30.3z M21.7,34.6c-1.1,0.7-2.3-1-1.1-1.7
	C21.8,32.3,22.8,34,21.7,34.6z"/>
<path class="st0" d="M27.1,24.6h-2.5c0-6.3,9.4-6.3,9.4,0h-2.5C31.2,21.7,27.4,21.7,27.1,24.6z"/>
<path class="st1" d="M28.3,47.8c-6,1.1-4.1,10.4,1.9,9.3C36.3,56,34.3,46.7,28.3,47.8z M29.9,54.6c-2.7,0.8-4-3.5-1.3-4.2
	C31.4,49.6,32.7,53.8,29.9,54.6z M28.3,47.8c-6,1.1-4.1,10.4,1.9,9.3C36.3,56,34.3,46.7,28.3,47.8z M29.9,54.6
	c-2.7,0.8-4-3.5-1.3-4.2C31.4,49.6,32.7,53.8,29.9,54.6z M28.3,47.8c-6,1.1-4.1,10.4,1.9,9.3C36.3,56,34.3,46.7,28.3,47.8z
	 M29.9,54.6c-2.7,0.8-4-3.5-1.3-4.2C31.4,49.6,32.7,53.8,29.9,54.6z M28.3,47.8c-6,1.1-4.1,10.4,1.9,9.3
	C36.3,56,34.3,46.7,28.3,47.8z M29.9,54.6c-2.7,0.8-4-3.5-1.3-4.2C31.4,49.6,32.7,53.8,29.9,54.6z M68.5,45.5
	c-1.4-1.3-3.1-1.2-4.8-1.2h-8.8c-1.6,0-4.4,0.1-4.5-2.2c-0.1-1.3,1.1-2.3,2.3-2.3c2.5-0.2,5.7,0.7,7.8-1c1.6-1.3,1.4-3.7,1.4-5.6
	c0-4.1-0.6-8.7,0-12.8c0.1-0.8,1-0.9,1.5-1.3c1-0.6,1.7-1.4,2.4-2.3c2.4-3.2,3.4-7.3,3.9-11.2c0.1-1,0.6-3.4-0.3-4.1
	c-0.8-0.7-3.1-0.3-4.2-0.3V0h-2.5v4.7h2.5V3.6h2c0,3.7-1.2,7.9-3.2,11c-0.9,1.3-2.2,2.9-4,2.6c-1.5-0.3-2.5-1.7-3.3-2.9
	c-2-3.1-2.9-7.1-3.1-10.7h2.2v1.1h2.4V0h-2.4v1.1c-1.1,0-3.3-0.4-4.2,0.3c-0.8,0.6-0.5,2.1-0.4,3C51.7,7,52,9.5,52.9,12
	c0.8,2.1,1.9,4.4,3.5,6c0.7,0.7,2.3,1.2,2.8,2c0.5,0.8,0.2,2.9,0.2,3.9v8.8c0,1.2,0.3,2.8-0.4,3.8c-0.8,1.1-2.5,0.8-3.7,0.8
	c-3.1,0-7.2,0.1-7.5,4.3c-0.2,2.3,1,4.4,3.3,5.1c1.2,0.3,2.6,0.1,3.8,0.1h7.5c1.4,0,3.2-0.3,4.4,0.8c1.2,1.1,0.7,2.9-0.8,3.6
	c-0.8,0.3-1.7,0.2-2.5,0.2H43.2c0-4-0.4-8.3-1.9-12c-0.6-1.3-1.3-2.7-2.2-3.8c-0.3-0.4-1.1-1-1.1-1.6c0-0.7,0.9-1.5,1.2-2
	c0.8-1.5,1.5-3,2-4.6c2.1-6.7,0.7-14.5-3.9-19.9C27.4-4,8.2-1.8,2,12.5c-0.9,2.1-1.6,4.4-1.7,6.6c-0.1,3.3,0.1,6.7,1.4,9.8
	c0.5,1.3,1.1,2.5,1.8,3.6c0.3,0.4,0.9,1,0.8,1.6c-0.1,0.7-1,1.5-1.4,2c-0.8,1.3-1.5,2.6-2,4.1c-1.4,4.5-1,9.5-0.8,14.2
	c0.2,3.7,0.5,7.7,3.2,10.6c4.1,4.5,10.6,5,16.3,5c8.7,0,19.9-0.2,22.8-10.4c0.5-1.9,0.7-3.8,0.7-5.8h15.4c2.5,0,5.4,0.4,7.8-0.2
	C70,52.7,71.2,47.9,68.5,45.5z M2.8,22.2c-0.3-2.3,0.1-4.9,0.9-7.1c0.7-2.2,1.8-4.3,3.3-6c3.5-4.1,8.4-6.5,13.7-6.8
	c3.1-0.2,6.6,3.4,4.5,6.4C23.6,11,18.3,11,19,7.4c0.3-1.6,2.9-2.1,3.2-0.3h2.5c-0.5-6.3-10.1-3.4-8.1,2.4c1.3,3.6,6.4,4.4,9.2,2.2
	c2.6-2.2,2.8-5.2,1.4-8.1C40.2,7.9,43.6,24.9,34,34.4c-1.5,1.5-3.3,2.7-5.2,3.6c-8.4,3.6-18.3,0.8-23.3-7
	C3.8,28.2,3.1,25.3,2.8,22.2z M20.1,50.6c-0.4,1.9,0.1,3.5,0.4,5.4c-1.8-0.4-3.4-0.7-5-1.7c-5.1-3.3-5.4-9-3.3-14
	c3.4,0.5,6.3,2.1,9.9,1.9c1.8-0.1,3.6-0.4,5.3-1c0.6-0.2,1.8-0.9,2.5-0.8c0.9,0.2,1.2,2.3,1.4,3C26.3,42.1,21.2,45.6,20.1,50.6z
	 M33.4,58.1c-1,0.8-2.2,1.2-3.4,1.3c-4,0.5-7.8-3.2-7.5-7.2c0.2-3.4,2.8-6.1,6.1-6.6C35.4,44.6,38.8,54,33.4,58.1z M39.6,60.5
	c-3.3,7.4-14.3,7.4-21.1,7c-3.9-0.3-8.1-0.4-11.4-2.7C1.9,61.2,2.6,54,2.6,48.5c0-3.1,0.1-6.2,1.4-9.1c0.4-0.9,1.2-2.8,2.2-3.1
	c0.7-0.2,3.1,1.8,3.5,2.4c0.5,0.7-1,3.5-1.2,4.5C8,46,8.5,49,9.8,51.5c1.8,3.2,4.7,5.6,8.3,6.5c1.1,0.3,2.5,0,3.6,0.4
	c0.7,0.3,1.2,1,1.7,1.4c1.1,0.8,2.2,1.4,3.4,1.7c5.3,1.5,10.9-2.4,11.6-7.8h2.2C40.7,56.1,40.6,58.4,39.6,60.5z M38.5,51.2
	c-0.3-2-1.1-3.8-2.5-5.2c-0.6-0.6-1.6-1.1-2-1.8c-0.3-0.5-0.3-1.4-0.5-2c-0.3-1.2-1-2.3-1.3-3.5l3.6-2.8c4.4,3.1,4.9,10.4,4.9,15.3
	H38.5z M28.3,47.8c-6,1.1-4.1,10.4,1.9,9.3C36.3,56,34.3,46.7,28.3,47.8z M29.9,54.6c-2.7,0.8-4-3.5-1.3-4.2
	C31.4,49.6,32.7,53.8,29.9,54.6z M28.3,47.8c-6,1.1-4.1,10.4,1.9,9.3C36.3,56,34.3,46.7,28.3,47.8z M29.9,54.6
	c-2.7,0.8-4-3.5-1.3-4.2C31.4,49.6,32.7,53.8,29.9,54.6z M28.3,47.8c-6,1.1-4.1,10.4,1.9,9.3C36.3,56,34.3,46.7,28.3,47.8z
	 M29.9,54.6c-2.7,0.8-4-3.5-1.3-4.2C31.4,49.6,32.7,53.8,29.9,54.6z"/>
<path class="st1" d="M17.7,24.6h-2.4c-0.7-2.9-3.9-2.9-4.5,0H8.3C8.8,18.4,17.7,18.2,17.7,24.6z"/>
<path class="st1" d="M20.3,30.3c-4.5,1-2.8,8,1.7,6.9C26.5,36.2,24.8,29.4,20.3,30.3z M21.7,34.6c-1.1,0.7-2.3-1-1.1-1.7
	C21.8,32.3,22.8,34,21.7,34.6z"/>
<path class="st1" d="M34,24.6h-2.5c-0.3-2.9-4.1-2.9-4.4,0h-2.5C24.6,18.3,33.9,18.3,34,24.6z"/>
<path class="st1" d="M20.3,30.3c-4.5,1-2.8,8,1.7,6.9C26.5,36.2,24.8,29.4,20.3,30.3z M21.7,34.6c-1.1,0.7-2.3-1-1.1-1.7
	C21.8,32.3,22.8,34,21.7,34.6z M24.6,24.6h2.5c0.3-2.9,4.1-2.9,4.4,0H34C33.9,18.3,24.6,18.3,24.6,24.6z M8.3,24.6h2.5
	c0.7-2.9,3.9-2.9,4.5,0h2.4C17.7,18.2,8.8,18.4,8.3,24.6z"/>
<path class="st1" d="M28.3,47.8c-6,1.1-4.1,10.4,1.9,9.3C36.3,56,34.3,46.7,28.3,47.8z M29.9,54.6c-2.7,0.8-4-3.5-1.3-4.2
	C31.4,49.6,32.7,53.8,29.9,54.6z"/>
<path class="st1" d="M28.3,47.8c-6,1.1-4.1,10.4,1.9,9.3C36.3,56,34.3,46.7,28.3,47.8z M29.9,54.6c-2.7,0.8-4-3.5-1.3-4.2
	C31.4,49.6,32.7,53.8,29.9,54.6z"/>
</svg>
