<?xml version="1.0" encoding="utf-8"?>
<!-- Generator: Adobe Illustrator 27.3.1, SVG Export Plug-In . SVG Version: 6.00 Build 0)  -->
<svg version="1.1" id="Layer_1" xmlns="http://www.w3.org/2000/svg" xmlns:xlink="http://www.w3.org/1999/xlink" x="0px" y="0px"
	 viewBox="0 0 70 70" style="enable-background:new 0 0 70 70;" xml:space="preserve">
<style type="text/css">
	.st0{fill:#6BB1FC;}
	.st1{fill:#FFFFFF;}
</style>
<path class="st0" d="M10.7,24.5H8.2c0.5-6.1,9.4-6.3,9.4,0h-2.4C14.6,21.6,11.4,21.7,10.7,24.5z"/>
<path class="st0" d="M20.3,30.2c-4.5,1-2.8,8,1.7,6.9C26.5,36.1,24.8,29.3,20.3,30.2z M21.7,34.5c-1.1,0.7-2.3-1-1.1-1.7
	C21.8,32.2,22.8,33.9,21.7,34.5z"/>
<path class="st0" d="M27.1,24.5h-2.5c0-6.3,9.4-6.3,9.4,0h-2.5C31.2,21.6,27.4,21.6,27.1,24.5z"/>
<path class="st0" d="M28.3,47.7c-6,1.1-4.1,10.4,1.9,9.3C36.3,55.8,34.4,46.6,28.3,47.7z M29.9,54.4c-2.7,0.8-4-3.4-1.3-4.2
	C31.4,49.5,32.7,53.7,29.9,54.4z M28.3,47.7c-6,1.1-4.1,10.4,1.9,9.3C36.3,55.8,34.4,46.6,28.3,47.7z M29.9,54.4
	c-2.7,0.8-4-3.4-1.3-4.2C31.4,49.5,32.7,53.7,29.9,54.4z M28.3,47.7c-6,1.1-4.1,10.4,1.9,9.3C36.3,55.8,34.4,46.6,28.3,47.7z
	 M29.9,54.4c-2.7,0.8-4-3.4-1.3-4.2C31.4,49.5,32.7,53.7,29.9,54.4z M28.3,47.7c-6,1.1-4.1,10.4,1.9,9.3
	C36.3,55.8,34.4,46.6,28.3,47.7z M29.9,54.4c-2.7,0.8-4-3.4-1.3-4.2C31.4,49.5,32.7,53.7,29.9,54.4z M68.6,45.3
	c-1.4-1.3-3.1-1.1-4.9-1.1h-8.8c-1.6,0-4.4,0.1-4.5-2.2c-0.1-1.3,1.1-2.2,2.3-2.3c2.5-0.2,5.8,0.7,7.8-1c1.6-1.3,1.4-3.7,1.4-5.6
	c0-4.1-0.6-8.7,0-12.7c0.1-0.8,1-0.9,1.5-1.3c1-0.6,1.7-1.4,2.4-2.3c2.4-3.2,3.4-7.3,3.9-11.2c0.1-1,0.6-3.4-0.3-4.1
	c-0.8-0.7-3.1-0.3-4.2-0.3V0h-2.5v4.7h2.5V3.6h2c0,3.7-1.2,7.9-3.3,11c-0.9,1.3-2.2,2.9-4,2.6c-1.5-0.3-2.5-1.7-3.3-2.9
	c-2-3.1-2.9-7-3.1-10.7H56v1.1h2.4V0H56v1.1c-1.1,0-3.3-0.4-4.2,0.3c-0.8,0.6-0.5,2.1-0.4,3c0.3,2.6,0.7,5.1,1.6,7.5
	c0.8,2.1,1.9,4.4,3.5,6c0.7,0.7,2.3,1.2,2.8,2c0.5,0.8,0.2,2.9,0.2,3.9v8.8c0,1.1,0.3,2.8-0.4,3.8c-0.8,1.1-2.5,0.8-3.7,0.8
	c-3.1,0-7.2,0.1-7.5,4.2c-0.2,2.3,1,4.4,3.3,5.1c1.2,0.3,2.6,0.1,3.8,0.1h7.5c1.4,0,3.3-0.3,4.4,0.8c1.2,1.1,0.7,2.9-0.8,3.6
	c-0.8,0.3-1.7,0.2-2.5,0.2H43.3c0-4-0.4-8.2-1.9-11.9c-0.6-1.3-1.3-2.7-2.2-3.8c-0.3-0.4-1.1-1-1.1-1.6c0-0.7,0.9-1.5,1.2-2
	c0.8-1.5,1.5-3,2-4.6c2.1-6.7,0.7-14.5-3.9-19.8C27.4-4,8.1-1.8,1.9,12.4C1,14.5,0.4,16.8,0.2,19c-0.1,3.3,0.1,6.6,1.4,9.7
	c0.5,1.3,1.1,2.5,1.9,3.6c0.3,0.4,0.9,1,0.8,1.6c-0.1,0.7-1,1.5-1.4,2c-0.8,1.3-1.5,2.6-2,4.1c-1.4,4.5-1,9.5-0.8,14.1
	c0.2,3.7,0.5,7.7,3.2,10.5c4.1,4.5,10.6,5,16.3,5c8.7,0,20-0.2,22.9-10.4c0.5-1.9,0.7-3.8,0.7-5.8h15.4c2.5,0,5.4,0.4,7.9-0.2
	C70.1,52.6,71.3,47.8,68.6,45.3z M2.7,22.2c-0.3-2.3,0.1-4.8,0.9-7.1c0.7-2.2,1.8-4.2,3.3-6c3.5-4.1,8.4-6.4,13.8-6.7
	c3.1-0.2,6.6,3.4,4.5,6.4c-1.5,2.2-6.9,2.1-6.1-1.4c0.3-1.6,2.9-2.1,3.3-0.3h2.5c-0.5-6.3-10.1-3.4-8.1,2.4c1.3,3.6,6.4,4.4,9.2,2.2
	c2.6-2.2,2.8-5.2,1.4-8.1c13,4.4,16.4,21.4,6.8,30.8c-1.5,1.4-3.3,2.7-5.2,3.6c-8.4,3.6-18.4,0.8-23.4-7C3.8,28.1,3.1,25.3,2.7,22.2
	z M20.1,50.4c-0.4,1.9,0.1,3.5,0.4,5.3c-1.8-0.4-3.4-0.7-5-1.7c-5.1-3.3-5.4-8.9-3.3-14c3.4,0.5,6.3,2.1,9.9,1.9
	c1.8-0.1,3.6-0.4,5.3-1c0.6-0.2,1.8-0.9,2.5-0.8c0.9,0.2,1.2,2.2,1.4,3C26.3,42,21.2,45.4,20.1,50.4z M33.4,57.9
	c-1,0.8-2.2,1.2-3.5,1.3c-4,0.5-7.8-3.2-7.5-7.2c0.2-3.4,2.8-6,6.1-6.5C35.4,44.5,38.8,53.8,33.4,57.9z M39.6,60.3
	c-3.3,7.4-14.3,7.4-21.2,6.9C14.5,67,10.3,66.9,7,64.6C1.8,61,2.6,53.9,2.6,48.4c0-3.1,0.1-6.2,1.4-9.1c0.4-0.9,1.2-2.8,2.2-3.1
	C6.9,36,9.3,38,9.7,38.6c0.5,0.7-1,3.5-1.2,4.5c-0.5,2.8-0.1,5.8,1.3,8.3c1.8,3.2,4.8,5.6,8.3,6.5c1.1,0.3,2.5,0,3.6,0.4
	c0.7,0.3,1.2,1,1.7,1.4c1.1,0.8,2.2,1.4,3.5,1.7c5.3,1.5,10.9-2.4,11.6-7.8h2.2C40.8,55.9,40.6,58.2,39.6,60.3z M38.6,51.1
	c-0.3-1.9-1.1-3.8-2.5-5.2c-0.6-0.6-1.6-1.1-2-1.8c-0.3-0.5-0.3-1.4-0.5-2c-0.3-1.2-1-2.3-1.3-3.5l3.6-2.8
	c4.4,3.1,4.9,10.3,4.9,15.2H38.6z M28.3,47.7c-6,1.1-4.1,10.4,1.9,9.3C36.3,55.8,34.4,46.6,28.3,47.7z M29.9,54.4
	c-2.7,0.8-4-3.4-1.3-4.2C31.4,49.5,32.7,53.7,29.9,54.4z M28.3,47.7c-6,1.1-4.1,10.4,1.9,9.3C36.3,55.8,34.4,46.6,28.3,47.7z
	 M29.9,54.4c-2.7,0.8-4-3.4-1.3-4.2C31.4,49.5,32.7,53.7,29.9,54.4z M28.3,47.7c-6,1.1-4.1,10.4,1.9,9.3
	C36.3,55.8,34.4,46.6,28.3,47.7z M29.9,54.4c-2.7,0.8-4-3.4-1.3-4.2C31.4,49.5,32.7,53.7,29.9,54.4z"/>
<path class="st1" d="M17.7,24.5h-2.4c-0.7-2.9-3.9-2.8-4.6,0H8.2C8.7,18.4,17.6,18.2,17.7,24.5z"/>
<path class="st1" d="M20.3,30.2c-4.5,1-2.8,8,1.7,6.9C26.5,36.1,24.8,29.3,20.3,30.2z M21.7,34.5c-1.1,0.7-2.3-1-1.1-1.7
	C21.8,32.2,22.8,33.9,21.7,34.5z"/>
<path class="st1" d="M34,24.5h-2.5c-0.3-2.9-4.1-2.9-4.4,0h-2.5C24.6,18.2,34,18.2,34,24.5z"/>
<path class="st0" d="M20.3,30.2c-4.5,1-2.8,8,1.7,6.9C26.5,36.1,24.8,29.3,20.3,30.2z M21.7,34.5c-1.1,0.7-2.3-1-1.1-1.7
	C21.8,32.2,22.8,33.9,21.7,34.5z M24.6,24.5h2.5c0.3-2.9,4.1-2.9,4.4,0H34C34,18.2,24.6,18.2,24.6,24.5z M8.2,24.5h2.5
	c0.7-2.8,3.9-2.9,4.6,0h2.4C17.6,18.2,8.7,18.4,8.2,24.5z"/>
<path class="st1" d="M28.3,47.7c-6,1.1-4.1,10.4,1.9,9.3C36.3,55.8,34.4,46.6,28.3,47.7z M29.9,54.4c-2.7,0.8-4-3.4-1.3-4.2
	C31.4,49.5,32.7,53.7,29.9,54.4z"/>
<path class="st0" d="M28.3,47.7c-6,1.1-4.1,10.4,1.9,9.3C36.3,55.8,34.4,46.6,28.3,47.7z M29.9,54.4c-2.7,0.8-4-3.4-1.3-4.2
	C31.4,49.5,32.7,53.7,29.9,54.4z"/>
</svg>
