<?xml version="1.0" encoding="utf-8"?>
<!-- Generator: Adobe Illustrator 27.3.1, SVG Export Plug-In . SVG Version: 6.00 Build 0)  -->
<svg version="1.1" id="Layer_1" xmlns="http://www.w3.org/2000/svg" xmlns:xlink="http://www.w3.org/1999/xlink" x="0px" y="0px"
	 viewBox="0 0 752 752" style="enable-background:new 0 0 752 752;" xml:space="preserve">
<style type="text/css">
	.st0{fill:#FFFFFF;}
</style>
<rect x="-16" y="-15.7" width="782.5" height="782.5"/>
<path class="st0" d="M284.5,356.4c4.3-11.5,5-22.3,1-34c-1.3-3.8-7.1-15.2-12-7.7c-2.7,4.2,1.7,10.6,2.8,14.7c2,7.3,0.8,13.8-0.8,21
	c-14-8.8-25.5-19.8-35.4-33c-4.1-5.5-8-17.6-13.8-21c-7.4-4.2-7.9,5.6-6,10c5,11.3,12.9,21.9,21.2,31c-11.4,1.4-22.7,2.3-33-3.9
	c-4.3-2.6-10.8-12-16.6-8c-9.5,6.5,12,18.7,16.6,20.5c8.1,3.3,17.4,4.1,26,3.3c4.9-0.5,11.2-3.2,16-1.9c5.1,1.4,9.7,6.8,14,9.7
	c7.9,5.3,16.4,9.3,25,13.4c-18.7,8.7-37.1,17-58,18.9c-4.5,0.4-16.1-0.1-15.3,7c0.8,7.7,19.6,3.2,24.3,2.5
	c24.4-3.9,48.8-12.6,68-28.5c45.7-37.6,46-89.7,46-143.9v-66c0-5,2.5-19.8-5-20.5c-6.7-0.7-6,8.3-6,12.5v44c0,41.6,7.6,91.1-13,129
	c-5.4,9.9-11.9,18.7-19.4,27c-2.8,3.1-7.2,8.3-11.6,8.9C294.8,361.9,289,357.6,284.5,356.4 M441.5,370.4c8.6-4.1,17.1-8.1,25-13.4
	c4.3-2.9,8.9-8.3,14-9.7c4.8-1.3,11.1,1.4,16,1.9c8.6,0.8,17.9,0,26-3.3c4.6-1.9,26.2-13.9,16.6-20.5c-5.7-3.9-12.3,5.5-16.6,8
	c-10.2,6.2-21.6,5.4-33,3.9c8.4-9.1,16.2-19.6,21.2-31c2-4.4,1.5-14.2-6-10c-6.1,3.4-10.3,16.3-14.6,22c-9.7,13-21.2,23-34.6,32
	c-1.5-6.8-2.9-13.1-1.1-20c1.1-4.3,5.9-11.3,3-15.7c-4.9-7.5-10.7,3.9-12,7.7c-4,11.7-3.3,22.5,1,34c-4.5,1.3-10.3,5.5-15,4.9
	c-12.6-1.7-25.5-25.9-31-35.9c-20.6-37.9-13-87.4-13-129v-44c0-4.2,0.8-13.2-6-12.5c-7.5,0.8-5,15.5-5,20.5v67
	c0,53.6,0.4,105.9,46,142.9c19.4,15.8,43.5,24.6,68,28.5c4.7,0.8,23.5,5.3,24.3-2.5c0.7-7.1-10.8-6.6-15.3-7
	C478.3,387.3,460.6,378.6,441.5,370.4 M259.5,216.9c-25.5,5.8-50.1,32-65.6,51.5c-47.9,60-61.4,139.3-61.4,214
	c0,25.5-3.3,57.6,5.1,82c5.3,15.3,19.5,26.6,35.9,27c22.2,0.5,33.4-17.7,53-23.5c12.7-3.8,22.4-0.4,35,0.5c20,1.4,40.2-1.3,55-15.9
	c4.2-4.2,7.7-8.7,10.4-14c6-11.9,7.5-26,9.7-39c4-24,7.3-48.7,7.9-73c0.2-9,0.1-18,0-27c0-3.3-0.1-7.7-4.1-8.5
	c-9.5-2-5.9,13.7-5.9,18.5c-0.1,21.2-1.9,43-4.9,64c-5,36-7.6,79.2-52.1,84.7c-18.5,2.3-35.3-6.2-54-0.8c-22.8,6.5-42.7,37-67,15.8
	c-9.4-8.2-10.1-19.2-11.2-30.7c-1.9-19.6-2.8-39.3-2.8-59c0-71.8,14.2-149.5,60-207c13.9-17.5,36.2-42.7,59-48.3
	c7.3-1.8,13.5,6.8,18,11.3c14.2,14.3,25.8,32.4,33.4,51c2.1,5.2,6.4,25.5,14.5,22.4c8.3-3.2-3.7-25.3-5.9-30.4
	c-8.5-19.7-20.9-37.9-36-53C278.3,222.1,270.7,214.3,259.5,216.9 M462.5,216.9c-7.9,1.9-13.5,9-19,14.5
	c-14.6,14.7-26.3,32.9-34.4,52c-2,4.6-14.7,29.7-3.6,29.7c7.1,0,11.1-19.2,13.4-24.7c7.5-17.4,18.4-34.4,31.6-48
	c9.1-9.4,14.4-15.5,27-8.7c86,46.6,111,161,111,250.7c0,20.1-0.9,40-2.8,60c-1.2,12-2,23.3-12.2,31.5c-24.3,19.6-43.4-10.1-66-16.6
	c-21.2-6.1-41.8,4.4-63-0.8c-41.4-10.1-42.3-66.5-45.1-101.1c-1.6-19.4-2.4-38.5-2.3-58c0-4.2-3.8-8.7-8.2-5.8
	c-4.7,3.1-2.4,15.9-2.4,20.8c0,21.8,1.9,43.4,4.7,65c5,38.4,9.6,83.9,56.3,90.6c19,2.7,37.4-5.5,56-0.4c24.7,6.8,38.2,31.9,67,21.1
	c33.8-12.7,28-65.3,28-94.3c0-80.8-11.1-164.1-63.8-229c-13.1-16.1-29.3-30.5-47.2-41C480.1,220,471.4,214.8,462.5,216.9
	 M256.5,422.4c-8.8,9-16.3,19.7-21.7,31c-2.8,5.8-4.4,15.9-9,20.4c-3.2,3.2-10.2,3.3-14.3,4.8c-7.8,2.9-14.9,7.2-21,12.9
	c-3.4,3.2-21.1,20.7-9.9,24.2c5.7,1.8,9.4-7,12.2-10.3c7.9-9.4,18.7-16.2,30.7-19c-3.7,13.2-5,27.4-5,41c0,3.8,1.7,16,8.4,9.4
	c4.6-4.5,2.3-20.2,3.2-26.4c2.8-20.6,9.5-37.9,17.4-57c11,6.4,20.6,12.3,26.7,24c2.5,4.8,4.3,18.6,10.3,19.6
	c10.2,1.8,3.8-15.5,2.1-19.6c-6.5-15.3-17.8-26.6-33.1-33c7.9-11,16.7-21.2,28-28.8c8.2-5.6,18.3-8.7,27-13.5
	c21.9-12,48.8-33.7,56-58.7h2c7.2,25.1,34.1,46.6,56,58.7c9.1,5,19.5,8.2,28,14.1c10.7,7.4,19.7,17.5,27,28.2
	c-14.9,6.2-26.3,17.2-32.7,32c-1.8,4.1-8.8,22.5,1.7,20.6c6-1.1,7.8-14.8,10.3-19.6c6.1-11.7,15.7-17.6,26.7-24
	c8.1,19.4,14.7,36.9,17.6,58c0.8,6.1-1.5,20.9,3,25.4c6.7,6.6,8.4-5.6,8.4-9.4c0-13.6-1.3-27.8-5-41c12,3.5,22.5,9.2,30.5,19
	c2.8,3.4,6.8,12.1,12.4,10.3c11.1-3.5-6.4-21-9.9-24.2c-6.1-5.7-13.2-10-21-12.9c-4.1-1.5-11.1-1.7-14.3-4.8
	c-4.6-4.5-6.3-14.6-9-20.4c-5.4-11.3-12.9-22-21.7-31c12.6,3.5,26,5.8,39,6.8c4.9,0.4,12.4-4.1,6.6-9.1c-2.9-2.5-8-1.7-11.6-2.2
	c-9.7-1.3-19.5-3.1-29-5.5c-26.4-6.6-53.5-18-74-36.3c-11.9-10.7-22-22.6-29.5-36.8c-2.3-4.4-4.2-14.7-10.5-14.7
	c-5.9,0-8.1,9.5-10.2,13.7c-7.3,14.7-17.6,26.9-29.8,37.8c-20.4,18.3-47.7,29.7-74,36.3c-9.2,2.3-18.6,4-28,5.2
	c-3.7,0.5-9.6-0.1-12.6,2.5c-5.8,5,1.7,9.5,6.6,9.1C230.5,428.2,243.9,425.9,256.5,422.4z"/>
</svg>
