<?xml version="1.0" encoding="utf-8"?>
<!-- Generator: Adobe Illustrator 27.3.1, SVG Export Plug-In . SVG Version: 6.00 Build 0)  -->
<svg version="1.1" id="Layer_1" xmlns="http://www.w3.org/2000/svg" xmlns:xlink="http://www.w3.org/1999/xlink" x="0px" y="0px"
	 viewBox="0 0 70 70" style="enable-background:new 0 0 70 70;" xml:space="preserve">
<style type="text/css">
	.st0{fill:#FFFFFF;}
</style>
<path class="st0" d="M23,33.6c0.6-1.8,0.7-3.5,0.1-5.3c-0.2-0.6-1.1-2.4-1.8-1.2c-0.4,0.7,0.3,1.6,0.4,2.3c0.3,1.1,0.1,2.1-0.1,3.3
	c-2.1-1.4-3.8-3.1-5.3-5.1c-0.6-0.9-1.2-2.7-2.1-3.3c-1.1-0.7-1.2,0.9-0.9,1.5c0.7,1.8,1.9,3.4,3.2,4.8c-1.7,0.2-3.4,0.4-4.9-0.6
	c-0.6-0.4-1.6-1.9-2.5-1.2c-1.4,1,1.8,2.9,2.5,3.2c1.2,0.5,2.6,0.6,3.9,0.5c0.7-0.1,1.7-0.5,2.4-0.3c0.8,0.2,1.5,1.1,2.1,1.5
	c1.2,0.8,2.5,1.4,3.7,2.1c-2.8,1.3-5.6,2.6-8.7,2.9c-0.7,0.1-2.4,0-2.3,1.1c0.1,1.2,2.9,0.5,3.6,0.4c3.7-0.6,7.3-2,10.2-4.4
	c6.9-5.8,6.9-13.9,6.9-22.3V3.2c0-0.8,0.4-3.1-0.7-3.2c-1-0.1-0.9,1.3-0.9,1.9v6.8c0,6.4,1.1,14.1-1.9,20c-0.8,1.5-1.8,2.9-2.9,4.2
	c-0.4,0.5-1.1,1.3-1.7,1.4C24.5,34.4,23.7,33.8,23,33.6 M46.5,35.7c1.3-0.6,2.6-1.3,3.7-2.1c0.6-0.4,1.3-1.3,2.1-1.5
	c0.7-0.2,1.7,0.2,2.4,0.3c1.3,0.1,2.7,0,3.9-0.5c0.7-0.3,3.9-2.2,2.5-3.2c-0.9-0.6-1.8,0.9-2.5,1.2c-1.5,1-3.2,0.8-4.9,0.6
	c1.3-1.4,2.4-3,3.2-4.8c0.3-0.7,0.2-2.2-0.9-1.5c-0.9,0.5-1.5,2.5-2.2,3.4c-1.5,2-3.2,3.6-5.2,5c-0.2-1.1-0.4-2-0.2-3.1
	c0.2-0.7,0.9-1.8,0.4-2.4c-0.7-1.2-1.6,0.6-1.8,1.2c-0.6,1.8-0.5,3.5,0.1,5.3c-0.7,0.2-1.5,0.9-2.2,0.8c-1.9-0.3-3.8-4-4.6-5.6
	c-3.1-5.9-1.9-13.5-1.9-20V1.9c0-0.7,0.1-2-0.9-1.9c-1.1,0.1-0.7,2.4-0.7,3.2v10.4c0,8.3,0.1,16.4,6.9,22.1
	c2.9,2.4,6.5,3.8,10.2,4.4c0.7,0.1,3.5,0.8,3.6-0.4c0.1-1.1-1.6-1-2.3-1.1C52,38.4,49.4,37,46.5,35.7 M19.2,12c-3.8,0.9-7.5,5-9.8,8
	c-7.2,9.3-9.2,21.6-9.2,33.2c0,4-0.5,8.9,0.8,12.7c0.8,2.4,2.9,4.1,5.4,4.2c3.3,0.1,5-2.7,7.9-3.6c1.9-0.6,3.4-0.1,5.2,0.1
	c3,0.2,6-0.2,8.2-2.5c0.6-0.7,1.2-1.3,1.6-2.2c0.9-1.8,1.1-4,1.5-6c0.6-3.7,1.1-7.5,1.2-11.3c0-1.4,0-2.8,0-4.2c0-0.5,0-1.2-0.6-1.3
	c-1.4-0.3-0.9,2.1-0.9,2.9c0,3.3-0.3,6.7-0.7,9.9C29,57.3,28.6,64,21.9,64.9c-2.8,0.4-5.3-1-8.1-0.1c-3.4,1-6.4,5.7-10,2.4
	c-1.4-1.3-1.5-3-1.7-4.8c-0.3-3-0.4-6.1-0.4-9.1c0-11.1,2.1-23.2,9-32.1c2.1-2.7,5.4-6.6,8.8-7.5c1.1-0.3,2,1.1,2.7,1.8
	c2.1,2.2,3.9,5,5,7.9c0.3,0.8,1,4,2.2,3.5c1.2-0.5-0.6-3.9-0.9-4.7c-1.3-3.1-3.1-5.9-5.4-8.2C22.1,12.8,20.9,11.6,19.2,12 M49.7,12
	c-1.2,0.3-2,1.4-2.8,2.2c-2.2,2.3-3.9,5.1-5.2,8.1c-0.3,0.7-2.2,4.6-0.5,4.6c1.1,0,1.7-3,2-3.8c1.1-2.7,2.8-5.3,4.7-7.4
	c1.4-1.5,2.2-2.4,4-1.3c12.9,7.2,16.6,25,16.6,38.9c0,3.1-0.1,6.2-0.4,9.3c-0.2,1.9-0.3,3.6-1.8,4.9c-3.6,3-6.5-1.6-9.9-2.6
	c-3.2-0.9-6.3,0.7-9.4-0.1c-6.2-1.6-6.3-10.3-6.8-15.7c-0.2-3-0.4-6-0.3-9c0-0.7-0.6-1.3-1.2-0.9c-0.7,0.5-0.4,2.5-0.4,3.2
	c0,3.4,0.3,6.7,0.7,10.1c0.7,6,1.4,13,8.4,14c2.8,0.4,5.6-0.9,8.4-0.1c3.7,1.1,5.7,4.9,10,3.3c5.1-2,4.2-10.1,4.2-14.6
	c0-12.5-1.7-25.4-9.6-35.5c-2-2.5-4.4-4.7-7.1-6.4C52.3,12.4,51,11.6,49.7,12 M18.8,43.8c-1.3,1.4-2.4,3.1-3.3,4.8
	c-0.4,0.9-0.7,2.5-1.3,3.2c-0.5,0.5-1.5,0.5-2.1,0.7c-1.2,0.4-2.2,1.1-3.1,2c-0.5,0.5-3.2,3.2-1.5,3.8c0.9,0.3,1.4-1.1,1.8-1.6
	c1.2-1.5,2.8-2.5,4.6-2.9c-0.6,2-0.7,4.2-0.7,6.4c0,0.6,0.3,2.5,1.3,1.5c0.7-0.7,0.3-3.1,0.5-4.1c0.4-3.2,1.4-5.9,2.6-8.8
	c1.6,1,3.1,1.9,4,3.7c0.4,0.7,0.6,2.9,1.5,3c1.5,0.3,0.6-2.4,0.3-3c-1-2.4-2.7-4.1-5-5.1c1.2-1.7,2.5-3.3,4.2-4.5
	c1.2-0.9,2.7-1.3,4-2.1c3.3-1.9,7.3-5.2,8.4-9.1h0.3c1.1,3.9,5.1,7.2,8.4,9.1c1.4,0.8,2.9,1.3,4.2,2.2c1.6,1.1,3,2.7,4,4.4
	c-2.2,1-3.9,2.7-4.9,5c-0.3,0.6-1.3,3.5,0.3,3.2c0.9-0.2,1.2-2.3,1.5-3c0.9-1.8,2.4-2.7,4-3.7c1.2,3,2.2,5.7,2.6,9
	c0.1,0.9-0.2,3.2,0.4,3.9c1,1,1.3-0.9,1.3-1.5c0-2.1-0.2-4.3-0.7-6.4c1.8,0.5,3.4,1.4,4.6,2.9c0.4,0.5,1,1.9,1.9,1.6
	c1.7-0.5-1-3.3-1.5-3.8c-0.9-0.9-2-1.5-3.1-2c-0.6-0.2-1.7-0.3-2.1-0.7c-0.7-0.7-0.9-2.3-1.3-3.2c-0.8-1.8-1.9-3.4-3.3-4.8
	c1.9,0.5,3.9,0.9,5.8,1.1c0.7,0.1,1.9-0.6,1-1.4c-0.4-0.4-1.2-0.3-1.7-0.3c-1.5-0.2-2.9-0.5-4.3-0.9c-4-1-8-2.8-11.1-5.6
	c-1.8-1.7-3.3-3.5-4.4-5.7c-0.3-0.7-0.6-2.3-1.6-2.3c-0.9,0-1.2,1.5-1.5,2.1c-1.1,2.3-2.6,4.2-4.5,5.9c-3.1,2.8-7.2,4.6-11.1,5.6
	c-1.4,0.4-2.8,0.6-4.2,0.8c-0.6,0.1-1.4,0-1.9,0.4c-0.9,0.8,0.3,1.5,1,1.4C14.9,44.7,16.9,44.3,18.8,43.8z"/>
</svg>
