<?xml version="1.0" encoding="UTF-8"?>
<svg id="Layer_1" data-name="Layer 1" xmlns="http://www.w3.org/2000/svg" viewBox="0 0 63.57 60.06">
  <defs>
    <style>
      .cls-1 {
        fill: none;
        stroke: #6bb1fc;
        stroke-linecap: round;
        stroke-linejoin: round;
        stroke-width: 1.5px;
      }
    </style>
  </defs>
  <path class="cls-1" d="m10.75,27.53h35.66V.75H10.75v26.78Zm0-4.3h35.66"/>
  <path class="cls-1" d="m25.08,33.43h7v-5.9h-7v5.9Zm-19.4,11.17l10.7-11.07c.08-.08.19-.12.3-.12h23.84c.11,0,.22.04.3.12l10.66,11.07m0,0l.18,9.3H5.5l.2-9.3m45.78,0H5.68m13.36-8.77h19.1m-12.76,5.34h6.4m-6.4-2.71h6.4"/>
  <path class="cls-1" d="m17.66,42.13c-2.1,0-4.23-.67-4.23-2s2.13-2,4.23-2,4.23.7,4.23,2-2.12,2-4.22,2h-.01Zm22.07.16c-2.1,0-4.23-.68-4.23-2s2.13-2,4.23-2,4.23.68,4.23,2-2.18,2-4.23,2Zm22.65-25.28h-10.86c-.24,0-.43-.19-.43-.43h0v-2.25c0-.55.62-.93,1.94-1.2,2.6-.45,5.26-.45,7.86,0,1.32.26,1.93.65,1.93,1.2v2.26c0,.23-.2.42-.43.42h-.01Zm.43-.43c0,.56-.54,1-1.16,1.54s-1.27,1.08-1.37,1.68l-1.8,16.3c-.1.81-.79,1.42-1.6,1.43-.72,0-1.32-.54-1.4-1.25l-1.8-16.46c-.13-.62-.8-1.2-1.42-1.7s-1.16-1-1.16-1.55"/>
  <path class="cls-1" d="m28.58,18.08h.6c4.16-.06,8.28-.76,12.22-2.08l-5.2-11-.54.15c-2.29.73-4.67,1.14-7.08,1.22-2.41-.08-4.79-.49-7.08-1.22l-.55-.15-5.2,11c3.94,1.32,8.07,2.03,12.23,2.1h.6v-.02Zm28.37,19.45v18.78c0,1.66-1.34,3-3,3H3.75c-1.66,0-3-1.34-3-3v-5c0-1.71,1.39-3.1,3.1-3.1h1.43"/>
</svg>