<?xml version="1.0" encoding="utf-8"?>
<!-- Generator: Adobe Illustrator 27.3.1, SVG Export Plug-In . SVG Version: 6.00 Build 0)  -->
<svg version="1.1" id="Layer_1" xmlns="http://www.w3.org/2000/svg" xmlns:xlink="http://www.w3.org/1999/xlink" x="0px" y="0px"
	 viewBox="0 0 81 79.3" style="enable-background:new 0 0 81 79.3;" xml:space="preserve">
<style type="text/css">
	.st0{fill:none;stroke:#FFFFFF;stroke-width:1.5;stroke-linecap:round;stroke-linejoin:round;}
</style>
<g>
	<rect y="0" width="81" height="79.3"/>
</g>
<path class="st0" d="M13.8,36.5h45.4V2.5H13.8C13.8,2.5,13.8,36.5,13.8,36.5z M13.8,31.1h45.4"/>
<path class="st0" d="M32.1,44H41v-7.5h-8.9V44z M7.4,58.3L21,44.2c0.1-0.1,0.2-0.2,0.4-0.2h30.3c0.1,0,0.3,0.1,0.4,0.2l13.6,14.1
	 M65.7,58.3l0.2,11.8H7.1l0.3-11.8 M65.7,58.3H7.4 M24.4,47.1h24.3 M32.4,53.9h8.1 M32.4,50.4h8.1"/>
<path class="st0" d="M22.6,55.1c-2.7,0-5.4-0.9-5.4-2.5s2.7-2.5,5.4-2.5s5.4,0.9,5.4,2.5C28,54.2,25.3,55.1,22.6,55.1L22.6,55.1z
	 M50.7,55.3c-2.7,0-5.4-0.9-5.4-2.5c0-1.7,2.7-2.5,5.4-2.5s5.4,0.9,5.4,2.5C56.1,54.5,53.3,55.3,50.7,55.3z M79.5,23.1H65.7
	c-0.3,0-0.5-0.2-0.5-0.5l0,0v-2.9c0-0.7,0.8-1.2,2.5-1.5c3.3-0.6,6.7-0.6,10,0c1.7,0.3,2.5,0.8,2.5,1.5v2.9
	C80.1,22.9,79.8,23.1,79.5,23.1C79.5,23.1,79.5,23.1,79.5,23.1z M80.1,22.6c0,0.7-0.7,1.3-1.5,2c-0.8,0.7-1.6,1.4-1.7,2.1l-2.3,20.7
	c-0.1,1-1,1.8-2,1.8c-0.9,0-1.7-0.7-1.8-1.6l-2.3-20.9c-0.2-0.8-1-1.5-1.8-2.2c-0.8-0.6-1.5-1.3-1.5-2"/>
<path class="st0" d="M36.5,24.5h0.8c5.3-0.1,10.5-1,15.6-2.6l-6.6-14l-0.7,0.2c-2.9,0.9-5.9,1.5-9,1.6c-3.1-0.1-6.1-0.6-9-1.6
	l-0.7-0.2l-6.6,14c5,1.7,10.3,2.6,15.6,2.7L36.5,24.5L36.5,24.5z M72.6,49.3v23.9c0,2.1-1.7,3.8-3.8,3.8H4.9c-2.1,0-3.8-1.7-3.8-3.8
	v-6.4c0-2.2,1.8-3.9,3.9-3.9h1.8"/>
</svg>
