<?xml version="1.0" encoding="utf-8"?>
<!-- Generator: Adobe Illustrator 27.3.1, SVG Export Plug-In . SVG Version: 6.00 Build 0)  -->
<svg version="1.1" id="Layer_1" xmlns="http://www.w3.org/2000/svg" xmlns:xlink="http://www.w3.org/1999/xlink" x="0px" y="0px"
	 viewBox="0 0 752 752" style="enable-background:new 0 0 752 752;" xml:space="preserve">
<style type="text/css">
	.st0{fill:#FFFFFF;stroke:#FFFFFF;stroke-width:4;stroke-miterlimit:10;}
</style>
<rect x="-15.9" y="-13.1" width="779.6" height="771.6"/>
<g>
	<path class="st0" d="M315.1,508c1.2,27.1,9,58.2,20,83l5-1c-0.8-8.6-4.8-16.8-7.3-25c-5.4-17.9-10.9-37.2-11.7-56
		c-2.2-49.7,11.5-99.3,6.8-149c-2.3-24-11.7-50.9-37.8-57c15.8-10.7,30.5-23,38.1-41c11.1-26.4-2.4-60.1-29.1-70.5
		c-44.3-17.3-110.4,15.4-134.3,52.5c-33.5,52.2-36.6,134-3.5,187c26.3,42,92.9,70.8,132.8,31l-2.7,47l14.3,46l11.4,42l5-2
		c-5-18.2-8.5-37-14-55c-4.3-14-11.9-28.1-11.9-43c0-27.5,15.8-57,9.9-84c-2.7-12.2-11.4-24.1-20.2-32.8
		c-3.9-3.9-13.8-8.7-15.2-14.3c-1.2-4.7,3.8-12.7,4.2-17.9c0.7-9.2-3.2-25.7,0.4-33.8c5.7-13.2,24.5-1.3,30.5,4.9
		c22.7,23.5,16.5,63.4,15.2,92.9C319.6,444,313.6,475.8,315.1,508z M275,305.8c-4.8,2.4-8.3-1.9-13-2.4c-13.7-1.5-28.1-6-42-3.4
		c3.5,5.6,7.2,3.5,13,4.3c6.9,0.9,13.2,4.5,20,5.3c3.7,0.4,7.5-1.3,10.9,0.5c4.6,2.4,4.7,7.3,5.2,11.8c1,9.6,4,33.6-5.7,40
		c-3.4,2.2-9.5,0.9-13.5,1.5c-9.4,1.3-17.1,5-23,12.6c11.3,3.3,23.3-12.8,37-6c38.3,19,54.1,79.6,9,100.7
		c-41.5,19.4-93.2-15.7-111.8-51.7c-29.5-57.3-22.2-146.4,25.8-192c7.5-7.2,16.8-11.7,26-16.3c26.1-13.1,61-26,89-11.1
		c6,3.2,11.1,7.8,15,13.4C343,250,308,289.2,275,305.8z M575.8,229c-7.5-8.3-16.2-14-25.8-19.4c-29.3-16.6-75.7-33.9-107-12.8
		c-39.9,26.8-22.1,89.4,19,105.2v1c-26.2,6.1-35.5,33-37.8,57c-4.7,49.7,9,99.3,6.8,149c-0.8,18.8-6.3,38.1-11.7,56
		c-2.5,8.2-6.5,16.4-7.3,25l5,1c11-24.8,18.8-55.9,20-83c1.4-32.2-4.6-64-6-96c-1.3-29.6-7.5-69.4,15.2-92.9
		c6.1-6.4,24.6-18,30.6-4.9c3.5,7.5-0.4,24.2,0.2,32.8c0.4,5.4,5.5,14.1,4.3,18.9c-1.4,5.6-11.2,10.3-15.1,14.3
		c-8.7,8.7-17.5,20.6-20.2,32.8c-5.9,27,9.9,56.5,9.9,84c0,14.8-7.6,29.1-11.9,43c-5.6,18-9.1,36.8-14,55l5,2l11.4-42l14.3-46
		l-2.7-47c40.3,40.3,108.6,10.4,134-33C625.7,371.4,621.3,279.5,575.8,229z M589.7,421c-18.8,34.6-66.2,65.8-106.7,51.3
		c-49.5-17.7-34.6-82.7,5-102.3c13.7-6.8,25.7,9.2,37,6c-5.9-7.6-13.6-11.2-23-12.6c-4.1-0.6-10.9,1-14.2-2
		c-4.5-4.1-4.8-12.8-5.5-18.4c-0.9-7.6-2.6-28,4.9-32.6c4.9-3,14.9-1.6,20.9-3.4c3.4-1,23.8-3.3,21.2-6.4c-2.3-2.8-10-1.8-13.2-1.4
		c-8.5,1-18.7,2.8-27,4.4c-3.1,0.6-5.8,3.3-9,3.2c-5.2-0.2-11.8-6.9-16-9.7c-16-10.7-32.2-24.5-36.8-44
		c-7.3-31.2,16.1-57.8,46.8-59.9c34.4-2.4,81.5,18.8,102.1,45.9C613.2,287.7,618.8,367.3,589.7,421z"/>
</g>
</svg>
