<?xml version="1.0" encoding="utf-8"?>
<!-- Generator: Adobe Illustrator 27.3.1, SVG Export Plug-In . SVG Version: 6.00 Build 0)  -->
<svg version="1.1" id="Layer_1" xmlns="http://www.w3.org/2000/svg" xmlns:xlink="http://www.w3.org/1999/xlink" x="0px" y="0px"
	 viewBox="0 0 70 70" style="enable-background:new 0 0 70 70;" xml:space="preserve">
<style type="text/css">
	.st0{fill:#6BB1FC;stroke:#6BB1FC;stroke-miterlimit:10;}
</style>
<g>
	<path class="st0" d="M26.2,52.3c0.2,3.9,1.3,8.4,2.9,12l0.7-0.1c-0.1-1.2-0.7-2.4-1.1-3.6c-0.8-2.6-1.6-5.4-1.7-8.1
		c-0.3-7.2,1.7-14.4,1-21.6c-0.3-3.5-1.7-7.4-5.5-8.3c2.3-1.5,4.4-3.3,5.5-5.9c1.6-3.8-0.3-8.7-4.2-10.2C17.4,3.9,7.9,8.7,4.4,14
		c-4.8,7.6-5.3,19.4-0.5,27.1c3.8,6.1,13.4,10.2,19.2,4.5l-0.4,6.8l2.1,6.7l1.7,6.1l0.7-0.3c-0.7-2.6-1.2-5.4-2-8
		c-0.6-2-1.7-4.1-1.7-6.2c0-4,2.3-8.3,1.4-12.2c-0.4-1.8-1.7-3.5-2.9-4.7c-0.6-0.6-2-1.3-2.2-2.1c-0.2-0.7,0.6-1.8,0.6-2.6
		c0.1-1.3-0.5-3.7,0.1-4.9c0.8-1.9,3.5-0.2,4.4,0.7c3.3,3.4,2.4,9.2,2.2,13.4C26.8,43,26,47.6,26.2,52.3z M20.4,23
		c-0.7,0.3-1.2-0.3-1.9-0.3c-2-0.2-4.1-0.9-6.1-0.5c0.5,0.8,1,0.5,1.9,0.6c1,0.1,1.9,0.7,2.9,0.8c0.5,0.1,1.1-0.2,1.6,0.1
		c0.7,0.3,0.7,1.1,0.8,1.7c0.1,1.4,0.6,4.9-0.8,5.8c-0.5,0.3-1.4,0.1-2,0.2c-1.4,0.2-2.5,0.7-3.3,1.8c1.6,0.5,3.4-1.9,5.4-0.9
		c5.5,2.8,7.8,11.5,1.3,14.6c-6,2.8-13.5-2.3-16.2-7.5c-4.3-8.3-3.2-21.2,3.7-27.8c1.1-1,2.4-1.7,3.8-2.4c3.8-1.9,8.8-3.8,12.9-1.6
		c0.9,0.5,1.6,1.1,2.2,1.9C30.2,14.9,25.1,20.6,20.4,23z M63.9,11.9c-1.1-1.2-2.3-2-3.7-2.8c-4.2-2.4-11-4.9-15.5-1.9
		c-5.8,3.9-3.2,12.9,2.8,15.2v0.1c-3.8,0.9-5.1,4.8-5.5,8.3c-0.7,7.2,1.3,14.4,1,21.6c-0.1,2.7-0.9,5.5-1.7,8.1
		c-0.4,1.2-0.9,2.4-1.1,3.6l0.7,0.1c1.6-3.6,2.7-8.1,2.9-12C44,47.6,43.2,43,43,38.4c-0.2-4.3-1.1-10,2.2-13.4
		c0.9-0.9,3.6-2.6,4.4-0.7c0.5,1.1-0.1,3.5,0,4.7c0.1,0.8,0.8,2,0.6,2.7c-0.2,0.8-1.6,1.5-2.2,2.1c-1.3,1.3-2.5,3-2.9,4.7
		c-0.9,3.9,1.4,8.2,1.4,12.2c0,2.1-1.1,4.2-1.7,6.2c-0.8,2.6-1.3,5.3-2,8l0.7,0.3l1.7-6.1l2.1-6.7l-0.4-6.8
		c5.8,5.8,15.7,1.5,19.4-4.8C71.1,32.5,70.5,19.2,63.9,11.9z M65.9,39.7c-2.7,5-9.6,9.5-15.4,7.4c-7.2-2.6-5-12,0.7-14.8
		c2-1,3.7,1.3,5.4,0.9c-0.9-1.1-2-1.6-3.3-1.8c-0.6-0.1-1.6,0.1-2.1-0.3c-0.7-0.6-0.7-1.9-0.8-2.7c-0.1-1.1-0.4-4.1,0.7-4.7
		c0.7-0.4,2.2-0.2,3-0.5c0.5-0.1,3.4-0.5,3.1-0.9c-0.3-0.4-1.4-0.3-1.9-0.2c-1.2,0.1-2.7,0.4-3.9,0.6c-0.4,0.1-0.8,0.5-1.3,0.5
		c-0.8,0-1.7-1-2.3-1.4c-2.3-1.5-4.7-3.5-5.3-6.4c-1.1-4.5,2.3-8.4,6.8-8.7c5-0.3,11.8,2.7,14.8,6.6C69.3,20.4,70.1,31.9,65.9,39.7z
		"/>
</g>
</svg>
