<?xml version="1.0" encoding="utf-8"?>
<!-- Generator: Adobe Illustrator 27.3.1, SVG Export Plug-In . SVG Version: 6.00 Build 0)  -->
<svg version="1.1" id="Layer_1" xmlns="http://www.w3.org/2000/svg" xmlns:xlink="http://www.w3.org/1999/xlink" x="0px" y="0px"
	 viewBox="0 0 752 752" style="enable-background:new 0 0 752 752;" xml:space="preserve">
<style type="text/css">
	.st0{fill:#FFFFFF;}
</style>
<rect x="-13" y="-9.7" width="776" height="770"/>
<g transform="translate(0.000000,752.000000) scale(0.100000,-0.100000)">
	<path class="st0" d="M1983,5871c-163-47-295-182-338-346c-13-52-15-231-15-1435c0-1504-3-1431,58-1544c34-65,133-164,198-198
		c111-59,83-58,1099-58h930l25-47c123-234,361-418,628-488c443-117,916,102,1124,520c154,308,133,685-53,968
		c-90,138-228,267-362,337l-47,25v930c0,1016,1,988-58,1099c-36,68-135,167-200,200c-116,59-42,56-1547,55
		C2136,5889,2041,5887,1983,5871z M4881,5719c79-37,133-90,171-167l33-67l3-914l2-913l-22,6c-139,41-344,44-498,6
		c-95-23-259-98-335-154c-71-51-180-161-231-232c-61-85-129-233-154-334c-38-154-35-359,6-498l6-22l-913,2l-914,3l-67,33
		c-77,38-130,92-167,171l-26,56v1395v1395l26,55c47,101,126,169,228,196c36,10,352,12,1421,11l1375-2L4881,5719z M4860,3280
		c19-19,20-33,20-467v-447l208,207c184,183,212,207,240,207c40,0,72-30,72-67c0-23-50-78-283-310c-243-243-287-283-312-283
		s-69,39-307,278c-249,249-278,281-278,310c0,40,30,72,68,72c22,0,65-37,232-205c113-113,208-205,212-205c5,0,8,200,8,445
		c0,432,1,446,20,465c11,11,33,20,50,20S4849,3291,4860,3280z"/>
	<path class="st0" d="M3145,5410c-147-13-365-47-490-75c-210-48-252-66-300-129c-49-65-46-95,39-341c42-121,84-231,95-245
		c25-35,77-68,119-76c24-5,78,3,171,25c449,104,860,104,1308-1c88-20,144-28,166-24c41,8,93,41,119,77c11,14,53,124,95,245
		c61,178,74,227,70,262c-6,52-46,107-103,139c-67,38-371,104-614,133C3694,5415,3271,5421,3145,5410z M3665,5270
		c291-22,684-97,698-133c7-19-112-430-128-443c-19-14-65-6-65,12c0,7,9,52,20,99c26,112,25,129-6,154c-64,50-102,13-134-127l-23-102
		l-36,6c-20,4-38,8-40,11c-3,2,0,41,7,86c22,151,11,187-54,187c-51,0-70-32-85-150l-12-101l-41,3c-29,2-41,7-40,18c0,8,4,59,8,113
		c6,95,6,98-18,122c-45,45-101,25-117-42c-5-21-9-59-9-84c0-26-3-61-6-78c-6-28-10-31-45-31h-39v157c0,147-1,158-22,180
		c-28,30-63,29-93-2c-24-24-25-28-25-180v-155h-39h-39l-7,68c-11,128-17,154-36,173c-26,26-65,24-95-6c-23-23-24-28-17-107
		c12-152,14-143-31-143h-40l-16,102c-18,114-35,143-83,143c-67,0-78-40-53-193c7-43,10-80,7-82c-4-2-22-6-42-10l-35-7l-25,108
		c-20,90-28,110-51,127c-35,26-75,15-97-25c-14-24-13-35,7-120c12-51,22-100,22-109c0-20-44-31-64-15c-8,6-37,92-65,191
		s-55,194-60,211s-6,36-2,43c14,22,245,75,456,106C3187,5278,3433,5287,3665,5270z"/>
</g>
</svg>
