<?xml version="1.0" encoding="utf-8"?>
<!-- Generator: Adobe Illustrator 27.3.1, SVG Export Plug-In . SVG Version: 6.00 Build 0)  -->
<svg version="1.1" id="Layer_1" xmlns="http://www.w3.org/2000/svg" xmlns:xlink="http://www.w3.org/1999/xlink" x="0px" y="0px"
	 viewBox="0 0 70 70" style="enable-background:new 0 0 70 70;" xml:space="preserve">
<style type="text/css">
	.st0{fill:#FFFFFF;}
</style>
<g transform="translate(0.000000,752.000000) scale(0.100000,-0.100000)">
	<path class="st0" d="M59.3,7516.9c-27.4-7.9-49.6-30.6-56.8-58.1C0.3,7450,0,7420,0,7217.6c0-252.7-0.5-240.5,9.7-259.5
		c5.7-10.9,22.3-27.6,33.3-33.3c18.7-9.9,13.9-9.7,184.7-9.7H384l4.2-7.9c20.7-39.3,60.7-70.2,105.5-82
		c74.4-19.7,153.9,17.1,188.9,87.4c25.9,51.8,22.3,115.1-8.9,162.7c-15.1,23.2-38.3,44.9-60.8,56.6l-7.9,4.2v156.3
		c0,170.7,0.2,166-9.7,184.7c-6,11.4-22.7,28.1-33.6,33.6c-19.5,9.9-7.1,9.4-260,9.2C85,7519.9,69.1,7519.6,59.3,7516.9z
		 M546.3,7491.4c13.3-6.2,22.3-15.1,28.7-28.1l5.5-11.3l0.5-153.6l0.3-153.4l-3.7,1c-23.4,6.9-57.8,7.4-83.7,1
		c-16-3.9-43.5-16.5-56.3-25.9c-11.9-8.6-30.2-27.1-38.8-39c-10.3-14.3-21.7-39.2-25.9-56.1c-6.4-25.9-5.9-60.3,1-83.7l1-3.7
		l-153.4,0.3l-153.6,0.5l-11.3,5.5c-12.9,6.4-21.8,15.5-28.1,28.7l-4.4,9.4v234.4V7452l4.4,9.2c7.9,17,21.2,28.4,38.3,32.9
		c6,1.7,59.1,2,238.8,1.8l231.1-0.3L546.3,7491.4z M542.8,7081.5c3.2-3.2,3.4-5.5,3.4-78.5v-75.1l35,34.8
		c30.9,30.8,35.6,34.8,40.3,34.8c6.7,0,12.1-5,12.1-11.3c0-3.9-8.4-13.1-47.6-52.1c-40.8-40.8-48.2-47.6-52.4-47.6
		s-11.6,6.6-51.6,46.7c-41.8,41.8-46.7,47.2-46.7,52.1c0,6.7,5,12.1,11.4,12.1c3.7,0,10.9-6.2,39-34.4c19-19,35-34.4,35.6-34.4
		c0.8,0,1.3,33.6,1.3,74.8c0,72.6,0.2,74.9,3.4,78.1c1.8,1.8,5.5,3.4,8.4,3.4C537.2,7084.9,540.9,7083.4,542.8,7081.5z"/>
	<path class="st0" d="M254.6,7439.4c-24.7-2.2-61.3-7.9-82.3-12.6c-35.3-8.1-42.3-11.1-50.4-21.7c-8.2-10.9-7.7-16,6.6-57.3
		c7.1-20.3,14.1-38.8,16-41.2c4.2-5.9,12.9-11.4,20-12.8c4-0.8,13.1,0.5,28.7,4.2c75.4,17.5,144.5,17.5,219.8-0.2
		c14.8-3.4,24.2-4.7,27.9-4c6.9,1.3,15.6,6.9,20,12.9c1.8,2.4,8.9,20.8,16,41.2c10.3,29.9,12.4,38.1,11.8,44
		c-1,8.7-7.7,18-17.3,23.4c-11.3,6.4-62.3,17.5-103.2,22.3C346.8,7440.3,275.8,7441.3,254.6,7439.4z M342,7415.9
		c48.9-3.7,114.9-16.3,117.3-22.3c1.2-3.2-18.8-72.3-21.5-74.4c-3.2-2.4-10.9-1-10.9,2c0,1.2,1.5,8.7,3.4,16.6
		c4.4,18.8,4.2,21.7-1,25.9c-10.8,8.4-17.1,2.2-22.5-21.3l-3.9-17.1l-6,1c-3.4,0.7-6.4,1.3-6.7,1.8c-0.5,0.3,0,6.9,1.2,14.5
		c3.7,25.4,1.8,31.4-9.1,31.4c-8.6,0-11.8-5.4-14.3-25.2l-2-17l-6.9,0.5c-4.9,0.3-6.9,1.2-6.7,3c0,1.3,0.7,9.9,1.3,19
		c1,16,1,16.5-3,20.5c-7.6,7.6-17,4.2-19.7-7.1c-0.8-3.5-1.5-9.9-1.5-14.1c0-4.4-0.5-10.3-1-13.1c-1-4.7-1.7-5.2-7.6-5.2h-6.6v26.4
		c0,24.7-0.2,26.6-3.7,30.2c-4.7,5-10.6,4.9-15.6-0.3c-4-4-4.2-4.7-4.2-30.2v-26h-6.6h-6.6l-1.2,11.4c-1.8,21.5-2.9,25.9-6,29.1
		c-4.4,4.4-10.9,4-16-1c-3.9-3.9-4-4.7-2.9-18c2-25.5,2.4-24-5.2-24h-6.7l-2.7,17.1c-3,19.2-5.9,24-13.9,24
		c-11.3,0-13.1-6.7-8.9-32.4c1.2-7.2,1.7-13.4,1.2-13.8c-0.7-0.3-3.7-1-7.1-1.7l-5.9-1.2l-4.2,18.1c-3.4,15.1-4.7,18.5-8.6,21.3
		c-5.9,4.4-12.6,2.5-16.3-4.2c-2.4-4-2.2-5.9,1.2-20.2c2-8.6,3.7-16.8,3.7-18.3c0-3.4-7.4-5.2-10.8-2.5c-1.3,1-6.2,15.5-10.9,32.1
		c-4.7,16.6-9.2,32.6-10.1,35.5c-0.8,2.9-1,6-0.3,7.2c2.4,3.7,41.2,12.6,76.6,17.8C261.6,7417.3,303,7418.8,342,7415.9z"/>
</g>
</svg>
